<svg xmlns="http://www.w3.org/2000/svg" viewBox="0 0 48.92 25.01"><defs><style>.cls-1{fill:#fff;}.cls-2{fill:#e5e9ea;}.cls-3{fill:#ebeded;}.cls-4{font-size:4.33px;font-family:ShadowsIntoLight, Shadows Into Light;}</style></defs><title>talebob</title><g id="Lag_2" data-name="Lag 2"><g id="Lag_1-2" data-name="Lag 1"><path class="cls-1" d="M1.08,24.51a.62.62,0,0,1-.56-.22.36.36,0,0,1,0-.27,1.48,1.48,0,0,1,.77-.73A1.76,1.76,0,0,1,2,23.12c.28,0,.5.09.56.23a.36.36,0,0,1,0,.27,1.43,1.43,0,0,1-.77.72A1.61,1.61,0,0,1,1.08,24.51Z"/><path class="cls-2" d="M2,23.62a1.15,1.15,0,0,1-.39.27,1.17,1.17,0,0,1-.47.12,1.72,1.72,0,0,1,.39-.27A1.42,1.42,0,0,1,2,23.62m0-1a2.21,2.21,0,0,0-.93.22c-.82.37-1.27,1.12-1,1.66a1.05,1.05,0,0,0,1,.51A2.31,2.31,0,0,0,2,24.8c.82-.38,1.28-1.12,1-1.67a1,1,0,0,0-1-.51Z"/><path class="cls-1" d="M5.75,21.7a1.36,1.36,0,0,1-1.22-.6,1.23,1.23,0,0,1-.1-.92,2.16,2.16,0,0,1,1-1.25,2.32,2.32,0,0,1,1.15-.32,1.36,1.36,0,0,1,1.22.6,1.24,1.24,0,0,1,.1.92,2.17,2.17,0,0,1-1,1.26A2.39,2.39,0,0,1,5.75,21.7Z"/><path class="cls-2" d="M6.61,19.11h0a.89.89,0,0,1,.79.35.69.69,0,0,1,0,.54,1.61,1.61,0,0,1-.79.95,1.78,1.78,0,0,1-.9.25A.89.89,0,0,1,5,20.85a.74.74,0,0,1,0-.54,1.61,1.61,0,0,1,.79-.95,1.88,1.88,0,0,1,.9-.25m0-1a2.84,2.84,0,0,0-1.4.38A2.18,2.18,0,0,0,4.1,21.35a1.83,1.83,0,0,0,1.65.85,2.84,2.84,0,0,0,1.4-.38A2.18,2.18,0,0,0,8.26,19a1.85,1.85,0,0,0-1.65-.85Z"/><path class="cls-1" d="M11.94,19.29a1.79,1.79,0,0,1-1.67-.88,1.42,1.42,0,0,1,0-1.13,2.82,2.82,0,0,1,1.46-1.49A3.14,3.14,0,0,1,13,15.5a1.79,1.79,0,0,1,1.67.88,1.42,1.42,0,0,1,0,1.13A2.82,2.82,0,0,1,13.23,19,3.14,3.14,0,0,1,11.94,19.29Z"/><path class="cls-2" d="M13,16h0a1.3,1.3,0,0,1,1.22.59,1,1,0,0,1,0,.75A2.29,2.29,0,0,1,13,18.54a2.62,2.62,0,0,1-1.08.25,1.28,1.28,0,0,1-1.21-.59,1,1,0,0,1,0-.75,2.23,2.23,0,0,1,1.2-1.2A2.62,2.62,0,0,1,13,16m0-1a3.62,3.62,0,0,0-1.5.34c-1.46.68-2.22,2.15-1.69,3.28a2.25,2.25,0,0,0,2.12,1.17,3.59,3.59,0,0,0,1.5-.34c1.46-.68,2.22-2.15,1.69-3.28A2.25,2.25,0,0,0,13,15Z"/><path class="cls-1" d="M32.26,20.09q-.57,0-1.14,0a24,24,0,0,1-11.94-3.4c-3.06-2-4.69-4.46-4.59-7C14.79,4.51,21.89.5,30.75.5l1.14,0A24.12,24.12,0,0,1,43.83,3.93c3.06,2,4.69,4.46,4.59,7C48.22,16.07,41.12,20.09,32.26,20.09Z"/><path class="cls-3" d="M30.75,0V1l1.12,0A23.66,23.66,0,0,1,43.56,4.35c2.91,1.87,4.45,4.21,4.36,6.58-.19,4.85-7.07,8.66-15.66,8.66l-1.12,0a23.56,23.56,0,0,1-11.69-3.32C16.54,14.37,15,12,15.09,9.66,15.28,4.8,22.16,1,30.75,1V0m0,0C21.66,0,14.31,4.17,14.09,9.62c-.22,5.67,7.39,10.57,17,10.94l1.16,0c9.09,0,16.45-4.18,16.66-9.62C49.14,5.3,41.53.4,31.91,0L30.75,0Z"/><text class="cls-4" transform="translate(21.47 7.05) scale(1.01 1)">Hvad sker<tspan x="0" y="5.19">der...!!??</tspan></text></g></g></svg>
