<svg xmlns="http://www.w3.org/2000/svg" viewBox="0 0 23.33 35.85"><defs><style>.cls-1{fill:#dddad3;}.cls-2{fill:#020202;}.cls-3{fill:#e2eef7;stroke:#020202;}.cls-22,.cls-3{stroke-miterlimit:10;}.cls-4{fill:#050505;}.cls-10,.cls-11,.cls-12,.cls-13,.cls-15,.cls-16,.cls-19,.cls-20,.cls-21,.cls-5,.cls-6,.cls-7,.cls-8{isolation:isolate;}.cls-6{font-size:0.98px;}.cls-10,.cls-11,.cls-12,.cls-13,.cls-15,.cls-16,.cls-19,.cls-20,.cls-21,.cls-6,.cls-7,.cls-8{font-family:ArialMT, Arial;}.cls-15,.cls-16,.cls-19,.cls-20,.cls-21,.cls-7,.cls-8{font-size:0.59px;}.cls-8{letter-spacing:-0.05em;}.cls-9{fill:#d4d6d8;}.cls-10,.cls-11,.cls-12,.cls-13{font-size:0.79px;}.cls-10{letter-spacing:0.01em;}.cls-12{letter-spacing:0.01em;}.cls-13{letter-spacing:-0.01em;}.cls-14{fill:#acb9c1;}.cls-15{letter-spacing:-0.02em;}.cls-16{letter-spacing:-0.05em;}.cls-17{fill:#3ba9ed;}.cls-18{fill:#5fea3d;}.cls-19{letter-spacing:0.01em;}.cls-20{letter-spacing:-0.01em;}.cls-21{letter-spacing:0.02em;}.cls-22{fill:#fff;stroke:#eae9e5;}</style></defs><title>telefon bord</title><g id="Lag_2" data-name="Lag 2"><g id="Lag_1-2" data-name="Lag 1"><ellipse cx="5" cy="3.93" rx="0.3" ry="0.28" transform="translate(-0.87 1.47) rotate(-15.41)"/><rect x="6.06" y="3.16" width="2.73" height="0.27" rx="0.14" ry="0.14" transform="translate(-0.61 2.09) rotate(-15.41)"/><path class="cls-1" d="M1.93,3,12.37.1a2.51,2.51,0,0,1,3.14,1.66l7.74,28.09a2.51,2.51,0,0,1-1.84,3L11,35.76A2.52,2.52,0,0,1,7.83,34.1L.08,6A2.51,2.51,0,0,1,1.93,3Z"/><path d="M2.89,6.78a.34.34,0,0,1,.4-.11"/><path class="cls-2" d="M3,6.86a.22.22,0,0,1,.27-.08"/><path class="cls-2" d="M3.07,6.91,3.16,7l.06-.11a.11.11,0,0,0-.14,0Z"/><path d="M3.29,6.66a.39.39,0,0,1,.47-.13"/><path class="cls-2" d="M3.39,6.74a.25.25,0,0,1,.32-.08"/><path class="cls-2" d="M3.66,6.77a.12.12,0,0,0-.16,0v0l.11.09"/><path d="M12.73,6.39a.34.34,0,0,1,.4-.11"/><path class="cls-2" d="M12.81,6.46a.24.24,0,0,1,.28-.07"/><path class="cls-2" d="M13.05,6.48a.12.12,0,0,0-.14,0h0L13,6.6"/><rect class="cls-3" x="4.32" y="4.45" width="14.18" height="25.21" transform="translate(-4.12 3.64) rotate(-15.41)"/><ellipse class="cls-4" cx="1.85" cy="7.23" rx="0.09" ry="0.1" transform="translate(-1.85 0.75) rotate(-15.41)"/><ellipse class="cls-4" cx="2.86" cy="6.95" rx="0.09" ry="0.1" transform="translate(-1.74 1.01) rotate(-15.41)"/><ellipse class="cls-4" cx="2.62" cy="7.02" rx="0.09" ry="0.1" transform="translate(-1.77 0.95) rotate(-15.41)"/><ellipse class="cls-4" cx="2.35" cy="7.09" rx="0.09" ry="0.1" transform="translate(-1.8 0.88) rotate(-15.41)"/><ellipse class="cls-4" cx="2.11" cy="7.16" rx="0.09" ry="0.1" transform="translate(-1.83 0.82) rotate(-15.41)"/><rect class="cls-4" x="13.62" y="3.85" width="0.93" height="0.42" rx="0.19" ry="0.19" transform="translate(-0.57 3.89) rotate(-15.41)"/><path class="cls-4" d="M14.55,3.84h0a.05.05,0,0,1,0,0l0,.08s0,0,0,0h0s0,0,0,0l0-.08A.05.05,0,0,1,14.55,3.84Z"/><g class="cls-5"><text class="cls-6" transform="translate(5.48 6.79) rotate(-15.41) scale(0.68 1)"><tspan xml:space="preserve">                    08:50       100%</tspan></text></g><path class="cls-2" d="M6.29,3.44,8.62,2.8a.08.08,0,0,1,.1.05l0,.1a.1.1,0,0,1-.06.1l-2.33.64a.08.08,0,0,1-.1-.06l0-.09A.09.09,0,0,1,6.29,3.44Z"/><ellipse class="cls-2" cx="5.01" cy="3.93" rx="0.28" ry="0.27" transform="translate(-0.86 1.47) rotate(-15.41)"/><g class="cls-5"><text class="cls-7" transform="translate(3.42 10.58) rotate(-15.41) scale(0.96 1)"><tspan xml:space="preserve">      </tspan></text><text class="cls-7" transform="translate(4.11 10.39) rotate(-15.41) scale(0.96 1)">B</text><text class="cls-7" transform="translate(4.41 10.31) rotate(-15.41) scale(0.96 1)"><tspan xml:space="preserve">eskeder               </tspan></text><text class="cls-8" transform="translate(7.94 9.33) rotate(-15.41) scale(0.96 1)">A</text><text class="cls-7" transform="translate(8.28 9.24) rotate(-15.41) scale(0.96 1)"><tspan xml:space="preserve">ktiv(69)                   Grupper</tspan></text></g><path class="cls-9" d="M3.4,8.31,12.88,5.7a.61.61,0,0,1,.73.45h0a.62.62,0,0,1-.4.77L3.73,9.53A.62.62,0,0,1,3,9.08H3A.62.62,0,0,1,3.4,8.31Z"/><g class="cls-5"><text class="cls-10" transform="translate(3.9 9.04) rotate(-15.41) scale(1.09 1)">S</text><text class="cls-11" transform="translate(4.31 8.92) rotate(-15.41) scale(1.09 1)">øg</text></g><g class="cls-5"><text class="cls-12" transform="translate(3.96 12.55) rotate(-15.41) scale(0.96 1)">Sene</text><text class="cls-13" transform="translate(5.74 12.06) rotate(-15.41) scale(0.96 1)">t</text><text class="cls-11" transform="translate(5.97 11.99) rotate(-15.41) scale(0.96 1)"><tspan xml:space="preserve">e                       opret gruppe  </tspan></text><text class="cls-5"></text></g><text class="cls-11" transform="translate(14.55 13.63) rotate(-15.41) scale(1.09 1)">08:27</text><text class="cls-11" transform="translate(14 11.88) rotate(-15.41) scale(1.09 1)">08:48</text><ellipse class="cls-14" cx="13.3" cy="14.92" rx="0.42" ry="0.38" transform="translate(-3.49 4.07) rotate(-15.41)"/><ellipse class="cls-14" cx="16.06" cy="14.16" rx="0.42" ry="0.38" transform="translate(-3.19 4.78) rotate(-15.41)"/><ellipse class="cls-14" cx="15.12" cy="14.42" rx="0.42" ry="0.38" transform="translate(-3.29 4.54) rotate(-15.41)"/><ellipse class="cls-14" cx="14.22" cy="14.67" rx="0.42" ry="0.38" transform="translate(-3.39 4.31) rotate(-15.41)"/><text class="cls-7" transform="translate(15.92 14.38) rotate(-15.41) scale(1.09 1)">K</text><text class="cls-15" transform="translate(15.02 14.64) rotate(-15.41) scale(1.09 1)">P</text><text class="cls-7" transform="translate(14.01 14.89) rotate(-15.41) scale(1.09 1)">M</text><text class="cls-16" transform="translate(13.13 15.17) rotate(-15.41) scale(1.09 1)">A</text><ellipse class="cls-17" cx="5.91" cy="16.11" rx="0.67" ry="0.61" transform="translate(-4.07 2.15) rotate(-15.41)"/><text class="cls-7" transform="translate(6.92 15.97) rotate(-15.41) scale(1.09 1)">7.C $$$</text><ellipse class="cls-18" cx="5.35" cy="14.09" rx="0.67" ry="0.61" transform="translate(-3.55 1.93) rotate(-15.41)"/><g class="cls-5"><text class="cls-7" transform="translate(6.29 13.98) rotate(-15.41) scale(1.09 1)">Hen</text><text class="cls-7" transform="translate(7.35 13.68) rotate(-15.41) scale(1.09 1)">r</text><text class="cls-7" transform="translate(7.56 13.63) rotate(-15.41) scale(1.09 1)">ik</text></g><g class="cls-5"><text class="cls-7" transform="translate(6 17.07) rotate(-15.41) scale(1.09 1)"><tspan xml:space="preserve">....  Har delt et billede</tspan></text></g><text class="cls-7" transform="translate(16.68 14.3) rotate(-15.41) scale(1.09 1)">...</text><g class="cls-5"><text class="cls-19" transform="translate(6.24 14.78) rotate(-15.41) scale(1.09 1)">H</text><text class="cls-7" transform="translate(6.65 14.66) rotate(-15.41) scale(1.09 1)">v</text><text class="cls-7" transform="translate(6.94 14.58) rotate(-15.41) scale(1.09 1)">ad du </text><text class="cls-20" transform="translate(8.55 14.14) rotate(-15.41) scale(1.09 1)">h</text><text class="cls-7" transform="translate(8.89 14.05) rotate(-15.41) scale(1.09 1)">v</text><text class="cls-7" transform="translate(9.19 13.96) rotate(-15.41) scale(1.09 1)">ad der sker i </text><text class="cls-21" transform="translate(12.43 13.07) rotate(-15.41) scale(1.09 1)">k</text><text class="cls-7" transform="translate(12.74 12.99) rotate(-15.41) scale(1.09 1)">las</text><text class="cls-20" transform="translate(13.43 12.79) rotate(-15.41) scale(1.09 1)">s</text><text class="cls-7" transform="translate(13.67 12.73) rotate(-15.41) scale(1.09 1)">...</text></g><ellipse class="cls-22" cx="15.37" cy="31.79" rx="1.32" ry="1.21" transform="translate(-7.9 5.23) rotate(-15.41)"/></g></g></svg>