<svg xmlns="http://www.w3.org/2000/svg" viewBox="0 0 222.63 372.4"><defs><style>.cls-1{fill:#202532;}.cls-1,.cls-2,.cls-3{stroke:#020202;stroke-miterlimit:10;}.cls-2{fill:#a5a49f;}.cls-3{fill:#050505;}</style></defs><title>stol1</title><g id="Lag_2" data-name="Lag 2"><g id="Lag_22" data-name="Lag 22"><path class="cls-1" d="M34.67,18.74q78.19-28.89,156.4-12c1.89,50.88-9.85,100.75-31.28,149.91-.57-9.46,9.45-16.4,18.05-4.36-3.59,29.43-32.69,35.85-60.76,42.76a153.38,153.38,0,0,1-22.52-.16c-1-.08-1.89-.17-2.83-.27-19.46-2.09-36.94-8.62-51.65-21.39-3.3-11.55,16.36-43.3,30.68-7.85C46.64,116.85,33,68,34.67,18.74Z"/><polygon class="cls-2" points="101.19 285.27 114.71 285.27 114.71 216.65 118.89 195.03 96.37 194.87 100.71 216.65 101.19 285.27"/><polygon class="cls-2" points="101.19 285.27 19.64 280.21 19.64 285.27 80.16 297.12 101.19 285.27"/><polygon class="cls-2" points="136.12 252.01 114.71 273.55 114.71 285.27 118.75 280.21 134.33 260.67 136.12 252.01"/><polygon class="cls-2" points="207.93 282.7 207.93 293.2 125.42 300.32 114.71 285.27 118.75 280.21 207.93 282.7"/><polygon class="cls-2" points="149.05 333.54 150.45 346.08 143.44 346.08 106.29 307.44 106.29 285.27 113.53 285.27 149.05 333.54"/><polygon class="cls-2" points="23.82 341.68 19.64 346.08 14.7 343.88 14.7 330.83 101.19 285.27 106.29 285.27 106.29 307.44 96.37 308.46 23.82 341.68"/><ellipse class="cls-3" cx="149.67" cy="355.98" rx="14.43" ry="15.92"/><ellipse class="cls-3" cx="138.1" cy="263.37" rx="6.64" ry="15.23"/><ellipse class="cls-3" cx="19.99" cy="347.27" rx="16.8" ry="13.6"/><ellipse class="cls-3" cx="207.93" cy="300.32" rx="14.2" ry="12.41"/><ellipse class="cls-3" cx="14.7" cy="292.31" rx="14.2" ry="12.41"/></g></g></svg>