<svg xmlns="http://www.w3.org/2000/svg" viewBox="0 0 180.93 388.99"><defs><style>.cls-1{fill:#c1bf6b;}.cls-2{fill:#e9f4f3;stroke-width:0.01px;}.cls-10,.cls-2,.cls-4,.cls-5,.cls-7,.cls-8{stroke:#000;}.cls-10,.cls-2,.cls-4,.cls-5,.cls-8{stroke-miterlimit:10;}.cls-3{fill:#e5bc9a;}.cls-4{fill:#628899;}.cls-6{fill:#7c7c7b;}.cls-10,.cls-7{fill:none;}.cls-7{stroke-linecap:round;stroke-linejoin:round;stroke-width:0.5px;}.cls-8{fill:#d2d1ce;}.cls-9{fill:#202531;}.cls-11{fill:#050505;}</style></defs><title>brianside</title><g id="Lag_2" data-name="Lag 2"><g id="Layer_1" data-name="Layer 1"><path class="cls-1" d="M76,18a17.41,17.41,0,0,0-11.69,3l8-5s-9,2-12,4c0,0,10-5,6-5,0,0-3-2-10,1,0,0,5.77-7.92,25.38-9S76,18,76,18Z"/><ellipse class="cls-2" cx="68.81" cy="29.49" rx="1.5" ry="3.5"/><path class="cls-3" d="M72.7,15.62c-4,2.17-4.92,9.84-4.92,9.84l1,2.46a5.19,5.19,0,0,1-1,4.93S62.87,62.38,72.7,62.38c0,0,.49.61,4.42.61,0,0,4.92-39.37,0-46.75C77.12,16.24,76.14,13.77,72.7,15.62Z"/><path d="M59.37,128.36a.15.15,0,0,0,0-.3.15.15,0,0,0,0,.3Z"/><path class="cls-4" d="M55.22,225.24S39.81,241.51,43.66,325.57c0,0,22.15-5.42,27.93-2.71,0,0,9.22-58.37,10.22-56.37,0,0,10.36-7,20,2,0,0-3.25,40.81-.37,53.46,0,0,15.41-6.32,31.79-.9,0,0,6.74-84.06,2.89-95.81C136.12,225.24,102.41,219.81,55.22,225.24Z"/><ellipse class="cls-5" cx="116.81" cy="325.12" rx="18" ry="5.88"/><ellipse class="cls-5" cx="58.31" cy="326.12" rx="14.5" ry="4.97"/><path class="cls-6" d="M37.79,162.51c-.2.29-2.14,2.93-5,2a49.12,49.12,0,0,0,10.5,7.5s1.5-9.5,0-15Zm6,76a89.74,89.74,0,0,1-5-29s-33-19-35-26c0,0-8-2,0-25,0,0,2-14,21-52,0,0,5-14,25-21,0,0,9-3,11-7,0,0,8-6,6-9,0,0,0-13,5-31,0,0-2-21,2.5-25.5,0,0,13-29,32.5.5,0,0,13,24,9,44a14.29,14.29,0,0,1-1,11s0,7,8,13c0,0,27.88,15.64,30,22,0,0,15,26,20,41,0,0,11,23,7,38,0,0,4,3-15,18l-21,11s-1,13,0,17c0,0-4,12-6,12C133.81,240.49,108.31,254,43.81,238.49ZM144.31,176c.5-5.5-6.5-15.5-6.5-15.5,0,4-2,23-2,23h5C137.81,182.49,144.31,176,144.31,176Z"/><path class="cls-7" d="M74.31,13s13-29,32.5.5c0,0,13,24,9,44a14.29,14.29,0,0,1-1,11s0,7,8,13c0,0,27.88,15.64,30,22,0,0,15,26,20,41,0,0,11,23,7,38,0,0,4,3-15,18l-21,11s-1,13,0,17c0,0-4,12-6,12-4,0-29.5,13.5-94-2a89.74,89.74,0,0,1-5-29s-33-19-35-26c0,0-8-2,0-25,0,0,2-14,21-52,0,0,5-14,25-21,0,0,9-3,11-7,0,0,8-6,6-9,0,0,0-13,5-31C71.81,38.49,69.81,17.49,74.31,13Z"/><path class="cls-7" d="M137.81,160.49s7,10,6.5,15.5c0,0-6.5,6.5-3.5,7.5h-5S137.81,164.49,137.81,160.49Z"/><path class="cls-7" d="M37.71,162.59l0,0,.06-.06"/><path class="cls-7" d="M37.79,162.51c-.2.29-2.14,2.93-5,2a49.12,49.12,0,0,0,10.5,7.5s1.5-9.5,0-15Z"/><path d="M121.64,80.83c-8-4.21-18.68-4.79-27.59-5.44-9.16-.68-20.08-2.26-29.09,0a.15.15,0,0,0,.08.29c8.39-2.07,18.63-.64,27.15-.09,9.35.6,20.83,1.08,29.3,5.52.17.09.32-.16.15-.25Z"/><path d="M94.16,2C90,13.51,90.32,25.62,90.24,37.73c0,6.2-.65,12.33-.93,18.52-.17,3.78-.59,8.11,2.29,11a.15.15,0,0,0,.22-.21c-3.92-3.89-2.15-11.93-1.76-16.91.41-5.31.48-10.61.49-15.93,0-10.9.14-21.77,3.9-32.14.07-.18-.22-.26-.29-.08Z"/><path d="M117.88,75.43c-5.45-8.16-15.21-9.25-24.28-9.25-5.13,0-11-.57-16,.95s-7.46,6-12,8.07c-.18.08,0,.34.15.26,3.53-1.59,5.61-4.95,9-6.79,4.66-2.54,10.17-2.08,15.29-2.15,10-.13,21.46-.18,27.64,9.06.11.16.37,0,.26-.15Z"/><path d="M115.06,72.05c1-3.79-2.45-6.86-5.71-8.12-4.94-1.91-10.73-4.48-15.58-1.16-.16.11,0,.37.15.26,3.8-2.61,7.81-1.46,11.74-.05,3.63,1.3,10.63,3.22,9.12,9,0,.19.24.27.28.08Z"/><path d="M72.62,68.22c-1.75-3.35-1-5.36-.13-8.76a8.05,8.05,0,0,0,.3-3.63C72.19,52,69.65,49,70,45c0-.19-.28-.19-.3,0-.38,4.33,3.28,7.9,2.92,12-.19,2.11-1.65,3.89-1.89,6s.75,3.69,1.63,5.38c.09.17.35,0,.26-.15Z"/><path d="M113.31,35.09a96.26,96.26,0,0,0-2,13.29c-.22,5.08,1.54,9.94-.11,14.93-.07.18.22.26.29.08,1.24-3.77.62-7.12.26-11-.55-5.82.82-11.55,1.87-17.24,0-.19-.26-.27-.29-.08Z"/><path d="M100,51.27a122.36,122.36,0,0,0,11.7-23.5c.07-.18-.22-.26-.29-.08A121.37,121.37,0,0,1,99.71,51.12c-.1.16.16.31.26.15Z"/><path d="M87.43,49.78c-5.57.07-6.76-7.25-8.55-11.21-.83-1.83-1.88-3.21-4-3.16a.15.15,0,0,0,0,.3c4.2-.1,5.37,7.85,7,10.69,1.22,2.18,3,3.71,5.58,3.68.19,0,.19-.31,0-.3Z"/><path d="M144.56,176.88c-.49,2.66,1.52,3.78,3.74,4.7,5.5,2.25,11.37,3.34,15.95,7.4.14.13.35-.08.21-.21a24.27,24.27,0,0,0-7.32-4.36c-3-1.17-13.12-3-12.29-7.45,0-.19-.25-.27-.29-.08Z"/><path d="M153.34,200.12a30.59,30.59,0,0,0-5.58,0,11,11,0,0,1-3.95-.33c-3-1-3.25-3.35-3.8-6-.72-3.47-3-6.36-3.56-9.82,0-.19-.32-.11-.29.08.35,2.34,1.55,4,2.53,6,1.15,2.45.51,5.53,2,7.81,2.59,4.11,8.76,2,12.61,2.53.19,0,.27-.27.08-.29Z"/><path d="M140.75,197.58c-.58,1.84.12,3.3,1.19,4.83,2.11,3,2.43,5.56,2.07,9.14,0,.2.28.2.3,0,.22-2.18.45-4.48-.41-6.56-1-2.49-3.83-4.26-2.86-7.33.06-.18-.23-.26-.29-.08Z"/><path d="M143.59,212.24c-4.22-4.79-3.77-10.82-4.47-16.75-.48-4.1-3.45-8.52-3.14-12.51,0-.2-.28-.19-.3,0-.16,2.09.5,3.61,1.25,5.51,1.59,4,1.95,7.84,2.3,12.1s1.17,8.48,4.14,11.87c.13.14.34-.07.22-.22Z"/><path d="M138.45,161c1.1-5,5-8.66,6.22-13.56a12.87,12.87,0,0,0,.24-4.25c-.38-5.56,0-9,2.52-14.09.09-.17-.17-.32-.26-.15a26.47,26.47,0,0,0-2.95,7.9c-.38,2.73.57,5.23.5,8-.13,6-5.3,10.4-6.56,16.12,0,.19.25.27.29.08Z"/><path d="M39.35,111.17c-1.79,15.48,5.14,30.35,3.81,45.82,0,.19.28.19.3,0,1.33-15.47-5.6-30.34-3.81-45.82,0-.19-.28-.19-.3,0Z"/><path d="M43.46,157c0-7.36.92-16.12,3.13-23.2.67-2.15,2.8-3.89,2.65-6.22s-2.42-3.66-2.21-6.43c0-.19-.28-.19-.3,0-.15,1.91.79,2.63,1.37,4.36,1.21,3.61-1.64,7-2.29,10.58C44.53,143,43.21,150,43.16,157c0,.2.29.2.3,0Z"/><path d="M38.59,209.81c.5-6.65,1-13.3,1.49-19.95a54,54,0,0,1,1.68-11.17c.75-2.5,1.64-4.74,1.71-7.38a.15.15,0,0,0-.3,0c-.09,3.54-1.67,6.64-2.38,10.05a65.7,65.7,0,0,0-1,8.5c-.52,6.65-1,13.3-1.49,19.95,0,.2.29.2.3,0Z"/><path d="M29.84,181.14c-.74-3,1.92-3.66,2.41-6.12s.14-5.33,0-7.81c0-.19-.31-.19-.3,0,.11,1.51.17,3,.16,4.53a9.63,9.63,0,0,1-1.8,5.83,4.1,4.1,0,0,0-.73,3.65c0,.19.33.11.29-.08Z"/><path d="M39.08,209.5q1.59-19,4.61-37.87c0-.19-.26-.27-.29-.08q-3,18.88-4.62,37.95c0,.19.29.19.3,0Z"/><path d="M138.46,161c.49-8.27,1.58-17.37-2.27-25-.09-.17-.35,0-.26.15,3.76,7.41,2.71,16.71,2.23,24.82,0,.19.28.19.3,0Z"/><path d="M79.65,81.87a183.63,183.63,0,0,1,27,1.81c.19,0,.27-.27.08-.29a184.81,184.81,0,0,0-27.1-1.82.15.15,0,0,0,0,.3Z"/><path class="cls-8" d="M100.31,265s-5,10-3,41v26h-11V280l-2-15Z"/><path class="cls-9" d="M33.31,135s52-22,113-8c0,0,2,57-23,113,0,0,0-14,11-8,0,0,8,5-4,19,0,0-29,27-70,12,0,0-19-6-23-12,0,0-1-17,12-17,0,0,9,3,11,12,0,0-25-50-27-92Z"/><path class="cls-8" d="M97.81,323.49v9h-11l-58-3s5,1,6,5l36,7-45,25v3s10-2,13,3l45-22h7l24,26a7.91,7.91,0,0,1,7-2v-5l-17-25,49-4s5-6,10-5v-4l-64-1Z"/><line class="cls-10" x1="89.37" y1="332.49" x2="88.4" y2="350.49"/><line class="cls-10" x1="97.81" y1="332.49" x2="104.81" y2="344.49"/><ellipse class="cls-5" cx="26.31" cy="336.99" rx="8.5" ry="7.5"/><circle class="cls-5" cx="28.81" cy="377.49" r="9"/><circle class="cls-5" cx="121.31" cy="380.99" r="7.5"/><circle class="cls-5" cx="160.81" cy="341.49" r="7"/><path d="M104,319.92c7-4.59,17-2.92,24.91-2.67.19,0,.19-.29,0-.3-8.07-.25-17.93-2-25.06,2.71-.16.11,0,.37.15.26Z"/><path d="M131.36,315.66A29,29,0,0,0,116.43,313c-.19,0-.19.31,0,.3a28.81,28.81,0,0,1,14.78,2.63c.17.08.33-.18.15-.26Z"/><path d="M111,266.35c2.89-.64,5.44-2.09,8.43-2.5a22.58,22.58,0,0,1,10,.93.15.15,0,0,0,.08-.29,23.17,23.17,0,0,0-9.43-1c-3.28.35-6,1.91-9.12,2.61-.19,0-.11.33.08.29Z"/><path d="M120.19,266.06a34.94,34.94,0,0,0-7.08.24,65.62,65.62,0,0,1-6.67,1.06c-.19,0-.19.31,0,.3a42.41,42.41,0,0,0,5.71-.91,34.91,34.91,0,0,1,8-.39c.2,0,.2-.29,0-.3Z"/><path d="M74.48,271.24c-6.47-2.75-14-.11-20-4-.17-.11-.32.15-.15.26,6.1,3.92,13.56,1.27,20,4,.18.08.33-.18.15-.25Z"/><path d="M50.1,264.86A39.64,39.64,0,0,1,67,267.91c.18.07.25-.22.08-.29a39.36,39.36,0,0,0-16.95-3.06.15.15,0,1,0,0,.3Z"/><path d="M47.16,320.58a24.82,24.82,0,0,1,20.15-1.65c.18.06.26-.23.08-.29A25.19,25.19,0,0,0,47,320.32c-.17.09,0,.35.16.26Z"/><circle class="cls-11" cx="67.81" cy="29.49" r="0.5"/></g></g></svg>
