<svg xmlns="http://www.w3.org/2000/svg" viewBox="0 0 173.41 185.94"><defs><style>.cls-1{fill:#f7d5bf;}.cls-1,.cls-4{stroke:#020202;}.cls-1,.cls-21,.cls-4{stroke-miterlimit:10;}.cls-2{fill:#dddad3;}.cls-3{fill:#020202;}.cls-4{fill:#e2eef7;}.cls-5{fill:#050505;}.cls-11,.cls-12,.cls-13,.cls-15,.cls-18,.cls-19,.cls-20,.cls-6,.cls-7,.cls-8,.cls-9{isolation:isolate;}.cls-7{font-size:5.31px;}.cls-11,.cls-12,.cls-13,.cls-15,.cls-18,.cls-19,.cls-20,.cls-7,.cls-8,.cls-9{font-family:ArialMT, Arial;}.cls-15,.cls-18,.cls-19,.cls-20,.cls-8,.cls-9{font-size:3.19px;}.cls-9{letter-spacing:-0.06em;}.cls-10{fill:#d4d6d8;}.cls-11,.cls-12,.cls-13{font-size:4.25px;}.cls-11{letter-spacing:0.01em;}.cls-13{letter-spacing:-0.01em;}.cls-14{fill:#acb9c1;}.cls-15{letter-spacing:-0.02em;}.cls-16{fill:#3ba9ed;}.cls-17{fill:#5fea3d;}.cls-18{letter-spacing:0.01em;}.cls-19{letter-spacing:-0.01em;}.cls-20{letter-spacing:0.02em;}.cls-21{fill:#fff;stroke:#eae9e5;}</style></defs><title>håndtelefon</title><g id="Lag_2" data-name="Lag 2"><g id="Lag_5" data-name="Lag 5"><path class="cls-1" d="M8,99.26c27.8-19.54,39.44-49.43,49.13-80.81,4-3.23,8-1.71,12,1.76,10.31,19.14-6.66,42.95-16.45,81.5C90.36,91.56,121,72.07,156.15,46c14.77-5.58,14.69,9.7,13.7,11.41-2,1.32-65,40.17-67.82,46-.85,1.75.07,2.93,1.71,3.87l62.34-39.7c5-.78,9.34,3.67,5.14,10.54C148.84,95,126.13,112,116.07,121.74c-2,3.28-1.26,5.37,2.74,5.27,15.42-8.75,29-17.34,38.71-25.65,15.39-11.22,18.78.55,6.85,8.44-8.42,7.15-21.89,18.09-36,30.91-2.19,3.63-2.72,6.58,1.72,6.32,11.06-5.07,22.48-13.23,32.2-16.86,7.08-3.58,10.42,1.18,4.79,6.32-6.36,5.59-14.72,11.11-24,17C88.85,161.4,29,172.94,8,153.49-1.77,136.31-2.24,118.27,8,99.26Z"/><path class="cls-1" d="M49.85,100.49a44,44,0,0,1-27.71,10.85"/><path class="cls-1" d="M87.13,90.54q5.48,8.73,11,12.18"/><path class="cls-1" d="M103.17,109.31c-.17-.41,2.07,8.34,9.23,12.4"/><path class="cls-1" d="M118.66,128.94c-.87,2.7,3.17,11.23,6.13,13.08"/><path class="cls-1" d="M141.44,113.67c.72,3.68,3.12,6.46,6.36,8.81"/><path class="cls-1" d="M119.66,72q1.77,6,8.66,10"/><path class="cls-1" d="M119.66,72q1.77,6,8.66,10"/><path class="cls-1" d="M133,90.87c1.54,3.37,2.81,6.23,8.45,9.08"/><path class="cls-1" d="M62.37,108.28q10.27,21.43-2.13,42.86"/><path class="cls-1" d="M50.85,62.78a35.37,35.37,0,0,0,10.39,9.88"/><path class="cls-1" d="M38.53,86.85a59.54,59.54,0,0,0,16.52,1.67"/><path class="cls-1" d="M153.11,135.29c1,2.33,1.8,4.3,5.8,6.48"/><path class="cls-1" d="M133.43,148.05c1.2,2,2.19,3.73,6.6,5.44"/><path class="cls-1" d="M51.75,34.93q8.52-5.5,11.88-18.26"/><g id="Lag_2-2" data-name="Lag 2"><g id="knap"><ellipse cx="106.48" cy="11.83" rx="1.49" ry="1.72" transform="translate(78.63 115.28) rotate(-81.27)"/><path d="M113.84,12.39l13.74,2.11a.8.8,0,0,1,.73.85h0a.79.79,0,0,1-.94.6l-13.74-2.11a.8.8,0,0,1-.73-.86h0A.8.8,0,0,1,113.84,12.39Z"/><path class="cls-2" d="M92.62.2l61.09,9.38c8,1.23,13.7,7.87,12.63,14.83l-23.17,151c-1.07,7-8.46,11.61-16.5,10.37l-61.09-9.38c-8-1.23-13.69-7.87-12.62-14.83l23.17-151C77.2,3.61,84.58-1,92.62.2Z"/><path d="M89,21.07a2,2,0,0,1,2.34.36"/><path class="cls-3" d="M89.23,21.65a1.28,1.28,0,0,1,1.6.25"/><path class="cls-3" d="M89.6,22.08l.32.58.54-.45a.62.62,0,0,0-.75-.2Z"/><path d="M91.31,21.37a2.29,2.29,0,0,1,2.73.42"/><path class="cls-3" d="M91.66,22a1.51,1.51,0,0,1,1.87.29"/><path class="cls-3" d="M93,22.74a.72.72,0,0,0-.89-.23.35.35,0,0,0-.12.07l.37.67"/><path d="M141.16,41.32a2,2,0,0,1,2.35.36"/><path class="cls-3" d="M141.45,41.86a1.4,1.4,0,0,1,1.62.25"/><path class="cls-3" d="M142.62,42.49a.62.62,0,0,0-.77-.19l-.09.05.32.58"/><rect class="cls-4" x="41.8" y="50.32" width="136.13" height="80.87" transform="translate(3.49 185.59) rotate(-81.27)"/><ellipse class="cls-5" cx="82.48" cy="20.91" rx="0.55" ry="0.53" transform="translate(49.29 99.26) rotate(-81.27)"/><ellipse class="cls-5" cx="88.43" cy="21.83" rx="0.55" ry="0.53" transform="translate(53.44 105.93) rotate(-81.27)"/><ellipse class="cls-5" cx="87" cy="21.61" rx="0.55" ry="0.53" transform="translate(52.44 104.33) rotate(-81.27)"/><ellipse class="cls-5" cx="85.44" cy="21.37" rx="0.55" ry="0.53" transform="translate(51.35 102.57) rotate(-81.27)"/><ellipse class="cls-5" cx="84.03" cy="21.15" rx="0.55" ry="0.53" transform="translate(50.37 101) rotate(-81.27)"/><path class="cls-5" d="M152.33,31.55l2.91.45a1.11,1.11,0,0,1,1,1.18l0,.22a1.11,1.11,0,0,1-1.32.83L152,33.79a1.12,1.12,0,0,1-1-1.19l0-.22A1.1,1.1,0,0,1,152.33,31.55Z"/><path class="cls-5" d="M156.52,32.9h0a.21.21,0,0,1,.19.22l-.07.46a.21.21,0,0,1-.25.15h0a.21.21,0,0,1-.19-.22l.07-.45A.21.21,0,0,1,156.52,32.9Z"/><g class="cls-6"><text class="cls-7" transform="matrix(0.8, 0.12, -0.15, 0.99, 96.51, 26.02)"><tspan xml:space="preserve">                    08:50       100%</tspan></text></g><path class="cls-3" d="M114.35,12.32,128,14.4a.48.48,0,0,1,.43.5l-.08.51a.46.46,0,0,1-.55.35l-13.61-2.09a.47.47,0,0,1-.42-.49l.08-.52A.45.45,0,0,1,114.35,12.32Z"/><ellipse class="cls-3" cx="106.52" cy="11.79" rx="1.44" ry="1.61" transform="translate(78.7 115.29) rotate(-81.27)"/><g class="cls-6"><text class="cls-8" transform="matrix(1.14, 0.18, -0.15, 0.99, 77.76, 40.13)"><tspan xml:space="preserve">      </tspan></text><text class="cls-8" transform="matrix(1.14, 0.18, -0.15, 0.99, 82.39, 40.84)">B</text><text class="cls-8" transform="matrix(1.14, 0.18, -0.15, 0.99, 84.38, 41.14)"><tspan xml:space="preserve">eskeder               </tspan></text><text class="cls-9" transform="matrix(1.14, 0.18, -0.15, 0.99, 107.81, 44.74)">A</text><text class="cls-8" transform="matrix(1.14, 0.18, -0.15, 0.99, 110.03, 45.08)"><tspan xml:space="preserve">ktiv(69)                   Grupper</tspan></text></g><path class="cls-10" d="M84.47,29.2l65.26,10a3.69,3.69,0,0,1,3.37,4h0a3.68,3.68,0,0,1-4.4,2.76l-65.26-10a3.7,3.7,0,0,1-3.37-4h0A3.69,3.69,0,0,1,84.47,29.2Z"/><g class="cls-6"><text class="cls-11" transform="matrix(1.14, 0.18, -0.15, 0.99, 83.39, 33.57)">S</text><text class="cls-12" transform="matrix(1.14, 0.18, -0.15, 0.99, 85.82, 33.94)">øg</text></g><g class="cls-6"><text class="cls-11" transform="matrix(1.14, 0.18, -0.15, 0.99, 77.2, 51.18)">Sene</text><text class="cls-13" transform="matrix(1.14, 0.18, -0.15, 0.99, 89.1, 53.01)">t</text><text class="cls-12" transform="matrix(1.14, 0.18, -0.15, 0.99, 90.68, 53.25)"><tspan xml:space="preserve">e                       opret gruppe  </tspan></text><text class="cls-6"></text></g><text class="cls-12" transform="matrix(1.14, 0.18, -0.15, 0.99, 134.12, 81.04)">08:27</text><text class="cls-12" transform="matrix(1.14, 0.18, -0.15, 0.99, 135.24, 71.16)">08:48</text><ellipse class="cls-14" cx="124.64" cy="84.55" rx="2.07" ry="2.39" transform="translate(22.16 194.92) rotate(-81.27)"/><ellipse class="cls-14" cx="140.76" cy="87.02" rx="2.07" ry="2.39" transform="translate(33.39 212.95) rotate(-81.27)"/><ellipse class="cls-14" cx="135.28" cy="86.18" rx="2.07" ry="2.39" transform="translate(29.57 206.82) rotate(-81.27)"/><ellipse class="cls-14" cx="130.03" cy="85.38" rx="2.07" ry="2.39" transform="translate(25.91 200.95) rotate(-81.27)"/><text class="cls-8" transform="matrix(1.14, 0.18, -0.15, 0.99, 139.56, 87.78)">K</text><text class="cls-15" transform="matrix(1.14, 0.18, -0.15, 0.99, 134.23, 87.03)">P</text><text class="cls-8" transform="matrix(1.14, 0.18, -0.15, 0.99, 128.4, 85.99)">M</text><text class="cls-9" transform="matrix(1.14, 0.18, -0.15, 0.99, 123.17, 85.38)">A</text><ellipse class="cls-16" cx="77.72" cy="72.84" rx="3.3" ry="3.82" transform="translate(-6.07 138.61) rotate(-81.27)"/><text class="cls-8" transform="matrix(1.14, 0.18, -0.15, 0.99, 83.31, 74.49)">7.C $$$</text><ellipse class="cls-17" cx="79.43" cy="61.69" rx="3.3" ry="3.82" transform="translate(6.41 130.85) rotate(-81.27)"/><g class="cls-6"><text class="cls-8" transform="matrix(1.14, 0.18, -0.15, 0.99, 84.56, 63.23)">Hen</text><text class="cls-8" transform="matrix(1.14, 0.18, -0.15, 0.99, 90.78, 64.18)">r</text><text class="cls-8" transform="matrix(1.14, 0.18, -0.15, 0.99, 91.99, 64.37)">ik</text></g><g class="cls-6"><text class="cls-8" transform="matrix(1.14, 0.18, -0.15, 0.99, 75.95, 77.8)"><tspan xml:space="preserve">....  Har delt et billede</tspan></text></g><text class="cls-8" transform="matrix(1.14, 0.18, -0.15, 0.99, 143.67, 89.09)">...</text><g class="cls-6"><text class="cls-18" transform="matrix(1.14, 0.18, -0.15, 0.99, 82.47, 67.06)">H</text><text class="cls-8" transform="matrix(1.14, 0.18, -0.15, 0.99, 84.88, 67.43)">v</text><text class="cls-8" transform="matrix(1.14, 0.18, -0.15, 0.99, 86.61, 67.69)">ad du </text><text class="cls-19" transform="matrix(1.14, 0.18, -0.15, 0.99, 96.03, 69.14)">h</text><text class="cls-8" transform="matrix(1.14, 0.18, -0.15, 0.99, 97.99, 69.44)">v</text><text class="cls-8" transform="matrix(1.14, 0.18, -0.15, 0.99, 99.73, 69.71)">ad der sker i </text><text class="cls-20" transform="matrix(1.14, 0.18, -0.15, 0.99, 118.71, 72.62)">k</text><text class="cls-8" transform="matrix(1.14, 0.18, -0.15, 0.99, 120.48, 72.89)">las</text><text class="cls-19" transform="matrix(1.14, 0.18, -0.15, 0.99, 124.54, 73.52)">s</text><text class="cls-8" transform="matrix(1.14, 0.18, -0.15, 0.99, 125.94, 73.73)">...</text></g><ellipse class="cls-21" cx="97.64" cy="166.76" rx="6.53" ry="7.55" transform="matrix(0.15, -0.99, 0.99, 0.15, -82.01, 237.97)"/></g></g></g></g></svg>
