<svg xmlns="http://www.w3.org/2000/svg" xmlns:xlink="http://www.w3.org/1999/xlink" viewBox="0 0 1365 767"><defs><clipPath id="a" transform="translate(0 0)"><rect x="877" y="39" width="349" height="263.71" style="fill:none"/></clipPath></defs><title>startscreen</title><rect x="9" y="9" width="1347" height="749" style="fill:#89cce5;stroke:#fff;stroke-miterlimit:10;stroke-width:18px"/><g style="clip-path:url(#a)"><g style="clip-path:url(#a)"><path d="M955.38,175.16c-1.4.48-2.37,1.58-3.51,2.43-4,3-8,6.09-12,9.13-.32.24-.6.7-1.06.52s-.34-.81-.34-1.24c0-6.17-.06-12.33,0-18.5,0-1.44-.44-1.72-1.77-1.69-3.92.08-7.84.05-11.76,0a8.17,8.17,0,0,1-8.25-8.4c0-22.52.11-45,0-67.55,0-5.75,4.08-9.33,9.34-9.32q123.9.14,247.79.07c5.09,0,8.54,3.43,8.54,8.55q0,34.08,0,68.18c0,4.27-2.23,7.06-6.76,8.41-.89,0-1.77.05-2.66.05H1025.71q-28.37,0-56.73,0a4.48,4.48,0,0,0-3.15,1c-2,1.68-4.2,3.09-6.2,4.76-1.43,1.19-3.2,2-4.25,3.61" transform="translate(0 0)" style="fill:#152230"/><path d="M955.38,175.16c1-1.63,2.82-2.42,4.25-3.61,2-1.67,4.21-3.08,6.2-4.76a4.48,4.48,0,0,1,3.15-1q28.37,0,56.73,0H1173c.89,0,1.77,0,2.66-.05.49,1,1.6.84,2.36,1.35a8,8,0,0,1,3.94,7.15c0,22.57-.08,45.14.06,67.71a8.82,8.82,0,0,1-9.1,9.09q-60.5-.13-121-.05c-14.58,0-29.15,0-43.73,0a6.57,6.57,0,0,0-4.25,1.48q-10.25,7.93-20.53,15.82c-1.57,1.21-3.18,2.35-4.76,3.54-1,.74-1.33.49-1.33-.7,0-5.9,0-11.8,0-17.7,0-2.37,0-2.4-2.36-2.4-3.55,0-7.11-.12-10.65,0a8.61,8.61,0,0,1-8.89-9c.09-21.78,0-43.57,0-65.35,0-.52,0-1,0-1.57" transform="translate(0 0)" style="fill:#f2902c"/><path d="M962.11,145.19H950.65V101.11h18.24q7.43,0,11.37,3.86t4,10.88q0,7-4,10.87t-11.37,3.86h-6.78Zm0-23.85h3.8q6.32,0,6.31-5.49t-6.31-5.5h-3.8Z" transform="translate(0 0)" style="fill:#fff"/><path d="M1024.71,145.19h-14.27l-10.93-16.95v16.95H988.05V101.11h17.83a17.59,17.59,0,0,1,6.44,1.08,12.16,12.16,0,0,1,7.22,7.28,15.18,15.18,0,0,1,.9,5.26,13,13,0,0,1-2.42,8.16,12.21,12.21,0,0,1-7.17,4.24Zm-25.2-24.38h2.16a8.35,8.35,0,0,0,5.21-1.4,5.4,5.4,0,0,0,0-8.07,8.42,8.42,0,0,0-5.21-1.4h-2.16Z" transform="translate(0 0)" style="fill:#fff"/><rect x="1028.21" y="101.11" width="11.46" height="44.08" style="fill:#fff"/><polygon points="1055.44 101.11 1066.08 127.95 1076.78 101.11 1089.23 101.11 1070.64 145.19 1061.52 145.19 1042.99 101.11 1055.44 101.11" style="fill:#fff"/><path d="M1114.18,137.85h-16.37l-2.64,7.66H1083l16.77-44.08h12.52L1129,145.51h-12.22Zm-3-8.71L1106,114.46l-5.14,14.68Z" transform="translate(0 0)" style="fill:#fff"/><polygon points="1145.98 111.13 1145.98 145.51 1134.52 145.51 1134.52 111.13 1125.11 111.13 1125.11 101.42 1155.39 101.42 1155.39 111.13 1145.98 111.13" style="fill:#fff"/><path d="M1013.48,197.23a14.3,14.3,0,0,0-3.74-2.25,10,10,0,0,0-3.61-.72,5.89,5.89,0,0,0-3.62,1.05,3.26,3.26,0,0,0-1.39,2.74,2.7,2.7,0,0,0,.7,1.92,5.89,5.89,0,0,0,1.83,1.31,15.33,15.33,0,0,0,2.57,1c.95.28,1.89.57,2.82.88q5.61,1.86,8.2,5a12.3,12.3,0,0,1,2.59,8.14,15.81,15.81,0,0,1-1.14,6.12,12.59,12.59,0,0,1-3.32,4.69,15.46,15.46,0,0,1-5.36,3,22.32,22.32,0,0,1-7.2,1.08,26.49,26.49,0,0,1-15.45-4.95l4.89-9.22a19.72,19.72,0,0,0,5.08,3.39,12.3,12.3,0,0,0,4.95,1.1,5.88,5.88,0,0,0,4.17-1.28,3.91,3.91,0,0,0,1.37-2.91,4,4,0,0,0-.35-1.72,3.66,3.66,0,0,0-1.17-1.35,9.62,9.62,0,0,0-2.12-1.13q-1.32-.53-3.18-1.17c-1.48-.46-2.93-1-4.34-1.54a13.54,13.54,0,0,1-3.79-2.25,10.39,10.39,0,0,1-2.69-3.53,12.43,12.43,0,0,1-1-5.39,15.6,15.6,0,0,1,1.08-5.92,13.21,13.21,0,0,1,3-4.54,13.55,13.55,0,0,1,4.78-2.95,18.12,18.12,0,0,1,6.33-1.05,27.32,27.32,0,0,1,6.82.91,29.67,29.67,0,0,1,6.82,2.65Z" transform="translate(0 0)" style="fill:#fff"/><polygon points="1024.14 229.94 1024.14 185.98 1035.57 185.98 1056.68 212.85 1056.68 185.98 1068.05 185.98 1068.05 229.94 1056.68 229.94 1035.57 203.06 1035.57 229.94 1024.14 229.94" style="fill:#fff"/><path d="M1101.45,222.3h-16.32l-2.62,7.64h-12.19l16.73-44h12.48l16.73,44h-12.18Zm-3-8.69L1093.29,199l-5.13,14.63Z" transform="translate(0 0)" style="fill:#fff"/><polygon points="1129.85 204.11 1143.78 185.98 1157.89 185.98 1140.46 206.79 1159.52 229.94 1144.71 229.94 1129.85 210.87 1129.85 229.94 1118.42 229.94 1118.42 185.98 1129.85 185.98 1129.85 204.11" style="fill:#fff"/></g></g><rect x="214.5" y="306.5" width="412" height="139.8" style="fill:#fff"/><text transform="translate(247.15 402.69)" style="font-size:72px;font-family:ShadowsIntoLight, Shadows Into Light">Start Spillet</text><path d="M924.85,403.16v5.65s-2.18-.16-1.7,5.64l17.65,12.29h5.85l8.72-11.81s2.87-5.47-2.45-5.73l.11-6.08H924.85" transform="translate(0 0)" style="fill:#ffc78d"/><path d="M914.7,410.86s7.88,2.36,0,10.33c0,0-38.42,45.94-35.7,96.24l15.77-2.54s6.16-46.67,12.32-50.75l-1.81,47.48a118.87,118.87,0,0,0,35.64,5.8s32.5-2.63,35.58-4.71L975,464.14s14,39.78,11.6,50.57l15.95,2.72s.18-24.29-2.17-26.82c0,0-7.52-28.27-9.61-29.9,0,0-13.41-30.18-16.49-29.36,0,0-14.32-18.21-11.24-17.94l3.44-3s-17.48-.67-25.56,4.07c0,0-20.33-8.7-26.22-3.62" transform="translate(0 0)" style="fill:#f4921e"/><path d="M877,563.74" transform="translate(0 0)" style="fill:#f4921e"/><polyline points="877 517.36 897.66 514.34 899.11 523.88 877.65 526.91 877 517.36" style="fill:#e8841e"/><polyline points="985.18 514.19 1005.79 517.52 1004.31 527.06 982.93 523.49 985.18 514.19" style="fill:#e8841e"/><path d="M881.61,525.74s-1.68,9.09-1.18,11.38c0,0,.9,7.06,2,7,0,0,1.22,1.18,1.74-5.1,0,0,2,6.25,3.64,6.49,0,0,1.26.14,1.25-1.85,0,0-.3-3.91-.28-4.27s1.25,6.26,4,6.33a7.08,7.08,0,0,0,.26-6.43s2.64,4.23,3.58,3.5c0,0,2.51-.31-1.33-7.58,0,0-1.37-4.36,2.46-2.08,0,0,9.34,3,1.23-4.12,0,0-5.24-2.75-4.88-5.09Z" transform="translate(0 0)" style="fill:#f4c6a3"/><path d="M986.29,524a5.47,5.47,0,0,1-4.35,4.44s-5.12,3.62-3.08,4.89c0,0,10.78-3.62,4.35,3.81,0,0-2.58,9.61,3.08,2.9,0,0,0,12.63,5-1,0,0-.91,14.59,4.53-.27,0,0,1.36,13.64,4-.63,0,0,.91-10.19-.54-11.87Z" transform="translate(0 0)" style="fill:#f4c6a3"/><path d="M913.29,624.28l13.14.16-.06,4.89s-6.47,2.73-6.6,2.1c0,0-2,.84-6.55-1.8Z" transform="translate(0 0)" style="fill:#f4c6a3"/><path d="M958.65,624.28v5.06s4.89,2.52,7.43,2.21a8.83,8.83,0,0,0,5.35-1.94v-5.33Z" transform="translate(0 0)" style="fill:#f4c6a3"/><path d="M958.65,627.89l-3.53,7.43s7.88,13,13.23,17.4c0,0,12.69,10,14.23,9,0,0,8.79.84,10.15-3.23,0,0-1.09-6.84-3-8.16,0,0-9.38-13.82-12.05-15.31l-6.25-6.89S966.94,632.74,958.65,627.89Z" transform="translate(0 0)" style="fill:#f4921e"/><path d="M913.23,648.47" transform="translate(0 0)" style="fill:#f4c6a3"/><path d="M913.23,628.17s-15.25,16.48-15.66,18.2c0,0-6.21,9.11-5.53,12.23,0,0,2.08,4.67,11.6,2.63,0,0,13.19-6.89,14.86-10.51,0,0,11.19-12.32,11-15l-3.1-7.81s-7.32,4.89-13.14.3" transform="translate(0 0)" style="fill:#f4921e"/><path d="M913.33,514.19l-3.5,102.94h21.51s-1.81-84.25.6-86c0,0,.48-6.13,11.48-6.58,0,0,8.31-.45,9.85,6.77,0,0,1.42,13.35,1.27,19s-.54,66.33-.54,66.33l21.45.48-1.09-44.34s-1.84-48.24-1.75-48.39-.18-10.21-.18-10.21-26.64,4-29.78,2.9Z" transform="translate(0 0)" style="fill:#1a75ba"/><rect x="960.14" y="607.7" width="9.67" height="25.92" transform="translate(336.76 1580.73) rotate(-89.55)" style="fill:#186ca4"/><rect x="915.19" y="607.7" width="9.67" height="25.92" transform="matrix(0.01, -1, 1, 0.01, 292.16, 1535.78)" style="fill:#186ca4"/><path d="M935.07,404h15.21s20-4.22,21.68-15.21c0,0,2.68-12.39,2.53-19.15V349.4s-.57-25.76-10.71-35.48c0,0-.14-3.1-26.19-8.45,0,0-24.36-2.11-28.72,7.6,0,0-10.42,12.39-14.92,25.91v28.76s5.49,22.1,14.92,24.22C908.88,391.91,930.84,407.68,935.07,404Z" transform="translate(0 0)" style="fill:#ffc78d"/><path d="M908.88,391.91V377.55s-6.34-2.39-5.07-7.46c0,0-.56-7,8.45-2.11V348.74s7.46-12.19,11-10.36c0,0,25.76,7,25.91,4.79,0,0,17.4,0,24.12-6,0,0,.66-32.05-39.46-31.88,0,0-29.85-7.57-39.84,33.68,0,0-8.87,32.94,14.92,52.94" transform="translate(0 0)" style="stroke:#000;stroke-miterlimit:10"/><path d="M953.65,308.57s8.17-1.23,8.73-3.29c0,0,4.93-1.78,6.19-6a18.77,18.77,0,0,1-4.79,14.64l-10.14-5.35" transform="translate(0 0)" style="fill:#020202;stroke:#000;stroke-miterlimit:10"/><path d="M970,324.22s14.64.4,16.89-5.23c0,0-7.52,18.49-13.61,18.18L970,324.22" transform="translate(0 0)" style="fill:#020202;stroke:#000;stroke-miterlimit:10"/><path d="M962.94,314.74s10.7-1.27,14.64-5.91c0,0-1.41,9.71-8.45,12.39l-6.19-6.48" transform="translate(0 0)" style="stroke:#000;stroke-miterlimit:10"/><path d="M942.39,384s10.42,12.39,16.33-1.69" transform="translate(0 0)" style="fill:none;stroke:#000;stroke-miterlimit:10"/><path d="M931.13,350s3.52-2.68,5.35,0" transform="translate(0 0)" style="fill:none;stroke:#000;stroke-miterlimit:10"/><path d="M959.43,349.39s5.21-4.76,5.91,0" transform="translate(0 0)" style="fill:none;stroke:#000;stroke-miterlimit:10"/><ellipse cx="936.48" cy="362.35" rx="2.25" ry="4.22" style="fill:#111;stroke:#000;stroke-miterlimit:10"/><ellipse cx="962.38" cy="361.5" rx="2.25" ry="4.22" style="stroke:#000;stroke-miterlimit:10"/><polyline points="949.15 365.72 949.15 369.1 955.91 369.1 955.91 371.92 950.84 374.45" style="fill:none;stroke:#000;stroke-miterlimit:10"/><path d="M790.17,480.92V438.13c0-28,8.27-51.59,18.06-51.59h3c9.79,0,18.06,23.63,18.06,51.59v42.79Z" transform="translate(0 0)" style="fill:#a0230e"/><path d="M811.24,387c9.52,0,17.56,23.4,17.56,51.09v42.29H790.67V438.13c0-27.7,8-51.09,17.56-51.09h3m0-1h-3c-10.21,0-18.56,23.44-18.56,52.09v43.29H829.8V438.13c0-28.65-8.35-52.09-18.56-52.09Z" transform="translate(0 0)" style="fill:#a0230e"/><path d="M815.86,414.86h7s.87,9.59-3.5,8.63S815.86,414.86,815.86,414.86Z" transform="translate(0 0)" style="fill:#871c0e;stroke:#a0230e;stroke-miterlimit:10"/><rect x="790.3" y="513.86" width="14" height="140.73" style="fill:#050302"/><path d="M803.8,514.36V654.09h-13V514.36h13m1-1h-15V655.09h15Z" transform="translate(0 0)" style="fill:#050302"/><path d="M779.66,659.8c.28-6.63,6.07-11.94,13.15-11.94s12.87,5.31,13.15,11.93Z" transform="translate(0 0)" style="fill:#332926"/><path d="M792.8,648.36c6.62,0,12.08,4.82,12.62,10.93H780.19c.54-6.12,6-10.94,12.62-10.94m0-1c-7.49,0-13.66,5.84-13.66,12.93h27.32c0-7.09-6.17-12.93-13.66-12.93Z" transform="translate(0 0)" style="fill:#332926"/><rect x="779.65" y="658.52" width="26.32" height="2.32" style="fill:#050302"/><path d="M805.47,659v1.33H780.15V659h25.32m1-1H779.15v3.32h27.32Z" transform="translate(0 0)" style="fill:#050302"/><rect x="816.58" y="513.86" width="12.72" height="141.73" style="fill:#050302"/><path d="M828.8,514.36V655.09H817.08V514.36H828.8m1-1H816.08V656.09H829.8Z" transform="translate(0 0)" style="fill:#050302"/><path d="M815,658.79a12.68,12.68,0,0,1,25.31,0Z" transform="translate(0 0)" style="fill:#332926"/><path d="M827.63,647.36A12.09,12.09,0,0,1,839.8,658.3H815.51a12.1,12.1,0,0,1,12.12-10.94m0-1a13.12,13.12,0,0,0-13.17,12.93H840.8A13.12,13.12,0,0,0,827.63,646.36Z" transform="translate(0 0)" style="fill:#332926"/><rect x="814.97" y="657.52" width="25.33" height="2.32" style="fill:#050302"/><path d="M839.8,658v1.33H815.47V658H839.8m1-1H814.47v3.32H840.8Z" transform="translate(0 0)" style="fill:#050302"/><path d="M809.05,397.1a4.23,4.23,0,0,1-4.22-4.22v-18.4a4.23,4.23,0,0,1,8.45,0h0v18.4A4.24,4.24,0,0,1,809.05,397.1Z" transform="translate(0 0)" style="fill:#efb595"/><path d="M809.05,370.75a3.74,3.74,0,0,1,3.72,3.72v18.4a3.73,3.73,0,1,1-7.45,0v-18.4a3.74,3.74,0,0,1,3.72-3.72m0-1a4.74,4.74,0,0,0-4.72,4.72v18.4a4.73,4.73,0,1,0,9.45,0v-18.4a4.74,4.74,0,0,0-4.72-4.72Z" transform="translate(0 0)" style="fill:#efb595"/><path d="M785.53,458.71l.14.11c1.31,1,2.79-.61,3.32-3.69l6.3-36.93c.53-3.08-.11-6.42-1.42-7.47l-.14-.11c-1.31-1-2.79.61-3.32,3.69l-6.3,36.93C783.59,454.36,784.23,457.67,785.53,458.71Z" transform="translate(0 0)" style="fill:#a0230e;stroke:#a0230e;stroke-miterlimit:10"/><path d="M779.38,494.78l.14.11c1.31,1,2.79-.61,3.32-3.69l6.3-36.93c.53-3.08-.11-6.42-1.42-7.47l-.14-.11c-1.31-1-2.79.61-3.32,3.69L778,487.31C777.44,490.36,778.07,493.73,779.38,494.78Z" transform="translate(0 0)" style="fill:#a0230e;stroke:#a0230e;stroke-miterlimit:10"/><path d="M778.65,504.11a.75.75,0,0,1-.47-.19l-.27-.21c-1-.8-1.72-3.72-1.2-6.79l1.09-6.38c.39-2.26,1.29-3.47,2-3.47a.75.75,0,0,1,.47.19l.27.21c1,.8,1.72,3.72,1.2,6.79l-1.09,6.38C780.22,502.9,779.31,504.11,778.65,504.11Z" transform="translate(0 0)" style="fill:#f9c9a8"/><path d="M779.8,487.57a.3.3,0,0,1,.16.08l.26.21c.87.69,1.49,3.54,1,6.31l-1.09,6.38c-.4,2.33-1.25,3.06-1.46,3.06a.3.3,0,0,1-.16-.08l-.26-.21c-.87-.69-1.49-3.54-1-6.31l1.09-6.38c.4-2.33,1.25-3.06,1.46-3.06m0-1c-1,0-2,1.51-2.45,3.89l-1.09,6.38c-.51,3,.11,6.25,1.38,7.26l.26.21a1.24,1.24,0,0,0,.78.3c1,0,2-1.51,2.45-3.89l1.09-6.38c.51-3-.11-6.25-1.38-7.26l-.26-.21A1.24,1.24,0,0,0,779.8,486.57Z" transform="translate(0 0)" style="fill:#f9c9a8"/><path d="M776.67,518.3a1.21,1.21,0,0,1-.74-.3l-.52-.42c-1.56-1.24-2.32-5.51-1.68-9.31l1.57-9.18c.54-3.17,1.82-4.83,2.81-4.83a1.21,1.21,0,0,1,.74.3l.52.42c1.56,1.24,2.33,5.51,1.68,9.31l-1.57,9.18c-.54,3.17-1.82,4.83-2.8,4.83Z" transform="translate(0 0)" style="fill:#f9c9a8"/><path d="M778.1,494.77a.7.7,0,0,1,.43.19l.52.42c1.25,1,2.17,4.87,1.49,8.84L779,513.36c-.51,3-1.68,4.41-2.31,4.41a.7.7,0,0,1-.43-.19l-.52-.42c-1.25-1-2.17-4.87-1.49-8.84l1.57-9.18c.51-3,1.68-4.41,2.31-4.41m0-1c-1.39,0-2.75,2-3.3,5.24l-1.57,9.18c-.69,4,.15,8.42,1.86,9.79l.52.42a1.68,1.68,0,0,0,1,.41c1.39,0,2.75-2,3.3-5.24l1.57-9.18c.69-4-.15-8.42-1.86-9.79l-.52-.42A1.68,1.68,0,0,0,778.11,493.73Z" transform="translate(0 0)" style="fill:#f9c9a8"/><path d="M775.39,508.1a2.79,2.79,0,0,1-.42-2.16l.76-7.38c.1-1,.44-1.41.54-1.45a3,3,0,0,1,.41,2.17l-.76,7.38A2.12,2.12,0,0,1,775.39,508.1Z" transform="translate(0 0)" style="fill:#eaaf92"/><path d="M776.2,498.81v.41l-.74,7.17V506l.74-7.17m0-2.2c-.47,0-.91.78-1,1.89l-.76,7.38c-.13,1.25.2,2.46.74,2.68h.18c.47,0,.91-.78,1-1.9l.76-7.38c.13-1.25-.2-2.46-.74-2.68a.54.54,0,0,0-.18,0Z" transform="translate(0 0)" style="fill:#eaaf92"/><path d="M837.8,452.36l-.13.16c-1.24,1.52-2.88.45-3.66-2.39l-9.39-34.05c-.78-2.84-.42-6.37.82-7.89l.13-.16c1.24-1.52,2.88-.45,3.66,2.39l9.39,34.05C839.39,447.36,839,450.86,837.8,452.36Z" transform="translate(0 0)" style="fill:#a0230e;stroke:#a0230e;stroke-miterlimit:10"/><path d="M855.8,483.66l-.09.18c-.86,1.76-2.7,1.09-4.11-1.5l-16.86-31c-1.41-2.59-1.85-6.11-1-7.87l.09-.18c.86-1.76,2.7-1.09,4.11,1.5l16.86,31C856.22,478.36,856.66,481.9,855.8,483.66Z" transform="translate(0 0)" style="fill:#a0230e;stroke:#a0230e;stroke-miterlimit:10"/><path d="M860.36,492.91c-.53,0-1.43-.54-2.33-2.06l-3.12-5.25c-1.37-2.3-1.93-5.58-1.23-7.16l.16-.36c.21-.46.49-.7.83-.7.54,0,1.43.54,2.33,2.06l3.12,5.25c1.37,2.3,1.93,5.58,1.23,7.16l-.16.36C861,492.67,860.7,492.91,860.36,492.91Z" transform="translate(0 0)" style="fill:#f9c9a8"/><path d="M854.67,477.89c.28,0,1,.38,1.9,1.81l3.12,5.24c1.41,2.37,1.76,5.43,1.2,6.7l-.16.36c-.08.18-.21.4-.37.4s-1-.38-1.9-1.81l-3.12-5.23c-1.41-2.37-1.76-5.43-1.2-6.7l.16-.36c.08-.18.21-.4.37-.4m0-1a1.43,1.43,0,0,0-1.29,1l-.16.36c-.77,1.74-.2,5.16,1.26,7.62l3.12,5.24c.89,1.5,1.92,2.3,2.76,2.3a1.43,1.43,0,0,0,1.29-1l.16-.36c.77-1.74.2-5.16-1.26-7.62l-3.12-5.24C856.54,477.7,855.51,476.9,854.67,476.9Z" transform="translate(0 0)" style="fill:#f9c9a8"/><path d="M866.66,504.93c-1,0-2.24-1.1-3.29-2.86l-4.49-7.54c-1.87-3.14-2.63-7.63-1.67-9.8l.32-.71a1.4,1.4,0,0,1,1.28-1c1,0,2.24,1.1,3.29,2.86l4.49,7.55c1.87,3.14,2.63,7.63,1.67,9.8l-.32.71A1.44,1.44,0,0,1,866.66,504.93Z" transform="translate(0 0)" style="fill:#f9c9a8"/><path d="M858.8,483.46c.65,0,1.79.81,2.86,2.61l4.49,7.55c1.79,3,2.54,7.3,1.64,9.35l-.32.71c-.33.75-.7.75-.82.75-.65,0-1.79-.81-2.86-2.61l-4.49-7.55c-1.79-3-2.54-7.3-1.64-9.35l.32-.71c.33-.75.7-.75.82-.75m0-1a1.92,1.92,0,0,0-1.74,1.34l-.32.71c-1,2.34-.27,7,1.69,10.26l4.49,7.55c1.2,2,2.59,3.1,3.72,3.1a1.92,1.92,0,0,0,1.74-1.34l.32-.71c1-2.34.27-7-1.69-10.26l-4.49-7.55C861.32,483.56,859.93,482.46,858.8,482.46Z" transform="translate(0 0)" style="fill:#f9c9a8"/><path d="M865,494.43c-.11,0-.47-.23-.81-.93L861,487.12a3,3,0,0,1-.3-2.44h0c.15,0,.48.25.81.9L864.7,492a3,3,0,0,1,.3,2.44Z" transform="translate(0 0)" style="fill:#eaaf92"/><path d="M861.12,485.84l3.15,6.34a3.88,3.88,0,0,1,.35,1.06l-3.15-6.34a3.88,3.88,0,0,1-.35-1.06m-.38-1.69a.51.51,0,0,0-.43.24,3.45,3.45,0,0,0,.26,3l3.17,6.38c.38.77.87,1.21,1.26,1.21a.51.51,0,0,0,.43-.24,3.45,3.45,0,0,0-.26-3L862,485.36c-.38-.77-.87-1.21-1.26-1.21Z" transform="translate(0 0)" style="fill:#eaaf92"/><path d="M818.35,258.36c-7.6,0-14.26-4-14.55-8.63-.15-2.46,1.49-4.92,4.63-6.9a26.6,26.6,0,0,1,12.37-3.66h.93c7.78,0,14.62,6,17.2,8.52l.26.24c.07,1.16-8.76,8.86-17.27,10.16A23.64,23.64,0,0,1,818.35,258.36Z" transform="translate(0 0)" style="fill:#51281f"/><path d="M821.74,239.64h0c7.56,0,14.26,5.81,16.82,8.35-1,1.79-9.1,8.42-16.7,9.57a22.86,22.86,0,0,1-3.51.27c-8.1,0-13.81-4.22-14.05-8.16-.3-4.85,7.28-9.43,16.54-10h.9m0-1h-1c-10,.62-17.82,5.57-17.48,11.06.3,4.8,6.8,9.1,15,9.1a23.55,23.55,0,0,0,3.66-.28c8.83-1.34,19-10,17.48-11.06-.24-.17-8.18-8.85-17.75-8.85Z" transform="translate(0 0)" style="fill:#51281f"/><path d="M809.12,356c-15.77,0-28.59-26.8-28.59-59.73s12.83-59.73,28.59-59.73,28.59,26.8,28.59,59.73S824.88,356,809.12,356Z" transform="translate(0 0)" style="fill:#51281f"/><path d="M809.12,237c15.49,0,28.09,26.57,28.09,59.23s-12.6,59.23-28.09,59.23S781,328.89,781,296.23,793.63,237,809.12,237m0-1C793.05,236,780,263,780,296.23s13,60.23,29.09,60.23,29.09-27,29.09-60.23S825.21,236,809.12,236Z" transform="translate(0 0)" style="fill:#51281f"/><path d="M810,378.43h-1.45c-9.78,0-23.26-21-23.79-22.27.2-2,.43-12.93,0-76.17,0-12.2,10.9-22.12,24.3-22.12s24.3,9.92,24.3,22.12c0,2.91-.87,71.57,0,76.38.31,1.71-1.64,6.27-5.88,11.35C822,374.42,815.41,378.43,810,378.43Z" transform="translate(0 0)" style="fill:#f9c9a8"/><path d="M809.12,258.36c13.12,0,23.8,9.7,23.8,21.61,0,2.92-.87,71.63,0,76.48.3,1.62-1.78,6.16-5.77,10.94-5.5,6.6-11.9,10.53-17.14,10.53h-1.45c-9.12,0-21.88-19.31-23.23-21.78.13-1.11.16-4,.18-12V317.93c-.06-18.8-.18-37.78-.18-38,0-11.92,10.68-21.62,23.8-21.62m0-1h0c-13.7,0-24.8,10.13-24.8,22.62,0,0,.48,76.29,0,76.29h0c-.32,0,13.91,22.65,24.26,22.65H810c12,0,24.75-18,23.89-22.66s0-76.29,0-76.29c0-12.43-11.13-22.56-24.81-22.56Z" transform="translate(0 0)" style="fill:#f9c9a8"/><path d="M821.42,278.92h-.1c-2.37,0-11.8-5.95-15.49-12.51-2.83-5-3.69-10.91-2.24-15.32a7.3,7.3,0,0,1,3.65-4.6,5.2,5.2,0,0,1,2.2-.46c4.69,0,10.31,5.2,13.66,12.65s0,16.44-1.54,20l-.11.27Z" transform="translate(0 0)" style="fill:#51281f"/><path d="M809.44,246.54h0c4.43,0,10,5.2,13.2,12.36s0,16-1.52,19.51c-2.35-.31-11.18-5.7-14.86-12.24-2.76-4.92-3.61-10.63-2.2-14.92a6.83,6.83,0,0,1,3.38-4.3,4.75,4.75,0,0,1,2-.41m0-1a5.68,5.68,0,0,0-2.4.5c-5,2.26-6.55,11.88-1.65,20.62,3.87,6.88,13.42,12.76,15.92,12.76.33,0,.54-.1.59-.32s5.75-11.49,1.65-20.62c-3.49-7.76-9.35-13-14.12-13Z" transform="translate(0 0)" style="fill:#51281f"/><path d="M837.44,285c-2.25,0-12.8-7.07-16.71-15.33-2.78-5.87-3.26-12.54-1.26-17.42a8.53,8.53,0,0,1,4.64-5.05,6.15,6.15,0,0,1,2.12-.37c5.42,0,11.73,6.47,15,15.37,3.18,8.67-1.38,18.6-3.49,22.47l-.17.32Z" transform="translate(0 0)" style="fill:#51281f"/><path d="M826.24,247.28h0c5.22,0,11.33,6.33,14.52,15,3.11,8.48-1.38,18.25-3.46,22.06v.05c-2.44-.33-12.43-7.29-16.09-15-2.72-5.75-3.2-12.27-1.25-17a8,8,0,0,1,4.35-4.77,5.68,5.68,0,0,1,2-.34m0-1a6.71,6.71,0,0,0-2.3.4c-5.91,2.17-8.5,12.92-3.66,23.15,3.86,8.17,14.47,15.62,17.16,15.62.32,0,.52-.1.6-.32s7.55-12.53,3.66-23.15c-3.41-9.29-9.92-15.7-15.46-15.7Z" transform="translate(0 0)" style="fill:#51281f"/><path d="M779.33,283.36c-.85-1.14-1.78-9.19.26-14.92,2.27-6.39,6.81-10.2,9.88-10.2a3.11,3.11,0,0,1,1.21.24c3,1.34,3,8.18,0,14.94-2.57,5.79-8.78,8.86-11.32,9.91Z" transform="translate(0 0)" style="fill:#51281f"/><path d="M789.47,258.78h0a2.48,2.48,0,0,1,1,.2c2.42,1.07,2.92,7.2-.22,14.28-2.38,5.36-8,8.33-10.67,9.49a27.2,27.2,0,0,1,.48-14.1c2.17-6.1,6.57-9.87,9.4-9.87m0-1c-3.37,0-8.07,4.14-10.35,10.53s-1,15.64.16,15.64h.13c.19-.12,8.6-3.11,11.76-10.25s3-14.12-.29-15.6a3.47,3.47,0,0,0-1.42-.29Z" transform="translate(0 0)" style="fill:#51281f"/><path d="M790.46,265.87c-.59-1.07-1.42-7.39.29-12.17,1.84-5.17,5.61-8.34,8-8.34a2.31,2.31,0,0,1,1,.19c2.43,1.08,2.41,6.67,0,12.21C797.61,262.47,792.56,265,790.46,265.87Z" transform="translate(0 0)" style="fill:#51281f"/><path d="M798.8,245.83h0a1.93,1.93,0,0,1,.75.15c.93.41,1.48,1.79,1.52,3.78a19.14,19.14,0,0,1-1.81,7.77c-1.89,4.25-6.27,6.68-8.52,7.68a22.66,22.66,0,0,1,.48-11.33c1.77-5,5.32-8,7.59-8m0-1c-2.77,0-6.65,3.42-8.53,8.71s-.85,12.9.1,12.9h.11c.15-.1,7.07-2.58,9.69-8.47s2.52-11.65-.21-12.87a2.73,2.73,0,0,0-1.16-.23Z" transform="translate(0 0)" style="fill:#51281f"/><path d="M796.68,281.78c-1.16-1-4-10-3.06-17.11,1.09-8.53,5.68-14.47,9.12-14.47a3.29,3.29,0,0,1,.54.05c3.53.71,5.08,8.52,3.37,17.06-1.46,7.32-7.41,12.52-9.9,14.41Z" transform="translate(0 0)" style="fill:#51281f"/><path d="M802.75,250.69h.44c1.44.29,2.61,2.1,3.22,5a29.63,29.63,0,0,1-.24,11.49C804.8,274,799.39,279,796.79,281c-1.13-1.91-3.51-9.75-2.67-16.34,1-8,5.4-14,8.63-14m0-1c-3.79,0-8.52,6.33-9.62,14.91-1,7.68,2.29,17.73,3.58,17.73a.25.25,0,0,0,.19-.09c.17-.18,8.46-5.87,10.26-14.85s.11-16.87-3.77-17.65a3.47,3.47,0,0,0-.64-.06Z" transform="translate(0 0)" style="fill:#51281f"/><path d="M800.5,252.36a21,21,0,0,1-2.62-.11c-6.75-.57-12-5.83-14-8.07l-.07-.08c.74-1.22,8.63-5.1,15.08-5.1H799c5.13,0,10,1.82,12.54,4.55a4.47,4.47,0,0,1,1.4,3.3C812.71,250,807.34,252.36,800.5,252.36Z" transform="translate(0 0)" style="fill:#51281f"/><path d="M798.92,239.52H799c5,0,9.78,1.76,12.18,4.38a4.09,4.09,0,0,1,1.27,2.92c-.24,2.83-5.5,5.05-12,5.05a20.4,20.4,0,0,1-2.58-.11c-6.32-.53-11.32-5.32-13.4-7.64,1.53-1.31,8.34-4.61,14.39-4.61m0-1c-7.41,0-16.68,4.9-15.52,5.86.18.15,6.13,7.69,14.43,8.39.91.08,1.79.11,2.66.11,7.09,0,12.68-2.46,13-6,.33-3.93-6.1-8.33-14.43-8.39Z" transform="translate(0 0)" style="fill:#51281f"/><path d="M777.05,262.36c-.15-1.22,1.42-7.39,4.77-11.19,3.07-3.49,6.79-5,9.11-5a3.13,3.13,0,0,1,2.3.78c.85.88.9,2.55.12,4.6a19.77,19.77,0,0,1-4.68,6.72C785,261.89,779.32,262.36,777.05,262.36Z" transform="translate(0 0)" style="fill:#51281f"/><path d="M790.93,246.66h0a2.74,2.74,0,0,1,1.94.63c.71.73.71,2.21,0,4.07a19.12,19.12,0,0,1-4.56,6.54c-3.33,3.25-8.3,3.88-10.76,4a22.59,22.59,0,0,1,4.64-10.35c3-3.37,6.52-4.88,8.73-4.88m0-1c-2.69,0-6.47,1.79-9.48,5.22-3.75,4.26-5.67,12-4.62,12h0c.18,0,7.52.22,12.14-4.28s6.66-9.89,4.57-12a3.63,3.63,0,0,0-2.65-.93Z" transform="translate(0 0)" style="fill:#51281f"/><path d="M810,333.67c-.27,0-.58-.3-.82-.81a6.43,6.43,0,0,1,0-4.84l.49-1c.14-.3.29-.39.34-.39s.19.1.34.39l.49,1a6.43,6.43,0,0,1,0,4.84C810.6,333.36,810.29,333.67,810,333.67Z" transform="translate(0 0)" style="fill:#efb595"/><path d="M810,327.46l.37.77a5.9,5.9,0,0,1,0,4.41.39.39,0,0,1-.75.21.38.38,0,0,1,0-.21,5.9,5.9,0,0,1,0-4.41l.37-.77m0-1.35c-.28,0-.57.22-.79.67l-.49,1a6.9,6.9,0,0,0,0,5.28c.35.73.81,1.09,1.27,1.09s.92-.36,1.27-1.09a6.9,6.9,0,0,0,0-5.28l-.49-1c-.22-.45-.5-.67-.79-.67Z" transform="translate(0 0)" style="fill:#efb595"/><path d="M784.49,324.6c-3.07-.57-5.57-6.32-5.57-13.05s2.48-12.42,5.52-13v13Z" transform="translate(0 0)" style="fill:#f9c9a8"/><path d="M783.94,299.21v24.7c-2.32-1.1-4.57-5.87-4.57-12.36s2.22-11.2,4.52-12.34m1-1.26c-3.58.06-6.52,6.18-6.52,13.6s3,13.6,6.57,13.6v-13.6Z" transform="translate(0 0)" style="fill:#f9c9a8"/><path d="M784,319.43c-1.32-.55-2.62-3.23-2.62-6.89s1.28-6.3,2.59-6.88v6.88Z" transform="translate(0 0)" style="fill:#efb595"/><path d="M783.43,306.69v11.73a11.49,11.49,0,0,1,0-11.74m1-1.64c-2,0-3.59,3.41-3.59,7.49s1.63,7.49,3.62,7.49V305Z" transform="translate(0 0)" style="fill:#efb595"/><path d="M833.88,312.44l.1-13c3.06.68,5.52,6.51,5.47,13.24s-2.58,12.34-5.62,12.85Z" transform="translate(0 0)" style="fill:#f9c9a8"/><path d="M834.48,300.12c2.32,1.19,4.52,6,4.47,12.52s-2.29,11.09-4.61,12.16V312.44l.09-12.32m-1-1.28-.1,13.6-.05,13.6h.05c3.56,0,6.51-6,6.57-13.39S837,299,833.44,298.84Z" transform="translate(0 0)" style="fill:#f9c9a8"/><path d="M834.42,312.46l.05-6.87c1.32.61,2.59,3.32,2.57,7s-1.33,6.26-2.64,6.78Z" transform="translate(0 0)" style="fill:#efb595"/><path d="M835,306.63a9.75,9.75,0,0,1,1.57,5.94,9.32,9.32,0,0,1-1.63,5.79V306.63m-1-1.66-.06,7.49V320h0c2,0,3.59-3.31,3.62-7.38S835.88,305,833.9,305Z" transform="translate(0 0)" style="fill:#efb595"/><path d="M821.68,298.67s-4-2.7-6.85.9" transform="translate(0 0)" style="fill:none;stroke:#020101;stroke-miterlimit:10;stroke-width:0.4000000059604645px"/><path d="M804,298.67s-4-2.7-6.85.9" transform="translate(0 0)" style="fill:none;stroke:#020101;stroke-miterlimit:10;stroke-width:0.4000000059604645px"/><path d="M800.49,312.85c-1,0-2.06-1.85-2.19-4.55h2.17l2.18-.06c-.09,2.71-1.15,4.58-2.13,4.61Z" transform="translate(0 0)" style="fill:#160904"/><path d="M802.1,308.76c-.2,2.23-1.09,3.58-1.62,3.6s-1.43-1.33-1.65-3.55h3.28m1-1-2.68.07H797.8V308c0,3,1.25,5.48,2.71,5.48h0c1.47,0,2.65-2.58,2.62-5.62Z" transform="translate(0 0)" style="fill:#160904"/><path d="M818.28,312.75c-1,0-2.06-1.85-2.19-4.55h2.17l2.18-.06c-.09,2.71-1.15,4.58-2.13,4.61Z" transform="translate(0 0)" style="fill:#160904"/><path d="M819.9,308.66c-.2,2.23-1.09,3.58-1.62,3.6s-1.43-1.33-1.65-3.55h3.28m1-1-2.68.07h-2.68v.07c0,3,1.25,5.48,2.71,5.48h0c1.47,0,2.65-2.58,2.62-5.62Z" transform="translate(0 0)" style="fill:#160904"/><path d="M802.47,349.68s8.38,11.91,14.26-1.17Z" transform="translate(0 0)" style="fill:#a0230e;stroke:#a0230e;stroke-miterlimit:10"/><rect x="790.3" y="481.86" width="39" height="31" style="fill:#050302"/><path d="M828.8,482.36v30h-38v-30h38m1-1h-40v32h40Z" transform="translate(0 0)" style="fill:#050302"/></svg>
