<svg xmlns="http://www.w3.org/2000/svg" xmlns:xlink="http://www.w3.org/1999/xlink" viewBox="0 0 1366 768"><defs><clipPath id="a"><rect x="361" width="644.51" height="487" style="fill:none"/></clipPath></defs><title>trykindpå</title><rect x="7" y="7" width="1352" height="754"/><path d="M1352,14V754H14V14H1352m14-14H0V768H1366V0Z"/><g style="clip-path:url(#a)"><g style="clip-path:url(#a)"><path d="M505.75,251.46c-2.58.87-4.39,2.91-6.48,4.49-7.4,5.56-14.72,11.23-22.08,16.84-.58.45-1.11,1.3-1.95,1-1-.43-.62-1.5-.63-2.3,0-11.38-.11-22.77.05-34.15,0-2.67-.81-3.19-3.26-3.13-7.24.15-14.48.1-21.71,0a15.08,15.08,0,0,1-15.25-15.51c0-41.59.21-83.17-.09-124.75-.08-10.62,7.53-17.22,17.25-17.21q228.79.26,457.61.12c9.39,0,15.76,6.35,15.77,15.79q0,63,0,125.91c0,7.89-4.13,13.06-12.48,15.54-1.64,0-3.28.09-4.92.09h-272q-52.38,0-104.75,0A8.23,8.23,0,0,0,525,236c-3.68,3.09-7.76,5.71-11.45,8.78-2.64,2.19-5.91,3.66-7.84,6.68" style="fill:#152230"/><path d="M505.75,251.46c1.93-3,5.2-4.49,7.84-6.68,3.69-3.07,7.77-5.69,11.45-8.78a8.23,8.23,0,0,1,5.83-1.85q52.38,0,104.75,0h272c1.64,0,3.28-.06,4.92-.09.91,1.76,2.94,1.56,4.36,2.49,4.81,3.16,7.27,7.41,7.27,13.22,0,41.67-.15,83.35.12,125,.06,8.71-6.27,16.8-16.81,16.78q-111.72-.23-223.44-.08c-26.92,0-53.83.07-80.75,0a12,12,0,0,0-7.86,2.73q-18.93,14.64-37.92,29.21c-2.89,2.22-5.86,4.34-8.77,6.54-1.81,1.37-2.46.89-2.46-1.29q0-16.35-.08-32.7c0-4.37-.09-4.43-4.35-4.44-6.56,0-13.13-.2-19.68.06-9.17.36-16.45-7-16.41-16.55.16-40.23.07-80.46.07-120.69,0-1,0-1.93-.07-2.89" style="fill:#f2902c"/><path d="M518.18,196.11H497V114.7H530.7q13.71,0,21,7.13T559,141.91q0,13-7.29,20.08t-21,7.13H518.18Zm0-44.05h7q11.67,0,11.66-10.15t-11.66-10.15h-7Z" style="fill:#fff"/><path d="M633.78,196.11H607.44L587.25,164.8v31.31H566.08V114.7H599a32.34,32.34,0,0,1,11.88,2,22.31,22.31,0,0,1,13.33,13.44,27.81,27.81,0,0,1,1.68,9.72q0,9.28-4.48,15.06t-13.23,7.83Zm-46.53-45h4q6.25,0,9.61-2.59a10,10,0,0,0,0-14.9q-3.35-2.59-9.61-2.59h-4Z" style="fill:#fff"/><rect x="640.24" y="114.7" width="21.16" height="81.41" style="fill:#fff"/><polygon points="690.53 114.7 710.18 164.26 729.94 114.7 752.94 114.7 718.6 196.11 701.76 196.11 667.53 114.7 690.53 114.7" style="fill:#fff"/><path d="M799,182.55H768.77l-4.86,14.14H741.34l31-81.41h23.11l31,81.41H803.86Zm-5.62-16.09-9.5-27.1-9.5,27.1Z" style="fill:#fff"/><polygon points="857.73 133.21 857.73 196.69 836.57 196.69 836.57 133.21 819.19 133.21 819.19 115.28 875.12 115.28 875.12 133.21 857.73 133.21" style="fill:#fff"/><path d="M613,292.21a25.9,25.9,0,0,0-6.89-4.15,18.23,18.23,0,0,0-6.67-1.34,10.85,10.85,0,0,0-6.68,1.93,6.05,6.05,0,0,0-2.58,5.06,5,5,0,0,0,1.29,3.56,11.25,11.25,0,0,0,3.39,2.42,29,29,0,0,0,4.74,1.78q2.64.75,5.22,1.61,10.33,3.45,15.13,9.21t4.79,15a29.21,29.21,0,0,1-2.1,11.3,23.54,23.54,0,0,1-6.14,8.67,28.24,28.24,0,0,1-9.9,5.6,41.26,41.26,0,0,1-13.3,2,48.87,48.87,0,0,1-28.53-9.15l9-17a36.53,36.53,0,0,0,9.37,6.24,22.41,22.41,0,0,0,9.15,2.05c3.45,0,6-.79,7.7-2.37a7.19,7.19,0,0,0,2.53-5.38,7.31,7.31,0,0,0-.65-3.18,7,7,0,0,0-2.15-2.48,17.57,17.57,0,0,0-3.93-2.1q-2.42-1-5.87-2.15-4.1-1.29-8-2.85a25.37,25.37,0,0,1-7-4.15,19.21,19.21,0,0,1-5-6.51,23,23,0,0,1-1.88-10,28.75,28.75,0,0,1,2-10.93,24,24,0,0,1,5.6-8.4,25,25,0,0,1,8.82-5.44,33.49,33.49,0,0,1,11.69-1.93,51.12,51.12,0,0,1,12.59,1.66,56.07,56.07,0,0,1,12.6,4.9Z" style="fill:#fff"/><polygon points="632.74 352.61 632.74 271.43 653.84 271.43 692.82 321.06 692.82 271.43 713.81 271.43 713.81 352.61 692.82 352.61 653.84 302.97 653.84 352.61 632.74 352.61" style="fill:#fff"/><path d="M775.51,338.5H745.36l-4.85,14.11H718l30.9-81.18h23l30.9,81.18h-22.5Zm-5.6-16-9.48-27-9.47,27Z" style="fill:#fff"/><polygon points="827.94 304.91 853.67 271.43 879.73 271.43 847.54 309.86 882.75 352.61 855.4 352.61 827.94 317.4 827.94 352.61 806.84 352.61 806.84 271.43 827.94 271.43 827.94 304.91" style="fill:#fff"/></g></g><text transform="translate(407.37 518.32)" style="font-size:60px;fill:#fff;font-family:ShadowsIntoLight, Shadows Into Light">Tryk ind på </text><text></text><text></text><path d="M331.42,158a1.5,1.5,0,0,0,0-3,1.5,1.5,0,0,0,0,3Z"/><path d="M893.59,410.14c5,2-2.44-1.21.39.17,1.25.62,2.54,1.16,3.8,1.76q3.78,1.81,7.46,3.83a157.76,157.76,0,0,1,15,9.29c1.14.81,2.27,1.64,3.4,2.46,3.21,2.33-1.52-1.34.39.3,2.13,1.82,4.31,3.56,6.4,5.42a164.19,164.19,0,0,1,12.44,12.45c10.49,11.64,31.5,5.66,35.1-9.27,1.69-7,3.61-14,5.84-20.86q1.54-4.77,3.28-9.47c.68-1.83,1.38-3.64,2.09-5.45a12.12,12.12,0,0,1,.94-2.32c-.9,1.3-1.17,2.66-.17.4a205.73,205.73,0,0,1,21.17-37.54c1-1.4,2.83-4,.69-1.05,1-1.34,2.07-2.6,3.12-3.87q3.43-4.15,7.14-8.08A185.88,185.88,0,0,1,1037.54,334c1.81-1.53-.92.67-1,.79a30.42,30.42,0,0,1,2.62-1.93q2-1.42,4-2.79,4.38-2.94,9-5.57c3-1.74,6.15-3.38,9.32-4.89,1.18-.57,3.11-1.93,4.41-2-.08,0-3.59,1.41-1.29.57,1-.37,2-.79,3-1.17a126.44,126.44,0,0,1,22.46-6.11c.79-.13,1.58-.24,2.37-.38,3-.53-3.84.34-.81.12,1.87-.13,3.73-.37,5.6-.48a117.56,117.56,0,0,1,12.87,0c11,.53,21.49-10,21-21-.53-11.83-9.23-20.43-21-21-67.94-3.27-126.42,45.2-154,104.24a281.58,281.58,0,0,0-18.61,53.05l35.1-9.27c-18.73-20.79-42-36-67.77-46.48-10.2-4.16-23.51,4.51-25.83,14.67-2.78,12.19,3.75,21.37,14.67,25.83Z" style="fill:#fff"/></svg>
