<svg xmlns="http://www.w3.org/2000/svg" viewBox="0 0 378.61 300.97"><defs><style>.cls-1{fill:#f7d5bf;}.cls-1,.cls-4{stroke:#020202;}.cls-1,.cls-15,.cls-4{stroke-miterlimit:10;}.cls-2{fill:#dddad3;}.cls-3{fill:#020202;}.cls-4{fill:#e2eef7;}.cls-5{fill:#050505;}.cls-10,.cls-12,.cls-6,.cls-7,.cls-8{isolation:isolate;font-family:ArialMT, Arial;}.cls-6{font-size:8.63px;}.cls-12,.cls-7,.cls-8{font-size:5.18px;}.cls-8{letter-spacing:-0.06em;}.cls-9{fill:#d4d6d8;}.cls-10{font-size:6.9px;}.cls-11{fill:#acb9c1;}.cls-12{letter-spacing:-0.02em;}.cls-13{fill:#3ba9ed;}.cls-14{fill:#5fea3d;}.cls-15{fill:#fff;stroke:#eae9e5;}</style></defs><title>hånd_med_telefon</title><g id="Layer_1" data-name="Layer 1"><g id="Lag_2" data-name="Lag 2"><g id="Lag_5" data-name="Lag 5"><path class="cls-1" d="M61.19,181.09c63.67-42.85,90.33-108.37,112.52-177.2C182.88-3.18,192,.16,201.2,7.76c23.59,42-15.18,94.15-37.67,178.71,86.25-22.26,156.29-65,236.9-122.07,33.83-12.25,33.64,21.28,31.38,25-4.58,2.89-148.87,88.08-155.32,100.91-1.95,3.85.16,6.44,3.94,8.47l142.77-87c11.34-1.69,21.37,8,11.75,23.11C383.68,171.72,331.67,209,308.66,230.4c-4.58,7.19-2.91,11.77,6.28,11.45,35.32-19.17,66.42-38,88.63-56.23,35.25-24.6,43,1.19,15.69,18.48C400,219.8,369.12,243.77,336.8,271.9c-5,8-6.23,14.43,3.92,13.74,25.33-11.11,51.51-29,73.75-37,16.21-7.86,23.86,2.57,11,13.74-14.57,12.25-33.71,24.35-55,37.26H61.19Z" transform="translate(-60.69 0.5)"/><path class="cls-1" d="M157,183.79a103.29,103.29,0,0,1-63.46,23.8" transform="translate(-60.69 0.5)"/><path class="cls-1" d="M242.35,162q12.55,19.17,25.19,26.7" transform="translate(-60.69 0.5)"/><path class="cls-1" d="M279.09,203.12c-.37-.89,4.74,18.32,21.14,27.19" transform="translate(-60.69 0.5)"/><path class="cls-1" d="M314.59,246.2c-2,5.91,7.24,24.62,14,28.67" transform="translate(-60.69 0.5)"/><path class="cls-1" d="M366.76,212.7c1.63,8.06,7.12,14.18,14.54,19.31" transform="translate(-60.69 0.5)"/><path class="cls-1" d="M316.88,121.41q4.05,13.1,19.81,22" transform="translate(-60.69 0.5)"/><path class="cls-1" d="M316.88,121.41q4.05,13.1,19.81,22" transform="translate(-60.69 0.5)"/><path class="cls-1" d="M347.41,162.7c3.53,7.4,6.44,13.74,19.35,19.9" transform="translate(-60.69 0.5)"/><path class="cls-1" d="M185.67,200.88q23.5,47-4.88,93.9" transform="translate(-60.69 0.5)"/><path class="cls-1" d="M159.26,101.11a79.45,79.45,0,0,0,23.82,21.64" transform="translate(-60.69 0.5)"/><path class="cls-1" d="M131,153.88a142.93,142.93,0,0,0,37.83,3.66" transform="translate(-60.69 0.5)"/><path class="cls-1" d="M393.46,260.08c2.29,5.13,4.12,9.44,13.28,14.22" transform="translate(-60.69 0.5)"/><path class="cls-1" d="M348.39,288.07c2.75,4.44,5,8.2,15.12,11.93" transform="translate(-60.69 0.5)"/><path class="cls-1" d="M161.32,40.08Q180.84,28,188.56,0" transform="translate(-60.69 0.5)"/></g></g></g><g id="Layer_2" data-name="Layer 2"><g id="Lag_2-2" data-name="Lag 2"><g id="knap"><circle cx="193.69" cy="25.99" r="2.42"/><path d="M264.74,24.63h19.5a1.18,1.18,0,0,1,1.21,1.21h0A1.18,1.18,0,0,1,284.24,27h-19.5a1.18,1.18,0,0,1-1.21-1.21h0A1.18,1.18,0,0,1,264.74,24.63Z" transform="translate(-60.69 0.5)"/><path class="cls-2" d="M232.65,10.31h86.79A20.77,20.77,0,0,1,340.15,31V279.15a20.77,20.77,0,0,1-20.71,20.71H232.65a20.77,20.77,0,0,1-20.71-20.71V31A20.77,20.77,0,0,1,232.65,10.31Z" transform="translate(-60.69 0.5)"/><path d="M232,44.64a2.4,2.4,0,0,1,3.28,0" transform="translate(-60.69 0.5)"/><path class="cls-3" d="M232.47,45.51a1.47,1.47,0,0,1,2.24,0" transform="translate(-60.69 0.5)"/><path class="cls-3" d="M233.16,46.2l.52.86.69-.86a.83.83,0,0,0-1.21,0Z" transform="translate(-60.69 0.5)"/><path d="M235.41,44.64a2.71,2.71,0,0,1,3.8,0" transform="translate(-60.69 0.5)"/><path class="cls-3" d="M235.92,45.51a1.88,1.88,0,0,1,2.59,0" transform="translate(-60.69 0.5)"/><path class="cls-3" d="M238,46.37a.85.85,0,0,0-1.21-.17l-.17.17.69,1" transform="translate(-60.69 0.5)"/><path d="M308.91,64.32a2.4,2.4,0,0,1,3.28,0" transform="translate(-60.69 0.5)"/><path class="cls-3" d="M309.43,65.18a1.81,1.81,0,0,1,2.24,0" transform="translate(-60.69 0.5)"/><path class="cls-3" d="M311.16,65.87A1.06,1.06,0,0,0,310,65.7l-.17.17.52.86" transform="translate(-60.69 0.5)"/><rect class="cls-4" x="158.32" y="41.35" width="113.71" height="221.04"/><ellipse class="cls-5" cx="162.29" cy="46.52" rx="0.69" ry="0.86"/><ellipse class="cls-5" cx="170.74" cy="46.52" rx="0.69" ry="0.86"/><ellipse class="cls-5" cx="168.67" cy="46.52" rx="0.69" ry="0.86"/><ellipse class="cls-5" cx="166.43" cy="46.52" rx="0.69" ry="0.86"/><ellipse class="cls-5" cx="164.53" cy="46.52" rx="0.69" ry="0.86"/><path class="cls-5" d="M322.2,45.85h4.14a1.73,1.73,0,0,1,1.73,1.73v.35a1.73,1.73,0,0,1-1.73,1.73H322.2a1.73,1.73,0,0,1-1.73-1.73v-.35A2,2,0,0,1,322.2,45.85Z" transform="translate(-60.69 0.5)"/><path class="cls-5" d="M328.41,47.06h0a.37.37,0,0,1,.35.35v.69a.37.37,0,0,1-.35.35h0a.37.37,0,0,1-.35-.35v-.69A.37.37,0,0,1,328.41,47.06Z" transform="translate(-60.69 0.5)"/><text class="cls-6" transform="translate(182.86 51.3) scale(0.7 1)"><tspan xml:space="preserve">                    08:50       100%</tspan></text><path class="cls-3" d="M265.43,24.46h19.33a.74.74,0,0,1,.69.69V26a.74.74,0,0,1-.69.69H265.43a.74.74,0,0,1-.69-.69v-.86A.63.63,0,0,1,265.43,24.46Z" transform="translate(-60.69 0.5)"/><ellipse class="cls-3" cx="193.69" cy="25.99" rx="2.24" ry="2.42"/><text class="cls-7" transform="translate(159.82 78.57)"><tspan xml:space="preserve">      </tspan></text><text class="cls-7" transform="translate(166.39 78.57)">B</text><text class="cls-7" transform="translate(169.22 78.57)"><tspan xml:space="preserve">eskeder               </tspan></text><text class="cls-8" transform="translate(202.54 78.57)">A</text><text class="cls-7" transform="translate(205.7 78.57)"><tspan xml:space="preserve">ktiv(69)                   Grupper</tspan></text><path class="cls-9" d="M227.47,58.79H320.3a5.45,5.45,0,0,1,5.52,5.52h0a5.45,5.45,0,0,1-5.52,5.52H227.47a5.45,5.45,0,0,1-5.52-5.52h0A5.68,5.68,0,0,1,227.47,58.79Z" transform="translate(-60.69 0.5)"/><text class="cls-10" transform="translate(166.24 66.64)">S</text><text class="cls-10" transform="translate(169.69 66.64)">øg</text><text class="cls-10" transform="translate(161.39 96.44)">Sene</text><text class="cls-10" transform="translate(178.32 96.44)">t</text><text class="cls-10" transform="translate(180.56 96.44)"><tspan xml:space="preserve">e                       opret gruppe  </tspan></text><text class="cls-10" transform="translate(246.84 130.35)">08:27</text><text class="cls-10" transform="translate(246.29 114.22)">08:48</text><circle class="cls-11" cx="234.42" cy="138.32" r="3.28"/><circle class="cls-11" cx="257.37" cy="138.32" r="3.28"/><circle class="cls-11" cx="249.6" cy="138.32" r="3.28"/><circle class="cls-11" cx="242.01" cy="138.32" r="3.28"/><text class="cls-7" transform="translate(255.83 139.84)">K</text><text class="cls-12" transform="translate(248.27 139.94)">P</text><text class="cls-7" transform="translate(239.94 139.7)">M</text><text class="cls-8" transform="translate(232.55 140.01)">A</text><circle class="cls-13" cx="166.77" cy="131.07" r="5.35"/><text class="cls-7" transform="translate(174.85 132.35)">7.C $$$</text><circle class="cls-14" cx="166.77" cy="112.78" r="5.35"/><text class="cls-7" transform="translate(174.19 113.97)">Hen</text><text class="cls-7" transform="translate(183.03 113.97)">r</text><text class="cls-7" transform="translate(184.76 113.97)">ik</text><text class="cls-7" transform="translate(165.34 139.48)"><tspan xml:space="preserve">....  Har delt et billede</tspan></text><text class="cls-7" transform="translate(261.81 140.93)">...</text><text class="cls-7" transform="translate(172.11 120.63)">H</text><text class="cls-7" transform="translate(175.52 120.63)">v</text><text class="cls-7" transform="translate(177.99 120.63)">ad du </text><text class="cls-7" transform="translate(191.38 120.63)">h</text><text class="cls-7" transform="translate(194.18 120.63)">v</text><text class="cls-7" transform="translate(196.64 120.63)">ad der sker i </text><text class="cls-7" transform="translate(223.63 120.63)">k</text><text class="cls-7" transform="translate(226.15 120.63)">las</text><text class="cls-7" transform="translate(231.93 120.63)">s</text><text class="cls-7" transform="translate(233.91 120.63)">...</text><circle class="cls-15" cx="214.4" cy="276.88" r="10.53"/></g></g></g></svg>
