<?xml version="1.0" encoding="utf-8"?>
<!-- Generator: Adobe Illustrator 21.1.0, SVG Export Plug-In . SVG Version: 6.00 Build 0)  -->
<svg version="1.1" xmlns="http://www.w3.org/2000/svg" xmlns:xlink="http://www.w3.org/1999/xlink" x="0px" y="0px"
	 viewBox="0 0 500 300" style="enable-background:new 0 0 500 300;" xml:space="preserve">
<style type="text/css">
	.st0{fill:#F7D5BF;stroke:#020202;stroke-miterlimit:10;}
	.st1{fill:#DDDAD3;}
	.st2{fill:#020202;}
	.st3{fill:#E2EEF7;stroke:#020202;stroke-miterlimit:10;}
	.st4{fill:#050505;}
	.st5{font-family:'ArialMT';}
	.st6{font-size:8.6277px;}
	.st7{font-size:5.1766px;}
	.st8{fill:#D4D6D8;}
	.st9{font-size:6.9022px;}
	.st10{fill:#ACB9C1;}
	.st11{fill:#3BA9ED;}
	.st12{fill:#5FEA3D;}
	.st13{fill:#FFFFFF;stroke:#EAE9E5;stroke-miterlimit:10;}
</style>
<g id="Layer_1">
	<title>hånd</title>
	<g id="Lag_2">
		<g id="Lag_5">
			<path class="st0" d="M61.2,181.1c63.7-42.9,90.3-108.4,112.5-177.2c9.2-7.1,18.3-3.7,27.5,3.9c23.6,42-15.2,94.2-37.7,178.7
				c86.3-22.3,156.3-65,236.9-122.1c33.8-12.3,33.6,21.3,31.4,25c-4.6,2.9-148.9,88.1-155.3,100.9c-1.9,3.8,0.2,6.4,3.9,8.5
				l142.8-87c11.3-1.7,21.4,8,11.7,23.1c-51.3,36.9-103.3,74.1-126.3,95.5c-4.6,7.2-2.9,11.8,6.3,11.5c35.3-19.2,66.4-38,88.6-56.2
				c35.2-24.6,43,1.2,15.7,18.5c-19.3,15.7-50.1,39.7-82.4,67.8c-5,8-6.2,14.4,3.9,13.7c25.3-11.1,51.5-29,73.7-37
				c16.2-7.9,23.9,2.6,11,13.7c-14.6,12.3-33.7,24.3-55,37.3H61.2V181.1z"/>
			<path class="st0" d="M157,183.8c-17.9,14.8-40.2,23.2-63.5,23.8"/>
			<path class="st0" d="M242.4,162c8.4,12.8,16.8,21.7,25.2,26.7"/>
			<path class="st0" d="M279.1,203.1c-0.4-0.9,4.7,18.3,21.1,27.2"/>
			<path class="st0" d="M314.6,246.2c-2,5.9,7.2,24.6,14,28.7"/>
			<path class="st0" d="M366.8,212.7c1.6,8.1,7.1,14.2,14.5,19.3"/>
			<path class="st0" d="M316.9,121.4c2.7,8.7,9.3,16.1,19.8,22"/>
			<path class="st0" d="M316.9,121.4c2.7,8.7,9.3,16.1,19.8,22"/>
			<path class="st0" d="M347.4,162.7c3.5,7.4,6.4,13.7,19.4,19.9"/>
			<path class="st0" d="M185.7,200.9c15.7,31.3,14,62.6-4.9,93.9"/>
			<path class="st0" d="M159.3,101.1c6.4,8.8,14.5,16.1,23.8,21.6"/>
			<path class="st0" d="M131,153.9c12.4,2.9,25.1,4.1,37.8,3.7"/>
			<path class="st0" d="M393.5,260.1c2.3,5.1,4.1,9.4,13.3,14.2"/>
			<path class="st0" d="M348.4,288.1c2.7,4.4,5,8.2,15.1,11.9"/>
			<path class="st0" d="M161.3,40.1c13-8.1,22.1-21.4,27.2-40.1"/>
		</g>
	</g>
</g>
<g id="Layer_2">
	<g id="Lag_2_1_">
		<g id="knap">
			<circle cx="254.4" cy="25.5" r="2.4"/>
			<path d="M264.7,24.6h19.5c0.7,0,1.2,0.5,1.2,1.2l0,0c0,0.7-0.5,1.2-1.2,1.2h-19.5c-0.7,0-1.2-0.5-1.2-1.2l0,0
				C263.5,25.1,264.1,24.6,264.7,24.6z"/>
			<path class="st1" d="M232.6,10.3h86.8c11.4,0,20.7,9.3,20.7,20.7v248.1c0,11.4-9.3,20.7-20.7,20.7h-86.8
				c-11.4,0-20.7-9.3-20.7-20.7V31C211.9,19.6,221.3,10.3,232.6,10.3z"/>
			<path d="M232,44.6c0.9-0.9,2.4-0.9,3.3,0"/>
			<path class="st2" d="M232.5,45.5c0.7-0.7,1.7-0.7,2.2,0"/>
			<path class="st2" d="M233.2,46.2l0.5,0.9l0.7-0.9C234,45.9,233.5,45.9,233.2,46.2C233.2,46,233.2,46.2,233.2,46.2z"/>
			<path d="M235.4,44.6c1-1,2.8-1,3.8,0"/>
			<path class="st2" d="M235.9,45.5c0.7-0.7,1.9-0.7,2.6,0"/>
			<path class="st2" d="M238,46.4c-0.3-0.3-0.9-0.5-1.2-0.2l-0.2,0.2l0.7,1"/>
			<path d="M308.9,64.3c0.9-0.9,2.4-0.9,3.3,0"/>
			<path class="st2" d="M309.4,65.2c0.7-0.5,1.7-0.5,2.2,0"/>
			<path class="st2" d="M311.2,65.9c-0.3-0.3-0.9-0.3-1.2-0.2c0,0,0,0-0.2,0.2l0.5,0.9"/>
			<rect x="219" y="40.8" class="st3" width="113.7" height="221"/>
			<ellipse class="st4" cx="223" cy="46" rx="0.7" ry="0.9"/>
			<ellipse class="st4" cx="231.4" cy="46" rx="0.7" ry="0.9"/>
			<ellipse class="st4" cx="229.4" cy="46" rx="0.7" ry="0.9"/>
			<ellipse class="st4" cx="227.1" cy="46" rx="0.7" ry="0.9"/>
			<ellipse class="st4" cx="225.2" cy="46" rx="0.7" ry="0.9"/>
			<path class="st4" d="M322.2,45.9h4.1c0.9,0,1.7,0.7,1.7,1.7v0.3c0,0.9-0.7,1.7-1.7,1.7h-4.1c-0.9,0-1.7-0.7-1.7-1.7v-0.3
				C320.6,46.7,321.3,45.9,322.2,45.9z"/>
			<path class="st4" d="M328.4,47.1L328.4,47.1c0.2,0,0.3,0.2,0.3,0.3v0.7c0,0.2-0.2,0.3-0.3,0.3l0,0c-0.2,0-0.3-0.2-0.3-0.3v-0.7
				C328.1,47.2,328.2,47.1,328.4,47.1z"/>
			<text transform="matrix(0.7 0 0 1 243.5512 50.8033)" class="st5 st6">                    08:50       100%</text>
			<path class="st2" d="M265.4,24.5h19.3c0.3,0,0.7,0.3,0.7,0.7V26c0,0.3-0.3,0.7-0.7,0.7h-19.3c-0.3,0-0.7-0.3-0.7-0.7v-0.9
				C264.7,24.6,265.1,24.5,265.4,24.5z"/>
			<ellipse class="st2" cx="254.4" cy="25.5" rx="2.2" ry="2.4"/>
			<text transform="matrix(1 0 0 1 220.5151 78.067)" class="st5 st7">      </text>
			<text transform="matrix(1 0 0 1 227.0893 78.067)" class="st5 st7">B</text>
			<text transform="matrix(1 0 0 1 229.9184 78.067)" class="st5 st7">eskeder               </text>
			<text transform="matrix(1 0 0 1 263.2387 78.067)" class="st5 st7">A</text>
			<text transform="matrix(1 0 0 1 266.3969 78.067)" class="st5 st7">ktiv(69)                   Grupper</text>
			<path class="st8" d="M227.5,58.8h92.8c3.1,0,5.5,2.4,5.5,5.5l0,0c0,3.1-2.4,5.5-5.5,5.5h-92.8c-3.1,0-5.5-2.4-5.5-5.5l0,0
				C221.9,61.4,224.5,58.8,227.5,58.8z"/>
			<text transform="matrix(1 0 0 1 226.933 66.1432)" class="st5 st9">S</text>
			<text transform="matrix(1 0 0 1 230.3852 66.1432)" class="st5 st9">øg</text>
			<text transform="matrix(1 0 0 1 222.0844 95.944)" class="st5 st9">Sene</text>
			<text transform="matrix(1 0 0 1 239.0121 95.944)" class="st5 st9">t</text>
			<text transform="matrix(1 0 0 1 241.2553 95.944)" class="st5 st9">e                       opret gruppe  </text>
			<text transform="matrix(1 0 0 1 307.5346 129.8512)" class="st5 st9">08:27</text>
			<text transform="matrix(1 0 0 1 306.9809 113.7174)" class="st5 st9">08:48</text>
			<circle class="st10" cx="295.1" cy="137.8" r="3.3"/>
			<circle class="st10" cx="318.1" cy="137.8" r="3.3"/>
			<circle class="st10" cx="310.3" cy="137.8" r="3.3"/>
			<circle class="st10" cx="302.7" cy="137.8" r="3.3"/>
			<text transform="matrix(1 0 0 1 316.5219 139.3424)" class="st5 st7">K</text>
			<text transform="matrix(1 0 0 1 308.9643 139.4449)" class="st5 st7">P</text>
			<text transform="matrix(1 0 0 1 300.6323 139.2037)" class="st5 st7">M</text>
			<text transform="matrix(1 0 0 1 293.2475 139.5143)" class="st5 st7">A</text>
			<circle class="st11" cx="227.5" cy="130.6" r="5.3"/>
			<text transform="matrix(1 0 0 1 235.5424 131.8522)" class="st5 st7">7.C $$$</text>
			<circle class="st12" cx="227.5" cy="112.3" r="5.3"/>
			<text transform="matrix(1 0 0 1 234.8871 113.4762)" class="st5 st7">Hen</text>
			<text transform="matrix(1 0 0 1 243.7231 113.4762)" class="st5 st7">r</text>
			<text transform="matrix(1 0 0 1 245.4496 113.4762)" class="st5 st7">ik</text>
			<text transform="matrix(1 0 0 1 226.0356 138.9801)" class="st5 st7">....  Har delt et billede</text>
			<text transform="matrix(1 0 0 1 322.5092 140.4293)" class="st5 st7">...</text>
			<text transform="matrix(1 0 0 1 232.8002 120.1363)" class="st5 st7">H</text>
			<text transform="matrix(1 0 0 1 236.2153 120.1363)" class="st5 st7">v</text>
			<text transform="matrix(1 0 0 1 238.685 120.1363)" class="st5 st7">ad du </text>
			<text transform="matrix(1 0 0 1 252.0727 120.1363)" class="st5 st7">h</text>
			<text transform="matrix(1 0 0 1 254.8696 120.1363)" class="st5 st7">v</text>
			<text transform="matrix(1 0 0 1 257.3354 120.1363)" class="st5 st7">ad der sker i </text>
			<text transform="matrix(1 0 0 1 284.3246 120.1363)" class="st5 st7">k</text>
			<text transform="matrix(1 0 0 1 286.8442 120.1363)" class="st5 st7">las</text>
			<text transform="matrix(1 0 0 1 292.6245 120.1363)" class="st5 st7">s</text>
			<text transform="matrix(1 0 0 1 294.6078 120.1363)" class="st5 st7">...</text>
			<circle class="st13" cx="275.1" cy="276.4" r="10.5"/>
		</g>
	</g>
</g>
</svg>
