<svg xmlns="http://www.w3.org/2000/svg" viewBox="0 0 165.88 131.99"><defs><style>.cls-1{fill:#f7d5bf;stroke:#020202;stroke-miterlimit:10;}</style></defs><title>hånd</title><g id="Lag_2" data-name="Lag 2"><g id="Lag_5" data-name="Lag 5"><path class="cls-1" d="M.5,79.57C28.3,60.86,39.94,32.25,49.63,2.2c4-3.09,8-1.63,12,1.69C71.93,22.21,55,45,45.18,81.92c37.66-9.72,68.24-28.38,103.44-53.3,14.77-5.35,14.69,9.29,13.7,10.92-2,1.26-65,38.46-67.82,44.06-.85,1.68.07,2.81,1.72,3.7l62.34-38c4.95-.74,9.33,3.51,5.13,10.09-22.38,16.09-45.09,32.37-55.14,41.71-2,3.14-1.27,5.14,2.74,5,15.42-8.37,29-16.6,38.7-24.55,15.39-10.74,18.78.52,6.85,8.07-8.42,6.85-21.89,17.32-36,29.6-2.2,3.48-2.72,6.3,1.71,6,11.06-4.85,22.49-12.66,32.2-16.14,7.08-3.43,10.42,1.12,4.79,6-6.36,5.35-14.72,10.63-24,16.27H.5Z"/><path class="cls-1" d="M42.32,80.75A45.1,45.1,0,0,1,14.61,91.14"/><path class="cls-1" d="M79.6,71.22q5.48,8.37,11,11.66"/><path class="cls-1" d="M95.64,89.19c-.16-.39,2.07,8,9.23,11.87"/><path class="cls-1" d="M111.14,108c-.88,2.58,3.16,10.75,6.13,12.52"/><path class="cls-1" d="M133.92,93.37c.71,3.52,3.11,6.19,6.35,8.43"/><path class="cls-1" d="M112.14,53.51q1.77,5.72,8.65,9.59"/><path class="cls-1" d="M112.14,53.51q1.77,5.72,8.65,9.59"/><path class="cls-1" d="M125.47,71.54c1.54,3.23,2.81,6,8.45,8.69"/><path class="cls-1" d="M54.85,88.21q10.26,20.52-2.13,41"/><path class="cls-1" d="M43.32,44.65a34.69,34.69,0,0,0,10.4,9.45"/><path class="cls-1" d="M31,67.69a62.41,62.41,0,0,0,16.52,1.6"/><path class="cls-1" d="M145.58,114.06c1,2.24,1.8,4.12,5.8,6.21"/><path class="cls-1" d="M125.9,126.28c1.2,1.94,2.19,3.58,6.6,5.21"/><path class="cls-1" d="M44.22,18Q52.74,12.72,56.11.5"/></g></g></svg>
