<svg xmlns="http://www.w3.org/2000/svg" xmlns:xlink="http://www.w3.org/1999/xlink" viewBox="0 0 1616.96 901"><defs><style>.cls-1{fill:#c4bba5;}.cls-1,.cls-10,.cls-13,.cls-15,.cls-16,.cls-17,.cls-2,.cls-23,.cls-24,.cls-25,.cls-26,.cls-27,.cls-28,.cls-30,.cls-31,.cls-32,.cls-33,.cls-34,.cls-37,.cls-38,.cls-39,.cls-40,.cls-41,.cls-42,.cls-45,.cls-60,.cls-61{stroke:#070000;}.cls-1,.cls-10,.cls-13,.cls-15,.cls-16,.cls-17,.cls-18,.cls-19,.cls-2,.cls-20,.cls-21,.cls-23,.cls-24,.cls-25,.cls-26,.cls-27,.cls-28,.cls-29,.cls-3,.cls-30,.cls-31,.cls-32,.cls-33,.cls-34,.cls-35,.cls-36,.cls-37,.cls-38,.cls-39,.cls-40,.cls-41,.cls-42,.cls-45,.cls-47,.cls-48,.cls-57,.cls-59,.cls-60,.cls-61,.cls-63,.cls-64,.cls-65,.cls-69,.cls-77,.cls-8,.cls-9{stroke-miterlimit:10;}.cls-2{fill:#918a79;}.cls-15,.cls-3,.cls-36,.cls-7{fill:#fff;}.cls-3{stroke:#000;}.cls-4,.cls-8{fill:#e5e5e5;}.cls-5{fill:#152230;}.cls-6{fill:#f2902c;}.cls-8{stroke:#e5e5e5;}.cls-9{fill:url(#Ikke-navngivet_forløb_18);stroke:url(#Ikke-navngivet_forløb_8);}.cls-10{fill:#f4912d;}.cls-11{fill:#fcfbfa;}.cls-12,.cls-33{fill:#020202;}.cls-13{fill:#f7f5f5;}.cls-14{font-size:18px;}.cls-14,.cls-43,.cls-44,.cls-46,.cls-56{font-family:ShadowsIntoLight, Shadows Into Light;}.cls-16,.cls-35,.cls-47,.cls-67,.cls-69{fill:none;}.cls-17,.cls-19,.cls-22{fill:#e5c53e;}.cls-18,.cls-25,.cls-46,.cls-76{fill:#fcfcfc;}.cls-18,.cls-19,.cls-20,.cls-29,.cls-57{stroke:#050505;}.cls-20,.cls-28{fill:#f9f9f9;}.cls-21{fill:#f9f7f7;stroke:#070707;}.cls-23{fill:#89cce5;}.cls-24{fill:#f7f9f9;}.cls-26{fill:#fafcfc;}.cls-27{fill:#f2f7f7;}.cls-29{fill:#f9f7f9;}.cls-30{fill:#22ef30;}.cls-31{fill:#fffefd;}.cls-32{fill:#f9f8f7;}.cls-34{fill:#070606;}.cls-35,.cls-36,.cls-77{stroke:#1d1d1b;}.cls-35,.cls-36{stroke-linecap:round;}.cls-37{fill:#dadada;}.cls-38{fill:#9d9d9d;}.cls-39{fill:#989898;}.cls-40{fill:#8c8c8c;}.cls-41{fill:#ddd;}.cls-42{fill:#a5a5a5;}.cls-43{font-size:12px;}.cls-44{font-size:8px;}.cls-45,.cls-48,.cls-63{fill:#202532;}.cls-46{font-size:24px;}.cls-47,.cls-48{stroke:#202532;}.cls-49{fill:#afe036;}.cls-50{fill:#379add;}.cls-51{fill:#db9d3a;}.cls-52{fill:#d84a3a;}.cls-53{fill:#06e6f7;}.cls-54{fill:#e308f4;}.cls-55{fill:#150af2;}.cls-56{font-size:5px;}.cls-57,.cls-58,.cls-59{fill:#f4f2f2;}.cls-59,.cls-63,.cls-64,.cls-65,.cls-69{stroke:#020202;}.cls-60{fill:#f4f4f4;}.cls-61{fill:#6e7777;}.cls-62{fill:#d1b850;}.cls-64{fill:#a5a49f;}.cls-65{fill:#050505;}.cls-66{fill:#fcfcfa;}.cls-68{fill:#1192f2;}.cls-70{fill:#ce5d51;}.cls-71{fill:#55cc52;}.cls-72{fill:#f48c03;}.cls-73{fill:#12f206;}.cls-74{fill:#07efe8;}.cls-75{fill:#ed200a;}.cls-77{fill:#ededed;}.cls-78{fill:#357f2f;}.cls-79{fill:#2f7a7c;}.cls-80{fill:#7a3530;}.cls-81{fill:#e9f763;}.cls-82{fill:#58ef20;}.cls-83{fill:#ed8221;}.cls-84{fill:#ea2424;}.cls-85{fill:#7aba58;}.cls-86{fill:#58b7a9;}.cls-87{fill:#c939c6;}</style><linearGradient id="Ikke-navngivet_forløb_18" x1="0.57" y1="321.63" x2="56.55" y2="321.63" gradientUnits="userSpaceOnUse"><stop offset="0.28" stop-color="#a4ceea"/><stop offset="0.78" stop-color="#fff"/></linearGradient><linearGradient id="Ikke-navngivet_forløb_8" y1="321.76" x2="57.05" y2="321.76" gradientUnits="userSpaceOnUse"><stop offset="0.23" stop-color="#fff"/><stop offset="0.73" stop-color="#fff"/></linearGradient></defs><title>klasselokale</title><g id="Lag_2" data-name="Lag 2"><g id="lampe6"><polygon class="cls-1" points="16.52 0.5 16.52 123.05 56.55 183.8 932.18 249.92 1616.46 199.89 1616.46 0.5 674.02 0.5 16.52 0.5"/><polyline class="cls-1" points="223.84 196.63 649.77 225.62 812.38 236.68 1604.51 0.5"/><line class="cls-2" x1="1125.06" y1="0.5" x2="690.94" y2="228.42"/><line class="cls-2" x1="725.25" y1="0.5" x2="586.68" y2="221.32"/><line class="cls-2" x1="460.35" y1="0.5" x2="427.68" y2="211.61"/><line class="cls-2" x1="277.62" y1="0.5" x2="270.91" y2="201.81"/><line class="cls-2" x1="100.44" y1="0.5" x2="118.57" y2="188.49"/><path class="cls-2" d="M44.91,166.14C93.78,169.08,1164,228.42,1164,228.42"/><line class="cls-2" x1="16.52" y1="123.05" x2="1390.68" y2="216.4"/><line class="cls-2" x1="1468.57" y1="207.7" x2="16.52" y2="0.5"/><line class="cls-2" x1="1616.46" y1="199.89" x2="712.37" y2="0.5"/><line class="cls-2" x1="1606.47" y1="85.86" x2="1144.41" y2="0.5"/><polygon class="cls-3" points="272.72 602.8 336.06 598.99 376.1 629.37 294.34 636.26 272.72 602.8"/><polygon class="cls-4" points="1616.46 624.61 1616.46 199.89 932.18 249.92 932.18 498.36 1616.46 624.61"/><rect class="cls-4" x="877.38" y="292.91" width="74.12" height="56.28"/><g id="Lag_2-2" data-name="Lag 2"><g id="Layer_1" data-name="Layer 1"><path class="cls-5" d="M1003.52,323.61a3.92,3.92,0,0,0-1,.84L999,327.59c-.09.08-.17.24-.31.18s-.1-.28-.1-.43c0-2.12,0-4.25,0-6.37,0-.5-.13-.59-.52-.58-1.15,0-2.31,0-3.46,0a2.63,2.63,0,0,1-2.44-2.88c0-7.75,0-15.5,0-23.25,0-2,1.2-3.2,2.75-3.2q36.51,0,73,0c1.5,0,2.52,1.19,2.52,2.94q0,11.73,0,23.46a2.78,2.78,0,0,1-2,2.9h-60.9a1.18,1.18,0,0,0-.93.35c-.59.57-1.24,1.06-1.83,1.64A5.4,5.4,0,0,0,1003.52,323.61Z"/><path class="cls-6" d="M1003.52,323.61a5.65,5.65,0,0,1,1.25-1.24c.59-.57,1.24-1.06,1.83-1.64a1.2,1.2,0,0,1,.93-.34h60.12l.79,0c.14.33.47.29.69.47a2.89,2.89,0,0,1,1.16,2.46c0,7.77,0,15.54,0,23.3a2.86,2.86,0,0,1-2.68,3.13q-17.82,0-35.65,0c-4.3,0-8.6,0-12.89,0a1.77,1.77,0,0,0-1.26.51l-6.05,5.45c-.46.41-.93.8-1.4,1.21-.29.26-.39.17-.39-.24q0-3,0-6.09c0-.81,0-.83-.7-.83-1,0-2.09,0-3.14,0-1.46.07-2.62-1.29-2.62-3.08,0-7.5,0-15,0-22.49C1003.53,324,1003.53,323.79,1003.52,323.61Z"/><path class="cls-7" d="M1005.5,313.3h-3.37V298.13h5.37a4.26,4.26,0,0,1,3.36,1.33,6.61,6.61,0,0,1,0,7.48,4.23,4.23,0,0,1-3.36,1.33h-2Zm0-8.21h1.12a1.89,1.89,0,0,0,0-3.78h-1.12Z"/><path class="cls-7" d="M1024,313.3h-4.2l-3.23-5.83v5.83h-3.37V298.13h5.26a4.62,4.62,0,0,1,1.89.37,4,4,0,0,1,2.13,2.51,6.1,6.1,0,0,1,.27,1.81,5,5,0,0,1-.72,2.8,3.53,3.53,0,0,1-2.11,1.46Zm-7.43-8.39h.64a2.19,2.19,0,0,0,1.53-.48,1.76,1.76,0,0,0,.54-1.39,1.79,1.79,0,0,0-.54-1.39,2.19,2.19,0,0,0-1.53-.48h-.64Z"/><path class="cls-7" d="M1028.36,298.13V313.3H1025V298.13Z"/><path class="cls-7" d="M1033,298.13l3.14,9.24,3.15-9.24H1043l-5.48,15.17h-2.69l-5.46-15.17Z"/><path class="cls-7" d="M1050.32,310.77h-4.82l-.78,2.64h-3.6l4.94-15.17h3.69l5,15.17h-3.61Zm-.9-3-1.51-5-1.52,5Z"/><path class="cls-7" d="M1059.69,301.58v11.83h-3.37V301.58h-2.78v-3.34h8.93v3.35Z"/><path class="cls-7" d="M1020.64,331.21a3.91,3.91,0,0,0-1.1-.77,2.51,2.51,0,0,0-1.06-.26,1.53,1.53,0,0,0-1.07.37,1.17,1.17,0,0,0-.41.94,1,1,0,0,0,.21.66,1.67,1.67,0,0,0,.54.45,3.57,3.57,0,0,0,.75.33l.84.3a5.25,5.25,0,0,1,2.41,1.72,4.69,4.69,0,0,1,.76,2.8,6.2,6.2,0,0,1-.33,2.1,4.34,4.34,0,0,1-2.56,2.67,6,6,0,0,1-2.13.37,7.05,7.05,0,0,1-4.55-1.71l1.44-3.17a5.71,5.71,0,0,0,1.5,1.16,3.16,3.16,0,0,0,1.46.39,1.57,1.57,0,0,0,1.23-.45,1.52,1.52,0,0,0,.3-1.59,1.23,1.23,0,0,0-.35-.46,2.39,2.39,0,0,0-.62-.39c-.26-.12-.57-.26-.94-.4s-.86-.34-1.28-.54a3.8,3.8,0,0,1-1.12-.77,3.73,3.73,0,0,1-.79-1.21,5,5,0,0,1-.3-1.86,6,6,0,0,1,.32-2,4.75,4.75,0,0,1,.89-1.57,4,4,0,0,1,1.41-1,4.65,4.65,0,0,1,1.87-.36,6.91,6.91,0,0,1,2,.31,8.24,8.24,0,0,1,2,.91Z"/><path class="cls-7" d="M1023.79,342.46V327.34h3.36l6.22,9.24v-9.24h3.35v15.12h-3.34l-6.23-9.25v9.25Z"/><path class="cls-7" d="M1046.57,339.83h-4.81l-.77,2.63h-3.59l4.93-15.12H1046l4.94,15.12h-3.6Zm-.89-3-1.51-5-1.52,5Z"/><path class="cls-7" d="M1054.94,333.58l4.11-6.24h4.15l-5.13,7.16,5.62,8h-4.37l-4.38-6.56v6.56h-3.37V327.34h3.37Z"/></g></g><polygon class="cls-8" points="932.18 498.36 60.73 498.36 56.55 183.8 932.18 249.92 932.18 498.36"/><polygon class="cls-9" points="16.52 123.05 0.57 520.21 56.55 432.81 56.55 183.8 16.52 123.05"/><polygon class="cls-10" points="1612.53 659.8 1469.09 640.85 1469.09 271.59 1612.53 271.59 1612.53 659.8"/><rect class="cls-11" x="1518.71" y="310.81" width="74.1" height="74.1"/><path class="cls-12" d="M1530.86,418c-5.83,2.5-20.59,1.15-34.86,0a2.93,2.93,0,0,1-2.93-2.92h0a2.94,2.94,0,0,1,2.93-2.93c14-1.34,28.63-3,34.86,0a2.93,2.93,0,0,1,2.92,2.93h0A2.92,2.92,0,0,1,1530.86,418Z"/><rect class="cls-12" x="1490.98" y="404.02" width="7.49" height="22.52" rx="2.7" ry="2.7"/><rect class="cls-12" x="1491.07" y="432.81" width="5.41" height="16" rx="2.7" ry="2.7"/><polygon class="cls-13" points="475.38 267.98 574.19 273.65 575.97 273.76 712.37 281.59 712.37 399.07 475.38 399.07 475.38 267.98"/><polygon class="cls-13" points="638 236.4 588.46 238.54 582.76 274.15 574.19 273.65 585.25 233.91 644.42 228.84 644.42 234.97 638 236.4"/><text class="cls-14" transform="translate(508.73 298.2)">7.C <tspan x="0" y="43.2">Mandag d 20/11.17</tspan></text><circle class="cls-15" cx="1586.74" cy="246.2" r="19.74"/><polyline class="cls-16" points="1586.74 236.68 1586.74 246.2 1598.89 246.2"/><line class="cls-16" x1="1586.74" y1="226.46" x2="1586.74" y2="230.37"/><line class="cls-16" x1="1576.73" y1="229.19" x2="1578.09" y2="232"/><line class="cls-16" x1="1596.01" y1="229.19" x2="1594.11" y2="232"/><line class="cls-16" x1="1586.74" y1="262.22" x2="1586.74" y2="265.93"/><line class="cls-16" x1="1567.05" y1="247.49" x2="1569.94" y2="247.49"/><line class="cls-16" x1="1595.06" y1="264.08" x2="1593.29" y2="262.22"/><line class="cls-16" x1="1577.41" y1="263.15" x2="1578.9" y2="262.22"/><line class="cls-16" x1="1604.15" y1="255.49" x2="1601.03" y2="255.49"/><line class="cls-16" x1="1569.94" y1="256.57" x2="1572.52" y2="256.57"/><line class="cls-16" x1="1606.43" y1="247.49" x2="1602.59" y2="247.49"/><polygon class="cls-15" points="1514.66 27.07 1514.66 106.97 1514.66 108.54 1514.66 109.12 1463.91 115.89 1463.91 135.34 1500.28 144.64 1616.46 129.49 1616.46 95.58 1522.28 107.48 1518.33 107.98 1518.32 107.21 1518.31 106.46 1517.57 27.07 1514.66 27.07"/><polygon class="cls-17" points="1613.69 120.02 1487.89 133.88 1503.1 139.32 1615.04 129.67 1613.69 120.02"/><line class="cls-15" x1="1518.71" y1="106.45" x2="1514.66" y2="107.61"/><polygon class="cls-18" points="386.26 166.14 386.26 199.89 374.18 198.13 372.27 197.85 371.29 197.71 339.53 214.01 328.58 219.64 328.58 229.64 352.82 234.65 403.61 212.33 403.61 202.32 389.75 200.39 389.75 166.14 386.26 166.14"/><polygon class="cls-18" points="334.89 194.15 334.89 216.4 337.86 214.87 337.86 194.15 334.89 194.15"/><polygon class="cls-19" points="373 207.7 396.14 211.14 353.86 231.03 334.89 227.4 373 207.7"/><line class="cls-18" x1="371.28" y1="197.71" x2="371.28" y2="207.7"/><path class="cls-20" d="M590.4,48.39v68.45l27.66,2v19l-47.33-5.21v-18.5l16.08,1.44.36-66.29Z"/><polyline class="cls-21" points="447.97 180.3 448.53 180.3 455.53 177.32 570.73 132.64 571.16 132.69 616.49 138.56 479.76 183.8 454.86 181.3 448.64 180.67 447.46 180.55 447.46 166.14 469.53 156.32 471.68 112.72 472.92 112.72 471.3 155.28 569.92 113.96 570.73 114.14 570.73 134.35"/><polygon class="cls-22" points="574.09 136.56 460.35 178.14 477.87 180.81 598.74 139.53 574.09 136.56"/><path class="cls-20" d="M266.68,18.15V86.59l27.66,2v19L247,102.4V83.9l16.07,1.44.36-66.29Z"/><polyline class="cls-21" points="124.25 150.06 124.81 150.06 131.81 147.08 247.01 102.4 247.44 102.45 292.77 108.32 156.03 153.56 131.14 151.05 124.92 150.43 123.73 150.31 123.73 135.89 145.81 126.08 147.96 82.48 149.19 82.48 147.58 125.04 246.2 83.72 247.01 83.9 247.01 104.1"/><polygon class="cls-22" points="250.37 106.32 136.63 147.89 154.15 150.57 275.02 109.29 250.37 106.32"/><polygon class="cls-10" points="341.96 275.7 341.96 326.22 424.62 328.97 424.62 278.15 341.96 275.7"/><path class="cls-23" d="M339.21,330.2c2.14,0,88.47,3.32,88.47,3.32v47.19H340.43Z"/><path class="cls-24" d="M100.44,251.92v40.84l36.27,1.2v-40.6Z"/><path class="cls-25" d="M140.79,253.6c.24,2.64,0,40.36,0,40.36h33.4V253.6Z"/><polygon class="cls-26" points="137.91 296.36 100.44 295.4 100.44 331.19 137.91 332.39 137.91 296.36"/><polygon class="cls-24" points="142 296.36 142 335.27 174.19 335.27 174.19 297.58 142 296.36"/><polygon class="cls-27" points="223.84 291.44 223.84 328.97 258.06 330.19 258.06 292.46 223.84 291.44"/><polygon class="cls-28" points="263.21 291.44 294.34 291.44 293.31 328.97 260.89 328.97 260.89 291.44 263.21 291.44"/><rect class="cls-29" x="1413.92" y="231.87" width="34.6" height="62.56"/><polygon class="cls-30" points="1423.26 332.9 1463.86 332.9 1458.32 383.82 1418.1 380.87 1423.26 332.9"/><polygon class="cls-26" points="1428.06 336.22 1457.58 336.22 1453.89 377.55 1422.53 375.7 1428.06 336.22"/><rect class="cls-15" x="1144.41" y="316.71" width="19.62" height="40.14"/><rect class="cls-15" x="1122.11" y="330.39" width="19.33" height="37.76"/><rect class="cls-15" x="1144.41" y="360.12" width="19.62" height="33.3"/><rect class="cls-15" x="1119.14" y="373.8" width="22.3" height="17.24"/><rect class="cls-15" x="1168.79" y="326.53" width="20.22" height="40.14"/><rect class="cls-15" x="1167.01" y="371.12" width="22" height="33"/><rect class="cls-15" x="1193.47" y="330.39" width="19.33" height="37.76"/><rect class="cls-15" x="1194.66" y="372.61" width="16.65" height="33.6"/><rect class="cls-15" x="1217.55" y="328.01" width="19.33" height="47.27"/><rect class="cls-15" x="1216.36" y="379.45" width="18.73" height="32.8"/><rect class="cls-15" x="1241.63" y="330.39" width="20.51" height="52.03"/><rect class="cls-25" x="797.02" y="378.88" width="20.17" height="31.05"/><rect class="cls-31" x="769.87" y="378.99" width="20.17" height="30.82"/><rect class="cls-13" x="754.91" y="299.2" width="19.04" height="32.64"/><rect class="cls-28" x="780.75" y="299.2" width="18.58" height="32.64"/><rect class="cls-32" x="797.75" y="342.04" width="18.71" height="31.96"/><rect class="cls-32" x="769.87" y="343.85" width="18.13" height="31.28"/><rect class="cls-15" x="745.39" y="341.08" width="19.04" height="34.04"/><rect class="cls-28" x="802.75" y="304.21" width="19.26" height="32.41"/><rect class="cls-33" x="716.2" y="275.79" width="18.11" height="73.25"/><rect class="cls-34" x="451.53" y="263.68" width="19.78" height="77.31"/><line class="cls-16" x1="1122.11" y1="336.78" x2="1130.29" y2="336.78"/><line class="cls-35" x1="1146.34" y1="324.14" x2="1157.13" y2="324.14"/><line class="cls-35" x1="1147.46" y1="327.87" x2="1157.5" y2="328.61"/><line class="cls-35" x1="1148.2" y1="335.31" x2="1157.13" y2="335.31"/><line class="cls-35" x1="1148.2" y1="338.29" x2="1157.13" y2="338.66"/><line class="cls-35" x1="1148.2" y1="342.38" x2="1156.39" y2="342.38"/><line class="cls-35" x1="1136.67" y1="340.89" x2="1128.11" y2="340.89"/><line class="cls-35" x1="1137.04" y1="343.12" x2="1129.22" y2="342.75"/><line class="cls-35" x1="1137.78" y1="346.84" x2="1128.48" y2="346.47"/><line class="cls-35" x1="1148.95" y1="365.82" x2="1158.99" y2="365.45"/><line class="cls-35" x1="1159.74" y1="370.29" x2="1149.32" y2="370.29"/><line class="cls-35" x1="1159.74" y1="375.13" x2="1150.81" y2="375.13"/><line class="cls-35" x1="1161.97" y1="379.22" x2="1154.53" y2="379.22"/><line class="cls-35" x1="1149.32" y1="382.94" x2="1157.13" y2="382.57"/><line class="cls-35" x1="1124.38" y1="378.1" x2="1133.32" y2="378.1"/><line class="cls-35" x1="1135.92" y1="382.76" x2="1124.01" y2="382.76"/><line class="cls-35" x1="1124.38" y1="386.29" x2="1135.92" y2="386.29"/><line class="cls-35" x1="1173.13" y1="330.1" x2="1183.18" y2="330.47"/><line class="cls-35" x1="1183.93" y1="334.94" x2="1175.74" y2="334.94"/><line class="cls-35" x1="1183.93" y1="339.03" x2="1173.88" y2="339.03"/><line class="cls-35" x1="1184.3" y1="343.12" x2="1172.39" y2="343.12"/><line class="cls-35" x1="1183.18" y1="353.92" x2="1173.88" y2="353.17"/><line class="cls-35" x1="1182.44" y1="356.89" x2="1172.76" y2="356.89"/><line class="cls-35" x1="1184.3" y1="362.1" x2="1178.72" y2="362.1"/><line class="cls-35" x1="1207.74" y1="334.94" x2="1200.67" y2="334.94"/><line class="cls-35" x1="1207.74" y1="337.17" x2="1198.07" y2="336.8"/><line class="cls-35" x1="1208.86" y1="341.26" x2="1198.44" y2="341.26"/><line class="cls-35" x1="1209.23" y1="343.87" x2="1197.32" y2="343.87"/><line class="cls-35" x1="1208.86" y1="347.96" x2="1198.07" y2="347.96"/><line class="cls-36" x1="1196.58" y1="376.99" x2="1205.51" y2="376.99"/><line class="cls-36" x1="1197.32" y1="381.08" x2="1209.23" y2="381.08"/><line class="cls-36" x1="1207.74" y1="384.43" x2="1199.56" y2="384.43"/><line class="cls-36" x1="1209.23" y1="387.78" x2="1199.56" y2="387.04"/><line class="cls-36" x1="1169.79" y1="375.87" x2="1183.55" y2="376.62"/><line class="cls-36" x1="1183.93" y1="379.59" x2="1172.39" y2="378.85"/><line class="cls-36" x1="1184.67" y1="383.69" x2="1173.88" y2="383.69"/><line class="cls-36" x1="1184.67" y1="399.87" x2="1171.27" y2="399.87"/><line class="cls-36" x1="1259.47" y1="335.12" x2="1246.06" y2="335.12"/><line class="cls-36" x1="1257.24" y1="337.54" x2="1247.56" y2="337.54"/><line class="cls-36" x1="1258.73" y1="341.45" x2="1245.7" y2="341.45"/><line class="cls-36" x1="1257.24" y1="348.33" x2="1248.68" y2="348.33"/><line class="cls-36" x1="1259.1" y1="351.87" x2="1241.61" y2="351.87"/><line class="cls-36" x1="1258.73" y1="354.66" x2="1247.56" y2="353.92"/><line class="cls-36" x1="1221.51" y1="333.45" x2="1231.19" y2="333.45"/><line class="cls-36" x1="1222.26" y1="336.05" x2="1230.44" y2="336.05"/><line class="cls-36" x1="1231.56" y1="339.77" x2="1221.88" y2="339.4"/><line class="cls-36" x1="1233.05" y1="343.5" x2="1218.53" y2="343.5"/><line class="cls-36" x1="1233.05" y1="346.84" x2="1225.61" y2="346.84"/><line class="cls-36" x1="1232.68" y1="351.68" x2="1221.14" y2="351.68"/><line class="cls-36" x1="1220.39" y1="384.62" x2="1231.19" y2="384.62"/><line class="cls-36" x1="1221.51" y1="388.15" x2="1232.68" y2="388.15"/><line class="cls-36" x1="1219.65" y1="391.13" x2="1229.33" y2="391.87"/><line class="cls-36" x1="1230.07" y1="393.73" x2="1220.4" y2="393.36"/><line class="cls-36" x1="1230.82" y1="396.9" x2="1220.02" y2="396.9"/><rect class="cls-37" x="1124.38" y="351.87" width="12.28" height="10.23"/><rect class="cls-38" x="1149.32" y="346.84" width="10.42" height="6.7"/><rect class="cls-39" x="1198.44" y="353.54" width="10.42" height="10.42"/><rect class="cls-15" x="1221.51" y="358.75" width="11.16" height="11.16"/><rect class="cls-40" x="1245.7" y="360.12" width="13.03" height="16.65"/><rect class="cls-41" x="1172.76" y="388.15" width="11.54" height="7.7"/><rect class="cls-15" x="1198.44" y="392" width="10.42" height="10.42"/><rect class="cls-42" x="1220.39" y="402.42" width="10.8" height="7.32"/><text class="cls-43" transform="translate(350.76 292.52)">Husk at sætte <tspan x="0" y="14.4">stole op!</tspan></text><text class="cls-44" transform="translate(345.87 341.9)">UGENS OPRYDNINGS <tspan x="0" y="9.6">ANSVARLIGE: </tspan><tspan x="29.14" y="19.2">-Jonas </tspan><tspan x="26.82" y="28.8">_Hanne</tspan></text><rect class="cls-45" x="1533.78" y="440.81" width="66.48" height="39.94"/><text class="cls-46" transform="translate(1554.29 470.05)">7.c</text><path class="cls-47" d="M1537.85,440.81c18.73-26.46,38.79-26.55,59.46,0"/><polygon class="cls-48" points="1572.73 424.59 1567.93 424.13 1564.83 427.82 1563.78 423.11 1559.31 421.3 1563.46 418.85 1563.8 414.04 1567.42 417.24 1572.1 416.07 1570.18 420.49 1572.73 424.59"/><polygon class="cls-49" points="1445.41 249.92 1439.73 246.45 1433.64 249.16 1435.19 242.68 1430.73 237.73 1437.37 237.2 1440.7 231.43 1443.26 237.58 1449.78 238.96 1444.72 243.3 1445.41 249.92"/><polygon class="cls-50" points="1427.99 281.93 1424.09 277.93 1418.59 278.87 1421.19 273.93 1418.6 268.98 1424.1 269.93 1428.01 265.94 1428.8 271.46 1433.81 273.94 1428.8 276.41 1427.99 281.93"/><polygon class="cls-51" points="1444.66 263.78 1438.92 262.43 1434.55 266.39 1434.07 260.51 1428.95 257.58 1434.39 255.3 1435.59 249.53 1439.44 254 1445.31 253.36 1442.25 258.4 1444.66 263.78"/><polygon class="cls-52" points="1434.21 246.77 1424.62 249.44 1421.39 258.85 1415.89 250.56 1405.94 250.38 1412.13 242.59 1409.22 233.08 1418.54 236.56 1426.69 230.85 1426.26 240.79 1434.21 246.77"/><polygon class="cls-53" points="1449.78 284.87 1443.22 284.79 1439.44 290.14 1437.49 283.88 1431.22 281.94 1436.58 278.15 1436.49 271.59 1441.75 275.51 1447.96 273.4 1445.85 279.61 1449.78 284.87"/><polygon class="cls-54" points="1426.25 294.78 1421.48 291.31 1415.91 293.27 1417.75 287.66 1414.16 282.97 1420.06 282.98 1423.42 278.12 1425.23 283.73 1430.89 285.42 1426.11 288.88 1426.25 294.78"/><polygon class="cls-55" points="1428.89 267.16 1424.52 263.31 1418.88 264.72 1421.19 259.38 1418.1 254.45 1423.89 255 1427.63 250.53 1428.9 256.21 1434.3 258.39 1429.29 261.35 1428.89 267.16"/><text></text><text></text><text class="cls-56" transform="translate(265.9 298.87)">Lorem ipsum <tspan x="-0.5" y="6">dolor sit amet, </tspan><tspan x="0.09" y="12">consectetuer </tspan><tspan x="-0.41" y="18">adipiscing elit, </tspan><tspan x="4.13" y="24">sed diam </tspan></text><text class="cls-56" transform="translate(229.05 298.67)">Lorem ipsum <tspan x="-0.5" y="6">dolor sit amet, </tspan><tspan x="0.09" y="12">consectetuer </tspan><tspan x="-0.41" y="18">adipiscing elit, </tspan><tspan x="4.13" y="24">sed diam </tspan></text><text class="cls-56" transform="translate(105.98 259.5)">Lorem ipsum <tspan x="-0.5" y="6">dolor sit amet, </tspan><tspan x="0.09" y="12">consectetuer </tspan><tspan x="-0.41" y="18">adipiscing elit, </tspan><tspan x="4.13" y="24">sed diam </tspan><tspan x="-1.2" y="30">nonummy nibh </tspan></text><text class="cls-56" transform="translate(145.81 259.87)">Lorem ipsum <tspan x="-0.5" y="6">dolor sit amet, </tspan><tspan x="0.09" y="12">consectetuer </tspan><tspan x="-0.41" y="18">adipiscing elit, </tspan><tspan x="4.13" y="24">sed diam </tspan></text><text class="cls-56" transform="translate(146.36 303.55)">Lorem ipsum <tspan x="-0.5" y="6">dolor sit amet, </tspan><tspan x="0.09" y="12">consectetuer </tspan><tspan x="-0.41" y="18">adipiscing elit, </tspan><tspan x="4.13" y="24">sed diam </tspan></text><text class="cls-56" transform="translate(102.13 303.19)">Lorem ipsum dolor <tspan x="8.67" y="6">sit amet, </tspan><tspan x="4.67" y="12">consectetuer </tspan><tspan x="0.19" y="18">adipiscing elit, sed </tspan><tspan x="3.72" y="24">diam nonummy </tspan></text><text class="cls-56" transform="translate(1430.55 348.82)">Regler for<tspan x="7.2" y="6">7.c</tspan><tspan x="-2.97" y="12">Husk at hjælp</tspan><tspan x="0.19" y="18">hinanden! </tspan></text><polyline class="cls-57" points="650.28 239.92 762.56 229.22 787.87 231.66 671.38 243.37 649.88 240.92 649.88 233.03 665.66 231.94 665.66 199.28 668.13 199.28 668.4 231.61 762.22 219.31 787.87 221.32 787.28 231.13"/><line class="cls-58" x1="763.03" y1="219.04" x2="763.03" y2="228.84"/><rect class="cls-59" x="768.06" y="175.25" width="1.68" height="44.66"/><polygon class="cls-22" points="761.64 230.35 661.74 239.84 674.74 241.08 772.99 231.79 761.64 230.35"/><polygon class="cls-60" points="822.97 207.84 822.97 219.9 844.37 221.32 1061.79 199.28 1061.79 183.8 1034.18 180.23 822.97 207.84"/><polyline class="cls-60" points="1033.2 180.23 1031.48 189.81 1031.22 191.25 1029.46 191.48 822.97 218.25"/><line class="cls-60" x1="1061.79" y1="192.89" x2="1031.22" y2="191.25"/><polygon class="cls-60" points="845.5 163.26 844.45 205.03 846.51 204.76 846.51 163.26 845.5 163.26"/><polygon class="cls-60" points="1036.78 126.85 1035.52 180.4 1037.31 180.4 1037.95 126.85 1036.78 126.85"/><polygon class="cls-17" points="838.63 218.25 850.74 218.25 1046.51 199.24 1026.98 194.94 838.63 218.25"/><polyline class="cls-15" points="825.18 256.63 824.63 256.64 812.38 256.82 812.38 265.5 833.57 265.06 942.38 259.66 942.38 249.35 924.62 249.35 924.62 256.47 924.62 257.41 858.62 261.91 850.97 262.43 828.89 263.94 825.9 264.14 812.38 265.06 812.38 257.41"/><line class="cls-15" x1="925.08" y1="257.11" x2="942.1" y2="256.86"/><polygon class="cls-15" points="929.18 218.25 929.18 248.7 931.57 248.7 930.38 218.25 929.18 218.25"/><polygon class="cls-15" points="829.24 255.63 827.81 233.63 826.37 233.63 826.37 255.63 829.24 255.63"/><polyline class="cls-15" points="924.62 256.99 924.32 249.35 825.06 256.36"/><polygon class="cls-15" points="825.06 255.63 823.05 255.82 817.76 256.31 812.38 256.82 812.38 265.06 924.62 257.41 924.32 249.35 859.71 253.17 829.24 254.57 825.06 255.63"/><polygon class="cls-61" points="932.18 498.36 1616.46 624.61 1616.46 900.5 16.52 900.5 0.57 520.21 56.55 432.81 60.73 498.36 919.61 498.36 932.18 498.36"/><polygon class="cls-62" points="133.16 556.81 141.97 556.81 143.13 449.18 133.21 445.03 133.16 556.81"/><polygon class="cls-62" points="100.08 541.51 108.05 541.51 111.73 436.61 104.42 434.43 100.08 541.51"/><polygon class="cls-62" points="337.82 550 345.65 550 348.09 431.65 339.75 431.89 337.82 550"/><polygon class="cls-62" points="302.27 539.04 310.1 539.04 312.54 428.23 304.2 428.45 302.27 539.04"/><polygon class="cls-62" points="77.58 429.22 80.77 430.64 85.36 432.7 120.32 448.3 371.57 441.01 332.23 425.96 77.58 429.22"/><polyline class="cls-62" points="77.58 429.22 77.58 437.13 120.69 456.18 120.32 448.3 122.72 448.23 120.69 456.18 371.57 450.02 371.57 441.01"/><polygon class="cls-62" points="122.53 455.51 120.79 455.78 118.72 454.53 119.45 446.88 124.1 447.51 122.53 455.51"/><path class="cls-63" d="M162.78,404q43.13-15.22,86.24-6.34c1,26.81-5.43,53.09-17.24,79-.32-5,5.2-8.64,9.95-2.3-2,15.51-18,18.89-33.51,22.53a88.49,88.49,0,0,1-12.42-.08l-1.55-.14c-10.73-1.11-20.37-4.55-28.48-11.27-1.82-6.09,9-22.82,16.91-4.14C169.38,455.71,161.84,430,162.78,404Z"/><polygon class="cls-64" points="199.46 544.46 206.91 544.46 206.91 508.3 209.22 496.91 196.8 496.83 199.2 508.3 199.46 544.46"/><polygon class="cls-65" points="199.46 545.61 154.49 543.19 154.49 545.61 187.87 551.28 199.46 545.61"/><polygon class="cls-64" points="218.72 529.72 206.91 540.01 206.91 545.61 209.14 543.19 217.73 533.85 218.72 529.72"/><polygon class="cls-64" points="258.32 544.38 258.32 549.4 212.82 552.81 206.91 545.61 209.14 543.19 258.32 544.38"/><polygon class="cls-65" points="225.85 568.68 226.62 574.67 222.76 574.67 202.27 556.21 202.27 545.61 206.27 545.61 225.85 568.68"/><polygon class="cls-65" points="156.8 572.57 154.49 574.67 151.77 573.62 151.77 567.39 199.46 545.61 202.27 545.61 202.27 556.21 196.8 556.7 156.8 572.57"/><ellipse class="cls-65" cx="154.49" cy="551.28" rx="5.06" ry="5.92"/><ellipse class="cls-65" cx="154.49" cy="574.93" rx="4.25" ry="5.17"/><ellipse class="cls-65" cx="225.82" cy="578.25" rx="4.25" ry="5.17"/><ellipse class="cls-65" cx="258.32" cy="552.81" rx="5.06" ry="5.92"/><ellipse class="cls-65" cx="219.81" cy="535.15" rx="3.66" ry="7.28"/><path class="cls-63" d="M284.81,404q43.13-15.22,86.24-6.34c1,26.81-5.43,53.09-17.24,79-.32-5,5.2-8.64,9.95-2.3-2,15.51-18,18.89-33.51,22.53a88.49,88.49,0,0,1-12.42-.08l-1.55-.14c-10.73-1.11-20.37-4.55-28.48-11.27-1.82-6.09,9-22.82,16.91-4.14C291.41,455.71,283.87,430,284.81,404Z"/><polygon class="cls-64" points="321.49 544.46 328.95 544.46 328.95 508.3 331.25 496.91 318.83 496.83 321.23 508.3 321.49 544.46"/><polygon class="cls-64" points="321.49 545.61 276.52 543.19 276.52 545.61 309.9 551.28 321.49 545.61"/><polygon class="cls-64" points="340.75 529.72 328.95 540.01 328.95 545.61 331.17 543.19 339.76 533.85 340.75 529.72"/><polygon class="cls-65" points="380.35 544.38 380.35 549.4 334.85 552.81 328.95 545.61 331.17 543.19 380.35 544.38"/><polygon class="cls-64" points="347.88 568.68 348.65 574.67 344.79 574.67 324.31 556.21 324.31 545.61 328.3 545.61 347.88 568.68"/><polygon class="cls-64" points="278.83 572.57 276.52 574.67 273.8 573.62 273.8 567.39 321.49 545.61 324.31 545.61 324.31 556.21 318.83 556.7 278.83 572.57"/><ellipse class="cls-65" cx="380.35" cy="552.06" rx="4.25" ry="5.17"/><ellipse class="cls-65" cx="331.81" cy="555.58" rx="4.25" ry="5.17"/><ellipse class="cls-65" cx="341.85" cy="535.15" rx="3.66" ry="7.28"/><ellipse class="cls-65" cx="277.78" cy="549.98" rx="5.06" ry="5.92"/><ellipse class="cls-65" cx="275.46" cy="573.76" rx="4.25" ry="5.17"/><polygon class="cls-62" points="130.86 836.1 145.97 836.26 150.16 638.28 133.22 630.48 130.86 836.1"/><polygon class="cls-62" points="74.39 807.37 88.06 807.52 96.53 614.59 84.02 610.46 74.39 807.37"/><polygon class="cls-62" points="482.3 827.27 495.74 827.41 502.35 609.74 488.04 610.03 482.3 827.27"/><polygon class="cls-62" points="421.51 806.46 434.95 806.61 441.4 602.8 427.09 603.07 421.51 806.46"/><polygon class="cls-62" points="38.06 600.39 43.5 603.06 51.35 606.92 111.04 636.26 542.46 627.39 475.25 598.99 38.06 600.39"/><polyline class="cls-62" points="38.06 600.39 37.9 614.94 111.5 650.76 111.04 636.26 115.15 636.17 111.5 650.76 542.27 643.95 542.46 627.39"/><polygon class="cls-62" points="114.67 649.56 111.68 650.02 108.17 647.7 109.56 633.64 117.54 634.87 114.67 649.56"/><path class="cls-63" d="M72.42,552.76q81-28,162-11.63c2,49.22-10.2,97.47-32.39,145-.59-9.15,9.78-15.87,18.69-4.22-3.72,28.47-33.85,34.68-62.92,41.37a170.62,170.62,0,0,1-23.32-.16c-1-.07-2-.16-2.93-.26-20.15-2-38.25-8.34-53.48-20.69C74.62,691,95,660.3,109.8,694.6,84.82,647.67,70.66,600.44,72.42,552.76Z"/><polygon class="cls-64" points="141.31 810.6 155.31 810.6 155.31 744.22 159.64 723.31 136.31 723.15 140.81 744.22 141.31 810.6"/><polygon class="cls-64" points="141.31 810.6 56.86 805.71 56.86 810.6 119.53 822.07 141.31 810.6"/><polygon class="cls-64" points="177.48 778.43 155.31 799.26 155.31 810.6 159.49 805.71 175.62 786.8 177.48 778.43"/><polygon class="cls-64" points="251.83 808.12 251.83 818.28 166.39 825.17 155.31 810.6 159.49 805.71 251.83 808.12"/><polygon class="cls-64" points="190.87 857.3 192.32 869.44 185.06 869.44 146.59 832.05 146.59 810.6 154.09 810.6 190.87 857.3"/><polygon class="cls-64" points="61.19 865.17 56.86 869.44 51.75 867.31 51.75 854.68 141.31 810.6 146.59 810.6 146.59 832.05 136.31 833.04 61.19 865.17"/><ellipse class="cls-65" cx="193.15" cy="877.16" rx="13.62" ry="11.98"/><ellipse class="cls-65" cx="179.53" cy="789.42" rx="6.87" ry="14.73"/><ellipse class="cls-65" cx="56.86" cy="869.44" rx="14.71" ry="12.01"/><ellipse class="cls-65" cx="251.83" cy="825.17" rx="14.71" ry="12.01"/><ellipse class="cls-65" cx="51.75" cy="817.42" rx="14.71" ry="12.01"/><path class="cls-63" d="M326,544.16q78.21-28.9,156.41-12c1.88,50.88-9.86,100.75-31.28,149.91-.57-9.46,9.44-16.4,18-4.37-3.59,29.43-32.68,35.86-60.76,42.77a153.39,153.39,0,0,1-22.52-.16c-.95-.08-1.89-.17-2.83-.27-19.45-2.09-36.94-8.63-51.65-21.39-3.29-11.55,16.37-43.31,30.68-7.85C338,642.26,324.29,593.44,326,544.16Z"/><polygon class="cls-64" points="392.51 810.68 406.03 810.68 406.03 742.07 410.21 720.45 387.69 720.29 392.04 742.07 392.51 810.68"/><polygon class="cls-64" points="392.51 810.68 310.96 805.62 310.96 810.68 371.49 822.54 392.51 810.68"/><polygon class="cls-64" points="427.44 777.43 406.03 798.96 406.03 810.68 410.07 805.62 425.65 786.08 427.44 777.43"/><polygon class="cls-64" points="499.25 808.11 499.25 818.62 416.74 825.74 406.03 810.68 410.07 805.62 499.25 808.11"/><polygon class="cls-64" points="440.37 858.96 441.77 871.5 434.76 871.5 397.62 832.86 397.62 810.68 404.86 810.68 440.37 858.96"/><polygon class="cls-64" points="315.14 867.09 310.96 871.5 306.02 869.3 306.02 856.25 392.51 810.68 397.62 810.68 397.62 832.86 387.69 833.88 315.14 867.09"/><ellipse class="cls-65" cx="440.99" cy="881.4" rx="14.43" ry="15.92"/><ellipse class="cls-65" cx="429.42" cy="788.79" rx="6.64" ry="15.23"/><ellipse class="cls-65" cx="311.31" cy="872.68" rx="16.8" ry="13.6"/><ellipse class="cls-65" cx="499.25" cy="825.74" rx="14.2" ry="12.41"/><ellipse class="cls-65" cx="306.03" cy="817.73" rx="14.2" ry="12.41"/><polygon class="cls-62" points="741.76 556.84 751.81 556.87 754.8 440.27 743.54 435.75 741.76 556.84"/><polygon class="cls-62" points="704.24 540.15 713.33 540.18 719.16 426.54 710.84 424.16 704.24 540.15"/><polygon class="cls-62" points="975.45 550.22 984.38 550.25 989 422.04 979.48 422.27 975.45 550.22"/><polygon class="cls-62" points="935.04 538.21 943.98 538.24 948.48 418.2 938.96 418.42 935.04 538.21"/><polygon class="cls-62" points="680.3 418.42 683.91 419.97 689.13 422.21 728.78 439.24 1015.65 432.28 970.99 415.83 680.3 418.42"/><polyline class="cls-62" points="680.3 418.42 680.18 426.98 729.08 447.78 728.78 439.24 731.52 439.17 729.08 447.78 1015.51 442.03 1015.65 432.28"/><polygon class="cls-62" points="731.19 447.06 729.2 447.34 726.86 445.99 727.8 437.7 733.11 438.4 731.19 447.06"/><path class="cls-63" d="M736.23,392.91q53.84-16.62,107.68-6.91c1.29,29.25-6.79,57.92-21.54,86.18-.39-5.44,6.5-9.43,12.42-2.51-2.47,16.92-22.5,20.61-41.83,24.59a128.85,128.85,0,0,1-15.5-.09l-2-.16c-13.39-1.2-25.43-5-35.56-12.3-2.27-6.64,11.27-24.89,21.12-4.51C744.47,449.31,735.06,421.24,736.23,392.91Z"/><polygon class="cls-64" points="782.02 546.13 791.33 546.13 791.33 506.68 794.21 494.26 778.7 494.17 781.7 506.68 782.02 546.13"/><polygon class="cls-64" points="782.02 546.13 725.88 543.22 725.88 546.13 767.55 552.95 782.02 546.13"/><polygon class="cls-64" points="806.07 527.01 791.33 539.39 791.33 546.13 794.11 543.22 804.84 531.99 806.07 527.01"/><polygon class="cls-64" points="855.51 544.66 855.51 550.7 798.7 554.79 791.33 546.13 794.11 543.22 855.51 544.66"/><polygon class="cls-64" points="814.97 573.88 815.94 581.1 811.11 581.1 785.54 558.88 785.54 546.13 790.52 546.13 814.97 573.88"/><polygon class="cls-64" points="728.75 578.56 725.88 581.1 722.48 579.83 722.48 572.33 782.02 546.13 785.54 546.13 785.54 558.88 778.7 559.47 728.75 578.56"/><ellipse class="cls-65" cx="815.94" cy="585.68" rx="6.32" ry="7.12"/><ellipse class="cls-65" cx="807.44" cy="533.54" rx="4.57" ry="8.76"/><ellipse class="cls-65" cx="725.88" cy="581.1" rx="9.78" ry="7.14"/><ellipse class="cls-65" cx="855.51" cy="554.79" rx="9.78" ry="7.14"/><ellipse class="cls-65" cx="722.48" cy="550.18" rx="9.78" ry="7.14"/><path class="cls-63" d="M884.05,393.92q52-16,104-6.65c1.25,28.15-6.56,55.75-20.8,83-.38-5.24,6.28-9.08,12-2.42-2.39,16.29-21.73,19.84-40.4,23.67a124.18,124.18,0,0,1-15-.09c-.63,0-1.26-.09-1.88-.15-12.94-1.16-24.56-4.77-34.34-11.84-2.2-6.39,10.88-24,20.4-4.34C892,448.21,882.92,421.19,884.05,393.92Z"/><polygon class="cls-64" points="928.28 541.42 937.26 541.42 937.26 503.44 940.05 491.48 925.07 491.39 927.96 503.44 928.28 541.42"/><polygon class="cls-64" points="928.28 541.42 874.05 538.62 874.05 541.42 914.29 547.98 928.28 541.42"/><polygon class="cls-64" points="951.5 523.01 937.26 534.93 937.26 541.42 939.95 538.62 950.31 527.8 951.5 523.01"/><polygon class="cls-64" points="999.24 540 999.24 545.81 944.38 549.75 937.26 541.42 939.95 538.62 999.24 540"/><polygon class="cls-64" points="960.1 568.13 961.03 575.07 956.37 575.07 931.67 553.69 931.67 541.42 936.48 541.42 960.1 568.13"/><polygon class="cls-64" points="876.83 572.63 874.05 575.07 870.77 573.85 870.77 566.63 928.28 541.42 931.67 541.42 931.67 553.69 925.07 554.25 876.83 572.63"/><ellipse class="cls-65" cx="961.03" cy="579.49" rx="6.1" ry="6.86"/><ellipse class="cls-65" cx="952.82" cy="529.3" rx="4.41" ry="8.43"/><ellipse class="cls-65" cx="874.05" cy="575.07" rx="9.44" ry="6.87"/><ellipse class="cls-65" cx="999.24" cy="549.75" rx="9.44" ry="6.87"/><ellipse class="cls-65" cx="870.77" cy="545.32" rx="9.44" ry="6.87"/><polygon class="cls-62" points="1008.97 661.45 1020.07 661.52 1023.15 504.63 1010.7 498.51 1008.97 661.45"/><polygon class="cls-62" points="967.49 638.89 977.53 638.95 983.75 486.04 974.56 482.81 967.49 638.89"/><polygon class="cls-62" points="1267.14 653.2 1277.01 653.26 1281.87 480.75 1271.35 481.04 1267.14 653.2"/><polygon class="cls-62" points="1222.48 636.93 1232.35 636.99 1237.1 475.47 1226.58 475.73 1222.48 636.93"/><polygon class="cls-62" points="940.8 475 944.79 477.1 950.56 480.13 994.41 503.16 1311.33 494.6 1261.96 472.33 940.8 475"/><polyline class="cls-62" points="940.8 475 940.68 486.53 994.75 514.66 994.41 503.16 997.43 503.08 994.75 514.66 1311.19 507.72 1311.33 494.6"/><polygon class="cls-62" points="997.08 513.69 994.88 514.07 992.3 512.24 993.32 501.09 999.18 502.04 997.08 513.69"/><path class="cls-63" d="M1062.55,444.28q59.49-21.84,119-9.08c1.44,38.44-7.49,76.13-23.79,113.29-.43-7.15,7.18-12.39,13.73-3.3-2.73,22.24-24.86,27.1-46.22,32.32a119,119,0,0,1-17.13-.12c-.72-.06-1.44-.13-2.15-.21-14.8-1.58-28.1-6.51-39.29-16.16-2.51-8.73,12.45-32.73,23.34-5.94C1071.66,518.42,1061.26,481.52,1062.55,444.28Z"/><polygon class="cls-64" points="1113.16 645.7 1123.44 645.7 1123.44 593.85 1126.62 577.51 1109.49 577.39 1112.79 593.85 1113.16 645.7"/><polygon class="cls-64" points="1113.16 645.7 1051.12 641.88 1051.12 645.7 1097.16 654.66 1113.16 645.7"/><polygon class="cls-64" points="1139.72 620.57 1123.44 636.85 1123.44 645.7 1126.51 641.88 1138.36 627.11 1139.72 620.57"/><polygon class="cls-64" points="1194.34 643.76 1194.34 651.7 1131.58 657.08 1123.44 645.7 1126.51 641.88 1194.34 643.76"/><polygon class="cls-64" points="1149.56 682.19 1150.63 691.66 1145.29 691.66 1117.04 662.46 1117.04 645.7 1122.55 645.7 1149.56 682.19"/><polygon class="cls-64" points="1054.3 688.34 1051.12 691.66 1047.37 690 1047.37 680.14 1113.16 645.7 1117.04 645.7 1117.04 662.46 1109.49 663.23 1054.3 688.34"/><path class="cls-65" d="M1161.13,698.38c0,5.18-6.65,8.68-10.51,8.68s-9.39-4.19-9.39-9.36,5.54-9.37,9.39-9.37S1161.13,693.21,1161.13,698.38Z"/><ellipse class="cls-65" cx="1141.23" cy="629.16" rx="5.05" ry="11.51"/><ellipse class="cls-65" cx="1051.12" cy="691.66" rx="10.8" ry="9.38"/><ellipse class="cls-65" cx="1194.34" cy="657.08" rx="10.8" ry="9.38"/><ellipse class="cls-65" cx="1047.37" cy="651.03" rx="10.8" ry="9.38"/><path class="cls-63" d="M1253.22,445.74q57.45-21,114.9-8.73c1.38,36.94-7.24,73.15-23,108.84-.42-6.86,6.94-11.9,13.25-3.16-2.63,21.36-24,26-44.63,31a113.78,113.78,0,0,1-16.54-.11c-.7-.06-1.39-.12-2.08-.2-14.29-1.52-27.13-6.26-37.94-15.53-2.42-8.38,12-31.44,22.54-5.7C1262,517,1252,481.52,1253.22,445.74Z"/><polygon class="cls-64" points="1299.62 639.44 1309.55 639.44 1309.55 589.62 1312.62 573.92 1296.08 573.81 1299.27 589.62 1299.62 639.44"/><polygon class="cls-64" points="1299.62 639.44 1239.71 635.76 1239.71 639.44 1284.17 648.05 1299.62 639.44"/><polygon class="cls-64" points="1325.28 615.29 1309.55 630.93 1309.55 639.44 1312.52 635.76 1323.96 621.58 1325.28 615.29"/><polygon class="cls-64" points="1378.03 637.57 1378.03 645.2 1317.41 650.37 1309.55 639.44 1312.52 635.76 1378.03 637.57"/><polygon class="cls-64" points="1334.78 674.49 1335.81 683.6 1330.66 683.6 1303.37 655.54 1303.37 639.44 1308.69 639.44 1334.78 674.49"/><polygon class="cls-64" points="1242.78 680.4 1239.71 683.6 1236.09 682 1236.09 672.52 1299.62 639.44 1303.37 639.44 1303.37 655.54 1296.08 656.28 1242.78 680.4"/><path class="cls-65" d="M1346.73,688.73c0,5-4.65,9.65-8.38,9.65s-8.5-4-8.5-9,4.78-9,8.5-9S1346.73,683.76,1346.73,688.73Z"/><ellipse class="cls-65" cx="1326.73" cy="623.54" rx="4.88" ry="11.06"/><ellipse class="cls-65" cx="1239.71" cy="684.45" rx="10.43" ry="9.01"/><ellipse class="cls-65" cx="1378.03" cy="650.37" rx="10.43" ry="9.01"/><ellipse class="cls-65" cx="1236.09" cy="644.55" rx="10.43" ry="9.01"/><polygon class="cls-66" points="245.97 602.1 312.8 599.69 335.19 629.78 260.38 635.56 245.97 602.1"/><polyline class="cls-12" points="262.27 606.27 254.09 606.27 268 606.27"/><line class="cls-67" x1="254.09" y1="610.11" x2="258.18" y2="610.11"/><line class="cls-67" x1="272.72" y1="610.11" x2="276.81" y2="610.11"/><line class="cls-12" x1="256.13" y1="611.31" x2="268" y2="611.31"/><line class="cls-12" x1="276.81" y1="605.07" x2="303.99" y2="604.11"/><line class="cls-12" x1="309.75" y1="607.71" x2="281.2" y2="609.15"/><line class="cls-12" x1="314.79" y1="613.23" x2="285.52" y2="615.39"/><line class="cls-12" x1="318.39" y1="619.47" x2="290.26" y2="622.11"/><line class="cls-12" x1="254.09" y1="611.31" x2="268" y2="610.11"/><line class="cls-12" x1="258.18" y1="616.35" x2="271.21" y2="615.39"/><line class="cls-12" x1="261.05" y1="620.79" x2="272.72" y2="620.79"/><rect class="cls-68" x="979.91" y="475" width="53.52" height="11.14" rx="5.57" ry="5.57"/><line class="cls-69" x1="982.22" y1="475" x2="1029.45" y2="475"/><polygon class="cls-69" points="985.71 476.88 983.09 476.79 981.52 478.9 980.79 476.37 978.3 475.54 980.48 474.07 980.5 471.44 982.58 473.05 985.08 472.26 984.18 474.73 985.71 476.88"/><rect class="cls-70" x="978.3" y="491.39" width="41.9" height="1.85" rx="0.93" ry="0.93"/><rect class="cls-71" x="993.36" y="493.24" width="45.79" height="1.59" rx="0.79" ry="0.79"/><rect class="cls-72" x="104.74" y="416.86" width="9.01" height="18.22"/><rect class="cls-73" x="107.04" y="406.91" width="0.8" height="9.81" rx="0.4" ry="0.4"/><rect class="cls-74" x="111.33" y="409.91" width="0.8" height="6.81" rx="0.4" ry="0.4"/><rect class="cls-75" x="109.24" y="403.5" width="0.9" height="13.61" rx="0.45" ry="0.45"/><polygon class="cls-76" points="143.93 428.3 114.75 429.7 144.08 445.96 161 444.82 167.67 444.11 143.93 428.3"/><path class="cls-77" d="M129.94,431.1c6.31-.47,3.22,2.21,3.22,2.21l6.08,1.12-3.31,2.7-9.3-3Z"/><polygon class="cls-77" points="145.87 434.09 152.97 437.13 147.6 441.04 142.08 438.35 145.87 434.09"/><rect class="cls-78" x="759.71" y="307.39" width="10.16" height="5.03" rx="2.51" ry="2.51"/><rect class="cls-79" x="786.21" y="304.21" width="5.94" height="23.74" rx="2.97" ry="2.97"/><polygon class="cls-80" points="759.97 355.04 752.96 356.8 747.94 351.61 749.92 344.67 756.92 342.91 761.95 348.09 759.97 355.04"/><polygon class="cls-81" points="760.8 370.69 753.67 374.1 747.15 369.64 747.76 361.76 754.89 358.35 761.41 362.81 760.8 370.69"/><rect class="cls-82" x="756.97" y="315.52" width="7.46" height="12.43" rx="3.73" ry="3.73"/><polygon class="cls-82" points="807.1 321.74 819.11 321.74 812.38 309.9 807.1 321.74"/><polyline class="cls-83" points="808.52 324.57 808.52 333.52 817.19 333.52"/><polygon class="cls-84" points="783.98 355.07 779.8 353.68 776.28 356.33 776.32 351.92 772.71 349.39 776.91 348.07 778.2 343.85 780.76 347.44 785.17 347.36 782.55 350.91 783.98 355.07"/><ellipse class="cls-85" cx="779.19" cy="365.18" rx="5.31" ry="4.67"/><rect class="cls-86" x="800.51" y="344.95" width="12.6" height="9.77"/><rect class="cls-87" x="804.96" y="357.02" width="4.67" height="14.11"/><polygon class="cls-15" points="1123.6 207.76 1123.6 235.93 1125.06 235.82 1125.06 207.76 1123.6 207.76"/><polygon class="cls-15" points="1122.84 234 1101.82 235.23 1101.28 244.85 1340.84 231.14 1343.02 231.01 1364.67 231.01 1364.67 220.8 1344.32 220.8 1341.73 220.95 1122.84 234"/><polyline class="cls-15" points="1363.86 231.01 1237.92 239.13 1120.73 244.85 1100.71 245.24"/><polyline class="cls-15" points="1341.4 172.6 1339.18 220.16 1342.91 220.8 1343.02 231.01"/><polyline class="cls-15" points="1341.1 172.6 1343.35 172.6 1342.08 220.66"/></g></g></svg>
