<?xml version="1.0" encoding="utf-8"?>
<!-- Generator: Adobe Illustrator 22.0.1, SVG Export Plug-In . SVG Version: 6.00 Build 0)  -->
<svg version="1.1" id="Lag_1" xmlns="http://www.w3.org/2000/svg" xmlns:xlink="http://www.w3.org/1999/xlink" x="0px" y="0px"
	 viewBox="0 0 74.3 167.8" style="enable-background:new 0 0 74.3 167.8;" xml:space="preserve">
<style type="text/css">
	.st0{fill:#DDDAD3;}
	.st1{fill:#020202;}
	.st2{fill:#E2EEF7;stroke:#020202;stroke-miterlimit:10;}
	.st3{fill:#050505;}
	.st4{font-family:'ArialMT';}
	.st5{font-size:5px;}
	.st6{font-size:3px;}
	.st7{fill:#D4D6D8;}
	.st8{font-size:4px;}
	.st9{fill:#ACB9C1;}
	.st10{fill:#3BA9ED;}
	.st11{fill:#5FEA3D;}
	.st12{fill:#FFFFFF;stroke:#EAE9E5;stroke-miterlimit:10;}
</style>
<title>telefon</title>
<g id="Lag_2_1_">
	<g id="knap">
		<circle cx="24.6" cy="8.8" r="1.4"/>
		<path d="M30.6,8.3h11.3c0.4,0,0.7,0.3,0.7,0.7v0c0,0.4-0.3,0.7-0.7,0.7H30.6c-0.4,0-0.7-0.3-0.7-0.7v0C29.9,8.6,30.2,8.3,30.6,8.3
			z"/>
		<path class="st0" d="M12,0h50.3c6.6,0,12,5.4,12,12v143.8c0,6.6-5.4,12-12,12H12c-6.6,0-12-5.4-12-12V12C0,5.4,5.4,0,12,0z"/>
		<path d="M11.6,19.9c0.5-0.5,1.4-0.5,1.9,0"/>
		<path class="st1" d="M11.9,20.4c0.4-0.4,1-0.4,1.3,0"/>
		<path class="st1" d="M12.3,20.8l0.3,0.5l0.4-0.5C12.8,20.6,12.5,20.6,12.3,20.8C12.3,20.7,12.3,20.8,12.3,20.8z"/>
		<path d="M13.6,19.9c0.6-0.6,1.6-0.6,2.2,0"/>
		<path class="st1" d="M13.9,20.4c0.4-0.4,1.1-0.4,1.5,0"/>
		<path class="st1" d="M15.1,20.9c-0.2-0.2-0.5-0.3-0.7-0.1c0,0-0.1,0.1-0.1,0.1l0.4,0.6"/>
		<path d="M56.2,31.3c0.5-0.5,1.4-0.5,1.9,0"/>
		<path class="st1" d="M56.5,31.8c0.4-0.3,1-0.3,1.3,0"/>
		<path class="st1" d="M57.5,32.2C57.3,32,57,32,56.8,32.1c0,0,0,0-0.1,0.1l0.3,0.5"/>
		<rect x="4.1" y="17.7" class="st2" width="65.9" height="128.1"/>
		<ellipse class="st3" cx="6.4" cy="20.7" rx="0.4" ry="0.5"/>
		<ellipse class="st3" cx="11.3" cy="20.7" rx="0.4" ry="0.5"/>
		<ellipse class="st3" cx="10.1" cy="20.7" rx="0.4" ry="0.5"/>
		<ellipse class="st3" cx="8.8" cy="20.7" rx="0.4" ry="0.5"/>
		<ellipse class="st3" cx="7.7" cy="20.7" rx="0.4" ry="0.5"/>
		<path class="st3" d="M63.9,20.6h2.4c0.5,0,1,0.4,1,1v0.2c0,0.5-0.4,1-1,1h-2.4c-0.5,0-1-0.4-1-1v-0.2C63,21.1,63.4,20.6,63.9,20.6
			z"/>
		<path class="st3" d="M67.5,21.3L67.5,21.3c0.1,0,0.2,0.1,0.2,0.2v0.4c0,0.1-0.1,0.2-0.2,0.2l0,0c-0.1,0-0.2-0.1-0.2-0.2v-0.4
			C67.3,21.4,67.4,21.3,67.5,21.3z"/>
		<text transform="matrix(0.7 0 0 1 18.3203 23.4697)" class="st4 st5">                    08:50       100%</text>
		<path class="st1" d="M31,8.2h11.2c0.2,0,0.4,0.2,0.4,0.4v0.5c0,0.2-0.2,0.4-0.4,0.4H31c-0.2,0-0.4-0.2-0.4-0.4V8.6
			C30.6,8.3,30.8,8.2,31,8.2z"/>
		<ellipse class="st1" cx="24.6" cy="8.8" rx="1.3" ry="1.4"/>
		<text transform="matrix(1 0 0 1 4.97 39.27)" class="st4 st6">      </text>
		<text transform="matrix(1 0 0 1 8.78 39.27)" class="st4 st6">B</text>
		<text transform="matrix(1 0 0 1 10.42 39.27)" class="st4 st6">eskeder               </text>
		<text transform="matrix(1 0 0 1 29.73 39.27)" class="st4 st6">A</text>
		<text transform="matrix(1 0 0 1 31.56 39.27)" class="st4 st6">ktiv(69)                   Grupper</text>
		<path class="st7" d="M9,28.1h53.8c1.8,0,3.2,1.4,3.2,3.2l0,0c0,1.8-1.4,3.2-3.2,3.2H9c-1.8,0-3.2-1.4-3.2-3.2l0,0
			C5.8,29.6,7.3,28.1,9,28.1z"/>
		<text transform="matrix(1 0 0 1 8.69 32.36)" class="st4 st8">S</text>
		<text transform="matrix(1 0 0 1 10.69 32.36)" class="st4 st8">øg</text>
		<text transform="matrix(1 0 0 1 5.88 49.63)" class="st4 st8">Sene</text>
		<text transform="matrix(1 0 0 1 15.69 49.63)" class="st4 st8">t</text>
		<text transform="matrix(1 0 0 1 16.99 49.63)" class="st4 st8">e                       opret gruppe  </text>
		<text transform="matrix(1 0 0 1 55.4 69.28)" class="st4 st8">08:27</text>
		<text transform="matrix(1 0 0 1 55.08 59.93)" class="st4 st8">08:48</text>
		<circle class="st9" cx="48.2" cy="73.9" r="1.9"/>
		<circle class="st9" cx="61.5" cy="73.9" r="1.9"/>
		<circle class="st9" cx="57" cy="73.9" r="1.9"/>
		<circle class="st9" cx="52.6" cy="73.9" r="1.9"/>
		<text transform="matrix(1 0 0 1 60.61 74.78)" class="st4 st6">K</text>
		<text transform="matrix(1 0 0 1 56.23 74.84)" class="st4 st6">P</text>
		<text transform="matrix(1 0 0 1 51.4 74.7)" class="st4 st6">M</text>
		<text transform="matrix(1 0 0 1 47.12 74.88)" class="st4 st6">A</text>
		<circle class="st10" cx="9" cy="69.7" r="3.1"/>
		<text transform="matrix(1 0 0 1 13.68 70.44)" class="st4 st6">7.C $$$</text>
		<circle class="st11" cx="9" cy="59.1" r="3.1"/>
		<text transform="matrix(1 0 0 1 13.3 59.79)" class="st4 st6">Hen</text>
		<text transform="matrix(1 0 0 1 18.42 59.79)" class="st4 st6">r</text>
		<text transform="matrix(1 0 0 1 19.42 59.79)" class="st4 st6">ik</text>
		<text transform="matrix(1 0 0 1 8.17 74.57)" class="st4 st6">....  Har delt et billede</text>
		<text transform="matrix(1 0 0 1 64.08 75.41)" class="st4 st6">...</text>
		<text transform="matrix(1 0 0 1 12.09 63.65)" class="st4 st6">H</text>
		<text transform="matrix(1 0 0 1 14.07 63.65)" class="st4 st6">v</text>
		<text transform="matrix(1 0 0 1 15.5 63.65)" class="st4 st6">ad du </text>
		<text transform="matrix(1 0 0 1 23.26 63.65)" class="st4 st6">h</text>
		<text transform="matrix(1 0 0 1 24.88 63.65)" class="st4 st6">v</text>
		<text transform="matrix(1 0 0 1 26.31 63.65)" class="st4 st6">ad der sker i </text>
		<text transform="matrix(1 0 0 1 41.95 63.65)" class="st4 st6">k</text>
		<text transform="matrix(1 0 0 1 43.41 63.65)" class="st4 st6">las</text>
		<text transform="matrix(1 0 0 1 46.76 63.65)" class="st4 st6">s</text>
		<text transform="matrix(1 0 0 1 47.91 63.65)" class="st4 st6">...</text>
		<circle class="st12" cx="36.6" cy="154.2" r="6.1"/>
	</g>
</g>
</svg>
