<svg xmlns="http://www.w3.org/2000/svg" viewBox="0 0 74.34 167.75"><defs><style>.cls-1{fill:#dddad3;}.cls-2{fill:#020202;}.cls-3{fill:#e2eef7;stroke:#020202;}.cls-26,.cls-3{stroke-miterlimit:10;}.cls-4{fill:#050505;}.cls-5{font-size:5px;}.cls-10,.cls-5,.cls-6{font-family:MyriadPro-Regular, Myriad Pro;}.cls-6{font-size:3px;}.cls-7{letter-spacing:0em;}.cls-8{letter-spacing:0em;}.cls-9{fill:#d4d6d8;}.cls-10{font-size:4px;}.cls-11{letter-spacing:0.01em;}.cls-12{letter-spacing:0.01em;}.cls-13{letter-spacing:-0.01em;}.cls-14{letter-spacing:-0.01em;}.cls-15{letter-spacing:-0.01em;}.cls-16{letter-spacing:0em;}.cls-17{fill:#acb9c1;}.cls-18{fill:#3ba9ed;}.cls-19{fill:#5fea3d;}.cls-20{letter-spacing:0.01em;}.cls-21{letter-spacing:0em;}.cls-22{letter-spacing:-0.01em;}.cls-23{letter-spacing:0em;}.cls-24{letter-spacing:0.02em;}.cls-25{letter-spacing:-0.01em;}.cls-26{fill:#fff;stroke:#eae9e5;}</style></defs><title>telefon</title><g id="Lag_2" data-name="Lag 2"><g id="knap"><circle cx="24.59" cy="8.84" r="1.4"/><rect x="29.9" y="8.31" width="12.7" height="1.39" rx="0.69" ry="0.69"/><rect class="cls-1" width="74.34" height="167.75" rx="12" ry="12"/><path d="M11.63,19.94a1.43,1.43,0,0,1,1.93,0"/><path class="cls-2" d="M11.92,20.44a.94.94,0,0,1,1.32,0"/><path class="cls-2" d="M12.27,20.79l.33.49.38-.49A.45.45,0,0,0,12.27,20.79Z"/><path d="M13.56,19.88a1.67,1.67,0,0,1,2.25,0"/><path class="cls-2" d="M13.92,20.43a1.1,1.1,0,0,1,1.54,0"/><path class="cls-2" d="M15.1,20.91a.53.53,0,0,0-.83,0l.38.57"/><path d="M56.16,31.32a1.43,1.43,0,0,1,1.93,0"/><path class="cls-2" d="M56.46,31.79a1,1,0,0,1,1.33,0"/><path class="cls-2" d="M57.48,32.2a.46.46,0,0,0-.71,0l.33.49"/><rect class="cls-3" x="4.14" y="17.72" width="65.87" height="128.13"/><ellipse class="cls-4" cx="6.39" cy="20.72" rx="0.43" ry="0.52"/><ellipse class="cls-4" cx="11.3" cy="20.72" rx="0.43" ry="0.52"/><ellipse class="cls-4" cx="10.12" cy="20.72" rx="0.43" ry="0.52"/><ellipse class="cls-4" cx="8.83" cy="20.72" rx="0.43" ry="0.52"/><ellipse class="cls-4" cx="7.67" cy="20.72" rx="0.43" ry="0.52"/><rect class="cls-4" x="62.98" y="20.64" width="4.32" height="2.13" rx="0.96" ry="0.96"/><rect class="cls-4" x="67.3" y="21.3" width="0.36" height="0.79" rx="0.18" ry="0.18"/><text class="cls-5" transform="translate(18.32 23.47) scale(0.7 1)"><tspan xml:space="preserve">                    08:50                  100%</tspan></text><rect class="cls-2" x="30.59" y="8.17" width="12.01" height="1.29" rx="0.4" ry="0.4"/><ellipse class="cls-2" cx="24.62" cy="8.8" rx="1.31" ry="1.36"/><text class="cls-6" transform="translate(4.97 39.27)"><tspan xml:space="preserve">      </tspan><tspan class="cls-7" x="3.81" y="0">B</tspan><tspan x="5.45" y="0" xml:space="preserve">eskeder               </tspan><tspan class="cls-8" x="24.76" y="0">A</tspan><tspan x="26.59" y="0" xml:space="preserve">ktiv(69)                   Grupper</tspan></text><rect class="cls-9" x="5.82" y="28.14" width="60.18" height="6.4" rx="3.2" ry="3.2"/><text class="cls-10" transform="translate(8.69 32.36)"><tspan class="cls-11">S</tspan><tspan x="2" y="0">øg</tspan></text><text class="cls-10" transform="translate(5.88 49.63)"><tspan class="cls-12">S</tspan><tspan x="2" y="0">enes</tspan><tspan class="cls-13" x="9.81" y="0">t</tspan><tspan x="11.11" y="0" xml:space="preserve">e                            Op</tspan><tspan class="cls-14" x="41.88" y="0">r</tspan><tspan x="43.15" y="0">et </tspan><tspan class="cls-15" x="47.33" y="0">g</tspan><tspan class="cls-16" x="49.54" y="0">ruppe</tspan></text><text class="cls-10" transform="translate(55.4 69.28)">08:27</text><text class="cls-10" transform="translate(55.08 59.93)">08:48</text><circle class="cls-17" cx="48.2" cy="73.9" r="1.95"/><circle class="cls-17" cx="61.48" cy="73.9" r="1.95"/><circle class="cls-17" cx="56.97" cy="73.9" r="1.95"/><circle class="cls-17" cx="52.64" cy="73.9" r="1.95"/><text class="cls-6" transform="translate(60.61 74.78)">K</text><text class="cls-6" transform="translate(56.23 74.84)">P</text><text class="cls-6" transform="translate(51.4 74.7)">M</text><text class="cls-6" transform="translate(47.12 74.88)">A</text><circle class="cls-18" cx="8.98" cy="69.71" r="3.11"/><text class="cls-6" transform="translate(13.68 70.44)">7.C $$$</text><circle class="cls-19" cx="8.98" cy="59.09" r="3.11"/><text class="cls-6" transform="translate(13.3 59.79)">Hen<tspan class="cls-7" x="5.12" y="0">r</tspan><tspan x="6.12" y="0">ik</tspan></text><text class="cls-6" transform="translate(8.17 74.57)"><tspan xml:space="preserve">....  Har delt et billede</tspan></text><text class="cls-6" transform="translate(64.08 75.41)">...</text><text class="cls-6" transform="translate(12.09 63.65)"><tspan class="cls-20">H</tspan><tspan class="cls-21" x="1.98" y="0">v</tspan><tspan x="3.41" y="0">ad du </tspan><tspan class="cls-22" x="11.17" y="0">h</tspan><tspan class="cls-23" x="12.79" y="0">v</tspan><tspan x="14.22" y="0">ad der sker i </tspan><tspan class="cls-24" x="29.86" y="0">k</tspan><tspan x="31.32" y="0">las</tspan><tspan class="cls-25" x="34.67" y="0">s</tspan><tspan x="35.82" y="0">...</tspan></text><circle class="cls-26" cx="36.62" cy="154.24" r="6.15"/></g></g></svg>
