<svg xmlns="http://www.w3.org/2000/svg" viewBox="0 0 504.56 237.27"><defs><style>.cls-1{fill:#d1b850;}</style></defs><title>bord</title><g id="Lag_2" data-name="Lag 2"><g id="lampe6"><polygon class="cls-1" points="92.96 237.11 108.08 237.27 112.27 39.29 95.32 31.49 92.96 237.11"/><polygon class="cls-1" points="36.49 208.38 50.16 208.52 58.63 15.6 46.12 11.46 36.49 208.38"/><polygon class="cls-1" points="444.4 228.28 457.84 228.42 464.45 10.75 450.13 11.04 444.4 228.28"/><polygon class="cls-1" points="383.61 207.47 397.05 207.61 403.5 3.81 389.19 4.07 383.61 207.47"/><polygon class="cls-1" points="0.16 1.4 5.6 4.07 13.45 7.93 73.14 37.27 504.56 28.4 437.35 0 0.16 1.4"/><polyline class="cls-1" points="0.16 1.4 0 15.95 73.6 51.77 73.14 37.27 77.25 37.18 73.6 51.77 504.38 44.96 504.56 28.4"/><polygon class="cls-1" points="76.77 50.56 73.78 51.03 70.27 48.7 71.66 34.65 79.64 35.88 76.77 50.56"/></g></g></svg>