<svg xmlns="http://www.w3.org/2000/svg" xmlns:xlink="http://www.w3.org/1999/xlink" viewBox="0 0 99.77 29.99"><defs><style>.cls-1{fill:none;}.cls-2{fill:#dddad3;}.cls-3{fill:#020202;}.cls-4{fill:#e2eef7;stroke:#020202;}.cls-24,.cls-4{stroke-miterlimit:10;}.cls-5{fill:#050505;}.cls-11,.cls-12,.cls-13,.cls-14,.cls-16,.cls-17,.cls-20,.cls-21,.cls-22,.cls-23,.cls-6,.cls-7,.cls-8,.cls-9{isolation:isolate;}.cls-7{font-size:0.98px;}.cls-11,.cls-12,.cls-13,.cls-14,.cls-16,.cls-17,.cls-20,.cls-21,.cls-22,.cls-23,.cls-7,.cls-8,.cls-9{font-family:ArialMT, Arial;}.cls-16,.cls-17,.cls-20,.cls-21,.cls-22,.cls-23,.cls-8,.cls-9{font-size:0.59px;}.cls-9{letter-spacing:-0.11em;}.cls-10{fill:#d4d6d8;}.cls-11,.cls-12,.cls-13,.cls-14{font-size:0.79px;}.cls-11{letter-spacing:0.01em;}.cls-13{letter-spacing:0.01em;}.cls-14{letter-spacing:-0.01em;}.cls-15{fill:#acb9c1;}.cls-16{letter-spacing:-0.04em;}.cls-17{letter-spacing:-0.1em;}.cls-18{fill:#3ba9ed;}.cls-19{fill:#5fea3d;}.cls-20{letter-spacing:0.01em;}.cls-21{letter-spacing:-0.01em;}.cls-22{letter-spacing:0.02em;}.cls-23{letter-spacing:-0.01em;}.cls-24{fill:#fff;stroke:#eae9e5;}.cls-25{fill:#353232;}</style><symbol id="tlf_off_1" data-name="tlf off 1" viewBox="0 0 23.32 35.9"><rect class="cls-1" width="23.31" height="35.87"/><g id="Lag_2" data-name="Lag 2"><g id="Lag_1-2" data-name="Lag 1-2"><ellipse cx="4.99" cy="3.95" rx="0.3" ry="0.28" transform="translate(-0.87 1.47) rotate(-15.41)"/><path d="M6.21,3.51l2.36-.65A.14.14,0,0,1,8.74,3h0a.14.14,0,0,1-.1.17l-2.36.65a.14.14,0,0,1-.17-.09h0A.14.14,0,0,1,6.21,3.51Z"/><path class="cls-2" d="M1.93,3,12.37.12a2.51,2.51,0,0,1,3.14,1.66h0l7.74,28.09a2.51,2.51,0,0,1-1.84,3L11,35.78a2.52,2.52,0,0,1-3.16-1.64v0L.08,6A2.51,2.51,0,0,1,1.93,3Z"/><path d="M2.89,6.8a.34.34,0,0,1,.4-.11"/><path class="cls-3" d="M3,6.88a.22.22,0,0,1,.27-.08"/><path class="cls-3" d="M3.07,6.93,3.16,7l.06-.11a.11.11,0,0,0-.14,0Z"/><path d="M3.29,6.68a.39.39,0,0,1,.47-.13"/><path class="cls-3" d="M3.39,6.76a.25.25,0,0,1,.32-.08"/><path class="cls-3" d="M3.66,6.79a.12.12,0,0,0-.16,0h0l.11.09"/><path d="M12.73,6.41a.34.34,0,0,1,.4-.11"/><path class="cls-3" d="M12.81,6.48a.24.24,0,0,1,.28-.07"/><path class="cls-3" d="M13.05,6.5a.12.12,0,0,0-.14,0h0l.09.12"/><polygon class="cls-4" points="1.23 6.8 14.9 3.04 21.6 27.34 7.93 31.11 1.23 6.8"/><ellipse class="cls-5" cx="1.85" cy="7.25" rx="0.09" ry="0.1" transform="translate(-1.86 0.75) rotate(-15.41)"/><ellipse class="cls-5" cx="2.86" cy="6.97" rx="0.09" ry="0.1" transform="translate(-1.75 1.01) rotate(-15.41)"/><ellipse class="cls-5" cx="2.62" cy="7.04" rx="0.09" ry="0.1" transform="translate(-1.78 0.95) rotate(-15.41)"/><ellipse class="cls-5" cx="2.35" cy="7.11" rx="0.09" ry="0.1" transform="translate(-1.81 0.88) rotate(-15.41)"/><ellipse class="cls-5" cx="2.11" cy="7.18" rx="0.09" ry="0.1" transform="translate(-1.83 0.82) rotate(-15.41)"/><path class="cls-5" d="M13.77,4l.53-.15a.19.19,0,0,1,.23.13V4a.19.19,0,0,1-.13.23l-.53.15a.19.19,0,0,1-.23-.13v0A.19.19,0,0,1,13.77,4Z"/><path class="cls-5" d="M14.55,3.86h0v.08h0V3.86Z"/><g class="cls-6"><text class="cls-7" transform="matrix(0.66, -0.18, 0.27, 0.96, 5.44, 6.84)"><tspan xml:space="preserve">                    08:50       100%</tspan></text></g><path class="cls-3" d="M6.29,3.46l2.33-.64a.08.08,0,0,1,.1,0V3a.1.1,0,0,1-.06.1l-2.33.64a.08.08,0,0,1-.1-.06h0V3.56A.09.09,0,0,1,6.29,3.46Z"/><ellipse class="cls-3" cx="5.01" cy="3.95" rx="0.28" ry="0.27" transform="matrix(0.96, -0.27, 0.27, 0.96, -0.87, 1.47)"/><g class="cls-6"><text class="cls-8" transform="translate(3.38 10.63) rotate(-15.41) scale(0.96 1)"><tspan xml:space="preserve">      </tspan></text></g><text class="cls-8" transform="translate(4.07 10.44) rotate(-15.41) scale(0.96 1)">B</text><g class="cls-6"><text class="cls-8" transform="translate(4.37 10.36) rotate(-15.41) scale(0.96 1)"><tspan xml:space="preserve">eskeder               </tspan></text></g><text class="cls-9" transform="translate(7.9 9.38) rotate(-15.41) scale(0.96 1)">A</text><g class="cls-6"><text class="cls-8" transform="translate(8.24 9.29) rotate(-15.41) scale(0.96 1)"><tspan xml:space="preserve">ktiv(69)                   Grupper</tspan></text></g><path class="cls-10" d="M3.4,8.33l9.48-2.61a.61.61,0,0,1,.73.45h0a.62.62,0,0,1-.4.77L3.73,9.55A.62.62,0,0,1,3,9.1H3A.62.62,0,0,1,3.4,8.33Z"/><text class="cls-11" transform="translate(3.86 9.09) rotate(-15.41) scale(1.09 1)">S</text><text class="cls-12" transform="translate(4.27 8.97) rotate(-15.41) scale(1.09 1)">øg</text><text class="cls-13" transform="translate(3.92 12.6) rotate(-15.41) scale(0.96 1)">Sene</text><text class="cls-14" transform="translate(5.7 12.11) rotate(-15.41) scale(0.96 1)">t</text><g class="cls-6"><text class="cls-12" transform="translate(5.93 12.04) rotate(-15.41) scale(0.96 1)"><tspan xml:space="preserve">e                       opret gruppe  </tspan></text></g><text class="cls-12" transform="translate(14.51 13.68) rotate(-15.41) scale(1.09 1)">08:27</text><text class="cls-12" transform="translate(13.96 11.93) rotate(-15.41) scale(1.09 1)">08:48</text><ellipse class="cls-15" cx="13.3" cy="14.94" rx="0.42" ry="0.38" transform="translate(-3.49 4.07) rotate(-15.41)"/><ellipse class="cls-15" cx="16.06" cy="14.18" rx="0.42" ry="0.38" transform="translate(-3.19 4.78) rotate(-15.41)"/><ellipse class="cls-15" cx="15.12" cy="14.44" rx="0.42" ry="0.38" transform="translate(-3.29 4.54) rotate(-15.41)"/><ellipse class="cls-15" cx="14.22" cy="14.69" rx="0.42" ry="0.38" transform="translate(-3.39 4.31) rotate(-15.41)"/><text class="cls-8" transform="translate(15.88 14.43) rotate(-15.41) scale(1.09 1)">K</text><text class="cls-16" transform="translate(14.98 14.69) rotate(-15.41) scale(1.09 1)">P</text><text class="cls-8" transform="translate(13.97 14.94) rotate(-15.41) scale(1.09 1)">M</text><text class="cls-17" transform="translate(13.09 15.22) rotate(-15.41) scale(1.09 1)">A</text><ellipse class="cls-18" cx="5.91" cy="16.13" rx="0.67" ry="0.61" transform="translate(-4.07 2.15) rotate(-15.41)"/><text class="cls-8" transform="translate(6.88 16.02) rotate(-15.41) scale(1.09 1)">7.C $$$</text><ellipse class="cls-19" cx="5.35" cy="14.11" rx="0.67" ry="0.61" transform="translate(-3.56 1.93) rotate(-15.41)"/><text class="cls-8" transform="translate(6.25 14.03) rotate(-15.41) scale(1.09 1)">Hen</text><text class="cls-8" transform="translate(7.31 13.73) rotate(-15.41) scale(1.09 1)">r</text><text class="cls-8" transform="translate(7.52 13.68) rotate(-15.41) scale(1.09 1)">ik</text><g class="cls-6"><text class="cls-8" transform="translate(5.96 17.12) rotate(-15.41) scale(1.09 1)"><tspan xml:space="preserve">....  Har delt et billede</tspan></text></g><text class="cls-8" transform="translate(16.64 14.35) rotate(-15.41) scale(1.09 1)">...</text><text class="cls-20" transform="translate(6.2 14.83) rotate(-15.41) scale(1.09 1)">H</text><text class="cls-8" transform="translate(6.61 14.71) rotate(-15.41) scale(1.09 1)">v</text><text class="cls-8" transform="translate(6.9 14.63) rotate(-15.41) scale(1.09 1)">ad du</text><text class="cls-21" transform="translate(8.51 14.19) rotate(-15.41) scale(1.09 1)">h</text><text class="cls-8" transform="translate(8.85 14.1) rotate(-15.41) scale(1.09 1)">v</text><text class="cls-8" transform="translate(9.15 14.01) rotate(-15.41) scale(1.09 1)">ad der sker i</text><text class="cls-22" transform="translate(12.39 13.12) rotate(-15.41) scale(1.09 1)">k</text><text class="cls-8" transform="translate(12.7 13.04) rotate(-15.41) scale(1.09 1)">las</text><text class="cls-23" transform="translate(13.39 12.84) rotate(-15.41) scale(1.09 1)">s</text><text class="cls-8" transform="translate(13.63 12.78) rotate(-15.41) scale(1.09 1)">...</text><ellipse class="cls-24" cx="15.36" cy="31.81" rx="1.32" ry="1.21" transform="translate(-7.9 5.23) rotate(-15.41)"/></g></g><g id="Lag_2-2" data-name="Lag 2"><g id="Lag_1-2-2" data-name="Lag 1-2"><ellipse cx="4.99" cy="3.95" rx="0.3" ry="0.28" transform="translate(-0.87 1.47) rotate(-15.41)"/><path d="M6.21,3.51l2.36-.65A.14.14,0,0,1,8.74,3h0a.14.14,0,0,1-.1.17l-2.36.65a.14.14,0,0,1-.17-.09h0A.14.14,0,0,1,6.21,3.51Z"/><path class="cls-2" d="M1.93,3,12.37.12a2.51,2.51,0,0,1,3.14,1.66h0l7.74,28.09a2.51,2.51,0,0,1-1.84,3L11,35.78a2.52,2.52,0,0,1-3.16-1.64v0L.08,6A2.51,2.51,0,0,1,1.93,3Z"/><path d="M2.89,6.8a.34.34,0,0,1,.4-.11"/><path class="cls-3" d="M3,6.88a.22.22,0,0,1,.27-.08"/><path class="cls-3" d="M3.07,6.93,3.16,7l.06-.11a.11.11,0,0,0-.14,0Z"/><path d="M3.29,6.68a.39.39,0,0,1,.47-.13"/><path class="cls-3" d="M3.39,6.76a.25.25,0,0,1,.32-.08"/><path class="cls-3" d="M3.66,6.79a.12.12,0,0,0-.16,0h0l.11.09"/><path d="M12.73,6.41a.34.34,0,0,1,.4-.11"/><path class="cls-3" d="M12.81,6.48a.24.24,0,0,1,.28-.07"/><path class="cls-3" d="M13.05,6.5a.12.12,0,0,0-.14,0h0l.09.12"/><polygon class="cls-4" points="1.23 6.8 14.9 3.04 21.6 27.34 7.93 31.11 1.23 6.8"/><ellipse class="cls-5" cx="1.85" cy="7.25" rx="0.09" ry="0.1" transform="translate(-1.86 0.75) rotate(-15.41)"/><ellipse class="cls-5" cx="2.86" cy="6.97" rx="0.09" ry="0.1" transform="translate(-1.75 1.01) rotate(-15.41)"/><ellipse class="cls-5" cx="2.62" cy="7.04" rx="0.09" ry="0.1" transform="translate(-1.78 0.95) rotate(-15.41)"/><ellipse class="cls-5" cx="2.35" cy="7.11" rx="0.09" ry="0.1" transform="translate(-1.81 0.88) rotate(-15.41)"/><ellipse class="cls-5" cx="2.11" cy="7.18" rx="0.09" ry="0.1" transform="translate(-1.83 0.82) rotate(-15.41)"/><path class="cls-5" d="M13.77,4l.53-.15a.19.19,0,0,1,.23.13V4a.19.19,0,0,1-.13.23l-.53.15a.19.19,0,0,1-.23-.13v0A.19.19,0,0,1,13.77,4Z"/><path class="cls-5" d="M14.55,3.86h0v.08h0V3.86Z"/><g class="cls-6"><text class="cls-7" transform="matrix(0.66, -0.18, 0.27, 0.96, 5.44, 6.84)"><tspan xml:space="preserve">                    08:50       100%</tspan></text></g><path class="cls-3" d="M6.29,3.46l2.33-.64a.08.08,0,0,1,.1,0V3a.1.1,0,0,1-.06.1l-2.33.64a.08.08,0,0,1-.1-.06h0V3.56A.09.09,0,0,1,6.29,3.46Z"/><ellipse class="cls-3" cx="5.01" cy="3.95" rx="0.28" ry="0.27" transform="matrix(0.96, -0.27, 0.27, 0.96, -0.87, 1.47)"/><g class="cls-6"><text class="cls-8" transform="translate(3.38 10.63) rotate(-15.41) scale(0.96 1)"><tspan xml:space="preserve">      </tspan></text></g><text class="cls-8" transform="translate(4.07 10.44) rotate(-15.41) scale(0.96 1)">B</text><g class="cls-6"><text class="cls-8" transform="translate(4.37 10.36) rotate(-15.41) scale(0.96 1)"><tspan xml:space="preserve">eskeder               </tspan></text></g><text class="cls-9" transform="translate(7.9 9.38) rotate(-15.41) scale(0.96 1)">A</text><g class="cls-6"><text class="cls-8" transform="translate(8.24 9.29) rotate(-15.41) scale(0.96 1)"><tspan xml:space="preserve">ktiv(69)                   Grupper</tspan></text></g><path class="cls-10" d="M3.4,8.33l9.48-2.61a.61.61,0,0,1,.73.45h0a.62.62,0,0,1-.4.77L3.73,9.55A.62.62,0,0,1,3,9.1H3A.62.62,0,0,1,3.4,8.33Z"/><text class="cls-11" transform="translate(3.86 9.09) rotate(-15.41) scale(1.09 1)">S</text><text class="cls-12" transform="translate(4.27 8.97) rotate(-15.41) scale(1.09 1)">øg</text><text class="cls-13" transform="translate(3.92 12.6) rotate(-15.41) scale(0.96 1)">Sene</text><text class="cls-14" transform="translate(5.7 12.11) rotate(-15.41) scale(0.96 1)">t</text><g class="cls-6"><text class="cls-12" transform="translate(5.93 12.04) rotate(-15.41) scale(0.96 1)"><tspan xml:space="preserve">e                       opret gruppe  </tspan></text></g><text class="cls-12" transform="translate(14.51 13.68) rotate(-15.41) scale(1.09 1)">08:27</text><text class="cls-12" transform="translate(13.96 11.93) rotate(-15.41) scale(1.09 1)">08:48</text><ellipse class="cls-15" cx="13.3" cy="14.94" rx="0.42" ry="0.38" transform="translate(-3.49 4.07) rotate(-15.41)"/><ellipse class="cls-15" cx="16.06" cy="14.18" rx="0.42" ry="0.38" transform="translate(-3.19 4.78) rotate(-15.41)"/><ellipse class="cls-15" cx="15.12" cy="14.44" rx="0.42" ry="0.38" transform="translate(-3.29 4.54) rotate(-15.41)"/><ellipse class="cls-15" cx="14.22" cy="14.69" rx="0.42" ry="0.38" transform="translate(-3.39 4.31) rotate(-15.41)"/><text class="cls-8" transform="translate(15.88 14.43) rotate(-15.41) scale(1.09 1)">K</text><text class="cls-16" transform="translate(14.98 14.69) rotate(-15.41) scale(1.09 1)">P</text><text class="cls-8" transform="translate(13.97 14.94) rotate(-15.41) scale(1.09 1)">M</text><text class="cls-17" transform="translate(13.09 15.22) rotate(-15.41) scale(1.09 1)">A</text><ellipse class="cls-18" cx="5.91" cy="16.13" rx="0.67" ry="0.61" transform="translate(-4.07 2.15) rotate(-15.41)"/><text class="cls-8" transform="translate(6.88 16.02) rotate(-15.41) scale(1.09 1)">7.C $$$</text><ellipse class="cls-19" cx="5.35" cy="14.11" rx="0.67" ry="0.61" transform="translate(-3.56 1.93) rotate(-15.41)"/><text class="cls-8" transform="translate(6.25 14.03) rotate(-15.41) scale(1.09 1)">Hen</text><text class="cls-8" transform="translate(7.31 13.73) rotate(-15.41) scale(1.09 1)">r</text><text class="cls-8" transform="translate(7.52 13.68) rotate(-15.41) scale(1.09 1)">ik</text><g class="cls-6"><text class="cls-8" transform="translate(5.96 17.12) rotate(-15.41) scale(1.09 1)"><tspan xml:space="preserve">....  Har delt et billede</tspan></text></g><text class="cls-8" transform="translate(16.64 14.35) rotate(-15.41) scale(1.09 1)">...</text><text class="cls-20" transform="translate(6.2 14.83) rotate(-15.41) scale(1.09 1)">H</text><text class="cls-8" transform="translate(6.61 14.71) rotate(-15.41) scale(1.09 1)">v</text><text class="cls-8" transform="translate(6.9 14.63) rotate(-15.41) scale(1.09 1)">ad du</text><text class="cls-21" transform="translate(8.51 14.19) rotate(-15.41) scale(1.09 1)">h</text><text class="cls-8" transform="translate(8.85 14.1) rotate(-15.41) scale(1.09 1)">v</text><text class="cls-8" transform="translate(9.15 14.01) rotate(-15.41) scale(1.09 1)">ad der sker i</text><text class="cls-22" transform="translate(12.39 13.12) rotate(-15.41) scale(1.09 1)">k</text><text class="cls-8" transform="translate(12.7 13.04) rotate(-15.41) scale(1.09 1)">las</text><text class="cls-23" transform="translate(13.39 12.84) rotate(-15.41) scale(1.09 1)">s</text><text class="cls-8" transform="translate(13.63 12.78) rotate(-15.41) scale(1.09 1)">...</text><ellipse class="cls-24" cx="15.36" cy="31.81" rx="1.32" ry="1.21" transform="translate(-7.9 5.23) rotate(-15.41)"/></g></g><polygon class="cls-1" points="14.55 3.6 1.83 7.15 8.28 30.49 20.98 26.99 14.55 3.6"/><polygon class="cls-1" points="14.55 3.6 1.83 7.15 8.28 30.49 20.98 26.99 14.55 3.6"/><polygon class="cls-25" points="1.83 7.15 14.55 3.6 20.98 26.99 8.28 30.49 1.83 7.15"/></symbol><symbol id="tlf_on-2" data-name="tlf on" viewBox="0 0 23.32 35.89"><rect class="cls-1" width="23.31" height="35.87"/><g id="Lag_2-3" data-name="Lag 2"><g id="Lag_1-2-3" data-name="Lag 1-2"><ellipse cx="4.99" cy="3.94" rx="0.3" ry="0.28" transform="translate(-0.87 1.47) rotate(-15.41)"/><path d="M6.21,3.5l2.36-.65a.14.14,0,0,1,.17.09h0a.14.14,0,0,1-.1.17l-2.36.65a.14.14,0,0,1-.17-.09h0A.14.14,0,0,1,6.21,3.5Z"/><path class="cls-2" d="M1.93,3,12.37.11a2.51,2.51,0,0,1,3.14,1.66h0l7.74,28.09a2.51,2.51,0,0,1-1.84,3L11,35.77a2.52,2.52,0,0,1-3.16-1.64v0L.08,6A2.51,2.51,0,0,1,1.93,3Z"/><path d="M2.89,6.79a.34.34,0,0,1,.4-.11"/><path class="cls-3" d="M3,6.87a.22.22,0,0,1,.27-.08"/><path class="cls-3" d="M3.07,6.92,3.16,7l.06-.11a.11.11,0,0,0-.14,0Z"/><path d="M3.29,6.67a.39.39,0,0,1,.47-.13"/><path class="cls-3" d="M3.39,6.75a.25.25,0,0,1,.32-.08"/><path class="cls-3" d="M3.66,6.78a.12.12,0,0,0-.16,0h0l.11.09"/><path d="M12.73,6.4a.34.34,0,0,1,.4-.11"/><path class="cls-3" d="M12.81,6.47a.24.24,0,0,1,.28-.07"/><path class="cls-3" d="M13.05,6.49a.12.12,0,0,0-.14,0h0l.09.12"/><polygon class="cls-4" points="1.23 6.79 14.9 3.03 21.6 27.33 7.93 31.1 1.23 6.79"/><ellipse class="cls-5" cx="1.85" cy="7.24" rx="0.09" ry="0.1" transform="translate(-1.86 0.75) rotate(-15.41)"/><ellipse class="cls-5" cx="2.86" cy="6.96" rx="0.09" ry="0.1" transform="translate(-1.75 1.01) rotate(-15.41)"/><ellipse class="cls-5" cx="2.62" cy="7.03" rx="0.09" ry="0.1" transform="translate(-1.77 0.95) rotate(-15.41)"/><ellipse class="cls-5" cx="2.35" cy="7.1" rx="0.09" ry="0.1" transform="translate(-1.8 0.88) rotate(-15.41)"/><ellipse class="cls-5" cx="2.11" cy="7.17" rx="0.09" ry="0.1" transform="translate(-1.83 0.82) rotate(-15.41)"/><path class="cls-5" d="M13.77,3.94l.53-.15a.19.19,0,0,1,.23.13V4a.19.19,0,0,1-.13.23l-.53.15a.19.19,0,0,1-.23-.13v0A.19.19,0,0,1,13.77,3.94Z"/><path class="cls-5" d="M14.55,3.85h0v.08h0V3.85Z"/><g class="cls-6"><text class="cls-7" transform="matrix(0.66, -0.18, 0.27, 0.96, 5.44, 6.83)"><tspan xml:space="preserve">                    08:50       100%</tspan></text></g><path class="cls-3" d="M6.29,3.45l2.33-.64a.08.08,0,0,1,.1,0V3a.1.1,0,0,1-.06.1L6.33,3.7a.08.08,0,0,1-.1-.06h0V3.55A.09.09,0,0,1,6.29,3.45Z"/><ellipse class="cls-3" cx="5.01" cy="3.94" rx="0.28" ry="0.27" transform="matrix(0.96, -0.27, 0.27, 0.96, -0.87, 1.47)"/><g class="cls-6"><text class="cls-8" transform="translate(3.38 10.62) rotate(-15.41) scale(0.96 1)"><tspan xml:space="preserve">      </tspan></text></g><text class="cls-8" transform="translate(4.07 10.43) rotate(-15.41) scale(0.96 1)">B</text><g class="cls-6"><text class="cls-8" transform="translate(4.37 10.35) rotate(-15.41) scale(0.96 1)"><tspan xml:space="preserve">eskeder               </tspan></text></g><text class="cls-9" transform="translate(7.9 9.37) rotate(-15.41) scale(0.96 1)">A</text><g class="cls-6"><text class="cls-8" transform="translate(8.24 9.28) rotate(-15.41) scale(0.96 1)"><tspan xml:space="preserve">ktiv(69)                   Grupper</tspan></text></g><path class="cls-10" d="M3.4,8.32l9.48-2.61a.61.61,0,0,1,.73.45h0a.62.62,0,0,1-.4.77L3.73,9.54A.62.62,0,0,1,3,9.09H3A.62.62,0,0,1,3.4,8.32Z"/><text class="cls-11" transform="translate(3.86 9.08) rotate(-15.41) scale(1.09 1)">S</text><text class="cls-12" transform="translate(4.27 8.96) rotate(-15.41) scale(1.09 1)">øg</text><text class="cls-13" transform="translate(3.92 12.59) rotate(-15.41) scale(0.96 1)">Sene</text><text class="cls-14" transform="translate(5.7 12.1) rotate(-15.41) scale(0.96 1)">t</text><g class="cls-6"><text class="cls-12" transform="translate(5.93 12.03) rotate(-15.41) scale(0.96 1)"><tspan xml:space="preserve">e                       opret gruppe  </tspan></text></g><text class="cls-12" transform="translate(14.51 13.67) rotate(-15.41) scale(1.09 1)">08:27</text><text class="cls-12" transform="translate(13.96 11.92) rotate(-15.41) scale(1.09 1)">08:48</text><ellipse class="cls-15" cx="13.3" cy="14.93" rx="0.42" ry="0.38" transform="translate(-3.49 4.07) rotate(-15.41)"/><ellipse class="cls-15" cx="16.06" cy="14.18" rx="0.42" ry="0.38" transform="translate(-3.19 4.78) rotate(-15.41)"/><ellipse class="cls-15" cx="15.12" cy="14.44" rx="0.42" ry="0.38" transform="translate(-3.29 4.54) rotate(-15.41)"/><ellipse class="cls-15" cx="14.22" cy="14.69" rx="0.42" ry="0.38" transform="translate(-3.39 4.31) rotate(-15.41)"/><text class="cls-8" transform="translate(15.88 14.42) rotate(-15.41) scale(1.09 1)">K</text><text class="cls-16" transform="translate(14.98 14.68) rotate(-15.41) scale(1.09 1)">P</text><text class="cls-8" transform="translate(13.97 14.93) rotate(-15.41) scale(1.09 1)">M</text><text class="cls-17" transform="translate(13.09 15.21) rotate(-15.41) scale(1.09 1)">A</text><ellipse class="cls-18" cx="5.91" cy="16.12" rx="0.67" ry="0.61" transform="translate(-4.07 2.15) rotate(-15.41)"/><text class="cls-8" transform="translate(6.88 16.01) rotate(-15.41) scale(1.09 1)">7.C $$$</text><ellipse class="cls-19" cx="5.35" cy="14.1" rx="0.67" ry="0.61" transform="translate(-3.56 1.93) rotate(-15.41)"/><text class="cls-8" transform="translate(6.25 14.02) rotate(-15.41) scale(1.09 1)">Hen</text><text class="cls-8" transform="translate(7.31 13.72) rotate(-15.41) scale(1.09 1)">r</text><text class="cls-8" transform="translate(7.52 13.67) rotate(-15.41) scale(1.09 1)">ik</text><g class="cls-6"><text class="cls-8" transform="translate(5.96 17.11) rotate(-15.41) scale(1.09 1)"><tspan xml:space="preserve">....  Har delt et billede</tspan></text></g><text class="cls-8" transform="translate(16.64 14.34) rotate(-15.41) scale(1.09 1)">...</text><text class="cls-20" transform="translate(6.2 14.82) rotate(-15.41) scale(1.09 1)">H</text><text class="cls-8" transform="translate(6.61 14.7) rotate(-15.41) scale(1.09 1)">v</text><text class="cls-8" transform="translate(6.9 14.62) rotate(-15.41) scale(1.09 1)">ad du</text><text class="cls-21" transform="translate(8.51 14.18) rotate(-15.41) scale(1.09 1)">h</text><text class="cls-8" transform="translate(8.85 14.09) rotate(-15.41) scale(1.09 1)">v</text><text class="cls-8" transform="translate(9.15 14) rotate(-15.41) scale(1.09 1)">ad der sker i</text><text class="cls-22" transform="translate(12.39 13.11) rotate(-15.41) scale(1.09 1)">k</text><text class="cls-8" transform="translate(12.7 13.03) rotate(-15.41) scale(1.09 1)">las</text><text class="cls-23" transform="translate(13.39 12.83) rotate(-15.41) scale(1.09 1)">s</text><text class="cls-8" transform="translate(13.63 12.77) rotate(-15.41) scale(1.09 1)">...</text><ellipse class="cls-24" cx="15.36" cy="31.81" rx="1.32" ry="1.21" transform="translate(-7.9 5.23) rotate(-15.41)"/></g></g></symbol></defs><title>phone_on_off</title><g id="Layer_2" data-name="Layer 2"><g id="tlf_on" data-name="tlf on"><use width="23.31" height="35.9" transform="translate(0 0.15) scale(0.83)" xlink:href="#tlf_off_1"/><use width="23.31" height="35.89" transform="translate(26.8) scale(0.84)" xlink:href="#tlf_on-2"/><use width="23.31" height="35.89" transform="translate(53.65) scale(0.83)" xlink:href="#tlf_on-2"/><use width="23.31" height="35.9" transform="translate(80.69 0.56) scale(0.82)" xlink:href="#tlf_off_1"/></g></g></svg>
