<svg xmlns="http://www.w3.org/2000/svg" xmlns:xlink="http://www.w3.org/1999/xlink" viewBox="0 0 199.49 200"><defs><style>.cls-1{fill:none;}.cls-2{fill:#dddad3;}.cls-3{fill:#020202;}.cls-4{fill:#e2eef7;stroke:#020202;}.cls-24,.cls-4{stroke-miterlimit:10;}.cls-5{fill:#050505;}.cls-11,.cls-12,.cls-13,.cls-14,.cls-16,.cls-17,.cls-20,.cls-21,.cls-22,.cls-23,.cls-6,.cls-7,.cls-8,.cls-9{isolation:isolate;}.cls-7{font-size:3.21px;}.cls-11,.cls-12,.cls-13,.cls-14,.cls-16,.cls-17,.cls-20,.cls-21,.cls-22,.cls-23,.cls-7,.cls-8,.cls-9{font-family:ArialMT, Arial;}.cls-16,.cls-17,.cls-20,.cls-21,.cls-22,.cls-23,.cls-8,.cls-9{font-size:1.93px;}.cls-9{letter-spacing:-0.11em;}.cls-10{fill:#d4d6d8;}.cls-11,.cls-12,.cls-13,.cls-14{font-size:2.58px;}.cls-11{letter-spacing:0.01em;}.cls-13{letter-spacing:0.01em;}.cls-14{letter-spacing:-0.01em;}.cls-15{fill:#acb9c1;}.cls-16{letter-spacing:-0.04em;}.cls-17{letter-spacing:-0.11em;}.cls-18{fill:#3ba9ed;}.cls-19{fill:#5fea3d;}.cls-20{letter-spacing:0.01em;}.cls-21{letter-spacing:-0.01em;}.cls-22{letter-spacing:0.02em;}.cls-23{letter-spacing:-0.01em;}.cls-24{fill:#fff;stroke:#eae9e5;}.cls-25{fill:#262525;}</style><symbol id="phone_off" data-name="phone off" viewBox="0 0 100 200"><rect class="cls-1" width="100" height="200"/><g id="Lag_2" data-name="Lag 2"><g id="Lag_1-2" data-name="Lag 1-2"><ellipse cx="27.9" cy="61.91" rx="0.98" ry="0.92" transform="translate(-15.45 9.64) rotate(-15.41)"/><path d="M31.87,60.47l7.72-2.13a.45.45,0,0,1,.56.3h0a.45.45,0,0,1-.32.55L32.1,61.32a.45.45,0,0,1-.56-.3h0A.45.45,0,0,1,31.87,60.47Z"/><path class="cls-2" d="M17.88,58.87,52,49.38A8.21,8.21,0,0,1,62.29,54.8h0l25.31,91.87a8.21,8.21,0,0,1-6,9.81l-34,9.52a8.24,8.24,0,0,1-10.35-5.36l0-.06L11.83,68.68A8.21,8.21,0,0,1,17.88,58.87Z"/><path d="M21,71.23a1.11,1.11,0,0,1,1.31-.36"/><path class="cls-3" d="M21.38,71.49a.72.72,0,0,1,.88-.26"/><path class="cls-3" d="M21.61,71.65l.29.29.2-.36a.36.36,0,0,0-.46,0Z"/><path d="M22.33,70.84a1.28,1.28,0,0,1,1.54-.43"/><path class="cls-3" d="M22.65,71.1a.82.82,0,0,1,1-.26"/><path class="cls-3" d="M23.54,71.2a.39.39,0,0,0-.52,0h0l.36.29"/><path d="M53.2,70a1.11,1.11,0,0,1,1.31-.36"/><path class="cls-3" d="M53.46,70.18a.78.78,0,0,1,.92-.23"/><path class="cls-3" d="M54.25,70.25a.39.39,0,0,0-.46,0h0l.29.39"/><polygon class="cls-4" points="15.58 71.24 60.29 58.91 82.2 138.4 37.49 150.72 15.58 71.24"/><ellipse class="cls-5" cx="17.63" cy="72.7" rx="0.29" ry="0.33" transform="translate(-18.68 7.3) rotate(-15.41)"/><ellipse class="cls-5" cx="20.93" cy="71.79" rx="0.29" ry="0.33" transform="translate(-18.32 8.14) rotate(-15.41)"/><ellipse class="cls-5" cx="20.14" cy="72.02" rx="0.29" ry="0.33" transform="matrix(0.96, -0.27, 0.27, 0.96, -18.41, 7.94)"/><ellipse class="cls-5" cx="19.25" cy="72.25" rx="0.29" ry="0.33" transform="translate(-18.51 7.71) rotate(-15.41)"/><ellipse class="cls-5" cx="18.46" cy="72.48" rx="0.29" ry="0.33" transform="translate(-18.6 7.51) rotate(-15.41)"/><path class="cls-5" d="M56.59,61.91l1.73-.48a.62.62,0,0,1,.76.43l0,.13a.62.62,0,0,1-.43.76L57,63.24a.62.62,0,0,1-.76-.43l0-.13A.62.62,0,0,1,56.59,61.91Z"/><path class="cls-5" d="M59.15,61.61h0v.26h0v-.26Z"/><g class="cls-6"><text class="cls-7" transform="translate(29.49 71.26) rotate(-15.41) scale(0.68 1)"><tspan xml:space="preserve">                    08:50       100%</tspan></text></g><path class="cls-3" d="M32.14,60.31l7.62-2.09a.26.26,0,0,1,.33.16v.33a.33.33,0,0,1-.2.33l-7.62,2.09a.26.26,0,0,1-.32-.18v-.31A.29.29,0,0,1,32.14,60.31Z"/><ellipse class="cls-3" cx="27.97" cy="61.9" rx="0.92" ry="0.88" transform="translate(-15.44 9.66) rotate(-15.41)"/><g class="cls-6"><text class="cls-8" transform="matrix(0.93, -0.26, 0.27, 0.96, 22.75, 83.65)"><tspan xml:space="preserve">      </tspan></text></g><text class="cls-8" transform="matrix(0.93, -0.26, 0.27, 0.96, 25.01, 83.03)">B</text><g class="cls-6"><text class="cls-8" transform="matrix(0.93, -0.26, 0.27, 0.96, 25.99, 82.77)"><tspan xml:space="preserve">eskeder               </tspan></text></g><text class="cls-9" transform="matrix(0.93, -0.26, 0.27, 0.96, 37.54, 79.57)">A</text><g class="cls-6"><text class="cls-8" transform="matrix(0.93, -0.26, 0.27, 0.96, 38.65, 79.27)"><tspan xml:space="preserve">ktiv(69)                   Grupper</tspan></text></g><path class="cls-10" d="M22.69,76.23l31-8.54a2,2,0,0,1,2.39,1.47h0a2,2,0,0,1-1.31,2.52l-31,8.54a2,2,0,0,1-2.39-1.47h0A2,2,0,0,1,22.69,76.23Z"/><text class="cls-11" transform="translate(24.32 78.62) rotate(-15.41) scale(1.09 1)">S</text><text class="cls-12" transform="translate(25.67 78.23) rotate(-15.41) scale(1.09 1)">øg</text><text class="cls-13" transform="matrix(0.93, -0.26, 0.27, 0.96, 24.52, 90.1)">Sene</text><text class="cls-14" transform="matrix(0.93, -0.26, 0.27, 0.96, 30.34, 88.5)">t</text><g class="cls-6"><text class="cls-12" transform="matrix(0.93, -0.26, 0.27, 0.96, 31.09, 88.27)"><tspan xml:space="preserve">e                       opret gruppe  </tspan></text></g><text class="cls-12" transform="translate(59.16 93.63) rotate(-15.41) scale(1.09 1)">08:27</text><text class="cls-12" transform="translate(57.36 87.91) rotate(-15.41) scale(1.09 1)">08:48</text><ellipse class="cls-15" cx="55.05" cy="97.85" rx="1.37" ry="1.24" transform="translate(-24.02 18.15) rotate(-15.41)"/><ellipse class="cls-15" cx="64.08" cy="95.38" rx="1.37" ry="1.24" transform="translate(-23.04 20.46) rotate(-15.41)"/><ellipse class="cls-15" cx="61.01" cy="96.23" rx="1.37" ry="1.24" transform="translate(-23.38 19.67) rotate(-15.41)"/><ellipse class="cls-15" cx="58.06" cy="97.05" rx="1.37" ry="1.24" transform="translate(-23.7 18.92) rotate(-15.41)"/><text class="cls-8" transform="translate(63.63 96.08) rotate(-15.41) scale(1.09 1)">K</text><text class="cls-16" transform="translate(60.69 96.94) rotate(-15.41) scale(1.09 1)">P</text><text class="cls-8" transform="translate(57.39 97.75) rotate(-15.41) scale(1.09 1)">M</text><text class="cls-17" transform="translate(54.51 98.67) rotate(-15.41) scale(1.09 1)">A</text><ellipse class="cls-18" cx="30.89" cy="101.74" rx="2.19" ry="1.99" transform="translate(-25.93 11.87) rotate(-15.41)"/><text class="cls-8" transform="translate(34.2 101.28) rotate(-15.41) scale(1.09 1)">7.C $$$</text><ellipse class="cls-19" cx="29.07" cy="95.14" rx="2.19" ry="1.99" transform="translate(-24.24 11.15) rotate(-15.41)"/><text class="cls-8" transform="translate(32.14 94.78) rotate(-15.41) scale(1.09 1)">Hen</text><text class="cls-8" transform="translate(35.61 93.8) rotate(-15.41) scale(1.09 1)">r</text><text class="cls-8" transform="translate(36.29 93.63) rotate(-15.41) scale(1.09 1)">ik</text><g class="cls-6"><text class="cls-8" transform="translate(31.19 104.88) rotate(-15.41) scale(1.09 1)"><tspan xml:space="preserve">....  Har delt et billede</tspan></text></g><text class="cls-8" transform="translate(66.12 95.82) rotate(-15.41) scale(1.09 1)">...</text><text class="cls-20" transform="translate(31.98 97.39) rotate(-15.41) scale(1.09 1)">H</text><text class="cls-8" transform="translate(33.32 97) rotate(-15.41) scale(1.09 1)">v</text><text class="cls-8" transform="translate(34.27 96.74) rotate(-15.41) scale(1.09 1)">ad du</text><text class="cls-21" transform="translate(39.53 95.3) rotate(-15.41) scale(1.09 1)">h</text><text class="cls-8" transform="translate(40.64 95) rotate(-15.41) scale(1.09 1)">v</text><text class="cls-8" transform="translate(41.63 94.71) rotate(-15.41) scale(1.09 1)">ad der sker i</text><text class="cls-22" transform="translate(52.22 91.8) rotate(-15.41) scale(1.09 1)">k</text><text class="cls-8" transform="translate(53.23 91.54) rotate(-15.41) scale(1.09 1)">las</text><text class="cls-23" transform="translate(55.49 90.88) rotate(-15.41) scale(1.09 1)">s</text><text class="cls-8" transform="translate(56.28 90.69) rotate(-15.41) scale(1.09 1)">...</text><ellipse class="cls-24" cx="61.82" cy="153.03" rx="4.32" ry="3.96" transform="translate(-38.44 21.93) rotate(-15.41)"/></g></g><polygon class="cls-25" points="60 59.67 16.25 71.51 37.49 150.72 81.5 138 60 59.67"/></symbol><symbol id="phone_on" data-name="phone on" viewBox="0 0 100 200"><rect class="cls-1" width="100" height="200"/><g id="Lag_2-2" data-name="Lag 2"><g id="Lag_1-2-2" data-name="Lag 1-2"><ellipse cx="27.9" cy="61.91" rx="0.98" ry="0.92" transform="translate(-15.45 9.64) rotate(-15.41)"/><path d="M31.87,60.47l7.72-2.13a.45.45,0,0,1,.56.3h0a.45.45,0,0,1-.32.55L32.1,61.32a.45.45,0,0,1-.56-.3h0A.45.45,0,0,1,31.87,60.47Z"/><path class="cls-2" d="M17.88,58.87,52,49.38A8.21,8.21,0,0,1,62.29,54.8h0l25.31,91.87a8.21,8.21,0,0,1-6,9.81l-34,9.52a8.24,8.24,0,0,1-10.35-5.36l0-.06L11.83,68.68A8.21,8.21,0,0,1,17.88,58.87Z"/><path d="M21,71.23a1.11,1.11,0,0,1,1.31-.36"/><path class="cls-3" d="M21.38,71.49a.72.72,0,0,1,.88-.26"/><path class="cls-3" d="M21.61,71.65l.29.29.2-.36a.36.36,0,0,0-.46,0Z"/><path d="M22.33,70.84a1.28,1.28,0,0,1,1.54-.43"/><path class="cls-3" d="M22.65,71.1a.82.82,0,0,1,1-.26"/><path class="cls-3" d="M23.54,71.2a.39.39,0,0,0-.52,0h0l.36.29"/><path d="M53.2,70a1.11,1.11,0,0,1,1.31-.36"/><path class="cls-3" d="M53.46,70.18a.78.78,0,0,1,.92-.23"/><path class="cls-3" d="M54.25,70.25a.39.39,0,0,0-.46,0h0l.29.39"/><polygon class="cls-4" points="15.58 71.24 60.29 58.91 82.2 138.4 37.49 150.72 15.58 71.24"/><ellipse class="cls-5" cx="17.63" cy="72.7" rx="0.29" ry="0.33" transform="translate(-18.68 7.3) rotate(-15.41)"/><ellipse class="cls-5" cx="20.93" cy="71.79" rx="0.29" ry="0.33" transform="translate(-18.32 8.14) rotate(-15.41)"/><ellipse class="cls-5" cx="20.14" cy="72.02" rx="0.29" ry="0.33" transform="matrix(0.96, -0.27, 0.27, 0.96, -18.41, 7.94)"/><ellipse class="cls-5" cx="19.25" cy="72.25" rx="0.29" ry="0.33" transform="translate(-18.51 7.71) rotate(-15.41)"/><ellipse class="cls-5" cx="18.46" cy="72.48" rx="0.29" ry="0.33" transform="translate(-18.6 7.51) rotate(-15.41)"/><path class="cls-5" d="M56.59,61.91l1.73-.48a.62.62,0,0,1,.76.43l0,.13a.62.62,0,0,1-.43.76L57,63.24a.62.62,0,0,1-.76-.43l0-.13A.62.62,0,0,1,56.59,61.91Z"/><path class="cls-5" d="M59.15,61.61h0v.26h0v-.26Z"/><g class="cls-6"><text class="cls-7" transform="translate(29.49 71.26) rotate(-15.41) scale(0.68 1)"><tspan xml:space="preserve">                    08:50       100%</tspan></text></g><path class="cls-3" d="M32.14,60.31l7.62-2.09a.26.26,0,0,1,.33.16v.33a.33.33,0,0,1-.2.33l-7.62,2.09a.26.26,0,0,1-.32-.18v-.31A.29.29,0,0,1,32.14,60.31Z"/><ellipse class="cls-3" cx="27.97" cy="61.9" rx="0.92" ry="0.88" transform="translate(-15.44 9.66) rotate(-15.41)"/><g class="cls-6"><text class="cls-8" transform="matrix(0.93, -0.26, 0.27, 0.96, 22.75, 83.65)"><tspan xml:space="preserve">      </tspan></text></g><text class="cls-8" transform="matrix(0.93, -0.26, 0.27, 0.96, 25.01, 83.03)">B</text><g class="cls-6"><text class="cls-8" transform="matrix(0.93, -0.26, 0.27, 0.96, 25.99, 82.77)"><tspan xml:space="preserve">eskeder               </tspan></text></g><text class="cls-9" transform="matrix(0.93, -0.26, 0.27, 0.96, 37.54, 79.57)">A</text><g class="cls-6"><text class="cls-8" transform="matrix(0.93, -0.26, 0.27, 0.96, 38.65, 79.27)"><tspan xml:space="preserve">ktiv(69)                   Grupper</tspan></text></g><path class="cls-10" d="M22.69,76.23l31-8.54a2,2,0,0,1,2.39,1.47h0a2,2,0,0,1-1.31,2.52l-31,8.54a2,2,0,0,1-2.39-1.47h0A2,2,0,0,1,22.69,76.23Z"/><text class="cls-11" transform="translate(24.32 78.62) rotate(-15.41) scale(1.09 1)">S</text><text class="cls-12" transform="translate(25.67 78.23) rotate(-15.41) scale(1.09 1)">øg</text><text class="cls-13" transform="matrix(0.93, -0.26, 0.27, 0.96, 24.52, 90.1)">Sene</text><text class="cls-14" transform="matrix(0.93, -0.26, 0.27, 0.96, 30.34, 88.5)">t</text><g class="cls-6"><text class="cls-12" transform="matrix(0.93, -0.26, 0.27, 0.96, 31.09, 88.27)"><tspan xml:space="preserve">e                       opret gruppe  </tspan></text></g><text class="cls-12" transform="translate(59.16 93.63) rotate(-15.41) scale(1.09 1)">08:27</text><text class="cls-12" transform="translate(57.36 87.91) rotate(-15.41) scale(1.09 1)">08:48</text><ellipse class="cls-15" cx="55.05" cy="97.85" rx="1.37" ry="1.24" transform="translate(-24.02 18.15) rotate(-15.41)"/><ellipse class="cls-15" cx="64.08" cy="95.38" rx="1.37" ry="1.24" transform="translate(-23.04 20.46) rotate(-15.41)"/><ellipse class="cls-15" cx="61.01" cy="96.23" rx="1.37" ry="1.24" transform="translate(-23.38 19.67) rotate(-15.41)"/><ellipse class="cls-15" cx="58.06" cy="97.05" rx="1.37" ry="1.24" transform="translate(-23.7 18.92) rotate(-15.41)"/><text class="cls-8" transform="translate(63.63 96.08) rotate(-15.41) scale(1.09 1)">K</text><text class="cls-16" transform="translate(60.69 96.94) rotate(-15.41) scale(1.09 1)">P</text><text class="cls-8" transform="translate(57.39 97.75) rotate(-15.41) scale(1.09 1)">M</text><text class="cls-17" transform="translate(54.51 98.67) rotate(-15.41) scale(1.09 1)">A</text><ellipse class="cls-18" cx="30.89" cy="101.74" rx="2.19" ry="1.99" transform="translate(-25.93 11.87) rotate(-15.41)"/><text class="cls-8" transform="translate(34.2 101.28) rotate(-15.41) scale(1.09 1)">7.C $$$</text><ellipse class="cls-19" cx="29.07" cy="95.14" rx="2.19" ry="1.99" transform="translate(-24.24 11.15) rotate(-15.41)"/><text class="cls-8" transform="translate(32.14 94.78) rotate(-15.41) scale(1.09 1)">Hen</text><text class="cls-8" transform="translate(35.61 93.8) rotate(-15.41) scale(1.09 1)">r</text><text class="cls-8" transform="translate(36.29 93.63) rotate(-15.41) scale(1.09 1)">ik</text><g class="cls-6"><text class="cls-8" transform="translate(31.19 104.88) rotate(-15.41) scale(1.09 1)"><tspan xml:space="preserve">....  Har delt et billede</tspan></text></g><text class="cls-8" transform="translate(66.12 95.82) rotate(-15.41) scale(1.09 1)">...</text><text class="cls-20" transform="translate(31.98 97.39) rotate(-15.41) scale(1.09 1)">H</text><text class="cls-8" transform="translate(33.32 97) rotate(-15.41) scale(1.09 1)">v</text><text class="cls-8" transform="translate(34.27 96.74) rotate(-15.41) scale(1.09 1)">ad du</text><text class="cls-21" transform="translate(39.53 95.3) rotate(-15.41) scale(1.09 1)">h</text><text class="cls-8" transform="translate(40.64 95) rotate(-15.41) scale(1.09 1)">v</text><text class="cls-8" transform="translate(41.63 94.71) rotate(-15.41) scale(1.09 1)">ad der sker i</text><text class="cls-22" transform="translate(52.22 91.8) rotate(-15.41) scale(1.09 1)">k</text><text class="cls-8" transform="translate(53.23 91.54) rotate(-15.41) scale(1.09 1)">las</text><text class="cls-23" transform="translate(55.49 90.88) rotate(-15.41) scale(1.09 1)">s</text><text class="cls-8" transform="translate(56.28 90.69) rotate(-15.41) scale(1.09 1)">...</text><ellipse class="cls-24" cx="61.82" cy="153.03" rx="4.32" ry="3.96" transform="translate(-38.44 21.93) rotate(-15.41)"/></g></g></symbol></defs><title>phones</title><g id="Layer_2" data-name="Layer 2"><g id="Layer_3" data-name="Layer 3"><use width="100" height="200" xlink:href="#phone_off"/><use width="100" height="200" transform="translate(99.49)" xlink:href="#phone_on"/></g></g></svg>
