<svg xmlns="http://www.w3.org/2000/svg" viewBox="0 0 189.69 461.2"><defs><style>.cls-1{fill:#332926;}.cls-10,.cls-2{fill:#050302;}.cls-3{fill:#efb595;}.cls-4{fill:#eaaf92;}.cls-5,.cls-6{fill:#a0230e;}.cls-6{stroke:#a0230e;}.cls-10,.cls-11,.cls-12,.cls-6,.cls-9{stroke-miterlimit:10;}.cls-7{fill:#f9c9a8;}.cls-8{fill:#51281f;}.cls-11,.cls-9{fill:#c1c1b8;}.cls-9{stroke:#020201;}.cls-10{stroke:#050302;}.cls-11{stroke:#000;}.cls-12{fill:#0f0f09;stroke:#0f0f09;stroke-width:2px;}</style></defs><title>Henrik</title><g id="karakter_på_stol"><path class="cls-1" d="M545.71,542.29c.32-6.42,6.88-11.56,14.89-11.56s14.56,5.14,14.88,11.55Z" transform="translate(-456 -168)"/><path class="cls-1" d="M560.59,531.23c7.52,0,13.71,4.65,14.34,10.55H546.25c.63-5.9,6.82-10.56,14.34-10.56m0-1c-8.45,0-15.4,5.67-15.4,12.55H576c0-6.89-7-12.55-15.4-12.55Z" transform="translate(-456 -168)"/><rect class="cls-2" x="89.69" y="373.08" width="29.79" height="2.23"/><path class="cls-2" d="M575,541.58v1.23H546.19v-1.23H575m1-1H545.19v3.23H576v-3.23Z" transform="translate(-456 -168)"/><path class="cls-1" d="M515,542.29c.32-6.42,6.88-11.56,14.89-11.56s14.56,5.14,14.88,11.55Z" transform="translate(-456 -168)"/><path class="cls-1" d="M529.91,531.23c7.52,0,13.71,4.65,14.34,10.55H515.57c.63-5.9,6.82-10.56,14.34-10.56m0-1c-8.45,0-15.4,5.67-15.4,12.55h30.79c0-6.89-7-12.55-15.4-12.55Z" transform="translate(-456 -168)"/><rect class="cls-2" x="59.02" y="373.08" width="29.79" height="2.23"/><path class="cls-2" d="M544.31,541.58v1.23H515.52v-1.23h28.79m1-1H514.52v3.23h30.79v-3.23Z" transform="translate(-456 -168)"/><rect class="cls-3" x="83.01" y="120.04" width="9.65" height="22.44" rx="3.65" ry="3.65"/><path class="cls-3" d="M545,288.54a3.16,3.16,0,0,1,3.15,3.15v15.14A3.16,3.16,0,0,1,545,310h-2.34a3.16,3.16,0,0,1-3.15-3.15V291.7a3.16,3.16,0,0,1,3.15-3.15H545m0-1h-2.34a4.16,4.16,0,0,0-4.15,4.15v15.14a4.16,4.16,0,0,0,4.15,4.15H545a4.16,4.16,0,0,0,4.15-4.15V291.7a4.16,4.16,0,0,0-4.15-4.15Z" transform="translate(-456 -168)"/><path class="cls-4" d="M501.91,403.11h-.08c-.08-.13.1-.82.82-1.56l5-5a2.5,2.5,0,0,1,1.44-.84c.16.14,0,.83-.74,1.57l-5,5a2.5,2.5,0,0,1-1.44.84Z" transform="translate(-456 -168)"/><path class="cls-4" d="M508.09,396.74l-.14.15-5,5-.13.13.14-.15,5-5,.13-.13m1-1.56a2.92,2.92,0,0,0-1.79,1l-5,5c-.84.85-1.21,1.87-.82,2.26a.59.59,0,0,0,.44.16,2.92,2.92,0,0,0,1.79-1l5-5c.84-.85,1.21-1.87.82-2.26a.59.59,0,0,0-.44-.16Z" transform="translate(-456 -168)"/><path class="cls-5" d="M522.49,381.06V345.11c0-23.91,9.16-43.36,20.42-43.36h3.4c11.26,0,20.42,19.45,20.42,43.36v35.95Z" transform="translate(-456 -168)"/><path class="cls-5" d="M546.31,302.25c10.8,0,19.92,19.63,19.92,42.86v35.45H523V345.11c0-23.23,9.12-42.86,19.92-42.86h3.4m0-1h-3.4C531.4,301.25,522,321,522,345.11v36.45h45.24V345.11c0-24.12-9.41-43.86-20.92-43.86Z" transform="translate(-456 -168)"/><path class="cls-2" d="M542.91,418.78c-11.26,0-20.42-14.59-20.42-32.53v-4.16h44.24v4.16c0,17.94-9.16,32.53-20.42,32.53Z" transform="translate(-456 -168)"/><path class="cls-2" d="M566.23,382.59v3.66c0,17.66-8.93,32-19.92,32h-3.4c-11,0-19.92-14.37-19.92-32v-3.66h43.24m1-1H522v4.66c0,18.17,9.41,33,20.92,33h3.4c11.5,0,20.92-14.86,20.92-33v-4.66Z" transform="translate(-456 -168)"/><rect class="cls-2" x="69.99" y="231.92" width="12.56" height="130.11"/><path class="cls-2" d="M538,400.42V529.54H526.49V400.42H538m1-1H525.49V530.54H539V399.42Z" transform="translate(-456 -168)"/><rect class="cls-2" x="94.29" y="231.92" width="12.43" height="130.11"/><path class="cls-2" d="M562.22,400.42V529.54H550.79V400.42h11.43m1-1H549.79V530.54h13.43V399.42Z" transform="translate(-456 -168)"/><path class="cls-6" d="M517.33,362.44l.15.09c1.47.88,3.15-.51,3.74-3.11l7.1-31.09c.59-2.59-.12-5.41-1.6-6.29l-.15-.09c-1.47-.88-3.15.51-3.74,3.11l-7.1,31.09C515.14,358.75,515.86,361.56,517.33,362.44Z" transform="translate(-456 -168)"/><path class="cls-6" d="M510.39,392.81l.15.09c1.47.88,3.15-.51,3.74-3.11l7.1-31.09c.59-2.59-.12-5.41-1.6-6.29l-.15-.09c-1.47-.88-3.15.51-3.74,3.11l-7.1,31.09C508.21,389.11,508.92,391.93,510.39,392.81Z" transform="translate(-456 -168)"/><path class="cls-7" d="M509.57,400.59a1.21,1.21,0,0,1-.63-.18l-.3-.18c-1.24-.74-1.84-3.29-1.32-5.57l1.23-5.37c.39-1.7,1.32-2.89,2.27-2.89a1.21,1.21,0,0,1,.63.18l.3.18c1.24.74,1.84,3.29,1.32,5.57l-1.23,5.37c-.39,1.7-1.32,2.89-2.27,2.89Z" transform="translate(-456 -168)"/><path class="cls-7" d="M510.83,386.9a.71.71,0,0,1,.37.11l.3.18c.93.55,1.59,2.82,1.09,5l-1.23,5.37c-.37,1.62-1.2,2.5-1.78,2.5a.71.71,0,0,1-.37-.11l-.3-.18c-.93-.55-1.59-2.82-1.09-5l1.23-5.37c.37-1.62,1.2-2.5,1.78-2.5m0-1c-1.17,0-2.3,1.27-2.76,3.27l-1.23,5.37c-.57,2.51.12,5.26,1.55,6.11l.3.18a1.71,1.71,0,0,0,.88.25c1.17,0,2.3-1.27,2.76-3.27l1.23-5.37c.57-2.51-.12-5.26-1.55-6.11l-.3-.18a1.71,1.71,0,0,0-.88-.25Z" transform="translate(-456 -168)"/><path class="cls-7" d="M507.34,412.53a1.8,1.8,0,0,1-.93-.27l-.59-.35c-1.73-1-2.58-4.55-1.86-7.7l1.77-7.73c.54-2.37,1.87-4,3.23-4a1.8,1.8,0,0,1,.93.27l.59.35c1.73,1,2.58,4.55,1.86,7.7l-1.77,7.73c-.54,2.37-1.87,4-3.23,4Z" transform="translate(-456 -168)"/><path class="cls-7" d="M509,393a1.32,1.32,0,0,1,.68.2l.59.35c1.36.81,2.36,3.95,1.63,7.16l-1.77,7.73c-.55,2.39-1.79,3.64-2.74,3.64a1.32,1.32,0,0,1-.68-.2l-.59-.35c-1.36-.81-2.36-3.95-1.63-7.16l1.77-7.73c.55-2.39,1.79-3.64,2.74-3.64m0-1c-1.57,0-3.1,1.71-3.72,4.41l-1.77,7.73c-.77,3.39.17,7.09,2.09,8.24l.59.35a2.3,2.3,0,0,0,1.19.34c1.57,0,3.1-1.71,3.72-4.41l1.77-7.73c.77-3.39-.17-7.09-2.09-8.24l-.59-.35A2.3,2.3,0,0,0,509,392Z" transform="translate(-456 -168)"/><path class="cls-6" d="M574,356.27l-.14.13c-1.4,1.28-3.24.38-4.13-2l-10.59-28.67c-.88-2.39-.47-5.37.93-6.65l.14-.13c1.4-1.28,3.24-.38,4.13,2l10.59,28.67C575.77,352,575.36,355,574,356.27Z" transform="translate(-456 -168)"/><path class="cls-6" d="M584.3,384.27l-.14.13c-1.4,1.28-3.24.38-4.13-2l-10.59-28.67c-.88-2.39-.47-5.37.93-6.65l.14-.13c1.4-1.28,3.24-.38,4.13,2l10.59,28.67C586.11,380,585.7,383,584.3,384.27Z" transform="translate(-456 -168)"/><path class="cls-7" d="M585.57,391.77c-.85,0-1.72-.86-2.21-2.19l-1.83-5c-.78-2.11-.43-4.83.77-5.92l.28-.26a1.46,1.46,0,0,1,1-.43c.85,0,1.72.86,2.21,2.19l1.83,5c.78,2.11.43,4.83-.77,5.92l-.28.26A1.47,1.47,0,0,1,585.57,391.77Z" transform="translate(-456 -168)"/><path class="cls-7" d="M583.58,378.51c.52,0,1.26.58,1.74,1.87l1.83,5c.78,2.11.29,4.53-.64,5.38l-.28.26a1,1,0,0,1-.66.3c-.52,0-1.26-.58-1.74-1.87l-1.83-5c-.78-2.11-.29-4.53.64-5.38l.28-.26a1,1,0,0,1,.66-.3m0-1a2,2,0,0,0-1.33.56l-.28.26c-1.35,1.24-1.76,4.15-.9,6.46l1.83,5c.59,1.61,1.64,2.52,2.68,2.52a2,2,0,0,0,1.33-.56l.28-.26c1.35-1.24,1.76-4.15.9-6.46l-1.83-5c-.59-1.61-1.64-2.52-2.68-2.52Z" transform="translate(-456 -168)"/><path class="cls-4" d="M594.13,393.54a1.73,1.73,0,0,1-1.08-.75L589,387.63c-.6-.77-.73-1.62-.54-1.84,0,0,0,0,.12,0a1.72,1.72,0,0,1,1.08.75l4.08,5.17c.6.77.73,1.62.54,1.84C594.23,393.52,594.21,393.54,594.13,393.54Z" transform="translate(-456 -168)"/><path class="cls-4" d="M588.91,386.46a2.32,2.32,0,0,1,.33.34l4.08,5.17a2.57,2.57,0,0,1,.46.86,2.32,2.32,0,0,1-.33-.34l-4.08-5.17a2.57,2.57,0,0,1-.46-.86m-.36-1.22a.63.63,0,0,0-.5.23c-.4.49-.16,1.59.53,2.47l4.08,5.17a2.14,2.14,0,0,0,1.47.94.63.63,0,0,0,.5-.23c.4-.49.16-1.59-.53-2.47L590,386.18a2.14,2.14,0,0,0-1.47-.94Z" transform="translate(-456 -168)"/><path class="cls-7" d="M589,402.94c-1.22,0-2.45-1.21-3.14-3.07l-2.63-7.12c-1.07-2.91-.58-6.65,1.08-8.17l.56-.51a2.14,2.14,0,0,1,1.46-.62c1.22,0,2.45,1.21,3.14,3.07l2.63,7.13c1.07,2.91.58,6.65-1.08,8.17l-.56.51A2.14,2.14,0,0,1,589,402.94Z" transform="translate(-456 -168)"/><path class="cls-7" d="M586.3,383.95h0c1,0,2.06,1.08,2.67,2.74l2.63,7.12c1,2.74.57,6.23-1,7.63l-.56.51a1.66,1.66,0,0,1-1.12.49c-1,0-2.06-1.08-2.67-2.74l-2.63-7.12c-1-2.74-.57-6.23,1-7.63l.56-.51a1.66,1.66,0,0,1,1.12-.49m0-1a2.64,2.64,0,0,0-1.8.76l-.56.51c-1.82,1.67-2.37,5.59-1.22,8.71l2.63,7.12c.8,2.16,2.21,3.4,3.61,3.4a2.64,2.64,0,0,0,1.8-.76l.56-.51c1.82-1.67,2.37-5.59,1.22-8.71l-2.63-7.12c-.8-2.16-2.21-3.4-3.61-3.4Z" transform="translate(-456 -168)"/><path class="cls-8" d="M543.91,270c-17.8,0-32.29-22.53-32.29-50.21s14.48-50.21,32.29-50.21,32.29,22.53,32.29,50.21S561.72,270,543.91,270Z" transform="translate(-456 -168)"/><path class="cls-8" d="M543.91,170c17.53,0,31.79,22.3,31.79,49.71s-14.26,49.71-31.79,49.71-31.79-22.3-31.79-49.71S526.38,170,543.91,170m0-1c-18.11,0-32.79,22.7-32.79,50.71s14.68,50.71,32.79,50.71,32.79-22.7,32.79-50.71S562,169,543.91,169Z" transform="translate(-456 -168)"/><path class="cls-7" d="M544.94,294.77q-.5,0-1,0l-.64,0c-11,0-26-19-26.86-20.52.21-1.92.47-12.21,0-70.3,0-11.23,12.32-20.38,27.45-20.38s27.45,9.14,27.45,20.38c0,2.69-1,66.08,0,70.52.28,1.24-1.07,3.94-3.42,6.89C562.61,288,553.41,294.77,544.94,294.77Z" transform="translate(-456 -168)"/><path class="cls-7" d="M543.91,184.06c14.86,0,27,8.92,27,19.87,0,2.7-1,66.14,0,70.65.19.87-.76,3.27-3.32,6.47-5.28,6.59-14.32,13.23-22.63,13.23q-.48,0-1,0h-.13l-.55,0c-10.34,0-24.59-17.57-26.3-20.08.13-1.1.17-3.79.19-11,0-5.86,0-14,0-24.19-.07-17.34-.2-34.83-.2-35,0-11,12.09-19.88,27-19.88m0-1h0c-15.44,0-28,9.35-28,20.88,0,0,.54,70.41,0,70.41h0c-.36,0,15.68,20.9,27.35,20.9l.61,0h0q.51,0,1,0c13.5,0,27.89-16.58,26.93-20.91s0-70.41,0-70.41c0-11.53-12.51-20.88-28-20.88Z" transform="translate(-456 -168)"/><path class="cls-8" d="M556.54,205.94c-2.63,0-13.22-4.79-17.55-10.55-2.89-3.84-4-8.26-2.84-11.83a7,7,0,0,1,4.46-4.76,8,8,0,0,1,2.55-.4c5.34,0,11.7,4.38,15.48,10.66s0,13.69-1.74,16.64l-.12.21A1,1,0,0,1,556.54,205.94Z" transform="translate(-456 -168)"/><path class="cls-8" d="M543.15,178.91h0c5.09,0,11.42,4.38,15.05,10.42s0,13.24-1.73,16.11c-2.42-.08-12.84-4.7-17.09-10.35-2.79-3.71-3.82-8-2.77-11.38a6.51,6.51,0,0,1,4.14-4.43,7.5,7.5,0,0,1,2.39-.37m0-1a8.48,8.48,0,0,0-2.71.42c-5.65,1.9-7.39,10-1.86,17.36,4.36,5.79,15.13,10.75,17.95,10.75.37,0,.61-.09.67-.27s6.48-9.67,1.86-17.36c-3.93-6.53-10.54-10.9-15.91-10.9Z" transform="translate(-456 -168)"/><path class="cls-8" d="M542.83,190.59c-5.81,0-10.54-1.73-11.77-4.31a3.61,3.61,0,0,1,.1-3.18c1.64-3.56,7.54-7.15,15-9.15a25.09,25.09,0,0,1,6.46-.79,43.7,43.7,0,0,1,16,3.43l.27.11c0,1.33-6.95,9.17-15.44,12.1A33,33,0,0,1,542.83,190.59Z" transform="translate(-456 -168)"/><path class="cls-8" d="M552.65,173.65h0A43.1,43.1,0,0,1,568.28,177c-.93,2-7.4,8.72-15,11.33a32.5,32.5,0,0,1-10.47,1.78c-5.62,0-10.17-1.62-11.32-4a3.13,3.13,0,0,1,.1-2.76c1.56-3.38,7.47-6.95,14.71-8.88a24.58,24.58,0,0,1,6.33-.78m0-1a25.55,25.55,0,0,0-6.59.81c-10.62,2.84-17.55,8.67-15.46,13,1.34,2.79,6.2,4.59,12.22,4.59a33.47,33.47,0,0,0,10.79-1.84c9.14-3.15,17.5-12.51,15.46-13a45.81,45.81,0,0,0-16.43-3.57Z" transform="translate(-456 -168)"/><path class="cls-8" d="M576.74,212c-3.16,0-15.31-5.05-20.47-11.4-3.48-4.27-4.88-9.27-3.75-13.37a7.92,7.92,0,0,1,4.93-5.56,9.38,9.38,0,0,1,3.23-.54c6,0,13.4,4.77,17.88,11.6s.62,15.55-1.28,19l-.14.26A1.2,1.2,0,0,1,576.74,212Z" transform="translate(-456 -168)"/><path class="cls-8" d="M560.67,181.69h0c5.89,0,13.07,4.68,17.46,11.38s.55,15.12-1.3,18.44l0,0h-.06c-3,0-15.11-5.09-20.09-11.21-3.38-4.15-4.74-9-3.66-12.92a7.43,7.43,0,0,1,4.62-5.22,8.89,8.89,0,0,1,3.06-.51m0-1a9.87,9.87,0,0,0-3.4.57c-6.38,2.33-8,11.56-1.39,19.71,5.17,6.36,17.51,11.58,20.86,11.58.47,0,.77-.1.84-.33s7-11.16,1.39-19.71c-4.68-7.14-12.22-11.83-18.3-11.83Z" transform="translate(-456 -168)"/><path class="cls-8" d="M509.17,211.42c-.8-.62-2.1-7.48.26-12.44,2.56-5.37,7.71-8.58,11.21-8.58a4.57,4.57,0,0,1,1.44.22,3.46,3.46,0,0,1,2.19,2.21c.93,2.5.11,6.4-2.14,10.19-2.89,4.87-9.9,7.46-12.78,8.34Z" transform="translate(-456 -168)"/><path class="cls-8" d="M520.64,190.89h0a4.08,4.08,0,0,1,1.28.19A3,3,0,0,1,523.8,193c.88,2.36.08,6.1-2.1,9.76-2.75,4.63-9.42,7.16-12.33,8.07-.71-1.37-1.56-7.3.51-11.63,2.44-5.13,7.49-8.3,10.76-8.3m0-1c-3.8,0-9.1,3.49-11.66,8.87s-1.13,13.17.18,13.17a.35.35,0,0,0,.15,0c.21-.1,9.69-2.62,13.26-8.63s3.43-11.89-.33-13.13a5.07,5.07,0,0,0-1.6-.24Z" transform="translate(-456 -168)"/><path class="cls-8" d="M522.82,200c-.65-.69-1.61-6.12.3-10.12,2.11-4.41,6.31-7,9.16-7a3.64,3.64,0,0,1,1.15.17,2.74,2.74,0,0,1,1.74,1.75c.76,2,.08,5.24-1.77,8.35-2.37,4-8.11,6.13-10.47,6.86Z" transform="translate(-456 -168)"/><path class="cls-8" d="M532.28,183.36h0a3.15,3.15,0,0,1,1,.15A2.26,2.26,0,0,1,534.7,185c.7,1.87,0,5-1.73,7.92-2.2,3.7-7.46,5.76-9.91,6.55a13.87,13.87,0,0,1,.52-9.31c2-4.18,6.07-6.76,8.71-6.76m0-1c-3.13,0-7.49,2.88-9.61,7.33s-1,10.86.12,10.86l.12,0c.17-.08,8-2.17,10.92-7.14s2.84-9.81-.24-10.83a4.14,4.14,0,0,0-1.3-.2Z" transform="translate(-456 -168)"/><path class="cls-8" d="M529.89,207.53c-1-.44-4.58-8.1-3.51-14.33,1.22-7.15,6.44-12.14,10.35-12.14a4.23,4.23,0,0,1,3.7,2.16c1.76,2.68,2.05,7.32.77,12.12-1.64,6.12-8.33,10.49-11.13,12.08Z" transform="translate(-456 -168)"/><path class="cls-8" d="M536.73,181.56h0a3.86,3.86,0,0,1,.57,0,3.93,3.93,0,0,1,2.72,1.9c1.68,2.56,2,7.05.71,11.71-1.57,5.86-8,10.1-10.78,11.71-1.17-1.26-4-8-3.07-13.64,1.15-6.71,6.15-11.72,9.86-11.72m0-1c-4.27,0-9.61,5.33-10.84,12.55-1.1,6.46,2.58,14.93,4,14.93a.33.33,0,0,0,.21-.07c.19-.15,9.54-4.95,11.56-12.5s.12-14.21-4.24-14.86a4.84,4.84,0,0,0-.72-.05Z" transform="translate(-456 -168)"/><path class="cls-8" d="M536.72,185.8a43.34,43.34,0,0,1-7.86-.77c-7.39-1.39-12.27-6.42-14.07-8.57,1.22-.77,7.62-2.34,14-2.34a30.83,30.83,0,0,1,3.88.23c7.34.94,12.25,3.88,13.71,6.21a2.41,2.41,0,0,1,.4,2.07C546.1,184.55,542.17,185.8,536.72,185.8Z" transform="translate(-456 -168)"/><path class="cls-8" d="M528.75,174.62h0a30.36,30.36,0,0,1,3.82.22c7.18.92,12,3.74,13.35,6a2,2,0,0,1,.35,1.65c-.46,1.36-3.65,2.83-9.56,2.83a42.83,42.83,0,0,1-7.77-.76,24.43,24.43,0,0,1-13.36-7.91,43.49,43.49,0,0,1,13.16-2m0-1c-7.48,0-15.46,2.16-14.51,3,.17.15,5.42,7.23,14.52,8.94a43.53,43.53,0,0,0,8,.77c5.54,0,9.75-1.27,10.5-3.51,1.09-3.22-5.27-7.75-14.52-8.94a31.35,31.35,0,0,0-3.95-.23Z" transform="translate(-456 -168)"/><path class="cls-8" d="M547.52,183.42a32.56,32.56,0,0,1-13-3.28,19.32,19.32,0,0,1-9.84-11.31,13.38,13.38,0,0,1,3.67-.33,43.8,43.8,0,0,1,14.29,2.34c6.26,2.44,9.73,6.09,10.39,8.63a2.57,2.57,0,0,1-.41,2.4C551.83,182.88,550,183.42,547.52,183.42Z" transform="translate(-456 -168)"/><path class="cls-8" d="M528.4,169h0a43.25,43.25,0,0,1,14.11,2.31c6.07,2.36,9.48,6,10.08,8.29a2.1,2.1,0,0,1-.31,2c-.72.87-2.45,1.36-4.75,1.36a32.51,32.51,0,0,1-12.76-3.23,18.7,18.7,0,0,1-9.39-10.5,18.87,18.87,0,0,1,3-.19m0-1c-2.71,0-4.5.3-4.22.77.11.18,2.2,8.12,10.18,11.82a33.17,33.17,0,0,0,13.18,3.33c2.56,0,4.55-.56,5.52-1.72,2.35-2.82-1.85-8.59-10.18-11.82A44.2,44.2,0,0,0,528.39,168Z" transform="translate(-456 -168)"/><path class="cls-8" d="M507.69,194.55c-.13-1.06,1.65-6.1,5.35-9.24,3.06-2.6,7.13-4.27,10.37-4.27a4.47,4.47,0,0,1,2.69.68,1.86,1.86,0,0,1,.73,1.59c0,2.12-2.33,5.16-5.87,7.74-4.22,3.08-10.65,3.48-13.21,3.5Z" transform="translate(-456 -168)"/><path class="cls-8" d="M523.41,181.54h0a4.06,4.06,0,0,1,2.38.58,1.35,1.35,0,0,1,.53,1.18c0,1.61-1.78,4.51-5.67,7.34S511,194,508.23,194a17.34,17.34,0,0,1,5.14-8.35,17,17,0,0,1,10-4.15m0-1a18,18,0,0,0-10.69,4.39c-4.23,3.58-6.39,10.13-5.2,10.13h0c.2,0,8.48.19,13.68-3.6s7.51-8.33,5.15-10.13a5,5,0,0,0-3-.79Z" transform="translate(-456 -168)"/><path class="cls-7" d="M516.21,249.46c-3.52-.42-6.4-5.25-6.4-10.92s2.8-10.46,6.35-10.92l.06,10.92Z" transform="translate(-456 -168)"/><path class="cls-7" d="M515.66,228.23l.05,10.3v10.32c-3-.81-5.4-5.21-5.4-10.32s2.36-9.45,5.35-10.3m1-1.15c-4,0-7.35,5.2-7.35,11.45s3.34,11.45,7.4,11.45V238.53l-.06-11.45Z" transform="translate(-456 -168)"/><path class="cls-7" d="M571.76,239.29l.11-10.91c3.52.51,6.35,5.41,6.29,11.08s-2.91,10.39-6.46,10.75Z" transform="translate(-456 -168)"/><path class="cls-7" d="M572.37,229c3,.89,5.35,5.35,5.3,10.46s-2.44,9.36-5.45,10.15l.05-10.31.1-10.3m-1-1.16-.12,11.45-.06,11.45h.06c4,0,7.34-5.05,7.4-11.27s-3.23-11.53-7.29-11.63Z" transform="translate(-456 -168)"/><path class="cls-8" d="M546.08,245.46c-8.7,0-18.72-2.48-29.77-7.37-3-3.8-1-29.41.14-39.62h53.22c.92,3.78,8.08,34.54.12,39.61C563.76,241.91,556.72,245.46,546.08,245.46Z" transform="translate(-456 -168)"/><path class="cls-8" d="M569.27,199c2.46,10,6.83,34.5.24,38.69-6,3.79-12.93,7.3-23.44,7.3-8.6,0-18.51-2.45-29.45-7.27-2.44-3.52-1.17-25.1.27-38.72h52.38m.78-1H516s-3.93,36,0,40.53C528.42,244,538.22,246,546.08,246c11.42,0,18.73-4.13,24-7.46,8.85-5.63,0-40.53,0-40.53Z" transform="translate(-456 -168)"/></g><g id="Layer_14" data-name="Layer 14"><polygon class="cls-9" points="86.31 380.72 123.75 355.9 123.75 369.13 96.84 392.92 86.31 402.23 86.31 380.72"/><path class="cls-10" d="M467.82,553.91s-11.32-.81-11.32,11.32,11.32,9.7,11.32,9.7,12.13-.81,11.32-10.51S467.82,553.91,467.82,553.91Z" transform="translate(-456 -168)"/><path class="cls-10" d="M471.43,597.57s-13.72-.88-13.72,12.29,13.72,10.54,13.72,10.54,14.7-.88,13.72-11.41S471.43,597.57,471.43,597.57Z" transform="translate(-456 -168)"/><path class="cls-10" d="M588.32,521.34s-13.32-1-13.32,13.59,13.32,11.64,13.32,11.64,14.27-1,13.32-12.61S588.32,521.34,588.32,521.34Z" transform="translate(-456 -168)"/><path class="cls-10" d="M575,603.23s-13.32-1-13.32,13.59S575,628.46,575,628.46s14.27-1,13.32-12.61S575,603.23,575,603.23Z" transform="translate(-456 -168)"/><path class="cls-10" d="M629,550.23s-16.16-1.18-16.16,16.48S629,580.83,629,580.83s17.31-1.18,16.16-15.3S629,550.23,629,550.23Z" transform="translate(-456 -168)"/><polygon class="cls-9" points="76.53 317.44 80.55 335.78 80.55 390.76 91.87 390.76 91.87 334.97 95.91 317.18 76.53 317.44"/><path class="cls-11" d="M623.06,557.14v3.23s-8.89.81-10.51,6.47l-55.79,4-8.89-11.32,3.65-4.11Z" transform="translate(-456 -168)"/><path class="cls-11" d="M541.18,558.92l.22,18.44,26.68,28.3s5.66-4,8.09-2.43v-4.85l-28.3-39.62Z" transform="translate(-456 -168)"/><path class="cls-11" d="M536.55,558.76,467,595.15v2.43s14.55,0,15.36,4l51.75-24.26h7.28v-18.6Z" transform="translate(-456 -168)"/><path class="cls-11" d="M478.33,561.19l39.62,7.28,17.79-9.7-63.07-3.23S479.14,558.76,478.33,561.19Z" transform="translate(-456 -168)"/></g><g id="STOL"><path class="cls-12" d="M482.37,341.77s66.3-28.3,126.94-10.51c0,0-3.64,84.49-22.24,112.79,0,0,17,0,9.7,11.32,0,0-3.23,23.45-50.94,28.3s-59-18.6-59-18.6,9.7-34.77,23.45-8.09C510.27,457,469.84,372.09,482.37,341.77Z" transform="translate(-456 -168)"/></g></svg>
