<svg xmlns="http://www.w3.org/2000/svg" viewBox="0 0 278.94 696.06"><defs><style>.cls-1,.cls-11,.cls-12,.cls-13,.cls-14{fill:#a5a49f;}.cls-1{stroke:#211e1e;}.cls-1,.cls-11,.cls-12,.cls-13,.cls-8{stroke-miterlimit:10;}.cls-2{fill:#f4921e;}.cls-3{fill:#ffc78d;}.cls-4{fill:#e8841e;}.cls-5{fill:#f4c6a3;}.cls-6{fill:#1a75ba;}.cls-7{fill:#186ca4;}.cls-8{stroke:#000;}.cls-9{fill:#0c0c0c;}.cls-10{fill:#070707;}.cls-11{stroke:#111;}.cls-12{stroke:#050505;}.cls-13{stroke:#020202;}.cls-15{fill:#202532;}</style></defs><title>William</title><g id="Layer_12" data-name="Layer 12"><polygon class="cls-1" points="144.66 593.96 226.86 498.86 226.86 487.79 144.87 570.29 144.66 593.96"/></g><g id="william_sidder" data-name="william sidder"><path class="cls-2" d="M914.83,711s2.2,21.48,11.35,23.26c0,0,11.35,1.62,11.35-22.78s3,18.88-22.69-.48" transform="translate(-750.22 -122.9)"/><path class="cls-2" d="M931.17,733.92s56.65-40.78,48.22-75c0,0-55.19,24.93-59.56,53.52" transform="translate(-750.22 -122.9)"/><path class="cls-2" d="M848.3,716.31s-1.83,24.17-11.29,18-12-17.43-12-17.43S836.65,722.94,848.3,716.31Z" transform="translate(-750.22 -122.9)"/><path class="cls-2" d="M829.22,730.65s-38.76-16.87-41.43-55.06c0,0,5.26-23.53,10-14.21,0,0,8.13-3,10.76,13.32,0,0,33.68,28.18,32,38" transform="translate(-750.22 -122.9)"/><path class="cls-3" d="M856.59,315.82v10s-3.87-.28-3,10l31.35,21.91h10.39l15.49-21s5.1-9.71-4.34-10.18l.19-10.8h-50" transform="translate(-750.22 -122.9)"/><path class="cls-2" d="M1136,545" transform="translate(-750.22 -122.9)"/><polyline class="cls-4" points="21.34 187.27 58.36 185.09 59.46 202.21 21.02 204.26 21.34 187.27"/><polyline class="cls-4" points="217.39 207.36 254.35 210.38 253.05 227.47 214.7 224.14 217.39 207.36"/><path class="cls-5" d="M799.92,310.79s4.85-15.69,4.44-19.83c0,0-.12-12.65-2.06-12.71,0,0-1.91-2.34-4.14,8.63,0,0-2.26-11.44-5.07-12.21,0,0-2.2-.51-2.59,3,0,0-.29,7-.39,7.6s-.9-11.31-5.76-12a12.62,12.62,0,0,0-1.79,11.29s-3.78-8-5.59-6.91c0,0-4.48,0,.77,13.65,0,0,1.51,8-4.77,3.15,0,0-15.84-7.23-3,7,0,0,8.67,5.94,7.54,10Z" transform="translate(-750.22 -122.9)"/><path class="cls-5" d="M999.76,332.7a9.73,9.73,0,0,1,6-9.26s7.64-8.11,3.65-9.6c0,0-17.5,10.1-8.91-5.1,0,0,1.12-17.63-6.38-4,0,0-4.36-22-8.33,3.49,0,0-3.54-25.72-7.79,2.06,0,0-7.15-23.27-6.72,2.5,0,0,2,18.07,5.11,20.48Z" transform="translate(-750.22 -122.9)"/><path class="cls-5" d="M833.16,710.58l23.33.28-.1,8.69s-11.49,4.85-11.71,3.72c0,0-3.64,1.49-11.63-3.2Z" transform="translate(-750.22 -122.9)"/><path class="cls-5" d="M915.49,702.06v9s8.69,4.47,13.2,3.93c0,0,5.71,0,9.5-3.44v-9.47Z" transform="translate(-750.22 -122.9)"/><path class="cls-5" d="M1200.32,695.4" transform="translate(-750.22 -122.9)"/><path class="cls-6" d="M833.09,513.6l-6.22,182.83h38.2s-3.22-149.62,1.07-152.68c0,0,.86-10.89,20.39-11.69,0,0,14.75-.8,17.49,12,0,0,2.52,23.71,2.25,33.69s-1,117.81-1,117.81l38.09.86-1.93-78.75s-3.27-85.67-3.11-85.94S938,513.6,938,513.6s-47.32,7.13-52.89,5.15Z" transform="translate(-750.22 -122.9)"/><rect class="cls-7" x="913.8" y="673.41" width="17.17" height="46.03" transform="matrix(0.01, -1, 1, 0.01, -531.48, 1490.41)"/><rect class="cls-7" x="836.19" y="680.68" width="17.17" height="46.03" transform="translate(-615.75 1420.02) rotate(-89.55)"/><path class="cls-3" d="M875.11,319h27s35.51-7.5,38.51-27c0,0,4.75-22,4.5-34V222s-1-45.76-19-63c0,0-.25-5.5-46.51-15,0,0-43.26-3.75-51,13.5,0,0-18.5,22-26.5,46v51s9.75,39.26,26.5,43C828.6,297.52,867.61,325.52,875.11,319Z" transform="translate(-750.22 -122.9)"/><path class="cls-8" d="M812.32,186s-19.08,1.5-27.55-5.22c0,0,5.82,16.43,19,18.65L812.32,186" transform="translate(-750.22 -122.9)"/><path class="cls-8" d="M856.76,152.16s-21.61-13.52-25.35-27.44c0,0-6.8,22.2,5.55,35l19.8-7.59" transform="translate(-750.22 -122.9)"/><path class="cls-8" d="M835.52,165.47s-28.91-2.39-40-14.52c0,0,4.71,26,23.91,32.54l16.05-18" transform="translate(-750.22 -122.9)"/><path class="cls-9" d="M801.15,204.67s21-70.1,77.51-59.51c0,0,62.62-4.22,63.83,59.51C942.49,204.67,876.23,268.24,801.15,204.67Z" transform="translate(-750.22 -122.9)"/></g><g id="Layer_10" data-name="Layer 10"><path class="cls-2" d="M846.18,463.94l-7.64-54s-18.5-13-34.25-84.5l-28.36-.54S789.85,419.19,846.18,463.94Z" transform="translate(-750.22 -122.9)"/><path class="cls-2" d="M926.09,485.88l7.64-54s18.5-13,34.25-84.5l28.36-.54S982.41,441.13,926.09,485.88Z" transform="translate(-750.22 -122.9)"/></g><g id="Layer_11" data-name="Layer 11"><path class="cls-2" d="M840.7,333s25.46-7.31,46.56,6.44c0,0,29.4-10.65,45.49-7.25l-6.12,5.32,10.55,19.4s-76.55-.76-108.3,10.35Z" transform="translate(-750.22 -122.9)"/></g><g id="Layer_7" data-name="Layer 7"><ellipse class="cls-10" cx="18.53" cy="599.19" rx="18.53" ry="15.17"/><ellipse class="cls-10" cx="23.24" cy="668.96" rx="23.24" ry="17.39"/><ellipse class="cls-10" cx="188.94" cy="677.86" rx="22.04" ry="18.2"/><ellipse class="cls-10" cx="226.86" cy="500.46" rx="10.65" ry="22.01"/><circle class="cls-10" cx="262.76" cy="608.7" r="16.18"/></g><g id="Layer_6" data-name="Layer 6"><path class="cls-11" d="M871.42,601.36s20.38,2.08,27.5,0l-3.24,23.46L894.88,713h-17l-1.21-87Z" transform="translate(-750.22 -122.9)"/><polygon class="cls-12" points="28.98 585.64 127.67 590.09 96.52 607.08 35.45 593.33 28.98 585.64"/><path class="cls-1" d="M877.89,713l-108.8,58.24v3.64s22.45,1.42,22.65,6.47l79.68-37.62,13.75-.81V717Z" transform="translate(-750.22 -122.9)"/><path class="cls-13" d="M894.88,713h-9.71v29.93l40.45,42.87s12.74-4,14.16-2.43v-7.69Z" transform="translate(-750.22 -122.9)"/><path class="cls-1" d="M900.54,708.54,894.88,713,909,732.68l86.21-6.74s13.35-10.52,16.58-8.9v-6.47Z" transform="translate(-750.22 -122.9)"/><polygon class="cls-14" points="127.67 590.09 134.95 594.13 134.95 590.09 127.67 590.09"/></g><g id="Layer_5" data-name="Layer 5"><path class="cls-15" d="M795.38,374.85s114.06-40.45,192.53-11.33c0,0,11.33,99.53-34,183.24,0,0,7.28-19.68,21,.47,0,0-.36,44.41-82.69,54.12,0,0-83.14.81-96.89-37.21,0,0,22.65-28.29,27.5-17.38,0,0,11.33-.42,12.94,14.14L806.7,477.17S793,467.07,795.38,374.85Z" transform="translate(-750.22 -122.9)"/></g></svg>
