<svg xmlns="http://www.w3.org/2000/svg" xmlns:xlink="http://www.w3.org/1999/xlink" viewBox="0 0 803.1 513.23"><defs><style>.cls-1{fill:#050302;}.cls-2{fill:#332926;}.cls-3{fill:#b23316;}.cls-4{fill:#f9c9a8;}.cls-5{fill:#eaaf92;}.cls-6{fill:#a0230e;}.cls-16,.cls-7,.cls-9{fill:#efb595;}.cls-12,.cls-8{fill:none;}.cls-16,.cls-9{stroke:#efb595;}.cls-12,.cls-13,.cls-16,.cls-9{stroke-miterlimit:10;}.cls-10{fill:#51281f;}.cls-11{fill:#f2c3a2;}.cls-12{stroke:#020101;stroke-width:0.5px;}.cls-13{fill:#f9f8f7;stroke:#f9f8f7;stroke-width:0.1px;}.cls-14{fill:#070201;}.cls-15{fill:#f7f3f2;}.cls-16{stroke-width:0.7px;}</style><symbol id="Henrik01" data-name="Henrik01" viewBox="0 0 216.53 506.75"><path class="cls-1" d="M52.43,447.23q-4.6-6.63-9.25-13.24C98.06,388,97,371.16,93.32,315.7c-.45-6.76-.95-14.42-1.38-22.68,6-.66,11.3-1.23,16.32-1.73.26,10.16.66,19.48,1,27.73C111.83,378.21,112.69,398.25,52.43,447.23Z"/><path class="cls-1" d="M107.77,291.84c.26,10,.66,19.1,1,27.2,1.28,29.8,2.13,49.48-4.87,67.91C97,405.13,82.09,422.43,52.54,446.5c-3.11-4.46-6-8.54-8.69-12.42,27.58-23.15,40.72-38.66,46.77-55.16,6.23-17,5-35.38,3.2-63.25-.44-6.64-.93-14.13-1.36-22.2,5.56-.62,10.59-1.16,15.31-1.63m1-1.11q-8.67.87-17.33,1.85c3.94,75.68,13,89.47-48.9,141.32q4.92,7,9.82,14.06c69.61-56.47,58.5-74.51,56.41-157.23Z"/><path class="cls-2" d="M59.59,455.78c-.13-.08-.29-.18-.48-.32-2.37-1.64-5-5-8-10.17a41.44,41.44,0,0,0-4.71-6.16C45.25,437.77,44,436.37,43,435a16.08,16.08,0,0,1,4.92-.87c3.62,0,6.68,1.69,9.64,5.31C61.79,444.55,62.43,449.77,59.59,455.78Z"/><path class="cls-2" d="M48,434.59c3.46,0,6.4,1.63,9.25,5.13,4,4.9,4.69,9.66,2.18,15.32-2.3-1.61-4.86-4.88-7.82-10a42.6,42.6,0,0,0-4.76-6.24c-1-1.17-2-2.37-2.95-3.57a14.77,14.77,0,0,1,4.1-.64m0-1a17.18,17.18,0,0,0-5.71,1.11c2.49,3.66,6.29,7.09,8.46,10.84s5.09,8.22,8.12,10.33a3.29,3.29,0,0,0,1.18.66c.13,0,0-.2-.11-.23l-.06.13c0-.09,0-.13,0-.13h0C63,450,62.43,444.54,58,439.09c-3-3.75-6.24-5.5-10-5.5Z"/><path class="cls-1" d="M58,456.29q-8.23-10.12-16.5-20.24l1-.94q8.58,10.45,17.1,21l-1,.94Z"/><path class="cls-1" d="M42.41,435.84C48,442.7,53.6,449.55,58.86,456l-.18.17-.1.09-.47-.59c-5.23-6.43-10.63-13.06-16-19.59l.2-.19.08-.07m.09-1.46c-.58.54-1.16,1.08-1.73,1.63q8.88,10.85,17.71,21.73l1.75-1.63q-8.85-10.87-17.73-21.73Z"/><path class="cls-3" d="M130.69,246.11c-.89,0-1.48,0-1.55-2.76-.25-9.15-.9-21.07-1.7-31.09a7.14,7.14,0,0,1,2.2-6.37c.27,0,.51,0,.73,0,1,0,1.59.13,1.82,2.89.57,6.93,1.56,20.18,1.82,31.1.07,3.08-.76,4.33-2.55,6.23C131.18,246.09,130.92,246.11,130.69,246.11Z"/><path class="cls-3" d="M130.37,206.35h0c.75,0,1.12,0,1.32,2.43.57,6.92,1.56,20.16,1.82,31.08a6.78,6.78,0,0,1-2.28,5.73l-.54,0c-.68,0-1,0-1.05-2.27-.25-9.17-.9-21.09-1.7-31.12a6.53,6.53,0,0,1,1.95-5.85l.48,0m0-1a7.54,7.54,0,0,0-.9.06c-.06,0-.12.06-.17.12a7.64,7.64,0,0,0-2.36,6.77c.78,9.69,1.44,21.55,1.7,31.07.07,2.65.62,3.24,2.05,3.24a8.46,8.46,0,0,0,.94-.06c.05,0,.12-.06.17-.11,1.89-2,2.79-3.36,2.71-6.61-.23-9.72-1-21.64-1.82-31.13-.23-2.69-.81-3.35-2.32-3.35Z"/><path class="cls-3" d="M133.83,279c-.82,0-1.44-.2-1.85-2.74a246,246,0,0,1-2.46-29.94A7.36,7.36,0,0,1,132,240.1a6.62,6.62,0,0,1,.84-.06c.88,0,1.42.18,1.54,2.69.54,10.85,1.35,21.73,2.24,29.84a7.2,7.2,0,0,1-1.82,6.35A6.54,6.54,0,0,1,133.83,279Z"/><path class="cls-3" d="M132.82,240.54h0c.58,0,.93,0,1,2.21.54,10.86,1.36,21.75,2.24,29.87.31,2.85-.21,4.1-1.59,5.83a3.81,3.81,0,0,1-.68.07c-.51,0-1,0-1.36-2.32A246.69,246.69,0,0,1,130,246.32a6.78,6.78,0,0,1,2.2-5.75l.6,0m0-1a8,8,0,0,0-1,.08.28.28,0,0,0-.16.11,7.87,7.87,0,0,0-2.62,6.62,245.67,245.67,0,0,0,2.46,30c.4,2.42,1,3.16,2.35,3.16a6.83,6.83,0,0,0,1.17-.13c.05,0,.11-.08.15-.13a7.67,7.67,0,0,0,1.95-6.74c-1-9.33-1.78-20.64-2.24-29.82-.12-2.51-.68-3.16-2-3.16Z"/><path class="cls-4" d="M134.44,284.47c-.55,0-1.34-.28-1.81-2.68-.23-1.19-.68-3.87-.85-5.22-.31-2.58.31-4.46,2-5.92a.66.66,0,0,1,.16-.12,2.55,2.55,0,0,1,.9-.19c.55,0,1.32.26,1.63,2.55.06.43.15,1.05.25,1.73.18,1.21.39,2.59.48,3.44.3,2.7-.25,4.63-1.72,6.09-.09.1-.13.12-.14.12A2.45,2.45,0,0,1,134.44,284.47Z"/><path class="cls-4" d="M134.82,270.84h0c.21,0,.85,0,1.13,2.12.06.43.15,1.05.26,1.73.18,1.21.38,2.58.48,3.42.27,2.54-.23,4.34-1.58,5.69l0,0a1.9,1.9,0,0,1-.64.14c-.58,0-1-.77-1.32-2.28-.23-1.18-.68-3.84-.84-5.18a5.76,5.76,0,0,1,1.81-5.49l0,0a2.17,2.17,0,0,1,.68-.14m0-1a3.09,3.09,0,0,0-1.07.22,1,1,0,0,0-.32.21,6.76,6.76,0,0,0-2.14,6.36c.16,1.36.62,4.08.85,5.25.34,1.76,1,3.09,2.3,3.09a2.9,2.9,0,0,0,1.07-.24.89.89,0,0,0,.3-.22c1.76-1.75,2.14-4,1.87-6.51-.15-1.34-.58-4-.74-5.17-.24-1.78-.82-3-2.12-3Z"/><path class="cls-4" d="M135.52,296.25c-.8,0-1.93-.39-2.55-3.73-.34-1.81-1-5.64-1.22-7.51-.47-3.68.3-6.41,2.35-8.36a1.57,1.57,0,0,1,.45-.32,3.53,3.53,0,0,1,1.26-.27c.82,0,2,.38,2.58,3.72.34,1.91,1,5.65,1.2,7.5.44,3.65-.32,6.31-2.38,8.35a1.63,1.63,0,0,1-.43.33A3.43,3.43,0,0,1,135.52,296.25Z"/><path class="cls-4" d="M135.81,276.56h0c.41,0,1.49,0,2.09,3.3.34,1.91,1,5.63,1.19,7.48.42,3.49-.29,6-2.23,7.94a1.11,1.11,0,0,1-.27.22,2.86,2.86,0,0,1-1.07.25c-.36,0-1.44,0-2.06-3.32-.29-1.56-1-5.5-1.21-7.49-.45-3.5.27-6.1,2.19-7.93a1,1,0,0,1,.29-.21,3,3,0,0,1,1.08-.24m0-1a4,4,0,0,0-1.45.31,2,2,0,0,0-.61.42c-2.41,2.3-2.92,5.4-2.49,8.78.25,1.93.91,5.85,1.22,7.54.44,2.38,1.28,4.14,3,4.14a3.7,3.7,0,0,0,1.45-.33,1.82,1.82,0,0,0,.59-.43c2.37-2.35,2.93-5.37,2.52-8.77-.23-1.94-.89-5.83-1.2-7.53-.44-2.42-1.29-4.13-3.07-4.13Z"/><path class="cls-5" d="M138.72,289.25c-.08,0-.22-.11-.37-.37-.7-1.23-1.68-3.06-2.37-4.36a2.24,2.24,0,0,1,.08-2.2c.15-.23.3-.34.38-.34s.23.12.38.38c.75,1.29,1.73,3.12,2.37,4.36a2.22,2.22,0,0,1-.09,2.19C139,289.15,138.8,289.25,138.72,289.25Z"/><path class="cls-5" d="M136.43,282.68l.09.16-.18,0a.66.66,0,0,1,.09-.19m1,1.76c.37.67.74,1.36,1.06,2a1,1,0,0,0-.71.38c-.36-.66-.72-1.35-1-2a1,1,0,0,0,.7-.39m1.41,3.93a1.42,1.42,0,0,1-.08.18l-.09-.15.17,0m-2.38-6.89a1,1,0,0,0-.8.57h0a2.72,2.72,0,0,0-.1,2.7c.69,1.31,1.66,3.14,2.38,4.38.24.42.52.62.8.62a1,1,0,0,0,.8-.56,2.75,2.75,0,0,0,.12-2.7c-.68-1.31-1.67-3.14-2.39-4.38-.24-.43-.53-.63-.81-.63Zm-.81.54v0Zm0,0Zm0,0Zm0,0Zm0,0Zm0,0Zm0,0h0Zm0,0Zm0,0Zm0,0Zm0,0Zm0,0Zm0,0Zm0,0Zm0,0Zm0,0Zm0,0Zm0,0Zm0,0Zm3.88,7.14Zm0,0Zm0,0Zm0,0Zm0,0Zm0,0Zm0,0Zm0,0Zm0,0Zm0,0Zm0,0Zm0,0Zm0,0Zm0,0Zm0,0Zm0,0Zm0,0v0Zm0,0Zm0,0Z"/><path class="cls-6" d="M121.19,271.67c-10-.69-20.37-1.4-30.48-2.68,1-7.37,4.05-21.84,6.08-31.49.62-2.94,1.13-5.37,1.44-6.92.37-1.86.73-3.79,1.1-5.75,3.07-16.38,6.55-35,21.13-39.31a3.63,3.63,0,0,1,1-.21,2.49,2.49,0,0,1,1.27.5c15.14,8.76,11.1,34.6,8.69,50-.36,2.31-1.21,6.46-2.18,11.27-1.72,8.44-3.84,18.88-4.45,24.8Z"/><path class="cls-6" d="M121.47,185.81c.19,0,.4.06,1,.43,14.84,8.59,10.84,34.22,8.44,49.53-.36,2.3-1.2,6.45-2.17,11.25-1.67,8.22-3.73,18.35-4.4,24.37l-3.12-.22c-9.85-.68-20-1.38-30-2.62,1.06-7.48,4-21.52,6-31,.61-2.88,1.13-5.37,1.44-6.92.37-1.87.73-3.76,1.1-5.75,3.05-16.25,6.49-34.66,20.78-38.93a3.08,3.08,0,0,1,.87-.19m0-1a4.17,4.17,0,0,0-1.16.23c-16.63,5-19,27.85-22.57,45.45-1.33,6.64-6.39,29.53-7.59,38.93,11.62,1.5,23.32,2.21,35.1,3,.83-9,5.65-30,6.67-36.53,2.7-17.28,6.18-41.8-8.93-50.55a3,3,0,0,0-1.52-.56Z"/><path class="cls-1" d="M105.2,309.88a4.89,4.89,0,0,1-1.27-.2c-14.25-3.73-14.83-22.27-14-35.89,0-.43.2-1.64.37-2.71.09-.64.19-1.28.25-1.76l7.8.59c8.63.66,17.54,1.34,26.3,2.27-.2,1.32-.63,3.68-.69,4q-.3,1.61-.6,3.36c-2,11.57-4.81,27.42-17,30.21A5.35,5.35,0,0,1,105.2,309.88Z"/><path class="cls-1" d="M91,269.85l7.34.56c8.45.64,17.18,1.31,25.75,2.21-.21,1.33-.55,3.18-.6,3.44q-.3,1.6-.6,3.36c-2,11.43-4.75,27.09-16.58,29.81a4.5,4.5,0,0,1-1.06.15,4.37,4.37,0,0,1-1.14-.18c-13.9-3.64-14.45-21.93-13.66-35.38,0-.41.2-1.61.36-2.66.07-.46.14-.91.19-1.31m-.86-1.07c-.13,1.13-.64,4.17-.69,5-.75,12.75-.44,32.51,14.41,36.4a5.65,5.65,0,0,0,1.39.21,5.72,5.72,0,0,0,1.28-.17c13.71-3.15,15.74-22.14,17.94-34,.14-.76.64-3.47.76-4.51-11.67-1.26-23.38-2-35.09-3Z"/><path class="cls-5" d="M96.48,301.54c-.17,0-.31-.32-.38-.62-.35-1.5-.7-3.48-.91-5.18a2.49,2.49,0,0,1,.88-2.34,1,1,0,0,1,.51-.24c.13,0,.27.25.36.63.32,1.38.65,3.31.88,5.17a2.49,2.49,0,0,1-.83,2.32A.93.93,0,0,1,96.48,301.54Z"/><path class="cls-5" d="M96.41,293.77a.57.57,0,0,1,0,.14c.32,1.36.65,3.27.88,5.12a2,2,0,0,1-.66,1.87l0,0,0-.12a49.6,49.6,0,0,1-.9-5.13,2,2,0,0,1,.68-1.88l0,0m.17-1.11a1.43,1.43,0,0,0-.81.34,2.94,2.94,0,0,0-1.07,2.8,52.58,52.58,0,0,0,.92,5.24c.15.66.46,1,.86,1a1.34,1.34,0,0,0,.82-.37,3,3,0,0,0,1-2.77,52.66,52.66,0,0,0-.9-5.22q-.24-1-.84-1Zm-.81.24s0,0,0,.1,0-.1,0-.1Zm1.53,8.77c-.1.09-.09.14-.06.14s.08-.05.06-.14Z"/><path class="cls-3" d="M101.55,253.1c-.33-.39-.63-.69-.88-.94-.92-.93-1.06-1.07,0-3.3,4.23-8.68,8.9-19.33,13.87-31.65a8.88,8.88,0,0,1,4-4.61c.42-.3.88-.62,1.36-1,.28.32.54.58.77.8,1.11,1.12,1.28,1.29.36,3.78a292.17,292.17,0,0,1-13.69,31.53,10,10,0,0,1-4.25,4.37C102.59,252.39,102.09,252.72,101.55,253.1Z"/><path class="cls-3" d="M119.81,212.28l.47.49c1,1,1.06,1.06.25,3.24a292.12,292.12,0,0,1-13.66,31.48,9.59,9.59,0,0,1-4.08,4.18c-.36.23-.75.48-1.16.76-.22-.24-.43-.44-.6-.62-.8-.8-.82-.82.11-2.73,4.24-8.7,8.91-19.36,13.88-31.68a8.55,8.55,0,0,1,3.78-4.4c.31-.21.65-.45,1-.72m.13-1.29a.33.33,0,0,0-.18.08c-2.58,2-4.28,2.52-5.66,6-4.15,10.28-9,21.7-13.86,31.63-1.61,3.31-.61,2.84,1.15,5a.07.07,0,0,0,.06,0,.44.44,0,0,0,.19-.07c2.68-1.93,4.41-2.4,6.11-5.7a292.68,292.68,0,0,0,13.72-31.59c1.27-3.45.46-3.13-1.47-5.34a.06.06,0,0,0-.06,0Z"/><path class="cls-3" d="M93.06,290.13c-.43-.35-.79-.61-1.1-.82-1.06-.76-1.23-.87-.66-3.54l.76-3.54c2.25-10.65,4.81-22.72,8.57-32.91,1-2.63,2.24-3.39,4-4.45.57-.34,1.21-.73,1.88-1.21.24.3.45.54.64.75,1,1.19,1,1.19,0,3.92-3.59,9.71-6.31,21.32-8.7,31.56l-.89,3.77a8.79,8.79,0,0,1-3.22,5.21C94,289.25,93.52,289.66,93.06,290.13Z"/><path class="cls-3" d="M106.42,244.34l.35.4c.52.6.65.78.66,1a9.59,9.59,0,0,1-.73,2.45c-3.6,9.74-6.32,21.36-8.72,31.62-.3,1.27-.59,2.53-.88,3.76a8.26,8.26,0,0,1-3.08,5l-1,1-.77-.56c-.94-.67-1-.68-.46-3,.25-1.17.5-2.35.75-3.55,2.26-10.63,4.82-22.68,8.55-32.83.91-2.47,2.06-3.16,3.8-4.2.47-.29,1-.59,1.53-1m.19-1.3a.36.36,0,0,0-.19.08c-2.8,2-4.87,2.24-6.26,6C96,260.5,93.31,274,90.81,285.67c-.83,3.89-.06,3.07,2.2,5.09h0a.35.35,0,0,0,.2-.12c2.36-2.46,3.92-3.09,4.82-6.88,2.68-11.35,5.55-24.4,9.57-35.26,1.34-3.63,1-3-1-5.44a.09.09,0,0,0-.07,0Z"/><path class="cls-4" d="M91.47,299.1c-2-.76-2.34-1.36-2.06-3.82a33.64,33.64,0,0,1,1.12-5.43,11,11,0,0,1,4.52-6.13l0,0c1.91.79,2.18,1.41,1.8,3.93a46.21,46.21,0,0,1-1.21,5.4,10.85,10.85,0,0,1-4.18,6.05Z"/><path class="cls-4" d="M95.17,284.26c1.45.64,1.56,1.1,1.24,3.29a49.33,49.33,0,0,1-1.2,5.32,10.33,10.33,0,0,1-3.82,5.66c-1.49-.58-1.73-1-1.49-3.2A34.69,34.69,0,0,1,91,290a10.46,10.46,0,0,1,4.16-5.74m-.07-1.09a.64.64,0,0,0-.34.15,11.57,11.57,0,0,0-4.71,6.37,35.11,35.11,0,0,0-1.14,5.53c-.3,2.71.14,3.52,2.5,4.39h.07a.61.61,0,0,0,.34-.15,11.3,11.3,0,0,0,4.34-6.31,48.33,48.33,0,0,0,1.24-5.46c.39-2.66.12-3.57-2.22-4.52Z"/><path class="cls-4" d="M89.13,312.25c-2.91-1-3.39-1.89-3-5.38a57.83,57.83,0,0,1,1.34-7.71,14,14,0,0,1,5.79-8.31c.25-.19.36-.19.36-.19,3,1.13,3.18,2.11,2.82,5.48a59.48,59.48,0,0,1-1.34,7.7,14.07,14.07,0,0,1-5.6,8.23A1.08,1.08,0,0,1,89.13,312.25Z"/><path class="cls-4" d="M93.6,291.2c2.38.94,2.66,1.61,2.32,4.89a59.66,59.66,0,0,1-1.33,7.62,13.62,13.62,0,0,1-5.42,8l-.06,0c-2.51-.92-2.84-1.61-2.51-4.78a57.82,57.82,0,0,1,1.32-7.64,13.59,13.59,0,0,1,5.61-8l.07-.05m0-1a1.22,1.22,0,0,0-.66.29A14.65,14.65,0,0,0,87,299a61.2,61.2,0,0,0-1.35,7.79c-.37,3.64.16,4.76,3.39,5.91l.14,0a1.13,1.13,0,0,0,.64-.29A14.49,14.49,0,0,0,95.55,304a60.22,60.22,0,0,0,1.36-7.78c.38-3.6,0-4.78-3.17-6a.39.39,0,0,0-.15,0Z"/><path class="cls-1" d="M157.78,459.9c-21-60.41-40-123-52.07-171.8,5.43-1.46,11-2.86,15.76-4.07,12.56,55.35,35.22,124.54,52.35,171.14C169,456.71,163.75,458.26,157.78,459.9Z"/><path class="cls-1" d="M121.1,284.64c12.53,55.09,35,123.75,52.07,170.21-4.54,1.45-9.49,2.9-15.07,4.44-20.9-60.06-39.73-122.21-51.79-170.84,5.07-1.35,10.22-2.66,14.79-3.81m.75-1.22c-5.59,1.4-11.18,2.82-16.74,4.32C118.55,342.16,139,407.47,157.46,460.5c5.71-1.56,11.38-3.2,17-5-18.84-51.17-40.64-119-52.62-172.06Z"/><path class="cls-2" d="M158.44,461.53c-.63-6.73,1.88-11,8.08-14a18,18,0,0,1,7.55-2c3.13,0,6,1.21,8.94,3.79-.11.12-.26.27-.47.46-2.16,2.05-6.22,4.12-11.75,6a49.73,49.73,0,0,0-6.53,3A57.41,57.41,0,0,1,158.44,461.53Z"/><path class="cls-2" d="M174.07,446.09a12.51,12.51,0,0,1,8.2,3.32l-.07.07c-2.11,2-6.11,4-11.57,5.88a50.18,50.18,0,0,0-6.6,3c-1.69.87-3.44,1.76-5.14,2.45-.39-6.11,2.07-10.09,7.84-12.81a17.43,17.43,0,0,1,7.34-1.92m0-1a18.36,18.36,0,0,0-7.77,2c-6.67,3.14-9.16,7.88-8.29,15.11,4.32-1.5,8.74-4.49,12.94-5.91s9.2-3.52,11.94-6.1c.93-.89,1-1.1.86-1.1a.3.3,0,0,0-.18.1l.11.1h0c-.15,0-.15-.05-.11-.1-3.15-2.82-6.2-4.12-9.5-4.12Z"/><path class="cls-1" d="M159.14,463.49l-.72-1.41c7.77-3.61,15.46-7.66,22.91-11.57l1.92-1,.61,1.32-1.33.7C174.91,455.53,167,459.68,159.14,463.49Z"/><path class="cls-1" d="M183,450.19l.19.41-.89.46c-7.48,3.94-15.21,8-23,11.76l-.25-.5c7.61-3.57,15.14-7.53,22.44-11.36l1.47-.77m.46-1.37c-8.52,4.47-17,9-25.74,13,.39.76.79,1.53,1.16,2.3C167.56,460,176,455.51,184.52,451c-.35-.74-.7-1.48-1-2.22Z"/><path class="cls-7" d="M120.8,193.63l-.59,0a4.21,4.21,0,0,1-3-1.54,4.59,4.59,0,0,1-.82-3.59c.2-1.47.42-3.15.64-4.89.42-3.27.85-6.65,1.31-9.4.32-1.92,1.34-4.2,4.42-4.2l.53,0c2.71.22,4.1,2,3.92,5a124.92,124.92,0,0,1-1.92,14.46C124.81,192.11,123.16,193.63,120.8,193.63Z"/><path class="cls-7" d="M122.78,170.48l.49,0c3.07.25,3.58,2.58,3.47,4.48a128,128,0,0,1-1.92,14.39c-.46,2.42-1.89,3.76-4,3.76l-.54,0a3.7,3.7,0,0,1-2.64-1.35,4.12,4.12,0,0,1-.72-3.21c.21-1.48.42-3.15.64-4.89.42-3.27.85-6.65,1.31-9.39.29-1.73,1.2-3.78,3.93-3.78m.59-1.14s0,.06,0,.16c0-.11,0-.16,0-.16Zm-.59.14c-2.68,0-4.42,1.67-4.92,4.61-.7,4.25-1.36,10.09-2,14.32-.43,3.13,1.36,5.4,4.25,5.68a4.68,4.68,0,0,0,.64,0c2.57,0,4.45-1.66,5-4.57A126,126,0,0,0,127.73,175c.19-3.21-1.36-5.29-4.38-5.54l-.57,0Zm-2.73,24.61c-.29,0-.17.15,0,.15s.13,0,.15-.15Z"/><path class="cls-8" d="M204.3,502.67c-74,7.08-123.59-1.32-199.32,4.08C-8.23,329.19,8.07,175.92,16.61,0L216.53,8.05C208.15,180.58,192.26,329.3,204.3,502.67Z"/><path class="cls-9" d="M146.11,145s4.28,1.08,2.14,3.22-2.14,0-2.14,0"/><path class="cls-4" d="M121.88,176c-13.34,0-24.08-16.75-24.16-18.94-.6-16.56,0-48.17.1-48.88l-.5.43-.49-.43,1-.06c0-10.38,10.86-18.82,24.17-18.82s24.25,8.52,24.23,18.93l-.11,48.89c-2.28,8.72-10,18.88-24.18,18.88Z"/><path class="cls-4" d="M122,89.75h.07c13.07,0,23.68,8.29,23.66,18.43L145.62,157c-2.25,8.54-9.79,18.45-23.68,18.45h-.06c-13.07,0-23.58-16.32-23.66-18.46-.58-16.12,0-47.56.1-48.82l-.6-.06.61,0C98.35,98,109,89.75,122,89.75m0-1c-13.61,0-24.65,8.64-24.67,19.32h0c-.06,0-.7,32.35-.1,49,.1,2.67,11,19.39,24.66,19.42h.06c13.61,0,22.12-9.43,24.68-19.32l.11-48.95c0-10.7-11-19.4-24.66-19.43Z"/><path class="cls-10" d="M107.23,150.9c-3.88,0-7-6.35-7-14.14s3.19-14.11,7.07-14.11c1.82,0,3.56,1.43,4.88,4a22.6,22.6,0,0,1,2.14,10.12c0,7.78-3.19,14.11-7.07,14.11Z"/><path class="cls-10" d="M107.29,122.15v1c1.6,0,3.22,1.37,4.44,3.75a22.15,22.15,0,0,1,2.08,9.89c0,8.14-3.41,13.61-6.58,13.61-1.59,0-3.21-1.37-4.43-3.75a22,22,0,0,1-2.08-9.89c0-8.14,3.41-13.61,6.57-13.61v-1m0,0c-4.16,0-7.55,6.54-7.57,14.61s3.35,14.64,7.51,14.64h0c4.16,0,7.55-6.53,7.57-14.61s-3.35-14.63-7.51-14.64Z"/><path class="cls-10" d="M107.06,151a11.48,11.48,0,0,1-1.37-.1c-8.31-1.16-8.84-4.55-10.38-14.62-.22-1.43-.46-3-.74-4.7-1.34-7.94-.79-13.22,1.68-16.13,2.2-2.61,5.75-3,8.94-3h.51c1.54,0,3,0,4.37,0,7.11,0,12.24,0,13.54,2.39s-.76,7.28-6.77,16.54c-2.21,3.41-3,7.34-3.65,10.8C112.19,147.31,111.48,151,107.06,151Z"/><path class="cls-10" d="M105.19,112v1h.51c1.53,0,3,0,4.37,0,6.94,0,12,0,13.1,2.13s-.93,7.06-6.75,16c-2.26,3.49-3,7.47-3.72,11-1.08,5.48-1.81,8.35-5.64,8.35a10.26,10.26,0,0,1-1.3-.1c-8-1.11-8.41-4.14-10-14.19-.22-1.44-.47-3-.75-4.71-1.29-7.68-.76-13,1.57-15.73,2.07-2.45,5.49-2.78,8.56-2.78v-1m0,0c-7,0-14.12,1.77-11.12,19.68,2.3,13.66,1.63,18.34,11.55,19.72a10.9,10.9,0,0,0,1.44.11c8.1,0,4.87-11.56,10.2-19.78,14-21.55,6.29-19.53-11.55-19.73Z"/><path class="cls-11" d="M121.64,148.79c-1.68-.2-3.26-1.39-4.5-3.39a16.22,16.22,0,0,1-2.17-8.48c0-6.23,3-11.37,6.66-11.84l0,11.85Z"/><path class="cls-4" d="M121.13,125.69l0,11.24,0,11.25c-3.17-.85-5.68-5.67-5.67-11.26s2.52-10.34,5.66-11.23m1-1.14c-4.2,0-7.65,5.61-7.66,12.37s3.45,12.39,7.67,12.4l0-12.39,0-12.38Z"/><path class="cls-7" d="M121.19,143.17a3.13,3.13,0,0,1-2.07-1.74,9.47,9.47,0,0,1-1.07-4.57c0-3.09,1.29-5.76,2.9-6.24v6.25Z"/><path class="cls-7" d="M120.45,131.46v5.44l.2,5.53c-1.11-.72-2.12-2.87-2.11-5.57s.88-4.57,1.9-5.4m1-1.42c-2.13,0-3.88,3.09-3.89,6.82s1.75,6.83,3.9,6.83h.26l-.25-6.81,0-6.83Z"/><path class="cls-12" d="M137.79,125.94s4.7,1.6,6.45-2.84"/><path class="cls-10" d="M118.78,97.68c-4.7,0-8.6-1.87-9.49-4.54-.66-2,.3-4.44,2.73-6.87a27.25,27.25,0,0,1,10.52-6.1,21.27,21.27,0,0,1,6.62-1c6.51,0,11.54,2.42,11.75,3.23-.57,1.54-6.47,10-13.3,13.24A20.79,20.79,0,0,1,118.78,97.68Z"/><path class="cls-10" d="M129.16,78.67v1c5.69,0,10.21,1.93,11.16,2.78-1,1.88-6.32,9.62-12.93,12.74a20.39,20.39,0,0,1-8.61,2c-4.49,0-8.2-1.73-9-4.2-1.3-3.93,4.63-9.58,12.94-12.33a20.54,20.54,0,0,1,6.46-1v-1m0,0a21.5,21.5,0,0,0-6.77,1c-9,3-15.08,9.07-13.58,13.59,1,2.9,5,4.89,10,4.89a21.28,21.28,0,0,0,9-2.09c7.19-3.4,13-12.1,13.57-13.59.41-1.13-5.46-3.83-12.23-3.83Z"/><path class="cls-10" d="M136.89,113.09c-3.32,0-11.81-1.26-16.86-5.15-3.88-3-6.44-7.44-6.71-11.64a7.11,7.11,0,0,1,1.7-5.59,5.76,5.76,0,0,1,4.16-1.5c4,0,9,2.57,13.06,6.71,4.66,4.7,6,12,5.69,15.55-.09,1.14-.32,1.54-.4,1.6Z"/><path class="cls-10" d="M119.18,89.71h0c3.83,0,8.7,2.52,12.71,6.56,5.56,5.62,6,14.69,5.35,16.31h-.35c-3.26,0-11.61-1.23-16.56-5a16.21,16.21,0,0,1-6.51-11.29,6.59,6.59,0,0,1,1.55-5.19,5.23,5.23,0,0,1,3.81-1.36m0-1a6.26,6.26,0,0,0-4.52,1.65c-3.55,3.52-2.1,12.47,5.06,18,5.38,4.14,14.24,5.25,17.17,5.25a5,5,0,0,0,.77,0c1.59-.26,1.29-11.58-5.06-18-4.34-4.38-9.47-6.86-13.42-6.86Z"/><path class="cls-10" d="M127,104c-4.21,0-7.4-1.34-8.15-3.4-1.31-3.65,5.14-9.46,14.09-12.69a27.38,27.38,0,0,1,9.14-1.5c5.34,0,9.29,1.35,9.78,2-.84,1.7-7.06,9.6-14.11,13A25.43,25.43,0,0,1,127,104Z"/><path class="cls-10" d="M142.09,86.88h0c4.76,0,8.1,1,9.11,1.64-1.25,2-6.89,9.15-13.67,12.41A25,25,0,0,1,127,103.47c-3.93,0-7-1.24-7.67-3.07-.55-1.5.5-3.62,2.87-5.82a32.86,32.86,0,0,1,10.91-6.23,26.85,26.85,0,0,1,9-1.47m0-1a27.64,27.64,0,0,0-9.31,1.53c-9.38,3.38-15.82,9.35-14.39,13.33.83,2.29,4.2,3.73,8.62,3.73a25.77,25.77,0,0,0,11-2.64c7.53-3.62,13.79-11.94,14.39-13.33.39-.94-4.31-2.62-10.28-2.62Z"/><path class="cls-10" d="M139.57,109.36a16.93,16.93,0,0,1-2.74-.21,15.2,15.2,0,0,1-10.4-6.33,5.57,5.57,0,0,1-.94-4.44c.71-2.37,3.93-3.84,8.4-3.84a25.1,25.1,0,0,1,7.05,1.09,20.41,20.41,0,0,1,11,9,3.13,3.13,0,0,1,.54,1.57A31.1,31.1,0,0,1,139.57,109.36Z"/><path class="cls-10" d="M133.89,95h0a24.41,24.41,0,0,1,6.9,1.07c6.41,1.92,10.72,8.17,11.14,9.81a31.4,31.4,0,0,1-12.36,2.94,17.12,17.12,0,0,1-2.66-.2,14.72,14.72,0,0,1-10.06-6.1,5.09,5.09,0,0,1-.88-4c.64-2.15,3.68-3.49,7.92-3.49m0-1c-4.56,0-8.07,1.51-8.88,4.2-1.19,4,3.83,10.09,11.74,11.4a17.41,17.41,0,0,0,2.82.22,31,31,0,0,0,13.25-3.31c1.11-.81-4.06-9.1-11.74-11.4A25.45,25.45,0,0,0,133.89,94Z"/><path class="cls-10" d="M106.32,127.34a14.7,14.7,0,0,1-5.93-1,10.9,10.9,0,0,1-6.2-7.76c-1.39-5.75.51-13.13,4.74-18.39a20.2,20.2,0,0,1,15.48-7.68,16.47,16.47,0,0,1,10.46,3.62c4.75,3.81,4.73,12.26,4.51,15.71-.37,5.6-1.88,9.83-2.8,10.39C124.61,123.4,114.44,127.34,106.32,127.34Z"/><path class="cls-10" d="M114.42,93h0a16,16,0,0,1,10.14,3.51c4.51,3.63,4.53,11.77,4.33,15.1-.35,5.77-1.88,9.75-2.57,10.18-1.94,1.18-12,5.07-20,5.07a14.27,14.27,0,0,1-5.73-1,10.47,10.47,0,0,1-5.91-7.42c-1.36-5.6.5-12.82,4.64-18a19.67,19.67,0,0,1,15.1-7.5m0-1a20.59,20.59,0,0,0-15.87,7.87c-6.9,8.58-7.77,22.74,1.65,26.92a15.4,15.4,0,0,0,6.13,1.07c8.17,0,18.47-4,20.52-5.22C129.46,121,133,102,125.18,95.71A17,17,0,0,0,114.41,92Z"/><path class="cls-10" d="M113.27,114.21c-6,0-12-5.51-14.68-13.4-2.25-6.75,1.06-14.93,3.84-18.78,1.18-1.64,1.94-2.07,2.18-2.07,2.32.43,14,5.84,17.85,13a15.92,15.92,0,0,1,.82,13.44,12.32,12.32,0,0,1-7.14,7.35A9,9,0,0,1,113.27,114.21Z"/><path class="cls-10" d="M104.62,80.47c1.92.45,13.51,5.48,17.4,12.72a15.43,15.43,0,0,1,.8,13,11.87,11.87,0,0,1-6.84,7.07,8.55,8.55,0,0,1-2.71.44c-5.71,0-11.68-5.49-14.2-13.06-1.8-5.38.08-11.9,2.44-16.21,1.46-2.66,2.7-3.81,3.11-4m0-1c-2.26,0-9.64,12.07-6.49,21.51,2.73,8.21,9.08,13.74,15.15,13.74a9.56,9.56,0,0,0,3-.49c6.84-2.28,11.42-12.53,6.6-21.51-4.05-7.53-16.06-12.84-18.18-13.24Z"/><path class="cls-10" d="M116.34,106.45a8.67,8.67,0,0,1-2.12-.25c-3-.73-5.41-3.07-6.82-6.58a20.34,20.34,0,0,1-.57-12.23c2-8,11.82-13.44,14.66-13.44a.74.74,0,0,1,.37.06c1.6,1.48,8.11,11.5,7.59,19C128.9,101.05,122.22,106.45,116.34,106.45Z"/><path class="cls-10" d="M121.49,74.45h.1c1.33,1.37,7.88,11,7.36,18.54-.53,7.75-6.95,13-12.61,13a8.18,8.18,0,0,1-2-.24c-2.83-.69-5.13-2.92-6.47-6.28a19.79,19.79,0,0,1-.55-11.92c1.87-7.64,11.52-13.06,14.17-13.06m0-1c-3,0-13.12,5.58-15.14,13.82-2.24,9.13,1.23,17.82,7.75,19.42a9.8,9.8,0,0,0,2.24.26c6.11,0,13-5.5,13.61-13.89.55-7.93-6.28-18-7.75-19.41a1,1,0,0,0-.71-.2Z"/><ellipse class="cls-13" cx="142.9" cy="134.47" rx="2.73" ry="3.55" transform="translate(-2.3 2.49) rotate(-0.99)"/><ellipse class="cls-14" cx="142.62" cy="134.45" rx="1.6" ry="1.97" transform="translate(-2.3 2.48) rotate(-0.99)"/><ellipse class="cls-15" cx="141.57" cy="134.84" rx="0.51" ry="0.55" transform="translate(-2.31 2.46) rotate(-0.99)"/><path class="cls-4" d="M140.54,131.22a2.3,2.3,0,0,1,2.21-1.83h0a2.31,2.31,0,0,1,2.26,1.77l-2.23,0Z"/><path class="cls-4" d="M142.79,128.89h0a2.8,2.8,0,0,0-2.74,2.84l2.79,0,2.79,0v0a2.81,2.81,0,0,0-2.79-2.74Z"/><path class="cls-16" d="M137.21,158s7.45-1.35,8.12.68"/></symbol><symbol id="Henrik02" data-name="Henrik02" viewBox="0 0 200 500"><path class="cls-3" d="M124.59,247.23c-.8,0-1.44-.19-1.76-2.64a262.12,262.12,0,0,1-1.77-30,8,8,0,0,1,2.59-6.32,5.79,5.79,0,0,1,.79-.06c.93,0,1.5.19,1.59,2.8.06,1.67.11,3.41.16,5.19.25,8,.52,17,1.34,24.64.3,2.86-.33,4.19-2,6.23A5.19,5.19,0,0,1,124.59,247.23Z"/><path class="cls-3" d="M124.44,208.76c.61,0,1,0,1.09,2.32.06,1.66.11,3.4.16,5.18.25,8,.52,17,1.34,24.68a6.63,6.63,0,0,1-1.72,5.72,4.31,4.31,0,0,1-.72.07c-.5,0-1,0-1.26-2.2a261.29,261.29,0,0,1-1.77-29.89,7.39,7.39,0,0,1,2.34-5.85l.54,0m0-1a6.88,6.88,0,0,0-1,.08.25.25,0,0,0-.17.12,8.44,8.44,0,0,0-2.75,6.68,259.47,259.47,0,0,0,1.78,30c.31,2.4,1,3.07,2.25,3.07a7,7,0,0,0,1.2-.13.38.38,0,0,0,.16-.13c1.66-2.09,2.4-3.53,2.07-6.64-1-9.29-1.18-20.62-1.49-29.79-.09-2.55-.66-3.28-2.1-3.28Z"/><path class="cls-3" d="M129.5,277.42c-.76,0-1.33-.19-1.75-2.73-.39-2.34-.81-4.82-1.24-7.38-1.25-7.46-2.68-15.92-3.7-23-.43-3,.46-4.25,2.09-6.19a9.44,9.44,0,0,1,1-.09c.79,0,1.28.18,1.58,2.59.86,7,2.22,15.1,3.54,22.92.42,2.51.83,4.95,1.21,7.27a7.21,7.21,0,0,1-1.72,6.53A5.55,5.55,0,0,1,129.5,277.42Z"/><path class="cls-3" d="M125.91,238.5c.49,0,.82,0,1.08,2.15.87,7,2.23,15.12,3.55,23,.42,2.51.83,4.95,1.21,7.26a6.64,6.64,0,0,1-1.51,6,4.52,4.52,0,0,1-.74.07c-.47,0-.87,0-1.26-2.31s-.8-4.81-1.23-7.37c-1.26-7.47-2.69-15.93-3.71-23-.39-2.72.36-3.85,1.86-5.65a7.06,7.06,0,0,1,.75-.06m0-1a8.1,8.1,0,0,0-1.19.12c-.06,0-.13.07-.17.12-1.73,2-2.7,3.44-2.24,6.61,1.37,9.5,3.41,21.13,5,30.42.4,2.43,1,3.15,2.24,3.15a6.62,6.62,0,0,0,1.23-.14c.06,0,.12-.08.16-.14a7.64,7.64,0,0,0,1.84-6.94c-1.53-9.41-3.6-20.89-4.74-30.17-.3-2.42-.84-3-2.08-3Z"/><path class="cls-4" d="M131,285.52c-.3,0-1.24,0-1.75-2.62-.23-1.16-.69-3.85-.86-5.22-.34-2.67.21-4.71,1.69-6.24.09-.1.14-.12.14-.13a2.34,2.34,0,0,1,.92-.23c.3,0,1.24,0,1.75,2.65.22,1.13.69,3.89.86,5.24.34,2.68-.19,4.65-1.68,6.19a.47.47,0,0,1-.14.12A2.29,2.29,0,0,1,131,285.52Z"/><path class="cls-4" d="M131.11,271.58h0c.68,0,1.06,1.22,1.26,2.25s.68,3.86.85,5.2c.33,2.52-.16,4.36-1.54,5.78l0,0a1.82,1.82,0,0,1-.68.17c-.68,0-1.06-1.21-1.26-2.22s-.69-3.82-.86-5.18c-.32-2.55.18-4.4,1.56-5.83l0,0a1.82,1.82,0,0,1,.67-.17m0-1a2.74,2.74,0,0,0-1.12.28.93.93,0,0,0-.3.23c-1.75,1.81-2.15,4.12-1.83,6.66.17,1.36.64,4.08.87,5.24.34,1.74,1,3,2.24,3a2.79,2.79,0,0,0,1.13-.28,1.09,1.09,0,0,0,.3-.23c1.74-1.8,2.14-4.07,1.82-6.61-.18-1.35-.64-4.09-.87-5.26-.33-1.74-1-3.06-2.24-3.06Z"/><path class="cls-4" d="M132.41,297.53c-.78,0-1.89-.38-2.54-3.66-.33-1.65-1-5.52-1.25-7.49-.47-3.62.29-6.39,2.31-8.49a1.58,1.58,0,0,1,.44-.34,3.28,3.28,0,0,1,1.32-.33c.77,0,1.88.38,2.52,3.68.33,1.68,1,5.57,1.26,7.49.47,3.62-.28,6.39-2.3,8.47a1.72,1.72,0,0,1-.43.34A3.36,3.36,0,0,1,132.41,297.53Z"/><path class="cls-4" d="M132.69,277.72c.34,0,1.39,0,2,3.28.33,1.67,1,5.54,1.25,7.46.46,3.5-.22,6.06-2.16,8.05-.18.19-.27.23-.28.23a2.81,2.81,0,0,1-1.12.29c-.34,0-1.4,0-2-3.26-.33-1.64-1-5.49-1.25-7.45-.45-3.51.24-6.08,2.18-8.08a1.71,1.71,0,0,1,.28-.24,2.82,2.82,0,0,1,1.12-.28m0-1a3.73,3.73,0,0,0-1.53.37,2.06,2.06,0,0,0-.59.45c-2.34,2.43-2.89,5.49-2.45,8.91.25,1.95.92,5.82,1.26,7.52.47,2.35,1.33,4.06,3,4.06a3.86,3.86,0,0,0,1.53-.37,2.1,2.1,0,0,0,.59-.46c2.34-2.41,2.88-5.46,2.43-8.87-.25-1.95-.92-5.83-1.26-7.53-.46-2.35-1.31-4.08-3-4.08Z"/><path class="cls-5" d="M132.55,286c-.07,0-.21-.09-.37-.35-.53-.86-1.17-2-1.74-3.1l-.66-1.21a2.36,2.36,0,0,1,.07-2.2c.15-.24.33-.35.43-.35s.22.11.33.31c.27.49.58,1,.89,1.6.53.93,1.08,1.92,1.51,2.73a2.3,2.3,0,0,1-.07,2.22C132.78,285.89,132.63,286,132.55,286Z"/><path class="cls-5" d="M130.24,279.47l.82,1.47c.53.94,1.08,1.92,1.5,2.73a1.78,1.78,0,0,1,0,1.64c-.51-.85-1.13-2-1.68-3l-.66-1.21a1.86,1.86,0,0,1,0-1.63m0-1.18a1,1,0,0,0-.85.59,2.85,2.85,0,0,0-.09,2.7c.71,1.29,1.67,3.1,2.41,4.33.25.4.53.59.8.59a1,1,0,0,0,.81-.59,2.77,2.77,0,0,0,.09-2.71c-.69-1.31-1.7-3.06-2.4-4.34a.92.92,0,0,0-.77-.57Zm-.83.5Zm0,0Zm0,0Zm0,0,0,.09,0-.09Zm0,.09Zm0,0Zm3.93,7Zm0,0Zm0,0Zm0,0Zm0,0Zm0,0Zm0,0Zm0,0Zm0,0h0Zm0,0v0Z"/><path class="cls-3" d="M124.59,247.23c-.8,0-1.44-.19-1.76-2.64a262.12,262.12,0,0,1-1.77-30,8,8,0,0,1,2.59-6.32,5.79,5.79,0,0,1,.79-.06c.93,0,1.5.19,1.59,2.8.06,1.67.11,3.41.16,5.19.25,8,.52,17,1.34,24.64.3,2.86-.33,4.19-2,6.23A5.19,5.19,0,0,1,124.59,247.23Z"/><path class="cls-3" d="M124.44,208.76c.61,0,1,0,1.09,2.32.06,1.66.11,3.4.16,5.18.25,8,.52,17,1.34,24.68a6.63,6.63,0,0,1-1.72,5.72,4.31,4.31,0,0,1-.72.07c-.5,0-1,0-1.26-2.2a261.29,261.29,0,0,1-1.77-29.89,7.39,7.39,0,0,1,2.34-5.85l.54,0m0-1a6.88,6.88,0,0,0-1,.08.25.25,0,0,0-.17.12,8.44,8.44,0,0,0-2.75,6.68,259.47,259.47,0,0,0,1.78,30c.31,2.4,1,3.07,2.25,3.07a7,7,0,0,0,1.2-.13.38.38,0,0,0,.16-.13c1.66-2.09,2.4-3.53,2.07-6.64-1-9.29-1.18-20.62-1.49-29.79-.09-2.55-.66-3.28-2.1-3.28Z"/><path class="cls-4" d="M131,285.52c-.3,0-1.24,0-1.75-2.62-.23-1.16-.69-3.85-.86-5.22-.34-2.67.21-4.71,1.69-6.24.09-.1.14-.12.14-.13a2.34,2.34,0,0,1,.92-.23c.3,0,1.24,0,1.75,2.65.22,1.13.69,3.89.86,5.24.34,2.68-.19,4.65-1.68,6.19a.47.47,0,0,1-.14.12A2.29,2.29,0,0,1,131,285.52Z"/><path class="cls-4" d="M131.11,271.58h0c.68,0,1.06,1.22,1.26,2.25s.68,3.86.85,5.2c.33,2.52-.16,4.36-1.54,5.78l0,0a1.82,1.82,0,0,1-.68.17c-.68,0-1.06-1.21-1.26-2.22s-.69-3.82-.86-5.18c-.32-2.55.18-4.4,1.56-5.83l0,0a1.82,1.82,0,0,1,.67-.17m0-1a2.74,2.74,0,0,0-1.12.28.93.93,0,0,0-.3.23c-1.75,1.81-2.15,4.12-1.83,6.66.17,1.36.64,4.08.87,5.24.34,1.74,1,3,2.24,3a2.79,2.79,0,0,0,1.13-.28,1.09,1.09,0,0,0,.3-.23c1.74-1.8,2.14-4.07,1.82-6.61-.18-1.35-.64-4.09-.87-5.26-.33-1.74-1-3.06-2.24-3.06Z"/><path class="cls-4" d="M132.41,297.53c-.78,0-1.89-.38-2.54-3.66-.33-1.65-1-5.52-1.25-7.49-.47-3.62.29-6.39,2.31-8.49a1.58,1.58,0,0,1,.44-.34,3.28,3.28,0,0,1,1.32-.33c.77,0,1.88.38,2.52,3.68.33,1.68,1,5.57,1.26,7.49.47,3.62-.28,6.39-2.3,8.47a1.72,1.72,0,0,1-.43.34A3.36,3.36,0,0,1,132.41,297.53Z"/><path class="cls-4" d="M132.69,277.72c.34,0,1.39,0,2,3.28.33,1.67,1,5.54,1.25,7.46.46,3.5-.22,6.06-2.16,8.05-.18.19-.27.23-.28.23a2.81,2.81,0,0,1-1.12.29c-.34,0-1.4,0-2-3.26-.33-1.64-1-5.49-1.25-7.45-.45-3.51.24-6.08,2.18-8.08a1.71,1.71,0,0,1,.28-.24,2.82,2.82,0,0,1,1.12-.28m0-1a3.73,3.73,0,0,0-1.53.37,2.06,2.06,0,0,0-.59.45c-2.34,2.43-2.89,5.49-2.45,8.91.25,1.95.92,5.82,1.26,7.52.47,2.35,1.33,4.06,3,4.06a3.86,3.86,0,0,0,1.53-.37,2.1,2.1,0,0,0,.59-.46c2.34-2.41,2.88-5.46,2.43-8.87-.25-1.95-.92-5.83-1.26-7.53-.46-2.35-1.31-4.08-3-4.08Z"/><path class="cls-5" d="M135.23,287.18c-.08,0-.22-.1-.38-.36-.54-.9-1.22-2.14-1.81-3.23l-.59-1.07a2.33,2.33,0,0,1,.07-2.2c.15-.25.32-.36.43-.36s.22.12.33.32c.27.5.59,1.06.92,1.64.52.92,1.06,1.88,1.48,2.69a2.28,2.28,0,0,1-.07,2.21C135.46,287.07,135.31,287.18,135.23,287.18Z"/><path class="cls-5" d="M132.91,280.65l.85,1.51c.41.73.84,1.48,1.2,2.16a1,1,0,0,0-.73.41c-.26-.46-.52-.94-.76-1.39l-.58-1.06a1.83,1.83,0,0,1,0-1.63m2.41,5.63a.72.72,0,0,1-.09.2l-.1-.17a1.08,1.08,0,0,0,.19,0M133,279.46a1.06,1.06,0,0,0-.85.6,2.85,2.85,0,0,0-.09,2.7c.71,1.29,1.67,3.09,2.42,4.32.24.41.52.6.8.6a1,1,0,0,0,.8-.59,2.77,2.77,0,0,0,.09-2.71c-.68-1.32-1.7-3.06-2.4-4.34a.93.93,0,0,0-.77-.58Zm-.83.51Zm0,0Zm0,0Zm0,0,0,.08,0-.08Zm0,.08h0Zm0,0Zm3.93,7Zm0,0Zm0,0Zm0,0Zm0,0h0Zm0,0Zm0,0Zm0,0Zm0,0Zm0,0Zm0,0Zm0,0Zm0,0Zm0,0Zm0,0Zm0,0v0Z"/><path class="cls-3" d="M129.5,277.42c-.76,0-1.33-.19-1.75-2.73-.39-2.34-.81-4.82-1.24-7.38-1.25-7.46-2.68-15.92-3.7-23-.43-3,.46-4.25,2.09-6.19a9.44,9.44,0,0,1,1-.09c.79,0,1.28.18,1.58,2.59.86,7,2.22,15.1,3.54,22.92.42,2.51.83,4.95,1.21,7.27a7.21,7.21,0,0,1-1.72,6.53A5.55,5.55,0,0,1,129.5,277.42Z"/><path class="cls-3" d="M125.91,238.5c.49,0,.82,0,1.08,2.15.87,7,2.23,15.12,3.55,23,.42,2.51.83,4.95,1.21,7.26a6.64,6.64,0,0,1-1.51,6,4.52,4.52,0,0,1-.74.07c-.47,0-.87,0-1.26-2.31s-.8-4.81-1.23-7.37c-1.26-7.47-2.69-15.93-3.71-23-.39-2.72.36-3.85,1.86-5.65a7.06,7.06,0,0,1,.75-.06m0-1a8.1,8.1,0,0,0-1.19.12c-.06,0-.13.07-.17.12-1.73,2-2.7,3.44-2.24,6.61,1.37,9.5,3.41,21.13,5,30.42.4,2.43,1,3.15,2.24,3.15a6.62,6.62,0,0,0,1.23-.14c.06,0,.12-.08.16-.14a7.64,7.64,0,0,0,1.84-6.94c-1.53-9.41-3.6-20.89-4.74-30.17-.3-2.42-.84-3-2.08-3Z"/><path class="cls-7" d="M116.74,190.84a6,6,0,0,1-.84-.06,4.13,4.13,0,0,1-2.86-1.65,4.69,4.69,0,0,1-.6-3.72c.88-4.29,2-10.25,2.85-14.41.38-2,1.49-4.4,4.58-4.4h.45a4.08,4.08,0,0,1,2.94,1.3,5,5,0,0,1,.92,3.76,107.08,107.08,0,0,1-2.86,15.1C120.65,189.4,119,190.84,116.74,190.84Z"/><path class="cls-7" d="M119.87,167.1h.41a3.58,3.58,0,0,1,2.6,1.13,4.55,4.55,0,0,1,.8,3.39,108.18,108.18,0,0,1-2.84,15c-.61,2.38-2.07,3.69-4.1,3.69a5.09,5.09,0,0,1-.77-.06,3.59,3.59,0,0,1-2.52-1.44,4.2,4.2,0,0,1-.52-3.33c.89-4.3,2-10.27,2.85-14.41.35-1.83,1.34-4,4.09-4m.49-1.15a1.08,1.08,0,0,0,0,.16c0-.11,0-.16,0-.16Zm-.49.15c-2.78,0-4.5,1.82-5.07,4.81-.82,4.25-2,10.19-2.85,14.4-.64,3.12,1,5.53,3.87,6a6,6,0,0,0,.92.07c2.47,0,4.33-1.58,5.06-4.44a108,108,0,0,0,2.88-15.19c.28-3.33-1.27-5.38-4.33-5.6Zm-4.2,25.16c-.25,0-.14.15,0,.15s.13,0,.16-.14Z"/><path class="cls-1" d="M65.75,452.37a88.65,88.65,0,0,0-9.13-11.78C92,401.07,91,339.82,90.17,290.57l0-1.57,7.95.17,8.32.19C108.24,346.81,105.18,417,65.75,452.37Z"/><path class="cls-1" d="M90.66,289.51l7.43.16,7.84.18c1.78,57-1.31,126.54-40.08,161.76a87.31,87.31,0,0,0-8.56-11C72.91,423,82.77,399.82,87.44,369.77c4.11-26.4,3.64-54.45,3.23-79.21v-1.05m-1-1C90.47,339,92,400.68,55.94,440.6a87.8,87.8,0,0,1,9.71,12.53c41.67-36.81,42.92-112.49,41.25-164.26-5.75-.14-11.51-.25-17.26-.39Z"/><path class="cls-2" d="M71.18,461.83c-.13-.07-.36-.22-.74-.47-2.89-2-6-6.25-7.78-9.65a27.75,27.75,0,0,0-5.54-6.59c-.79-.77-1.61-1.56-2.36-2.36a19.21,19.21,0,0,1,6.85-1.53,10.06,10.06,0,0,1,7.92,3.89c4.61,5.27,3.64,11.13,1.78,16.71Z"/><path class="cls-2" d="M61.61,441.73a9.58,9.58,0,0,1,7.54,3.72c4.09,4.68,3.78,9.69,1.86,15.69l-.29-.2c-2.8-1.89-5.91-6.23-7.62-9.46a28,28,0,0,0-5.63-6.72c-.63-.61-1.24-1.2-1.82-1.8a17.66,17.66,0,0,1,6-1.23m0-1a21.38,21.38,0,0,0-7.71,1.82c2.73,3.06,6.41,5.77,8.32,9.4s5.09,7.9,7.94,9.82a3.88,3.88,0,0,0,1.15.66c.09,0,0-.1.07-.1s.07,0,.23.18c2.2-6.41,3-12.33-1.7-17.72a10.59,10.59,0,0,0-8.3-4.06Z"/><path class="cls-1" d="M70.25,463.09c-1.83-2.06-3.66-4.17-5.42-6.21-3.72-4.3-7.56-8.75-11.62-12.89l.9-1c4.29,4.32,8.32,9,12.22,13.53,1.62,1.88,3.25,3.77,4.9,5.64Z"/><path class="cls-1" d="M54.13,443.71c4.14,4.2,8,8.73,11.82,13.12,1.49,1.74,3,3.53,4.59,5.29l-.26.25c-1.71-1.93-3.42-3.9-5.07-5.81-3.62-4.2-7.36-8.53-11.32-12.59l.24-.26m0-1.46L52.53,444c6.22,6.31,11.79,13.19,17.69,19.8l1.7-1.63C66,455.5,60.41,448.56,54.09,442.25Z"/><path class="cls-1" d="M65.75,452.37a88.65,88.65,0,0,0-9.13-11.78C92,401.07,91,339.82,90.17,290.57l0-1.57,7.95.17,8.32.19C108.24,346.81,105.18,417,65.75,452.37Z"/><path class="cls-1" d="M90.66,289.51l7.43.16,7.84.18c1.78,57-1.31,126.54-40.08,161.76a87.31,87.31,0,0,0-8.56-11C72.91,423,82.77,399.82,87.44,369.77c4.11-26.4,3.64-54.45,3.23-79.21v-1.05m-1-1C90.47,339,92,400.68,55.94,440.6a87.8,87.8,0,0,1,9.71,12.53c41.67-36.81,42.92-112.49,41.25-164.26-5.75-.14-11.51-.25-17.26-.39Z"/><path class="cls-2" d="M71.18,461.83c-.13-.07-.36-.22-.74-.47-2.89-2-6-6.25-7.78-9.65a27.75,27.75,0,0,0-5.54-6.59c-.79-.77-1.61-1.56-2.36-2.36a19.21,19.21,0,0,1,6.85-1.53,10.06,10.06,0,0,1,7.92,3.89c4.61,5.27,3.64,11.13,1.78,16.71Z"/><path class="cls-2" d="M61.61,441.73a9.58,9.58,0,0,1,7.54,3.72c4.09,4.68,3.78,9.69,1.86,15.69l-.29-.2c-2.8-1.89-5.91-6.23-7.62-9.46a28,28,0,0,0-5.63-6.72c-.63-.61-1.24-1.2-1.82-1.8a17.66,17.66,0,0,1,6-1.23m0-1a21.38,21.38,0,0,0-7.71,1.82c2.73,3.06,6.41,5.77,8.32,9.4s5.09,7.9,7.94,9.82a3.88,3.88,0,0,0,1.15.66c.09,0,0-.1.07-.1s.07,0,.23.18c2.2-6.41,3-12.33-1.7-17.72a10.59,10.59,0,0,0-8.3-4.06Z"/><path class="cls-1" d="M70.25,463.09c-1.83-2.06-3.66-4.17-5.42-6.21-3.72-4.3-7.56-8.75-11.62-12.89l.9-1c4.29,4.32,8.32,9,12.22,13.53,1.62,1.88,3.25,3.77,4.9,5.64Z"/><path class="cls-1" d="M54.13,443.71c4.14,4.2,8,8.73,11.82,13.12,1.49,1.74,3,3.53,4.59,5.29l-.26.25c-1.71-1.93-3.42-3.9-5.07-5.81-3.62-4.2-7.36-8.53-11.32-12.59l.24-.26m0-1.46L52.53,444c6.22,6.31,11.79,13.19,17.69,19.8l1.7-1.63C66,455.5,60.41,448.56,54.09,442.25Z"/><path class="cls-6" d="M118.62,267.75c-13.4-.78-23.81-1.56-33.58-2.49-.13-9.81,3.36-31.59,4.93-38l.53-2.15c4.16-17.1,9.33-38.39,25.44-42.53a4.31,4.31,0,0,1,1-.17,2.24,2.24,0,0,1,1.26.52c13.19,8.58,8.37,32.5,5.18,48.33l-.21,1C122.21,237.12,118.42,258.25,118.62,267.75Z"/><path class="cls-6" d="M117,182.9c.22,0,.41.06,1,.43,12.92,8.4,8.14,32.13,5,47.82l-.21,1c-1,4.75-4.63,25.24-4.58,35-12.94-.76-23.08-1.51-32.58-2.42,0-10,3.39-31.12,4.93-37.43l.52-2.15c4.13-17,9.27-38.1,25.09-42.16a3.91,3.91,0,0,1,.88-.16m0-1a4.72,4.72,0,0,0-1.13.19c-17.09,4.38-22,27.4-26.33,45-1.63,6.67-5.19,29.09-4.94,38.58,11.46,1.11,23,1.9,34.59,2.57-.35-8.74,3.3-29.77,4.53-35.89,3.27-16.22,8.58-40.94-5.19-49.89a2.62,2.62,0,0,0-1.53-.6Z"/><path class="cls-1" d="M102.38,306.82a4.61,4.61,0,0,1-1.23-.19C86.54,303,85.43,281.37,84.9,271c0-.52,0-2.07,0-3.33,0-.39,0-.76,0-1.07,11.39.57,22.68,1.4,33.58,2.46,0,.66,0,1.59,0,2.41s0,1.31,0,1.63l0,.84c-.54,12.43-1.28,29.46-14.85,32.71A4.83,4.83,0,0,1,102.38,306.82Z"/><path class="cls-1" d="M85.47,267.11c11,.57,22,1.37,32.58,2.39,0,.6,0,1.31,0,2s0,1.3,0,1.61l0,.83c-.53,12.28-1.26,29.09-14.46,32.26a4.9,4.9,0,0,1-1.09.16,4.61,4.61,0,0,1-1.11-.17C87,302.57,85.93,281.23,85.4,271c0-.5,0-2,0-3.28,0-.2,0-.39,0-.58m-1-1.05c0,1.12-.14,4.15-.1,5,.65,12.58,2.19,32.48,16.63,36.1a5.65,5.65,0,0,0,1.35.2,5.3,5.3,0,0,0,1.32-.19c14.26-3.42,14.73-21.79,15.27-34,0-.78,0-3.46.11-4.51q-17.26-1.69-34.58-2.54Z"/><path class="cls-5" d="M81.34,299.21c-.24,0-.35-.52-.37-.68a45,45,0,0,1-.54-5.25,2.57,2.57,0,0,1,1-2.32.9.9,0,0,1,.47-.21c.17,0,.31.38.38.72a36.47,36.47,0,0,1,.58,5.27,2.52,2.52,0,0,1-1,2.26A.94.94,0,0,1,81.34,299.21Z"/><path class="cls-5" d="M81.71,291.35a1,1,0,0,1,.05.22,35.22,35.22,0,0,1,.58,5.19,2,2,0,0,1-.79,1.83l0,0a.71.71,0,0,1,0-.17,46.16,46.16,0,0,1-.53-5.2,2.06,2.06,0,0,1,.76-1.88l0,0m.17-1.1a1.48,1.48,0,0,0-.76.29,3,3,0,0,0-1.19,2.76,48.89,48.89,0,0,0,.54,5.32c.13.71.43,1.09.87,1.09a1.48,1.48,0,0,0,.78-.3,3,3,0,0,0,1.22-2.68,37.74,37.74,0,0,0-.59-5.35c-.14-.72-.43-1.13-.87-1.13Zm-.76.17s0,0,0,.12,0-.12,0-.12Zm1,9c-.12.08-.1.14-.07.14s.08,0,.07-.14Z"/><path class="cls-3" d="M87.33,253.4a10.25,10.25,0,0,0-.87-1.39c-.62-.86-.78-1.09.42-3.26,2.43-4.39,5-9.25,7.41-13.94,3.38-6.47,6.86-13.15,10.31-19.09a9.33,9.33,0,0,1,4.41-4c.6-.33,1.26-.69,2-1.15a10.42,10.42,0,0,0,.75,1.27c.65,1,.76,1.17-.53,3.44-3.26,5.72-6.63,12.18-9.9,18.42-2.63,5-5.34,10.22-7.94,14.9a7.66,7.66,0,0,1-4.08,3.75C88.71,252.63,88.05,253,87.33,253.4Z"/><path class="cls-3" d="M110.8,211.26c.19.34.37.61.52.84.55.84.6.91-.54,2.92-3.27,5.72-6.64,12.18-9.91,18.43-2.63,5-5.35,10.21-7.93,14.89a7.3,7.3,0,0,1-3.87,3.55c-.47.23-1,.49-1.55.81-.24-.41-.47-.72-.65-1-.53-.74-.6-.83.45-2.73,2.43-4.39,5-9.25,7.42-14,3.37-6.46,6.85-13.14,10.29-19.07a9,9,0,0,1,4.22-3.83c.48-.26,1-.54,1.55-.88m.37-1.37a.34.34,0,0,0-.19.07c-2.88,1.92-4.81,2.07-6.81,5.51-6,10.31-12,22.68-17.73,33-1.91,3.46-.59,2.77.62,5.5a.09.09,0,0,0,.08,0,.34.34,0,0,0,.17-.05c2.88-1.84,4.57-1.68,6.5-5.17,5.79-10.48,11.94-23,17.83-33.32,2-3.45.87-2.81-.4-5.58,0,0,0,0-.07,0Z"/><path class="cls-3" d="M78.48,287.41c-.35-.38-.67-.68-.94-.93-1-1-1.29-1.21-.78-3.75,1.81-8.89,4.8-22,9.93-33.24,1.06-2.31,2.59-3.22,4.36-4.28.67-.4,1.37-.81,2.08-1.32,1.22,2.37,1.28,2.64,0,5.54C89.27,258,86,268.39,83,281.23a8.52,8.52,0,0,1-3.18,4.95C79.36,286.56,78.93,287,78.48,287.41Z"/><path class="cls-3" d="M92.94,244.63c.92,1.83.83,2.12-.28,4.59-3.86,8.59-7.19,19-10.2,31.9-.55,2.4-1.54,3.31-3,4.69l-.94.89-.6-.58c-1-.91-1.1-1-.64-3.29,1.8-8.87,4.79-21.95,9.89-33.13,1-2.17,2.39-3,4.17-4.06.53-.31,1.07-.64,1.63-1m.35-1.41a.39.39,0,0,0-.2.08c-2.7,2-5.28,2.53-6.86,6-4.73,10.36-7.73,22.36-10,33.35-.74,3.67.14,3.18,2.13,5.43l0,0a.36.36,0,0,0,.2-.11c2.22-2.31,4-3.11,4.8-6.62,2.45-10.53,5.72-21.89,10.13-31.72,1.47-3.28,1.25-3.56-.21-6.38a.08.08,0,0,0-.07,0Z"/><path class="cls-4" d="M76.51,296.37c-1.86-1.09-2.12-1.75-1.77-4.15A36.18,36.18,0,0,1,76,287a11.26,11.26,0,0,1,4.5-5.88c1.8,1.13,2.2,1.79,1.82,4.21A36.59,36.59,0,0,1,81,290.51a11.54,11.54,0,0,1-4.52,5.86Z"/><path class="cls-4" d="M80.47,281.68c1.37.9,1.63,1.45,1.3,3.53a34,34,0,0,1-1.22,5.13,10.86,10.86,0,0,1-4.07,5.43c-1.42-.87-1.55-1.4-1.24-3.48a34.66,34.66,0,0,1,1.18-5.18,10.65,10.65,0,0,1,4-5.43m0-1.15a.65.65,0,0,0-.31.13,11.83,11.83,0,0,0-4.68,6.12,36,36,0,0,0-1.23,5.37c-.4,2.66,0,3.48,2.15,4.73l.09,0a.61.61,0,0,0,.32-.14,12.06,12.06,0,0,0,4.69-6.1,35.17,35.17,0,0,0,1.26-5.31c.42-2.65-.08-3.5-2.19-4.8a.17.17,0,0,0-.1,0Z"/><path class="cls-4" d="M73.16,309.4C70.4,307.83,70,307,70.6,303.65a53.2,53.2,0,0,1,1.9-7.48,16,16,0,0,1,6.11-8,.71.71,0,0,1,.31-.15c2.74,1.59,3.17,2.53,2.66,5.91a46.37,46.37,0,0,1-1.87,7.47,15.86,15.86,0,0,1-6.25,7.87A1,1,0,0,1,73.16,309.4Z"/><path class="cls-4" d="M78.88,288.56c2.39,1.41,2.68,2.18,2.21,5.26a46.06,46.06,0,0,1-1.85,7.38,15.35,15.35,0,0,1-6.07,7.63c-2.34-1.36-2.61-2.11-2.08-5.1A53,53,0,0,1,73,296.34a15.56,15.56,0,0,1,5.91-7.78m0-1.07a1.16,1.16,0,0,0-.61.25A16.48,16.48,0,0,0,72,296a54.14,54.14,0,0,0-1.93,7.56c-.62,3.57-.08,4.64,2.85,6.29a.31.31,0,0,0,.18,0,1.15,1.15,0,0,0,.62-.25,16.27,16.27,0,0,0,6.43-8.11,46.34,46.34,0,0,0,1.9-7.57c.55-3.62,0-4.73-3-6.43a.41.41,0,0,0-.19-.05Z"/><path class="cls-7" d="M116.74,190.84a6,6,0,0,1-.84-.06,4.13,4.13,0,0,1-2.86-1.65,4.69,4.69,0,0,1-.6-3.72c.88-4.29,2-10.25,2.85-14.41.38-2,1.49-4.4,4.58-4.4h.45a4.08,4.08,0,0,1,2.94,1.3,5,5,0,0,1,.92,3.76,107.08,107.08,0,0,1-2.86,15.1C120.65,189.4,119,190.84,116.74,190.84Z"/><path class="cls-7" d="M119.87,167.1h.41a3.58,3.58,0,0,1,2.6,1.13,4.55,4.55,0,0,1,.8,3.39,108.18,108.18,0,0,1-2.84,15c-.61,2.38-2.07,3.69-4.1,3.69a5.09,5.09,0,0,1-.77-.06,3.59,3.59,0,0,1-2.52-1.44,4.2,4.2,0,0,1-.52-3.33c.89-4.3,2-10.27,2.85-14.41.35-1.83,1.34-4,4.09-4m.49-1.15a1.08,1.08,0,0,0,0,.16c0-.11,0-.16,0-.16Zm-.49.15c-2.78,0-4.5,1.82-5.07,4.81-.82,4.25-2,10.19-2.85,14.4-.64,3.12,1,5.53,3.87,6a6,6,0,0,0,.92.07c2.47,0,4.33-1.58,5.06-4.44a108,108,0,0,0,2.88-15.19c.28-3.33-1.27-5.38-4.33-5.6Zm-4.2,25.16c-.25,0-.14.15,0,.15s.13,0,.16-.14Z"/><path class="cls-1" d="M148.13,460c-6.58-1.2-12.91-2.77-18.31-4.18,7.06-68.22,6-106.87-33.31-164.8l5.38-4.79,6.71-6c34.91,49.83,36.14,89.11,37.69,138.8C146.69,432,147.11,445.41,148.13,460Z"/><path class="cls-1" d="M108.51,281c34.52,49.49,35.74,88.61,37.28,138.07.4,12.76.81,26,1.8,40.3-6.18-1.15-12.11-2.61-17.23-3.94,3.54-34.29,4.86-60.64.66-85.67-4.42-26.34-14.87-50.64-33.85-78.68l5-4.49q3.14-2.81,6.29-5.59m.17-1.49c-4.29,3.79-8.55,7.61-12.83,11.41,39.56,58.12,40.46,97.48,33.43,165.26,6.43,1.68,12.85,3.24,19.4,4.4-5.11-71.93,4.49-117.88-40-181.07Z"/><path class="cls-2" d="M148.91,461.42c-1.54,0-3-.07-4.3-.19-1.79-.17-3.74-.3-5.79-.44-2.93-.2-5.94-.4-8.67-.73,3.58-4.68,6.59-7.05,12.26-7.05l1,0c6.23.29,11.22,2.44,16.54,7.15a1.26,1.26,0,0,0-.34.23s-.13.13-1.32.31a65.11,65.11,0,0,1-9.39.7Z"/><path class="cls-2" d="M142.41,453.51l1,0c5.89.28,10.66,2.25,15.68,6.55l-.86.15a63.91,63.91,0,0,1-9.31.69c-1.53,0-3-.07-4.25-.19-1.8-.17-3.75-.3-5.81-.44-2.6-.18-5.28-.36-7.76-.63,3.3-4.16,6.11-6.15,11.32-6.15m0-1c-6.32,0-9.45,2.92-13.18,7.94,4.82.64,10.71.84,15.33,1.28,1.4.13,2.87.19,4.35.19a66.13,66.13,0,0,0,9.47-.7c2.44-.38.85-.45,2.58-.81-5.22-4.81-10.49-7.55-17.51-7.88l-1,0Z"/><path class="cls-1" d="M142.09,462.44c-4.4,0-8.44-.14-12.34-.43,0-.45-.08-.9-.11-1.35,3.88.29,7.94.43,12.38.43,5.95,0,11.8-.25,18.25-.55l.21,1.3c-5.58.3-12,.6-18.39.6Z"/><path class="cls-1" d="M159.85,461.06l.05.31c-5.45.29-11.66.57-17.82.57-4.22,0-8.12-.13-11.87-.4l0-.34c3.73.26,7.61.39,11.84.39,5.82,0,11.55-.24,17.83-.53m.85-1c-6.32.3-12.49.57-18.68.57-4.28,0-8.57-.13-12.93-.47.06.78.13,1.57.2,2.36,4.31.33,8.56.46,12.79.46,6.3,0,12.58-.29,19-.63L160.7,460Z"/><rect class="cls-8" width="200" height="500"/><path class="cls-9" d="M145.91,145.46s4.3,1.51,1.89,3.51-2.2-.21-2.2-.21"/><path class="cls-4" d="M120.72,175.24c-.89,0-1.79,0-2.69-.12C104,173.8,94.79,155.66,94.92,153.31c.94-17.15,4.57-49.61,4.7-50.32l-.48.38-.5-.48,1,0c.93-9.84,11.13-17.26,23.75-17.26,1,0,2,0,3,.14,13.75,1.29,24.12,11.06,23.12,21.79l-4.72,50.34C141.9,165.94,133.87,175.24,120.72,175.24Z"/><path class="cls-4" d="M123.38,85.17v1c1,0,2,0,3,.14a28.28,28.28,0,0,1,16.85,7.26c4.22,4,6.29,9,5.82,14l-4.71,50.28c-2.86,7.83-10.72,16.91-23.58,16.91-.87,0-1.76,0-2.64-.12-13.48-1.26-22.79-19.07-22.66-21.28.92-16.71,4.47-49,4.69-50.27l-.58-.12.6,0c.9-9.57,10.89-16.8,23.25-16.8v-1m0,0c-12.72,0-23.29,7.5-24.24,17.71h0c-.08,0-3.78,33.25-4.72,50.42-.15,2.77,9.52,21,23.56,22.32.93.09,1.84.13,2.74.13,12.56,0,21.23-8.39,24.56-17.69L150,107.64c1-11-9.52-21-23.56-22.32q-1.55-.15-3.06-.15Z"/><path class="cls-10" d="M105.64,148l-.34,0c-4-.37-6.65-7.21-5.9-15.24.72-7.67,4.44-13.9,8.3-13.9H108c4,.38,6.66,7.22,5.91,15.25C113.22,141.72,109.5,148,105.64,148Z"/><path class="cls-10" d="M107.7,119.3H108c3.27.31,6.25,6.29,5.46,14.7-.7,7.42-4.19,13.45-7.8,13.45h-.29c-3.27-.31-6.24-6.29-5.45-14.71.69-7.41,4.19-13.44,7.8-13.44m0-1c-4.15,0-8,6.28-8.8,14.35C98.12,141,101,148,105.26,148.44l.38,0c4.15,0,8-6.28,8.79-14.35.78-8.32-2.06-15.39-6.35-15.79a2.48,2.48,0,0,0-.38,0Z"/><path class="cls-10" d="M105.8,148a9.53,9.53,0,0,1-2.08-.26c-8.47-2-8.69-5.53-9.33-16-.09-1.5-.19-3.13-.33-4.91-.6-8.08.38-13.39,3-16.23,1.64-1.76,3.92-2.59,7.2-2.59.89,0,1.86.06,3.07.18,1.58.17,3.08.31,4.5.44,7.32.67,12.61,1.16,13.72,3.74s-1.46,7.44-8.52,16.42c-2.6,3.3-3.76,7.27-4.78,10.77C110.89,144.29,109.79,148,105.8,148Z"/><path class="cls-10" d="M104.28,108.5h0a30.1,30.1,0,0,1,3,.18l4.5.43c7.15.66,12.32,1.14,13.32,3.45s-1.62,7.21-8.47,15.91c-2.65,3.37-3.82,7.39-4.86,10.94-1.51,5.19-2.54,8.12-6,8.12a8.63,8.63,0,0,1-2-.25c-8.11-1.89-8.3-5.07-8.94-15.59-.09-1.46-.19-3.13-.33-4.91C94,119,95,113.63,97.45,110.93c1.53-1.66,3.7-2.43,6.83-2.43m0-1c-6.3,0-12,2.87-10.71,19.35,1.07,14.29,0,19.05,10,21.4a9.67,9.67,0,0,0,2.2.28c7.49,0,5.56-11.71,11.64-19.44,16.41-20.87,8.31-19.51-10-21.4a29.85,29.85,0,0,0-3.12-.19Z"/><path class="cls-11" d="M120.35,147.12c-1.72-.36-3.25-1.73-4.34-3.92a17,17,0,0,1-1.44-8.95c.59-6.31,4.17-11.45,8-11.58L121.5,134.9Z"/><path class="cls-4" d="M122,123.23l-1,11.62-1.09,11.63c-3.22-1.16-5.38-6.38-4.84-12.18s3.58-10.48,7-11.07m.7-1.06c-4.18,0-8,5.29-8.65,12-.66,7,2.38,13.09,6.72,13.5l1.2-12.76,1.13-12.75a2.75,2.75,0,0,0-.4,0Z"/><path class="cls-7" d="M120.42,141.3a3.27,3.27,0,0,1-2-2,9.53,9.53,0,0,1-.68-4.81c.3-3.2,1.88-5.84,3.61-6.17l-.58,6.45Z"/><path class="cls-7" d="M120.78,129.09l-.5,5.66-.32,5.78c-1.11-.82-2-3.17-1.71-6,.25-2.65,1.39-4.68,2.53-5.43m.94-1.32c-2.13,0-4.12,2.93-4.47,6.66s1.16,7.2,3.37,7.4h.27l.39-7,.63-7Z"/><path class="cls-12" d="M139.13,125.09s4.69,2.09,6.91-2.31"/><path class="cls-10" d="M124,94.3c-5.7,0-10.39-2.38-11.15-5.67-.5-2.13.73-4.55,3.46-6.83a28.14,28.14,0,0,1,11.42-5.29,20.84,20.84,0,0,1,4.68-.52c7.7,0,13.91,3.61,14.05,4.56-.74,1.54-7.61,9.71-15,12.4A21.8,21.8,0,0,1,124,94.3Z"/><path class="cls-10" d="M132.41,76.49h0c6.9,0,12.48,3,13.46,4.05-1.16,1.82-7.42,9.33-14.55,11.94A21.24,21.24,0,0,1,124,93.8c-5.38,0-10-2.27-10.67-5.28-1-4.19,5.67-9.47,14.51-11.52a19.88,19.88,0,0,1,4.57-.51m0-1a21.12,21.12,0,0,0-4.79.53c-9.55,2.22-16.38,7.92-15.26,12.72.8,3.43,5.6,6.06,11.64,6.06a22.49,22.49,0,0,0,7.67-1.38c7.73-2.83,14.56-11.24,15.26-12.73.58-1.24-6.59-5.2-14.52-5.2Z"/><path class="cls-10" d="M140,111.83c-1.76,0-11.94-1.81-17.47-6.93-3.71-3.44-5.93-8.28-5.81-12.64a7.33,7.33,0,0,1,2.28-5.6,5.59,5.59,0,0,1,3.66-1.19c4.17,0,9.51,3.21,13.61,8.18s5.09,12.8,4.38,16.66c-.24,1.31-.55,1.52-.55,1.52Z"/><path class="cls-10" d="M122.64,86h0c4,0,9.22,3.14,13.23,8,5.14,6.23,4.78,15.79,4,17.35-2.09-.09-11.7-1.89-17-6.79a16.78,16.78,0,0,1-5.65-12.25A6.88,6.88,0,0,1,119.3,87,5.11,5.11,0,0,1,122.64,86m0-1a6.13,6.13,0,0,0-4,1.3c-4,3.3-3.34,12.65,3.51,19,5.59,5.18,15.7,7.07,17.81,7.07h.17c1.66-.12,2.42-11.8-3.51-19-4.34-5.26-9.81-8.36-14-8.36Z"/><path class="cls-10" d="M132.07,101.55c-5.26,0-9.4-1.79-10.07-4.36-1-3.89,6.18-9.28,15.71-11.76a26.28,26.28,0,0,1,6.7-.82c6.94,0,12.27,2.27,12.76,3.13-1,1.67-8.17,9.24-15.77,12.07A27,27,0,0,1,132.07,101.55Z"/><path class="cls-10" d="M144.41,85.11h0c6.15,0,10.91,1.81,12.1,2.7-1.44,1.9-7.95,8.8-15.28,11.53a26.49,26.49,0,0,1-9.16,1.71c-4.95,0-9-1.67-9.59-4-1-4,7.27-9,15.36-11.15a26.17,26.17,0,0,1,6.57-.8m0-1a27.38,27.38,0,0,0-6.83.83c-10,2.6-17.17,8.14-16.07,12.38.73,2.78,5,4.73,10.56,4.73a27.33,27.33,0,0,0,9.51-1.77c8.09-3,15.32-11,16.07-12.37.58-1.07-5.74-3.8-13.24-3.8Z"/><path class="cls-10" d="M144.64,108.3a19.58,19.58,0,0,1-4.93-.57,15.73,15.73,0,0,1-10.12-7.5,5.77,5.77,0,0,1-.55-4.68c.82-2,3.54-3.26,7.28-3.26a24.44,24.44,0,0,1,8.91,1.87,20.93,20.93,0,0,1,10.5,10.42,2.93,2.93,0,0,1,.37,1.6A32.79,32.79,0,0,1,144.64,108.3Z"/><path class="cls-10" d="M136.32,92.79h0A23.84,23.84,0,0,1,145,94.63c6.49,2.6,10.32,9.49,10.57,11.2a33.3,33.3,0,0,1-11,2,18.94,18.94,0,0,1-4.8-.56A15.28,15.28,0,0,1,130,100a5.31,5.31,0,0,1-.53-4.26c.74-1.85,3.29-2.95,6.82-2.95m0-1c-3.84,0-6.81,1.23-7.75,3.57-1.6,4,3,10.75,11,12.85a20.07,20.07,0,0,0,5,.59,31.8,31.8,0,0,0,11.78-2.26c1.22-.73-3.32-9.76-11-12.84a24.76,24.76,0,0,0-9.09-1.91Z"/><path class="cls-10" d="M109.33,123.71c-3.74,0-6.69-.58-8.76-1.74a11.32,11.32,0,0,1-5.67-8.59c-.89-6,1.77-13.49,6.62-18.5a21,21,0,0,1,15-6.54,17.33,17.33,0,0,1,12.15,4.79c4.53,4.39,3.73,13.08,3.17,16.62-.91,5.74-2.87,10-3.87,10.45A56.89,56.89,0,0,1,109.33,123.71Z"/><path class="cls-10" d="M116.49,88.84h0a16.83,16.83,0,0,1,11.8,4.65c4.37,4.22,3.57,12.72,3,16.18-.92,5.83-2.86,9.72-3.59,10.08a56.47,56.47,0,0,1-18.39,3.46c-3.65,0-6.52-.56-8.52-1.68a10.86,10.86,0,0,1-5.41-8.22c-.87-5.91,1.73-13.18,6.48-18.08a20.53,20.53,0,0,1,14.61-6.39m0-1a21.46,21.46,0,0,0-15.33,6.69c-7.92,8.18-10.14,22.69-.84,27.88,2.37,1.31,5.59,1.8,9,1.8,7.89,0,16.84-2.59,18.83-3.56,2.85-1.4,8.29-20.67.83-27.88a17.78,17.78,0,0,0-12.5-4.93Z"/><path class="cls-10" d="M115.85,110.76c-6.47,0-12.67-6.41-14.74-15.23-1.69-7.19,2.46-14.92,5.18-18.35,1.62-2,2.66-2.58,3-2.58,2.37.66,13.9,7.34,17.19,15.07A16.5,16.5,0,0,1,126,103.6a12.81,12.81,0,0,1-8.06,6.91A8.93,8.93,0,0,1,115.85,110.76Z"/><path class="cls-10" d="M109.25,75.11c1.9.62,13.42,6.91,16.75,14.76a16,16,0,0,1-.4,13.5,12.37,12.37,0,0,1-7.73,6.66,9.13,9.13,0,0,1-2,.23c-6.14,0-12.27-6.38-14.25-14.84-1.37-5.81,1.25-12.41,4.15-16.65,1.72-2.53,3.08-3.55,3.5-3.66m0-1c-2.42,0-11,11.61-8.65,21.54,2.15,9.14,8.67,15.62,15.23,15.62a10.16,10.16,0,0,0,2.25-.26c7.26-1.7,12.94-11.83,8.82-21.53-3.46-8.14-15.33-14.74-17.48-15.35a.47.47,0,0,0-.17,0Z"/><path class="cls-10" d="M119.82,103.06a9.63,9.63,0,0,1-3.12-.5c-6.29-2.16-8.91-11.18-5.84-20.08C113.49,74.84,123.48,70,127,70c.5,0,.62.12.62.12,1.51,1.67,7.27,12.61,6,20.3C132.37,98.33,125.61,103.06,119.82,103.06Z"/><path class="cls-10" d="M127,70.49h0a1.47,1.47,0,0,1,.31,0c1.22,1.5,7.1,12.06,5.85,19.81s-7.76,12.23-13.34,12.23a9.12,9.12,0,0,1-2.95-.47c-2.86-1-5-3.51-6.1-7.1a20.55,20.55,0,0,1,.56-12.35C114,74.8,124.14,70.49,127,70.49m0-1c-3.45,0-13.84,4.76-16.62,12.82-3.16,9.19-.4,18.46,6.16,20.72a9.94,9.94,0,0,0,3.28.53c6.07,0,13-4.93,14.33-13.07S129.38,71.32,128,69.77a1.33,1.33,0,0,0-1-.28Z"/><ellipse class="cls-13" cx="143.58" cy="134.36" rx="3.67" ry="2.82" transform="translate(-1.02 267.62) rotate(-85.76)"/><ellipse class="cls-14" cx="143.3" cy="134.31" rx="2.04" ry="1.65" transform="translate(-1.23 267.3) rotate(-85.76)"/><ellipse class="cls-15" cx="142.18" cy="134.62" rx="0.56" ry="0.52" transform="translate(-2.57 266.47) rotate(-85.76)"/><path class="cls-4" d="M143.77,131l-2.33-.17a2.39,2.39,0,0,1,2.29-1.72h.18a2.39,2.39,0,0,1,2.18,2.07Z"/><path class="cls-4" d="M143.73,129.59h.14a1.88,1.88,0,0,1,1.28.65,1.78,1.78,0,0,1,.25.36l-1.6-.13-1.59-.12a1.92,1.92,0,0,1,1.52-.77m0-1a2.9,2.9,0,0,0-2.88,2.67l2.88.22,2.87.23v0a2.91,2.91,0,0,0-2.67-3.09Z"/><path class="cls-16" d="M135.52,158s7.79-.69,8.29,1.46"/></symbol><symbol id="Henrik04" data-name="Henrik04" viewBox="0 0 200 500"><path class="cls-5" d="M133.3,291.75c-.06,0-.22-.08-.41-.39-.72-1.11-1.7-2.79-2.43-4.18a2.1,2.1,0,0,1,0-2.15c.17-.27.31-.34.35-.34s.21.09.4.39c.73,1.17,1.71,2.85,2.42,4.18a2.12,2.12,0,0,1,0,2.15C133.48,291.68,133.35,291.75,133.3,291.75Z"/><path class="cls-5" d="M130.84,285.4c.72,1.16,1.67,2.79,2.37,4.1a1.68,1.68,0,0,1,.07,1.55c-.71-1.11-1.66-2.75-2.38-4.1a1.64,1.64,0,0,1-.06-1.55m0-1.21c-.27,0-.53.2-.77.57a2.63,2.63,0,0,0-.05,2.66c.7,1.3,1.68,3,2.46,4.21.26.42.55.62.83.62a1,1,0,0,0,.77-.57,2.63,2.63,0,0,0,0-2.66c-.69-1.29-1.67-3-2.43-4.2-.26-.42-.55-.63-.83-.63Zm-.78.52s0,0,0,.05,0-.05,0-.05Zm4,7s0,.05,0,.05,0,0,0-.05Z"/><path class="cls-5" d="M133.3,291.75c-.06,0-.22-.08-.41-.39-.72-1.11-1.7-2.79-2.43-4.18a2.1,2.1,0,0,1,0-2.15c.17-.27.31-.34.35-.34s.21.09.4.39c.73,1.17,1.71,2.85,2.42,4.18a2.12,2.12,0,0,1,0,2.15C133.48,291.68,133.35,291.75,133.3,291.75Z"/><path class="cls-5" d="M130.84,285.4c.72,1.16,1.67,2.79,2.37,4.1a1.68,1.68,0,0,1,.07,1.55c-.71-1.11-1.66-2.75-2.38-4.1a1.64,1.64,0,0,1-.06-1.55m0-1.21c-.27,0-.53.2-.77.57a2.63,2.63,0,0,0-.05,2.66c.7,1.3,1.68,3,2.46,4.21.26.42.55.62.83.62a1,1,0,0,0,.77-.57,2.63,2.63,0,0,0,0-2.66c-.69-1.29-1.67-3-2.43-4.2-.26-.42-.55-.63-.83-.63Zm-.78.52s0,0,0,.05,0-.05,0-.05Zm4,7s0,.05,0,.05,0,0,0-.05Z"/><path class="cls-4" d="M128.67,290c-1,0-1.48-.63-1.92-2.57-.28-1.26-.73-3.66-.9-5a7,7,0,0,1,1.56-6l.07-.08a5.43,5.43,0,0,1,.78-.08c1,0,1.52.62,2,2.55.3,1.27.75,3.6.9,4.89a7.25,7.25,0,0,1-1.58,6.08l-.08.08A3.9,3.9,0,0,1,128.67,290Z"/><path class="cls-4" d="M128.26,276.8h0c.59,0,1,.15,1.49,2.16.3,1.27.74,3.56.9,4.84a6.79,6.79,0,0,1-1.42,5.64,3.06,3.06,0,0,1-.56.06c-.57,0-1-.16-1.43-2.18-.28-1.25-.72-3.62-.89-4.93a6.47,6.47,0,0,1,1.38-5.54,3.61,3.61,0,0,1,.53-.05m0-1a4.68,4.68,0,0,0-.93.11.56.56,0,0,0-.3.23,7.44,7.44,0,0,0-1.68,6.38c.18,1.37.64,3.8.91,5,.43,1.89,1,3,2.41,3a4.64,4.64,0,0,0,1-.13.66.66,0,0,0,.3-.23,7.74,7.74,0,0,0,1.69-6.46c-.17-1.38-.63-3.75-.92-4.95-.44-1.89-1-2.93-2.46-2.93Z"/><path class="cls-4" d="M130.38,301.79c-1.46,0-2.16-.91-2.79-3.59-.39-1.67-1.1-5.19-1.35-7.18-.45-3.54.18-6,2.17-8.36.17-.21.26-.26.3-.26a5.28,5.28,0,0,1,1.17-.14c1.51,0,2.19.86,2.81,3.57.38,1.63,1.08,5.13,1.35,7.16.46,3.53-.13,5.88-2.13,8.36a.83.83,0,0,1-.31.28A5.85,5.85,0,0,1,130.38,301.79Z"/><path class="cls-4" d="M129.88,282.76h0c1.1,0,1.7.46,2.33,3.18.37,1.63,1.06,5.1,1.33,7.12.45,3.37-.12,5.61-2,8l-.11.12a5.26,5.26,0,0,1-1,.13c-1,0-1.66-.48-2.3-3.2-.39-1.66-1.1-5.16-1.35-7.14-.43-3.42.14-5.66,2.06-8l.1-.11a4.74,4.74,0,0,1,1-.11m0-1a6.38,6.38,0,0,0-1.28.15,1.18,1.18,0,0,0-.58.43c-2.19,2.64-2.72,5.24-2.28,8.74.25,2,1,5.48,1.36,7.24.6,2.56,1.34,4,3.28,4a5.77,5.77,0,0,0,1.34-.18,1.16,1.16,0,0,0,.58-.44,10.41,10.41,0,0,0,2.23-8.74c-.26-2-.94-5.46-1.35-7.22-.6-2.59-1.32-3.95-3.3-3.95Z"/><path class="cls-4" d="M128.67,290c-1,0-1.48-.63-1.92-2.57-.28-1.26-.73-3.66-.9-5a7,7,0,0,1,1.56-6l.07-.08a5.43,5.43,0,0,1,.78-.08c1,0,1.52.62,2,2.55.3,1.27.75,3.6.9,4.89a7.25,7.25,0,0,1-1.58,6.08l-.08.08A3.9,3.9,0,0,1,128.67,290Z"/><path class="cls-4" d="M128.26,276.8h0c.59,0,1,.15,1.49,2.16.3,1.27.74,3.56.9,4.84a6.79,6.79,0,0,1-1.42,5.64,3.06,3.06,0,0,1-.56.06c-.57,0-1-.16-1.43-2.18-.28-1.25-.72-3.62-.89-4.93a6.47,6.47,0,0,1,1.38-5.54,3.61,3.61,0,0,1,.53-.05m0-1a4.68,4.68,0,0,0-.93.11.56.56,0,0,0-.3.23,7.44,7.44,0,0,0-1.68,6.38c.18,1.37.64,3.8.91,5,.43,1.89,1,3,2.41,3a4.64,4.64,0,0,0,1-.13.66.66,0,0,0,.3-.23,7.74,7.74,0,0,0,1.69-6.46c-.17-1.38-.63-3.75-.92-4.95-.44-1.89-1-2.93-2.46-2.93Z"/><path class="cls-4" d="M130.38,301.79c-1.46,0-2.16-.91-2.79-3.59-.39-1.67-1.1-5.19-1.35-7.18-.45-3.54.18-6,2.17-8.36.17-.21.26-.26.3-.26a5.28,5.28,0,0,1,1.17-.14c1.51,0,2.19.86,2.81,3.57.38,1.63,1.08,5.13,1.35,7.16.46,3.53-.13,5.88-2.13,8.36a.83.83,0,0,1-.31.28A5.85,5.85,0,0,1,130.38,301.79Z"/><path class="cls-4" d="M129.88,282.76h0c1.1,0,1.7.46,2.33,3.18.37,1.63,1.06,5.1,1.33,7.12.45,3.37-.12,5.61-2,8l-.11.12a5.26,5.26,0,0,1-1,.13c-1,0-1.66-.48-2.3-3.2-.39-1.66-1.1-5.16-1.35-7.14-.43-3.42.14-5.66,2.06-8l.1-.11a4.74,4.74,0,0,1,1-.11m0-1a6.38,6.38,0,0,0-1.28.15,1.18,1.18,0,0,0-.58.43c-2.19,2.64-2.72,5.24-2.28,8.74.25,2,1,5.48,1.36,7.24.6,2.56,1.34,4,3.28,4a5.77,5.77,0,0,0,1.34-.18,1.16,1.16,0,0,0,.58-.44,10.41,10.41,0,0,0,2.23-8.74c-.26-2-.94-5.46-1.35-7.22-.6-2.59-1.32-3.95-3.3-3.95Z"/><path class="cls-3" d="M123.64,252c-2-.16-2.14-.17-2.15-2.79,0-7.84.44-16.58.92-25,.12-2.12.23-4.21.34-6.23.16-3.14.87-4.25,2.59-6.61l.29,0c1.88.19,2.08.21,2.12,2.8.09,6-.27,12.66-.62,19.11-.21,4-.44,8.25-.54,12.13-.08,3.18-1,4.35-2.71,6.6Z"/><path class="cls-3" d="M125.58,211.88h0a3.82,3.82,0,0,1,1.37.27c.12.13.27.59.3,2,.09,6-.27,12.63-.61,19.06-.22,4.07-.45,8.26-.55,12.16-.08,2.92-.82,4-2.44,6.09a3.76,3.76,0,0,1-1.4-.24c-.1-.1-.25-.5-.26-2.05,0-7.83.44-16.56.92-25,.12-2.12.23-4.21.34-6.23.15-2.86.72-3.89,2.33-6.1m-.41-1c-.06,0-.12.07-.17.13-1.76,2.42-2.58,3.64-2.75,7-.52,10-1.32,21.44-1.26,31.29,0,3.29.6,3.11,3.05,3.32h0c.06,0,.12-.07.17-.13,1.85-2.38,2.78-3.63,2.87-7,.26-10,1.31-21.44,1.16-31.27-.06-3.28-.68-3.08-3.07-3.34Z"/><path class="cls-3" d="M127.7,282c-1.91-.14-2.06-.15-2.55-2.71-2.34-12.14-3.53-22-3.64-30.19,0-3,1-4.3,2.72-6.45l.1-.13h.08c2.13.19,2.17.19,2.19,2.83a201.83,201.83,0,0,0,2.93,30.39c.5,3-.09,3.93-1.53,6.27h0Z"/><path class="cls-3" d="M124.56,243.07a3.58,3.58,0,0,1,1.3.23,5,5,0,0,1,.24,2.09A202.58,202.58,0,0,0,129,275.85c.46,2.68,0,3.57-1.3,5.68-1.67-.12-1.68-.13-2.09-2.3-2.33-12.12-3.52-22-3.63-30.1,0-2.81.88-4,2.55-6.06m-.38-1c-.07,0-.14.09-.19.14-1.85,2.32-3,3.68-3,7,.13,9.85,1.82,20.79,3.65,30.28.6,3.16,1,2.95,3.53,3.14h0c.06,0,.12-.07.15-.13,1.51-2.46,2.22-3.53,1.68-6.74a204.17,204.17,0,0,1-2.92-30.31c0-3.22-.45-3.13-2.92-3.35Z"/><path class="cls-3" d="M123.64,252c-2-.16-2.14-.17-2.15-2.79,0-7.84.44-16.58.92-25,.12-2.12.23-4.21.34-6.23.16-3.14.87-4.25,2.59-6.61l.29,0c1.88.19,2.08.21,2.12,2.8.09,6-.27,12.66-.62,19.11-.21,4-.44,8.25-.54,12.13-.08,3.18-1,4.35-2.71,6.6Z"/><path class="cls-3" d="M125.58,211.88h0a3.82,3.82,0,0,1,1.37.27c.12.13.27.59.3,2,.09,6-.27,12.63-.61,19.06-.22,4.07-.45,8.26-.55,12.16-.08,2.92-.82,4-2.44,6.09a3.76,3.76,0,0,1-1.4-.24c-.1-.1-.25-.5-.26-2.05,0-7.83.44-16.56.92-25,.12-2.12.23-4.21.34-6.23.15-2.86.72-3.89,2.33-6.1m-.41-1c-.06,0-.12.07-.17.13-1.76,2.42-2.58,3.64-2.75,7-.52,10-1.32,21.44-1.26,31.29,0,3.29.6,3.11,3.05,3.32h0c.06,0,.12-.07.17-.13,1.85-2.38,2.78-3.63,2.87-7,.26-10,1.31-21.44,1.16-31.27-.06-3.28-.68-3.08-3.07-3.34Z"/><path class="cls-3" d="M127.7,282c-1.91-.14-2.06-.15-2.55-2.71-2.34-12.14-3.53-22-3.64-30.19,0-3,1-4.3,2.72-6.45l.1-.13h.08c2.13.19,2.17.19,2.19,2.83a201.83,201.83,0,0,0,2.93,30.39c.5,3-.09,3.93-1.53,6.27h0Z"/><path class="cls-3" d="M124.56,243.07a3.58,3.58,0,0,1,1.3.23,5,5,0,0,1,.24,2.09A202.58,202.58,0,0,0,129,275.85c.46,2.68,0,3.57-1.3,5.68-1.67-.12-1.68-.13-2.09-2.3-2.33-12.12-3.52-22-3.63-30.1,0-2.81.88-4,2.55-6.06m-.38-1c-.07,0-.14.09-.19.14-1.85,2.32-3,3.68-3,7,.13,9.85,1.82,20.79,3.65,30.28.6,3.16,1,2.95,3.53,3.14h0c.06,0,.12-.07.15-.13,1.51-2.46,2.22-3.53,1.68-6.74a204.17,204.17,0,0,1-2.92-30.31c0-3.22-.45-3.13-2.92-3.35Z"/><path class="cls-6" d="M119.57,276.48a311,311,0,0,1-33.64-2.9c-.2-9.83,3.56-29.11,5.76-37.3.58-2.15,1.13-4.26,1.67-6.34,4.55-17.55,8.48-32.71,23.36-41.75a2.71,2.71,0,0,1,1-.48c.22,0,.52.2,1.1.73,15.39,13.83,12,27.93,7.22,47.45l-1,3.89C123.57,246.31,119.59,265.42,119.57,276.48Z"/><path class="cls-6" d="M117.75,188.22a3.12,3.12,0,0,1,.78.59c15.16,13.63,11.77,27.61,7.06,47l-.94,3.9c-1.54,6.44-5.44,25.11-5.57,36.29a306.55,306.55,0,0,1-32.65-2.82c-.09-9.89,3.58-28.68,5.75-36.73q.85-3.22,1.66-6.35c4.53-17.44,8.44-32.51,23.14-41.44a3.8,3.8,0,0,1,.77-.4m0-1a2.74,2.74,0,0,0-1.3.56c-16.81,10.21-19.76,28-25.25,48.38-2.07,7.7-6.1,27.76-5.77,37.86a314.44,314.44,0,0,0,34.64,3c-.11-10.26,3.58-28.88,5.54-37.1,5.2-21.75,10.2-36.89-6.42-51.83-.66-.59-1-.86-1.44-.86Z"/><path class="cls-7" d="M117.88,196.06l-.52,0a4.23,4.23,0,0,1-3-1.39,4.87,4.87,0,0,1-.94-3.67c.38-4.39,1.12-10.08,1.82-14.16.35-2,1.41-4.38,4.49-4.38l.42,0c3.39.22,4,2.82,3.92,5a115.55,115.55,0,0,1-1.8,14.35C121.94,193.73,120.88,196.06,117.88,196.06Z"/><path class="cls-7" d="M119.75,172.94l.39,0c2.43.16,3.56,1.61,3.45,4.45a117.24,117.24,0,0,1-1.79,14.27c-.47,2.58-1.79,3.88-3.92,3.88a3.93,3.93,0,0,1-.48,0,3.68,3.68,0,0,1-2.64-1.21,4.45,4.45,0,0,1-.83-3.31c.39-4.37,1.12-10.05,1.82-14.12.46-2.62,1.8-4,4-4m.48-1.21s0,.08,0,.23c0-.16,0-.23,0-.23Zm-.48.21c-2.81,0-4.46,1.8-5,4.79-.74,4.25-1.45,9.92-1.83,14.2-.28,3.18,1.35,5.36,4.38,5.61l.56,0c2.7,0,4.37-1.73,4.91-4.7a116.41,116.41,0,0,0,1.8-14.42c.12-3.22-1.29-5.28-4.38-5.48l-.46,0Zm-2.51,24.59c-.35,0-.22.22-.09.22s.15-.06.17-.21Z"/><path class="cls-1" d="M132.89,464.26q-6.58-3-13.18-5.91c14.53-50.06,9-107.53-15.11-157.82,4.5-2.7,8.62-5.1,12.57-7.33C144.55,352.84,150.13,413.55,132.89,464.26Z"/><path class="cls-1" d="M116.94,293.91c12.77,27.94,20.83,56.11,23.93,83.72,3.43,30.53.65,59.43-8.28,85.95-3.85-1.74-8.11-3.66-12.28-5.51,14.38-49.94,8.89-107.19-15.06-157.34,4.16-2.5,8-4.74,11.69-6.82m.45-1.41c-4.52,2.54-9,5.17-13.44,7.84,23.51,48.72,30.42,106.15,15.16,158.29,4.7,2.08,9.39,4.2,14.07,6.31,19.5-56.76,8.92-118.88-15.79-172.44Z"/><path class="cls-2" d="M140.8,468.91a5.67,5.67,0,0,1-1.52-.25,68.41,68.41,0,0,1-9.95-3.7c-1.92-.88-4.14-1.76-6.3-2.6-1.19-.47-2.41-1-3.57-1.44l.74-.38c2.9-1.48,5.64-2.89,8.67-2.89a10.33,10.33,0,0,1,3.51.63c4.36,1.56,6.38,5.2,8.51,9.05l.86,1.54h-.05l-.5,0Z"/><path class="cls-2" d="M128.87,458.15a9.86,9.86,0,0,1,3.34.6c4.18,1.5,6.16,5.06,8.25,8.83.15.27.3.55.46.82h-.12a5.15,5.15,0,0,1-1.39-.24,66.48,66.48,0,0,1-9.87-3.66c-1.93-.89-4.17-1.77-6.33-2.62l-2.55-1c2.76-1.41,5.38-2.72,8.21-2.72m0-1c-3.75,0-7,2-10.61,3.81,3.44,1.47,7.58,3,10.86,4.45a67.45,67.45,0,0,0,10,3.73,6.07,6.07,0,0,0,1.64.27c.31,0,.56,0,.9,0a6.78,6.78,0,0,1,1,.08c-2.78-4.69-4.68-9.69-10.12-11.64a10.86,10.86,0,0,0-3.68-.66Z"/><path class="cls-1" d="M141.45,470.54q-11.62-4-23.24-8.05l.33-1.12,4.5,1.55,18.78,6.48Z"/><path class="cls-1" d="M118.87,462l4,1.39,18.31,6.32-.06.18c-7.41-2.54-14.79-5.11-22.3-7.72l0-.17m-.66-1.28c-.21.69-.41,1.38-.61,2.08q12.08,4.2,24.17,8.37l.68-2.09-24.24-8.36Z"/><path class="cls-1" d="M74.77,461.77q-8.73-2.64-17.46-5.3c3.56-18.32,8.53-36.58,13.33-54.25,9.48-34.89,19.28-71,18.52-108.66,4.93-.18,10.22-.34,16.14-.5,1,36.42-8,71.64-16.69,105.71C83.39,419.27,78,440.45,74.77,461.77Z"/><path class="cls-1" d="M104.81,293.57c.89,36.18-8,71.2-16.68,105.08C83,419,77.59,440,74.36,461.12l-16.47-5c3.55-18.16,8.47-36.26,13.23-53.78C80.57,367.58,90.34,331.63,89.67,294c4.63-.17,9.61-.32,15.14-.47m1-1c-5.72.16-11.43.33-17.14.54,1.3,57-21.3,108.79-31.92,163.74l18.45,5.6c8.52-57.2,32.34-111.13,30.61-169.88Z"/><path class="cls-2" d="M84.16,466a8.54,8.54,0,0,1-1.24-.14,73.39,73.39,0,0,1-12.41-3.6c-2.41-.92-5.29-1.75-8.07-2.55-1.73-.51-3.51-1-5.16-1.55h0c3.75-3,7-5.64,11.25-5.64a12.22,12.22,0,0,1,3.34.49c6.19,1.74,9.73,7.08,13.38,12.82a3.63,3.63,0,0,0-.56.1A1.62,1.62,0,0,1,84.16,466Z"/><path class="cls-2" d="M68.54,453a11.92,11.92,0,0,1,3.2.47c5.79,1.63,9.24,6.57,12.71,12a1.12,1.12,0,0,1-.29,0,7.42,7.42,0,0,1-1.16-.13,73.39,73.39,0,0,1-12.31-3.57c-2.43-.93-5.32-1.77-8.11-2.58-1.42-.41-2.88-.83-4.26-1.26,3.38-2.71,6.4-4.95,10.22-4.95m0-1c-4.72,0-8.15,3-12.29,6.34,4.42,1.49,9.92,2.79,14.08,4.38a73,73,0,0,0,12.51,3.62,8.1,8.1,0,0,0,1.32.15c.66,0,.69-.2,1.48-.2l.54,0c-3.88-6.11-7.51-11.94-14.17-13.81a12.73,12.73,0,0,0-3.47-.51Z"/><path class="cls-1" d="M85.16,467.79c-8.71-2.25-18.14-4.73-28.82-7.55.08-.55.15-1.11.23-1.67,10.55,2.83,20,5.32,28.82,7.62Z"/><path class="cls-1" d="M57,459.2c10.17,2.72,19.3,5.14,27.84,7.36l-.07.49,0,.12c-8.43-2.19-17.56-4.58-27.84-7.3l.09-.67m-.84-1.26-.36,2.67q14.88,3.94,29.79,7.81c.12-.87.24-1.74.37-2.6q-14.92-3.88-29.8-7.88Z"/><rect class="cls-8" width="200" height="500"/><path class="cls-1" d="M103.9,314a2.87,2.87,0,0,1-1.15-.31c-14-6.13-15.89-19.54-17-36.43,0-.71,0-2.47.06-3.75l0-.56c9.91.65,20.62,1.53,33.62,2.77,0,.73-.27,6.12-.27,6.12-.59,13.36-1.15,26-14.16,31.85a2.75,2.75,0,0,1-1.13.31Z"/><path class="cls-1" d="M86.32,273.48c9.64.64,20.06,1.5,32.62,2.69,0,.66-.06,1.44-.09,2.12l-.07,1.45-.09,2.08c-.58,13.2-1.14,25.66-13.86,31.41a2.4,2.4,0,0,1-.93.27,2.48,2.48,0,0,1-1-.27c-13.69-6-15.61-19.28-16.69-36,0-.68,0-2.42.06-3.69v0m-1-1.06c0,1.2-.15,3.91-.08,4.87,1,15,2.41,30.33,17.28,36.86a3.29,3.29,0,0,0,1.35.35,3.21,3.21,0,0,0,1.34-.36c14-6.31,13.89-20.42,14.54-34.35,0-.89.15-3.4.21-4.52-11.54-1.11-23.08-2.1-34.64-2.85Z"/><path class="cls-5" d="M108.89,301.81c-.16,0-.38-.16-.62-.43a26.22,26.22,0,0,1-2.65-3.67,1.6,1.6,0,0,1-.1-1.89c.11-.14.26-.31.41-.31s.27.05.61.43a23,23,0,0,1,2.62,3.57,1.77,1.77,0,0,1,.13,2C109.2,301.63,109.05,301.81,108.89,301.81Z"/><path class="cls-5" d="M106,296.07a1.71,1.71,0,0,1,.21.2,22.89,22.89,0,0,1,2.55,3.49c.52.9.26,1.3.16,1.45l0,0a1.59,1.59,0,0,1-.2-.19,26.42,26.42,0,0,1-2.6-3.6c-.49-.84-.23-1.19-.12-1.34l0-.05m0-1.06a1,1,0,0,0-.81.51,2.11,2.11,0,0,0,.06,2.44,27.32,27.32,0,0,0,2.71,3.75,1.45,1.45,0,0,0,1,.6,1,1,0,0,0,.82-.54,2.28,2.28,0,0,0-.12-2.51,23.73,23.73,0,0,0-2.68-3.66,1.48,1.48,0,0,0-1-.59Zm-.88.39s0,0,.07.12-.05-.12-.07-.12Zm4.66,6.37c-.07.1,0,.14,0,.14s.07,0,0-.14Z"/><path class="cls-3" d="M100.38,253.34a6.22,6.22,0,0,0-.84-1.41c-.55-.76-.78-1.07.14-2.77a171,171,0,0,0,8.21-18.55c1.34-3.4,2.74-6.92,4.21-10.27a13.63,13.63,0,0,1,3.77-4.66c.66-.61,1.34-1.23,2-1.93a11.31,11.31,0,0,0,.73,1.25c.64,1,.87,1.36,0,3.43-1.33,3.19-2.63,6.61-3.88,9.91-2.66,7-5.4,14.3-9,20.57a7.32,7.32,0,0,1-3.35,3.17A17.08,17.08,0,0,0,100.38,253.34Z"/><path class="cls-3" d="M117.75,214.59c.15.26.29.48.42.68.58.9.73,1.14,0,3-1.34,3.19-2.63,6.61-3.88,9.92-2.66,7-5.4,14.26-9,20.5a6.81,6.81,0,0,1-3.16,3c-.47.26-1,.55-1.55.93-.22-.39-.44-.69-.62-1-.48-.66-.6-.81.17-2.24a168.88,168.88,0,0,0,8.23-18.6c1.35-3.39,2.74-6.9,4.2-10.25a13.29,13.29,0,0,1,3.66-4.49c.5-.47,1-.94,1.54-1.46M118,213a.41.41,0,0,0-.23.13c-2.17,2.46-4.76,3.88-6.15,7-4.16,9.5-7.49,19.75-12.4,28.78-1.63,3,.08,2.61.86,5.11,0,0,0,0,.07,0a.35.35,0,0,0,.17-.06c2.42-1.95,4-1.74,5.81-4.84,5.33-9.31,8.77-20.69,12.9-30.54,1.38-3.28.12-3-1-5.64l0,0Z"/><path class="cls-3" d="M101.51,293.87a5.51,5.51,0,0,0-1.73-.79c-.78-.23-1.17-.35-1.67-2.54-2.45-10.92-1.92-27.34,1.3-39.93a4.36,4.36,0,0,1,2.9-3.32,8.33,8.33,0,0,0,2.35-1.52,12.65,12.65,0,0,0,.51,1.22c.46,1,.64,1.37,0,3.74-2.46,10-3.27,24.35-2.07,36.65a6.94,6.94,0,0,1-.78,4.38A15,15,0,0,0,101.51,293.87Z"/><path class="cls-3" d="M104.45,246.61l.27.59c.42.91.56,1.21,0,3.41-2.47,10-3.29,24.46-2.08,36.82a6.5,6.5,0,0,1-.75,4.12c-.21.45-.45.95-.67,1.56a6,6,0,0,0-1.32-.51c-.67-.2-.89-.27-1.32-2.17-2.44-10.85-1.9-27.17,1.3-39.7a3.86,3.86,0,0,1,2.62-3,9.84,9.84,0,0,0,1.93-1.13m.41-1.66a.31.31,0,0,0-.2.09c-2.1,2.43-4.73,1.51-5.73,5.44-3,11.8-4,28.32-1.31,40.17.89,4,1.76,2,4.06,4h0c.06,0,.14-.12.16-.19.78-3,2.14-3.42,1.78-7.13-1.08-11.11-.6-25.7,2.06-36.48.88-3.59.07-3.06-.79-5.86,0,0,0,0-.06,0Z"/><path class="cls-4" d="M103.42,301.39c-1.9-.48-2.66-.87-3.38-2.64a13.17,13.17,0,0,1-.94-4,11.68,11.68,0,0,1,1.8-6c1.84.53,2.57.93,3.19,2.7a16,16,0,0,1,.83,4A12.55,12.55,0,0,1,103.42,301.39Z"/><path class="cls-4" d="M101.15,289.32a3,3,0,0,1,2.47,2.27,15.8,15.8,0,0,1,.8,3.84,11.46,11.46,0,0,1-1.28,5.37,3.19,3.19,0,0,1-2.64-2.24,12.58,12.58,0,0,1-.9-3.85,10.46,10.46,0,0,1,1.55-5.39m-.36-1.14c-.1,0-.23.13-.29.23a12.14,12.14,0,0,0-1.9,6.32,13.63,13.63,0,0,0,1,4.21c.85,2.09,1.88,2.48,4,3h0c.1,0,.23-.14.27-.24a13.37,13.37,0,0,0,1.59-6.31,16.57,16.57,0,0,0-.86-4.13c-.73-2.08-1.72-2.51-3.74-3.08Z"/><path class="cls-4" d="M105.92,313.48c-2.78-.72-3.84-1.26-4.74-4.1A34.79,34.79,0,0,1,99.86,303c-.25-3.32.78-5.75,2-8.34a.38.38,0,0,1,.11-.14c2.71.71,3.82,1,4.87,3.64a22.32,22.32,0,0,1,1.49,6.11c.17,3.23-.8,6-2.32,9A.64.64,0,0,1,105.92,313.48Z"/><path class="cls-4" d="M102.25,295.06c2.39.62,3.26.95,4.18,3.25a21.52,21.52,0,0,1,1.45,5.95c.16,3.07-.75,5.68-2.19,8.65-2.36-.65-3.24-1.19-4-3.68a34.42,34.42,0,0,1-1.29-6.31c-.22-2.85.46-4.91,1.89-7.86M102,294a.73.73,0,0,0-.54.43c-1.41,2.87-2.35,5.28-2.09,8.6a34.53,34.53,0,0,0,1.33,6.53c1,3.06,2.23,3.69,5.19,4.46H106c.21,0,.46-.28.56-.5,1.48-3,2.55-5.87,2.37-9.3a22.77,22.77,0,0,0-1.53-6.27c-1.15-2.9-2.49-3.23-5.29-3.95Z"/><path class="cls-9" d="M147.07,150.3s4.31,1.49,1.92,3.5-2.21-.19-2.21-.19"/><path class="cls-4" d="M121.89,180.27c-.82,0-1.65,0-2.49-.11-14.08-1.22-23.38-19.29-23.27-21.64.83-17.17,4.22-49.64,4.35-50.36l-.48.39-.5-.48,1,0c.85-9.93,11.11-17.42,23.84-17.42.92,0,1.86,0,2.79.12,13.76,1.19,24.2,10.89,23.27,21.62L146,162.79C143.18,170.87,135.16,180.27,121.89,180.27Z"/><path class="cls-4" d="M124.34,90.18v1c.91,0,1.83,0,2.75.12,13.48,1.16,23.71,10.62,22.81,21.07l-4.35,50.31c-2.82,7.91-10.69,17.09-23.66,17.09-.8,0-1.63,0-2.45-.11-13.48-1.17-22.91-18.9-22.81-21.12.8-16.71,4.14-49,4.35-50.3l-.59-.11h.6c.84-9.67,10.88-17,23.35-17v-1m0,0c-12.82,0-23.45,7.6-24.34,17.88h0c-.08,0-3.54,33.27-4.36,50.45-.14,2.77,9.66,20.94,23.72,22.16.86.07,1.7.11,2.53.11,12.68,0,21.35-8.5,24.64-17.87l4.37-50.44c.95-11-9.67-20.94-23.73-22.16-1-.08-1.89-.12-2.83-.12Z"/><path class="cls-10" d="M106.79,153.09h-.31c-1.88-.17-3.54-1.79-4.69-4.59a23.4,23.4,0,0,1-1.32-10.62c.67-7.69,4.35-14,8.22-14l.31,0c1.88.16,3.55,1.79,4.7,4.58A23.4,23.4,0,0,1,115,139.13C114.35,146.83,110.66,153.09,106.79,153.09Z"/><path class="cls-10" d="M108.69,124.41h0l.27,0c3.27.28,6.29,6.24,5.56,14.66-.65,7.44-4.11,13.5-7.73,13.5h-.26c-1.66-.15-3.22-1.7-4.28-4.28A22.78,22.78,0,0,1,101,137.92c.64-7.45,4.11-13.51,7.72-13.51m0-1c-4.16,0-8,6.32-8.72,14.42-.72,8.32,2.18,15.37,6.47,15.74l.35,0c4.16,0,8-6.32,8.72-14.42.72-8.32-2.17-15.37-6.46-15.74l-.36,0Z"/><path class="cls-10" d="M106.93,153.16a9.06,9.06,0,0,1-2-.25c-8.49-1.92-8.73-5.46-9.45-16-.1-1.5-.21-3.13-.36-4.91-.66-8.09.29-13.41,2.92-16.27,1.65-1.78,4-2.62,7.31-2.62.85,0,1.78,0,2.93.16l4.5.4c7.33.63,12.62,1.08,13.75,3.65s-1.41,7.45-8.41,16.48c-2.57,3.32-3.7,7.29-4.7,10.8C112,149.4,111,153.16,106.93,153.16Z"/><path class="cls-10" d="M105.32,113.64h0c.84,0,1.75,0,2.88.16l4.5.4c7.16.61,12.33,1,13.34,3.35s-1.56,7.22-8.35,16c-2.62,3.39-3.77,7.42-4.78,11-1.48,5.21-2.49,8.16-6,8.16a8.68,8.68,0,0,1-1.92-.24c-8.12-1.83-8.34-5-9.06-15.52-.1-1.47-.21-3.13-.36-4.91-.64-7.84.3-13.18,2.79-15.89,1.54-1.68,3.75-2.46,6.94-2.46m0-1c-6.36,0-12.09,2.83-10.72,19.43,1.17,14.28.08,19,10.19,21.33a9.64,9.64,0,0,0,2.14.26c7.55,0,5.52-11.73,11.55-19.52,16.27-21,8.18-19.58-10.18-21.33-1-.1-2-.17-3-.17Z"/><path class="cls-11" d="M121.53,152.15c-1.73-.35-3.27-1.71-4.37-3.9a16.7,16.7,0,0,1-1.5-8.93c.54-6.32,4.08-11.48,7.92-11.64l-1,12.24Z"/><path class="cls-4" d="M123,128.24l-.94,11.63-1,11.64A6.7,6.7,0,0,1,117.6,148a16.43,16.43,0,0,1-1.45-8.67c.5-5.76,3.51-10.51,6.88-11.12m.73-1.06c-4.19,0-8,5.33-8.6,12.09-.61,7,2.47,13.07,6.82,13.45l1.1-12.76,1-12.77Z"/><path class="cls-7" d="M121.55,146.32c-1.78-.4-3-3.41-2.72-6.8.28-3.2,1.84-5.85,3.57-6.2l-.53,6.47Z"/><path class="cls-7" d="M121.83,134.11l-.46,5.67-.28,5.78a3.52,3.52,0,0,1-1.09-1.44,9.34,9.34,0,0,1-.67-4.56c.23-2.66,1.36-4.69,2.5-5.45m.94-1.32c-2.13,0-4.11,3-4.43,6.69s1.21,7.19,3.42,7.38H122l.34-7,.57-7Z"/><path class="cls-12" d="M140.14,130s4.71,2,6.9-2.37"/><path class="cls-10" d="M124.65,99.3c-5.62,0-10.27-2.35-11.05-5.59-.51-2.12.71-4.56,3.42-6.85a28,28,0,0,1,11.38-5.38,21.07,21.07,0,0,1,4.85-.55c7.61,0,13.77,3.53,13.91,4.46-.73,1.55-7.54,9.77-14.87,12.51A21.9,21.9,0,0,1,124.65,99.3Z"/><path class="cls-10" d="M133.25,80.43v1c6.82,0,12.34,2.89,13.32,4-1.14,1.82-7.35,9.38-14.46,12a21.34,21.34,0,0,1-7.46,1.37c-5.3,0-9.85-2.24-10.56-5.21-1-4.17,5.6-9.5,14.43-11.62a20.58,20.58,0,0,1,4.73-.54v-1m0,0a21,21,0,0,0-5,.57c-9.53,2.29-16.32,8-15.17,12.83.81,3.39,5.57,6,11.53,6a22.2,22.2,0,0,0,7.81-1.44c7.71-2.87,14.48-11.33,15.17-12.83.57-1.23-6.52-5.1-14.38-5.1Z"/><path class="cls-10" d="M141,116.72s0,0-.07,0h-.05c-2,0-12-1.77-17.49-6.8-3.74-3.41-6-8.24-5.9-12.6a7.31,7.31,0,0,1,2.23-5.61,5.62,5.62,0,0,1,3.71-1.22c4.16,0,9.51,3.17,13.62,8.08s5.17,12.77,4.49,16.63C141.32,116.5,141,116.72,141,116.72Z"/><path class="cls-10" d="M123.43,91h0c4,0,9.21,3.1,13.23,7.9,5.19,6.2,4.9,15.77,4.09,17.33-2.26-.07-11.73-1.84-17-6.67A16.79,16.79,0,0,1,118,97.32,6.89,6.89,0,0,1,120,92.08a5.15,5.15,0,0,1,3.39-1.1m0-1a6.16,6.16,0,0,0-4,1.33c-4,3.33-3.25,12.67,3.65,19,5.6,5.11,15.67,6.93,17.83,6.93h.2c1.66-.13,2.34-11.82-3.65-19-4.35-5.2-9.81-8.26-14-8.26Z"/><path class="cls-10" d="M132.76,106.5c-5.18,0-9.27-1.77-9.94-4.29-.49-1.82.84-4.11,3.65-6.31a34.26,34.26,0,0,1,12-5.57,26.85,26.85,0,0,1,6.91-.87c6.82,0,12.07,2.21,12.56,3.05-1,1.67-8.11,9.29-15.68,12.18A27,27,0,0,1,132.76,106.5Z"/><path class="cls-10" d="M145.36,89v1h0c6,0,10.72,1.76,11.9,2.62-1.42,1.92-7.89,8.85-15.2,11.64a26.44,26.44,0,0,1-9.3,1.78c-4.87,0-8.85-1.65-9.46-3.92-.43-1.61.84-3.72,3.48-5.79a34.12,34.12,0,0,1,11.8-5.48,26.34,26.34,0,0,1,6.78-.85V89m0,0a27.29,27.29,0,0,0-7,.89c-10,2.67-17.12,8.26-16,12.49.74,2.74,4.94,4.66,10.43,4.66a27.46,27.46,0,0,0,9.66-1.84c8.07-3.08,15.25-11.11,16-12.49.57-1.06-5.64-3.71-13-3.71Z"/><path class="cls-10" d="M145.35,113.15a19.63,19.63,0,0,1-4.74-.53,15.78,15.78,0,0,1-10.18-7.43,5.77,5.77,0,0,1-.58-4.67c.81-2.08,3.57-3.31,7.38-3.31A24.43,24.43,0,0,1,146,99a21,21,0,0,1,10.58,10.34A3.1,3.1,0,0,1,157,111,32.57,32.57,0,0,1,145.35,113.15Z"/><path class="cls-10" d="M137.23,97.71h0a23.88,23.88,0,0,1,8.61,1.77c6.51,2.56,10.39,9.42,10.65,11.13a33.48,33.48,0,0,1-11.14,2,18.7,18.7,0,0,1-4.62-.52,15.25,15.25,0,0,1-9.86-7.17,5.33,5.33,0,0,1-.56-4.26c.74-1.87,3.32-3,6.92-3m0-1c-3.9,0-6.91,1.25-7.85,3.62-1.58,4,3.07,10.73,11.1,12.77a19.67,19.67,0,0,0,4.87.55,32.33,32.33,0,0,0,12-2.33c1.21-.74-3.39-9.74-11.1-12.77a25.08,25.08,0,0,0-9-1.84Z"/><path class="cls-10" d="M110.09,128.82a18.1,18.1,0,0,1-8.53-1.68,11.31,11.31,0,0,1-5.72-8.55c-.94-6,1.67-13.5,6.48-18.55a21,21,0,0,1,15.06-6.65,17.31,17.31,0,0,1,12.05,4.71c4.57,4.35,3.82,13.06,3.29,16.6-.87,5.75-2.8,10-3.8,10.47A56.59,56.59,0,0,1,110.09,128.82Z"/><path class="cls-10" d="M117.38,93.89h0a16.88,16.88,0,0,1,11.71,4.57c4.39,4.19,3.65,12.7,3.13,16.16-.88,5.84-2.79,9.74-3.52,10.1a56,56,0,0,1-18.61,3.6,17.59,17.59,0,0,1-8.29-1.62,10.89,10.89,0,0,1-5.47-8.19c-.91-5.9,1.64-13.19,6.35-18.13a20.54,20.54,0,0,1,14.7-6.49m0-1A21.49,21.49,0,0,0,102,99.69c-7.86,8.24-10,22.76-.64,27.88a18.67,18.67,0,0,0,8.77,1.75c8,0,17-2.7,19-3.7,2.84-1.42,8.14-20.72.64-27.88a17.8,17.8,0,0,0-12.4-4.85Z"/><path class="cls-10" d="M116.7,115.82c-6.44,0-12.66-6.36-14.78-15.13-1.75-7.22,2.38-15,5.09-18.44,1.59-2,2.61-2.55,2.92-2.55,2.38.65,13.95,7.24,17.29,15a16.49,16.49,0,0,1-.31,13.94,12.86,12.86,0,0,1-8,7A9.59,9.59,0,0,1,116.7,115.82Z"/><path class="cls-10" d="M109.91,80.21c1.91.62,13.47,6.83,16.85,14.64a16,16,0,0,1-.3,13.51,12.33,12.33,0,0,1-7.68,6.71,9.1,9.1,0,0,1-2.08.25c-6.22,0-12.23-6.2-14.3-14.74-1.4-5.8,1.17-12.42,4-16.68,1.71-2.54,3-3.57,3.47-3.69m0-1c-2.41,0-10.9,11.69-8.5,21.61,2.2,9.09,8.73,15.51,15.27,15.51A9.54,9.54,0,0,0,119,116c7.25-1.75,12.86-11.91,8.67-21.58-3.51-8.12-15.43-14.64-17.58-15.24l-.17,0Z"/><path class="cls-10" d="M120.6,108.09a9.49,9.49,0,0,1-3-.48c-6.31-2.12-9-11.11-6-20C114.31,79.44,124.7,75,127.65,75c.48,0,.6.11.6.11,1.52,1.67,7.36,12.57,6.17,20.27C133.19,103.33,126.43,108.09,120.6,108.09Z"/><path class="cls-10" d="M127.65,75.47h0a.89.89,0,0,1,.29,0c1.23,1.49,7.19,12,6,19.77s-7.71,12.32-13.33,12.32a9,9,0,0,1-2.88-.45c-6-2-8.59-10.74-5.67-19.41,2.61-7.78,12.83-12.26,15.6-12.26m0-1c-3.42,0-13.83,4.84-16.55,12.94-3.1,9.21-.28,18.46,6.3,20.68a10,10,0,0,0,3.2.5c6.1,0,13.06-5,14.32-13.17s-4.9-19.14-6.3-20.67a1.31,1.31,0,0,0-1-.28Z"/><ellipse class="cls-13" cx="144.66" cy="139.22" rx="3.67" ry="2.82" transform="translate(-3.91 274.26) rotate(-86.17)"/><ellipse class="cls-14" cx="144.38" cy="139.17" rx="2.04" ry="1.65" transform="translate(-4.13 273.94) rotate(-86.17)"/><ellipse class="cls-15" cx="143.27" cy="139.49" rx="0.56" ry="0.52" transform="matrix(0.07, -1, 1, 0.07, -5.48, 273.12)"/><path class="cls-4" d="M144.83,135.84l-2.33-.16a2.39,2.39,0,0,1,2.29-1.73H145a2.36,2.36,0,0,1,1.63.81,2.39,2.39,0,0,1,.57,1.24Z"/><path class="cls-4" d="M144.79,134.45h.13a1.89,1.89,0,0,1,1.29.64,1.74,1.74,0,0,1,.24.36l-1.59-.12-1.59-.11a1.88,1.88,0,0,1,1.52-.78m0-1a2.9,2.9,0,0,0-2.88,2.7l2.88.19,2.88.21v0a2.9,2.9,0,0,0-2.69-3.07Z"/><path class="cls-16" d="M136.77,162.94s7.78-.74,8.3,1.41"/></symbol><symbol id="henrik03" data-name="henrik03" viewBox="0 0 219.4 507.79"><path class="cls-5" d="M142.39,289.21s-.21-.09-.42-.46a39.92,39.92,0,0,1-2.08-4.29,2.15,2.15,0,0,1,.17-2.19c.19-.25.33-.32.37-.32s.19.08.4.45a46.35,46.35,0,0,1,2.07,4.3,2.14,2.14,0,0,1-.15,2.19C142.57,289.14,142.43,289.21,142.39,289.21Z"/><path class="cls-5" d="M140.4,282.66a44.87,44.87,0,0,1,2,4.23,1.75,1.75,0,0,1,0,1.62h0a38.81,38.81,0,0,1-2.05-4.23,1.73,1.73,0,0,1,.05-1.61m0-1.21a1,1,0,0,0-.77.52,2.68,2.68,0,0,0-.23,2.69,40.41,40.41,0,0,0,2.1,4.34c.27.46.56.71.85.71s.51-.17.77-.53a2.62,2.62,0,0,0,.21-2.68c-.57-1.37-1.39-3.07-2.09-4.34-.26-.47-.54-.71-.84-.71Zm-.79.43s0,0,0,.09a.07.07,0,0,0,0-.09Zm3.51,7.3a.08.08,0,0,0,0,.09s0,0,0-.09Z"/><path class="cls-5" d="M142.39,289.21s-.21-.09-.42-.46a39.92,39.92,0,0,1-2.08-4.29,2.15,2.15,0,0,1,.17-2.19c.19-.25.33-.32.37-.32s.19.08.4.45a46.35,46.35,0,0,1,2.07,4.3,2.14,2.14,0,0,1-.15,2.19C142.57,289.14,142.43,289.21,142.39,289.21Z"/><path class="cls-5" d="M140.4,282.66a44.87,44.87,0,0,1,2,4.23,1.75,1.75,0,0,1,0,1.62h0a38.81,38.81,0,0,1-2.05-4.23,1.73,1.73,0,0,1,.05-1.61m0-1.21a1,1,0,0,0-.77.52,2.68,2.68,0,0,0-.23,2.69,40.41,40.41,0,0,0,2.1,4.34c.27.46.56.71.85.71s.51-.17.77-.53a2.62,2.62,0,0,0,.21-2.68c-.57-1.37-1.39-3.07-2.09-4.34-.26-.47-.54-.71-.84-.71Zm-.79.43s0,0,0,.09a.07.07,0,0,0,0-.09Zm3.51,7.3a.08.08,0,0,0,0,.09s0,0,0-.09Z"/><path class="cls-1" d="M108.77,310.25a1.74,1.74,0,0,1-1.07-.47c-13-10.67-13.3-22.85-12.27-37.66.06-.84.43-2.72.67-4l0-.19c11.14,1.13,22.52,2.56,33.85,4.24-.1.53-.21,1.18-.32,1.81-.13.8-.26,1.54-.36,2-3.65,15.14-7,25.67-19.52,33.87A1.87,1.87,0,0,1,108.77,310.25Z"/><path class="cls-1" d="M96.54,268.52c10.82,1.1,21.86,2.48,32.87,4.11-.08.41-.16.87-.23,1.32-.13.74-.26,1.51-.36,1.93-3.62,15-6.92,25.47-19.3,33.57a1.49,1.49,0,0,1-.75.3c-.07,0-.31,0-.75-.36-12.87-10.51-13.11-22.57-12.09-37.24.06-.75.37-2.41.61-3.63m-.8-1.09c-.24,1.2-.73,3.63-.8,4.65-1.12,16-.37,27.62,12.45,38.08a2.18,2.18,0,0,0,1.38.59,2.39,2.39,0,0,0,1.3-.46c12.89-8.44,16.21-19.59,19.72-34.17.23-.94.54-3.21.8-4.33q-17.37-2.58-34.85-4.36Z"/><path class="cls-4" d="M138.69,288.31c-1.87-.18-2.27-.63-2.64-2.84a32,32,0,0,1-.45-4.87,9.29,9.29,0,0,1,2.35-6.16v0c1.82.18,2.17.59,2.48,2.78a38.07,38.07,0,0,1,.36,4.84,9.75,9.75,0,0,1-2.11,6.26Z"/><path class="cls-4" d="M138.18,275c1.29.14,1.5.43,1.76,2.32a38.58,38.58,0,0,1,.36,4.76,9.22,9.22,0,0,1-1.85,5.75c-1.31-.14-1.59-.46-1.91-2.4a32,32,0,0,1-.44-4.77,8.59,8.59,0,0,1,2.08-5.66m-.31-1a.49.49,0,0,0-.31.21,9.79,9.79,0,0,0-2.46,6.47,31.63,31.63,0,0,0,.46,5c.4,2.4.94,3.08,3.22,3.27h0c.12,0,.23-.12.3-.22A10.26,10.26,0,0,0,141.3,282a38.66,38.66,0,0,0-.37-4.91c-.33-2.37-.8-3-3.05-3.22Z"/><path class="cls-4" d="M139.89,300.42c-2.69-.24-3.27-.85-3.82-4a55,55,0,0,1-.77-7.07,12.42,12.42,0,0,1,2.89-8.52,1,1,0,0,1,.23-.23c2.69.24,3.27.83,3.8,4a53.67,53.67,0,0,1,.74,7.07,13,13,0,0,1-2.87,8.55A.78.78,0,0,1,139.89,300.42Z"/><path class="cls-4" d="M138.59,281.14c2.29.22,2.66.69,3.14,3.54a52.49,52.49,0,0,1,.73,7,12.49,12.49,0,0,1-2.76,8.24c-2.24-.23-2.64-.74-3.13-3.56a52.94,52.94,0,0,1-.77-7,12,12,0,0,1,2.79-8.21h0m-.2-1a.88.88,0,0,0-.59.41,12.83,12.83,0,0,0-3,8.84,55.67,55.67,0,0,0,.78,7.15c.57,3.24,1.23,4.13,4.31,4.4h0c.22,0,.43-.21.58-.42a13.45,13.45,0,0,0,3-8.84,52.38,52.38,0,0,0-.75-7.15c-.55-3.25-1.2-4.13-4.29-4.39Z"/><path class="cls-4" d="M138.69,288.31c-1.87-.18-2.27-.63-2.64-2.84a32,32,0,0,1-.45-4.87,9.29,9.29,0,0,1,2.35-6.16v0c1.82.18,2.17.59,2.48,2.78a38.07,38.07,0,0,1,.36,4.84,9.75,9.75,0,0,1-2.11,6.26Z"/><path class="cls-4" d="M138.18,275c1.29.14,1.5.43,1.76,2.32a38.58,38.58,0,0,1,.36,4.76,9.22,9.22,0,0,1-1.85,5.75c-1.31-.14-1.59-.46-1.91-2.4a32,32,0,0,1-.44-4.77,8.59,8.59,0,0,1,2.08-5.66m-.31-1a.49.49,0,0,0-.31.21,9.79,9.79,0,0,0-2.46,6.47,31.63,31.63,0,0,0,.46,5c.4,2.4.94,3.08,3.22,3.27h0c.12,0,.23-.12.3-.22A10.26,10.26,0,0,0,141.3,282a38.66,38.66,0,0,0-.37-4.91c-.33-2.37-.8-3-3.05-3.22Z"/><path class="cls-4" d="M139.89,300.42c-2.69-.24-3.27-.85-3.82-4a55,55,0,0,1-.77-7.07,12.42,12.42,0,0,1,2.89-8.52,1,1,0,0,1,.23-.23c2.69.24,3.27.83,3.8,4a53.67,53.67,0,0,1,.74,7.07,13,13,0,0,1-2.87,8.55A.78.78,0,0,1,139.89,300.42Z"/><path class="cls-4" d="M138.59,281.14c2.29.22,2.66.69,3.14,3.54a52.49,52.49,0,0,1,.73,7,12.49,12.49,0,0,1-2.76,8.24c-2.24-.23-2.64-.74-3.13-3.56a52.94,52.94,0,0,1-.77-7,12,12,0,0,1,2.79-8.21h0m-.2-1a.88.88,0,0,0-.59.41,12.83,12.83,0,0,0-3,8.84,55.67,55.67,0,0,0,.78,7.15c.57,3.24,1.23,4.13,4.31,4.4h0c.22,0,.43-.21.58-.42a13.45,13.45,0,0,0,3-8.84,52.38,52.38,0,0,0-.75-7.15c-.55-3.25-1.2-4.13-4.29-4.39Z"/><path class="cls-3" d="M137,249.6l-.84-.31c-1.3-.47-1.47-.53-1.39-2.78.08-2.57.18-5.22.27-7.92.27-7.45.54-15.15.69-22.25a9.62,9.62,0,0,1,1.86-5.54l.6-1,.85.3c1.32.45,1.52.52,1.57,2.79.19,9.06-.07,19.78-.74,30.21a9.55,9.55,0,0,1-2.19,5.51C137.42,248.91,137.19,249.24,137,249.6Z"/><path class="cls-3" d="M138.37,210.4l.47.16c1.19.41,1.19.41,1.23,2.33.19,9.05-.07,19.76-.74,30.17a9,9,0,0,1-2.11,5.25l-.46.68-.47-.17c-1.13-.41-1.13-.41-1.06-2.3.08-2.55.18-5.2.27-7.88.27-7.46.54-15.17.69-22.28a9.24,9.24,0,0,1,1.79-5.31c.13-.21.26-.42.39-.65m-.38-1.21c-.05,0-.12.08-.16.14-1.43,2.53-2.57,3.77-2.64,7-.21,9.68-.64,20.55-1,30.16-.11,3.21.52,2.7,2.84,3.7h0c.06,0,.13-.08.17-.14,1.6-2.45,2.86-3.69,3.07-6.93.63-9.72.95-20.6.74-30.25-.07-3.23-.71-2.71-3.06-3.68Z"/><path class="cls-3" d="M137.81,280.17l-.86-.3c-1.35-.46-1.56-.53-1.69-2.82-.61-10.58-.78-21.3-.5-30.18.08-2.45.93-3.65,2.11-5.31.27-.36.54-.75.82-1.17l.8.31c1.3.49,1.41.53,1.37,2.81-.14,8.94-.06,19.64.21,30.15a8.81,8.81,0,0,1-1.69,5.52Z"/><path class="cls-3" d="M137.88,241l.43.17c1.08.41,1.08.41,1.05,2.33-.14,8.94-.06,19.66.21,30.17a8.33,8.33,0,0,1-1.62,5.25l-.37.64-.46-.16c-1.23-.42-1.25-.43-1.36-2.37-.61-10.58-.78-21.28-.5-30.14.07-2.3.85-3.39,2-5l.6-.85m-.32-1.21c-.06,0-.13.09-.17.15-1.6,2.44-3,3.67-3.13,6.92-.31,9.74,0,20.58.5,30.22.18,3.22.81,2.71,3.18,3.69h0c.05,0,.12-.08.15-.14,1.41-2.53,2.53-3.75,2.45-7-.25-9.67-.36-20.54-.21-30.13,0-3.2-.45-2.69-2.78-3.72,0,0,0,0,0,0Z"/><path class="cls-3" d="M137,249.6l-.84-.31c-1.3-.47-1.47-.53-1.39-2.78.08-2.57.18-5.22.27-7.92.27-7.45.54-15.15.69-22.25a9.62,9.62,0,0,1,1.86-5.54l.6-1,.85.3c1.32.45,1.52.52,1.57,2.79.19,9.06-.07,19.78-.74,30.21a9.55,9.55,0,0,1-2.19,5.51C137.42,248.91,137.19,249.24,137,249.6Z"/><path class="cls-3" d="M138.37,210.4l.47.16c1.19.41,1.19.41,1.23,2.33.19,9.05-.07,19.76-.74,30.17a9,9,0,0,1-2.11,5.25l-.46.68-.47-.17c-1.13-.41-1.13-.41-1.06-2.3.08-2.55.18-5.2.27-7.88.27-7.46.54-15.17.69-22.28a9.24,9.24,0,0,1,1.79-5.31c.13-.21.26-.42.39-.65m-.38-1.21c-.05,0-.12.08-.16.14-1.43,2.53-2.57,3.77-2.64,7-.21,9.68-.64,20.55-1,30.16-.11,3.21.52,2.7,2.84,3.7h0c.06,0,.13-.08.17-.14,1.6-2.45,2.86-3.69,3.07-6.93.63-9.72.95-20.6.74-30.25-.07-3.23-.71-2.71-3.06-3.68Z"/><path class="cls-3" d="M137.81,280.17l-.86-.3c-1.35-.46-1.56-.53-1.69-2.82-.61-10.58-.78-21.3-.5-30.18.08-2.45.93-3.65,2.11-5.31.27-.36.54-.75.82-1.17l.8.31c1.3.49,1.41.53,1.37,2.81-.14,8.94-.06,19.64.21,30.15a8.81,8.81,0,0,1-1.69,5.52Z"/><path class="cls-3" d="M137.88,241l.43.17c1.08.41,1.08.41,1.05,2.33-.14,8.94-.06,19.66.21,30.17a8.33,8.33,0,0,1-1.62,5.25l-.37.64-.46-.16c-1.23-.42-1.25-.43-1.36-2.37-.61-10.58-.78-21.28-.5-30.14.07-2.3.85-3.39,2-5l.6-.85m-.32-1.21c-.06,0-.13.09-.17.15-1.6,2.44-3,3.67-3.13,6.92-.31,9.74,0,20.58.5,30.22.18,3.22.81,2.71,3.18,3.69h0c.05,0,.12-.08.15-.14,1.41-2.53,2.53-3.75,2.45-7-.25-9.67-.36-20.54-.21-30.13,0-3.2-.45-2.69-2.78-3.72,0,0,0,0,0,0Z"/><path class="cls-6" d="M130.34,271.54a238.93,238.93,0,0,1-33.82-4.36c1.9-10.91,7.35-30.28,8.43-34.1,6.14-21.57,10-33.44,25.31-46.66.32-.27.72-.59,1-.59s.56.3,1,.93c13.73,19.58,12,26.63,6.19,50L137,242.28C134.85,251,131.86,263,130.34,271.54Z"/><path class="cls-6" d="M131.21,186.34a2.76,2.76,0,0,1,.61.71c13.6,19.39,11.86,26.39,6.12,49.59l-.21.84c-.36,1.43-.75,3-1.18,4.69-2.15,8.6-5.08,20.28-6.62,28.84a237.9,237.9,0,0,1-32.83-4.22c2-11,7.26-29.81,8.33-33.57,6.11-21.48,10-33.3,25.16-46.42a3.25,3.25,0,0,1,.62-.46m0-1a2.25,2.25,0,0,0-1.31.72c-15.59,13.5-19.51,26-25.46,46.9-2.25,7.9-6.91,25-8.52,34.62a237.28,237.28,0,0,0,34.81,4.5c1.77-10.21,5.69-25.28,7.94-34.35,5.94-24,8-31.25-6.06-51.24-.56-.8-1-1.15-1.4-1.15Z"/><path class="cls-5" d="M93.68,303.1c-.19,0-.32-.38-.37-.74a28.11,28.11,0,0,1-.37-5.22,2.9,2.9,0,0,1,1.11-2.4,1,1,0,0,1,.46-.19c.13,0,.26.3.33.77a35.93,35.93,0,0,1,.32,5.23,2.74,2.74,0,0,1-1,2.36A.89.89,0,0,1,93.68,303.1Z"/><path class="cls-5" d="M94.3,295.17a1.09,1.09,0,0,1,0,.22,34.83,34.83,0,0,1,.32,5.15c0,1.43-.6,1.82-.79,1.95l0,0a1.14,1.14,0,0,1,0-.23,27.91,27.91,0,0,1-.36-5.12,2.45,2.45,0,0,1,.86-2m.21-1.12a1.46,1.46,0,0,0-.73.27,3.32,3.32,0,0,0-1.34,2.8,30.24,30.24,0,0,0,.37,5.32c.12.74.41,1.16.87,1.16a1.43,1.43,0,0,0,.75-.28,3.2,3.2,0,0,0,1.23-2.76,35.81,35.81,0,0,0-.33-5.31c-.1-.75-.36-1.2-.82-1.2Zm-.72.09s0,.05,0,.18c0,0,0-.18,0-.18Zm.64,9.18c-.13.09-.09.17-.05.17s.07,0,.05-.17Z"/><path class="cls-3" d="M104.09,256.18a9.34,9.34,0,0,0-.48-1.55c-.38-1-.54-1.38.68-3.37,5.86-9.64,12.06-20.9,17.91-31.62a12.19,12.19,0,0,1,3.84-4.16,23.78,23.78,0,0,0,2.13-1.76,9.59,9.59,0,0,0,.73,1.5c.54.92.78,1.35-.28,3.47-5.94,11.89-12.3,23.38-17.91,32.35a9.84,9.84,0,0,1-4.3,3.74A25.56,25.56,0,0,0,104.09,256.18Z"/><path class="cls-3" d="M128,214.56c.17.37.34.66.48.91.49.85.64,1.11-.3,3-5.92,11.88-12.28,23.35-17.88,32.32a9.37,9.37,0,0,1-4.12,3.56c-.55.3-1.14.63-1.77,1-.11-.36-.23-.66-.32-.92-.34-.86-.45-1.15.63-2.93,5.88-9.65,12.08-20.92,17.93-31.64a11.66,11.66,0,0,1,3.71-4c.53-.41,1.07-.82,1.64-1.32m.41-1.64a.35.35,0,0,0-.22.1c-2.42,2.42-4.57,3-6.42,6.38-5.53,10.14-11.94,21.81-17.9,31.6-2,3.26-.55,2.92-.15,5.91a.09.09,0,0,0,.08,0,.37.37,0,0,0,.2-.07c2.76-2.1,5.06-2.23,7.15-5.57,6.26-10,12.7-21.93,17.93-32.4,1.74-3.49.2-3-.62-6a0,0,0,0,0,0,0Z"/><path class="cls-3" d="M91.42,290.89a10.76,10.76,0,0,0-.83-1.41c-.68-1-1-1.54-.3-3.81,2.74-8.74,7.3-21.54,13.41-32.89a10.81,10.81,0,0,1,4.43-4.17A25.83,25.83,0,0,0,110.5,247c.07.42.14.79.21,1.13.32,1.56.46,2.27-.7,4.59a340.28,340.28,0,0,0-13.59,31.45A13.47,13.47,0,0,1,93,289.24C92.45,289.76,91.94,290.28,91.42,290.89Z"/><path class="cls-3" d="M110.15,247.9c0,.12,0,.24.07.35.31,1.53.43,2.1-.65,4.27A340.22,340.22,0,0,0,96,284a13.06,13.06,0,0,1-3.37,4.88c-.34.36-.7.72-1.06,1.12-.18-.31-.35-.58-.51-.82-.65-1-.89-1.34-.25-3.38C93.5,277.1,98,264.33,104.14,253a10.24,10.24,0,0,1,4.26-4c.57-.35,1.16-.71,1.75-1.13m.68-1.7a.51.51,0,0,0-.24.1c-2.67,2.25-5.5,2.85-7.33,6.24a194.13,194.13,0,0,0-13.45,33c-1.14,3.62.28,3.36,1.42,6.17,0,0,0,0,0,0a.46.46,0,0,0,.23-.14c2.13-2.57,4.11-3.76,5.39-7.2A338.61,338.61,0,0,1,110.46,253c1.62-3.25.82-3.67.42-6.72,0,0,0,0,0,0Z"/><path class="cls-4" d="M88.91,300.17c-1.49-1.48-1.93-2.16-1.55-4.46a23.81,23.81,0,0,1,1.52-5.1,18.83,18.83,0,0,1,5-6.19c1.36,1.52,1.76,2.3,1.33,4.6a24.67,24.67,0,0,1-1.52,5A19,19,0,0,1,88.91,300.17Z"/><path class="cls-4" d="M93.83,285.13c1.06,1.24,1.23,1.92.88,3.8a24.5,24.5,0,0,1-1.48,4.92,18.05,18.05,0,0,1-4.31,5.63c-1.14-1.19-1.38-1.78-1.06-3.68a22.43,22.43,0,0,1,1.47-5,17.61,17.61,0,0,1,4.5-5.7m.11-1.31a.6.6,0,0,0-.31.15,19.47,19.47,0,0,0-5.2,6.43,23.4,23.4,0,0,0-1.56,5.23c-.44,2.64.19,3.42,1.9,5.11a.11.11,0,0,0,.08,0,.54.54,0,0,0,.32-.16,19.67,19.67,0,0,0,5-6.34,25.51,25.51,0,0,0,1.55-5.16c.48-2.59,0-3.47-1.66-5.26a.12.12,0,0,0-.09,0Z"/><path class="cls-4" d="M85.45,313.5c-2.2-2-2.94-2.92-2.48-6.19a32.28,32.28,0,0,1,1.93-7.16,24.48,24.48,0,0,1,6.58-8.44.81.81,0,0,1,.2-.14c2.13,2.14,2.76,3.15,2.23,6.44A35.7,35.7,0,0,1,92,305.23c-1.4,3.26-3.38,5.46-6.33,8.14A.72.72,0,0,1,85.45,313.5Z"/><path class="cls-4" d="M91.64,292.24c1.83,1.89,2.24,2.85,1.78,5.69a35,35,0,0,1-1.91,7.1c-1.34,3.12-3.23,5.25-6,7.82-1.9-1.76-2.42-2.58-2-5.47a31.67,31.67,0,0,1,1.9-7,23.55,23.55,0,0,1,6.28-8.11m.11-1.19a1.12,1.12,0,0,0-.61.29,25,25,0,0,0-6.7,8.61,33,33,0,0,0-2,7.29c-.49,3.52.36,4.55,2.74,6.72a.28.28,0,0,0,.18.06,1,1,0,0,0,.59-.28c2.72-2.48,4.94-4.8,6.45-8.31a37,37,0,0,0,2-7.34c.56-3.51-.17-4.67-2.48-7a.28.28,0,0,0-.18-.06Z"/><path class="cls-7" d="M131.23,194.17a4.44,4.44,0,0,1-.63,0,4,4,0,0,1-2.81-1.34,5.12,5.12,0,0,1-.82-3.86,115.78,115.78,0,0,1,2.39-13.77c.73-2.87,2.11-4.21,4.34-4.21a6.34,6.34,0,0,1,.74,0c2.66.32,3.79,2,3.54,5.18a84.16,84.16,0,0,1-2.3,13.78C134.93,192.83,133.51,194.17,131.23,194.17Z"/><path class="cls-7" d="M133.7,171.45a5.38,5.38,0,0,1,.68,0c1.59.19,3.39.89,3.1,4.64a84.13,84.13,0,0,1-2.28,13.69c-.89,3.41-2.59,3.85-4,3.85l-.59,0a3.49,3.49,0,0,1-2.46-1.16,4.67,4.67,0,0,1-.71-3.5,114.29,114.29,0,0,1,2.38-13.7c.87-3.44,2.61-3.83,3.85-3.83m.84-1.29s0,.11,0,.34c0-.23,0-.34,0-.34Zm-.84.29c-2.66,0-4.11,1.77-4.82,4.59a115.59,115.59,0,0,0-2.41,13.83c-.36,3.17.94,5.46,4.08,5.76a5.27,5.27,0,0,0,.68,0c2.7,0,4.19-1.74,4.94-4.59a85.62,85.62,0,0,0,2.31-13.87c.24-3.18-.82-5.34-4-5.71a5.63,5.63,0,0,0-.8-.05Zm-3.23,24.18c-.37,0-.25.31-.11.31s.16-.08.19-.31Z"/><path class="cls-1" d="M100.73,470.54,83,466.3c1.71-15.25,3.73-30.73,5.68-45.7C94.19,378,99.93,334,99.21,290.22c5.48-.68,11-1.32,16.31-1.91-.15,37.85-4.26,76.06-8.24,113C104.84,424,102.31,447.41,100.73,470.54Z"/><path class="cls-1" d="M115,288.87c-.19,37.64-4.28,75.64-8.24,112.39-2.42,22.48-4.92,45.71-6.51,68.65l-16.78-4c1.7-15.11,3.7-30.43,5.64-45.26,5.54-42.44,11.26-86.31,10.58-130,5.13-.63,10.27-1.24,15.31-1.79m1-1.12q-8.69.94-17.33,2c1,59.46-9.72,118-16.3,176.91l18.79,4.47C105.34,410,115.85,349.22,116,287.75Z"/><path class="cls-2" d="M110.14,474.24c-.24,0-.54,0-.93,0a80.42,80.42,0,0,1-12.64-2.31c-2.47-.65-5.4-1.18-8.24-1.7-1.72-.31-3.5-.63-5.14-1,3.68-3.12,6.88-5.81,11.58-5.81a14.62,14.62,0,0,1,2.5.23c6.27,1.1,10.18,5.55,14.22,10.37a3.19,3.19,0,0,0-.49.12,2.26,2.26,0,0,1-.86.12Z"/><path class="cls-2" d="M94.77,463.9a14.59,14.59,0,0,1,2.41.22c5.84,1,9.62,5.08,13.41,9.59a2.34,2.34,0,0,1-.45,0c-.23,0-.54,0-.89,0a79.66,79.66,0,0,1-12.56-2.3c-2.48-.65-5.42-1.18-8.27-1.7l-4.12-.77c3.4-2.86,6.27-5,10.47-5m0-1c-5.21,0-8.55,3.1-12.68,6.58,4.51,1,10.09,1.77,14.35,2.89a80,80,0,0,0,12.73,2.33c.41,0,.72,0,1,0,1.19,0,.84-.31,2.36-.32-4.3-5.14-8.37-10.1-15.15-11.28a14.93,14.93,0,0,0-2.58-.24Z"/><path class="cls-1" d="M111.6,475.8c-10.23-1.59-20.44-3.23-29.27-4.64l.09-1.41c11.73,1.92,20.8,3.37,29.28,4.69Z"/><path class="cls-1" d="M82.88,470.33c11.24,1.84,20.05,3.25,28.28,4.54l0,.35c-9.86-1.53-19.7-3.11-28.28-4.49,0-.13,0-.26,0-.4M82,469.17c0,.8-.11,1.6-.16,2.41q15.12,2.43,30.26,4.79c0-.78.11-1.56.17-2.35Q97.08,471.67,82,469.17Z"/><path class="cls-1" d="M54.1,446.4c-1-4.56-1.94-9.5-3.06-15.45,71.21-37.54,69.59-53.69,64.24-107-1.11-11.09-2.37-23.65-3.18-38.37,4.65-1.24,9.6-2.48,15.48-3.86.54,15.38,1.47,28.69,2.29,40.46C134.3,385.52,135.5,402.65,54.1,446.4Z"/><path class="cls-1" d="M127.1,282.34c.55,15.13,1.46,28.25,2.27,39.86,2.26,32.34,3.63,51.86-5.67,69.37-9.07,17.09-27.89,31.8-69.25,54.07-.9-4.27-1.82-8.91-2.85-14.42,35.78-18.89,52.8-32.27,60.64-47.62,8-15.62,6.2-33.16,3.54-59.71-1.1-11-2.35-23.4-3.15-37.95,4.37-1.16,9-2.32,14.47-3.6m1-1.26c-5.52,1.3-11,2.64-16.48,4.11,4.63,85.95,25.11,100.11-61.1,145.49,1,5.5,2.1,11,3.27,16.47,97.61-52.35,77.74-66.58,74.31-166.07Z"/><path class="cls-2" d="M56.06,456.87c-.12-.17-.24-.32-.35-.46a6.73,6.73,0,0,1-1.15-2.05,79.3,79.3,0,0,1-3.16-10.53c-.28-1.29-.61-2.67-.94-4.09-.55-2.35-1.11-4.76-1.58-7,.52.3,1,.58,1.55.86,3.43,1.88,6.4,3.51,7.58,7.85s-.11,9-1.38,13.42Z"/><path class="cls-2" d="M49.6,433.7l.59.33c3.47,1.9,6.21,3.41,7.33,7.54,1.17,4.29-.12,8.8-1.37,13.15l-.3,1a6.23,6.23,0,0,1-.82-1.59,79.3,79.3,0,0,1-3.14-10.46c-.28-1.28-.61-2.67-.94-4.09-.46-2-.94-4-1.35-5.93m-1.43-2c.77,3.91,1.92,8.49,2.75,12.21a79.66,79.66,0,0,0,3.18,10.6c.78,2,1.28,2,2.15,3.58,1.42-5.55,3.76-11.2,2.24-16.81s-5.89-6.89-10.32-9.58Z"/><path class="cls-1" d="M54.59,457.88c-2.9-8.84-5.44-17.05-7.74-25.08l1.11-.56c2.32,8.08,4.93,16.53,7.74,25.13Z"/><path class="cls-1" d="M47.65,433c2.24,7.77,4.74,15.88,7.44,24.14l-.2.09c-2.78-8.49-5.22-16.4-7.45-24.13l.21-.1m.62-1.44-2,1q3.77,13.09,8,26l2-.93q-4.26-13-8-26.12Z"/><path class="cls-1" d="M54.1,446.4c-1-4.56-1.94-9.5-3.06-15.45,71.21-37.54,69.59-53.69,64.24-107-1.11-11.09-2.37-23.65-3.18-38.37,4.65-1.24,9.6-2.48,15.48-3.86.54,15.38,1.47,28.69,2.29,40.46C134.3,385.52,135.5,402.65,54.1,446.4Z"/><path class="cls-1" d="M127.1,282.34c.55,15.13,1.46,28.25,2.27,39.86,2.26,32.34,3.63,51.86-5.67,69.37-9.07,17.09-27.89,31.8-69.25,54.07-.9-4.27-1.82-8.91-2.85-14.42,35.78-18.89,52.8-32.27,60.64-47.62,8-15.62,6.2-33.16,3.54-59.71-1.1-11-2.35-23.4-3.15-37.95,4.37-1.16,9-2.32,14.47-3.6m1-1.26c-5.52,1.3-11,2.64-16.48,4.11,4.63,85.95,25.11,100.11-61.1,145.49,1,5.5,2.1,11,3.27,16.47,97.61-52.35,77.74-66.58,74.31-166.07Z"/><path class="cls-2" d="M56.06,456.87c-.12-.17-.24-.32-.35-.46a6.73,6.73,0,0,1-1.15-2.05,79.3,79.3,0,0,1-3.16-10.53c-.28-1.29-.61-2.67-.94-4.09-.55-2.35-1.11-4.76-1.58-7,.52.3,1,.58,1.55.86,3.43,1.88,6.4,3.51,7.58,7.85s-.11,9-1.38,13.42Z"/><path class="cls-2" d="M49.6,433.7l.59.33c3.47,1.9,6.21,3.41,7.33,7.54,1.17,4.29-.12,8.8-1.37,13.15l-.3,1a6.23,6.23,0,0,1-.82-1.59,79.3,79.3,0,0,1-3.14-10.46c-.28-1.28-.61-2.67-.94-4.09-.46-2-.94-4-1.35-5.93m-1.43-2c.77,3.91,1.92,8.49,2.75,12.21a79.66,79.66,0,0,0,3.18,10.6c.78,2,1.28,2,2.15,3.58,1.42-5.55,3.76-11.2,2.24-16.81s-5.89-6.89-10.32-9.58Z"/><path class="cls-1" d="M54.59,457.88c-2.9-8.84-5.44-17.05-7.74-25.08l1.11-.56c2.32,8.08,4.93,16.53,7.74,25.13Z"/><path class="cls-1" d="M47.65,433c2.24,7.77,4.74,15.88,7.44,24.14l-.2.09c-2.78-8.49-5.22-16.4-7.45-24.13l.21-.1m.62-1.44-2,1q3.77,13.09,8,26l2-.93q-4.26-13-8-26.12Z"/><path class="cls-8" d="M199.94,507.79,0,504.74C2.4,335.91,9.35,168.4,19.48,0q100,6.29,199.92,12.73C210.73,178.46,202.31,341.05,199.94,507.79Z"/><path class="cls-9" d="M159.29,152.15s4.29,1.53,1.88,3.51-2.21-.21-2.21-.21"/><path class="cls-4" d="M134.09,181.83c-.92,0-1.86-.05-2.81-.14-14.06-1.38-23.15-19.56-23-21.9,1-17.16,4.78-49.6,4.92-50.31l-.48.39-.5-.49,1,0c1-9.78,11.13-17.15,23.68-17.15,1,0,2.1,0,3.14.15a28.81,28.81,0,0,1,17.11,7.46c4.32,4.13,6.42,9.25,5.92,14.42l-4.93,50.32C155.21,172.57,147.18,181.83,134.09,181.83Z"/><path class="cls-4" d="M136.88,91.77v1c1,0,2.06,0,3.09.15,13.47,1.32,23.6,10.89,22.58,21.33l-4.92,50.26c-2.88,7.79-10.75,16.82-23.54,16.82-.91,0-1.83-.05-2.76-.14-13.47-1.32-22.7-19.16-22.57-21.37,1-16.72,4.69-49,4.91-50.25l-.59-.12.61,0c.94-9.52,10.9-16.7,23.19-16.7v-1m0,0c-12.66,0-23.19,7.44-24.18,17.6h0c-.08,0-3.92,33.22-4.93,50.39-.17,2.77,9.43,21.05,23.47,22.42a27.79,27.79,0,0,0,2.85.15c12.5,0,21.15-8.34,24.52-17.59l4.93-50.39c1.08-11-9.43-21-23.47-22.43-1.08-.1-2.14-.15-3.19-.15Z"/><path class="cls-10" d="M119,154.48l-.35,0c-4-.39-6.62-7.24-5.84-15.27.75-7.64,4.49-13.86,8.34-13.86h.35c4,.4,6.63,7.25,5.84,15.27C126.62,148.26,122.87,154.48,119,154.48Z"/><path class="cls-10" d="M121.17,125.83h.3c3.27.32,6.22,6.31,5.4,14.72C126.14,148,122.62,154,119,154l-.3,0c-3.27-.32-6.21-6.31-5.39-14.72.72-7.4,4.24-13.41,7.84-13.41m0-1c-4.14,0-8,6.26-8.83,14.31-.82,8.32,2,15.4,6.28,15.82l.4,0c4.15,0,8-6.26,8.84-14.32.82-8.31-2-15.39-6.29-15.81a2.61,2.61,0,0,0-.4,0Z"/><path class="cls-10" d="M119.19,154.55a9.23,9.23,0,0,1-2.1-.27c-8.46-2-8.66-5.56-9.26-16.08-.09-1.5-.18-3.13-.31-4.91-.57-8.07.44-13.37,3.08-16.2,1.63-1.76,3.9-2.57,7.13-2.57a30.21,30.21,0,0,1,3.16.19c1.58.17,3.08.31,4.49.45,7.32.71,12.61,1.22,13.72,3.8s-1.5,7.43-8.6,16.39c-2.61,3.28-3.79,7.25-4.82,10.75C124.27,150.82,123.17,154.55,119.19,154.55Z"/><path class="cls-10" d="M117.73,115h0a29.34,29.34,0,0,1,3.11.19c1.57.17,3.08.31,4.5.45,7.15.69,12.31,1.19,13.29,3.5s-1.64,7.2-8.52,15.88c-2.67,3.36-3.86,7.37-4.91,10.91-1.54,5.18-2.57,8.1-6,8.1a8.37,8.37,0,0,1-2-.26c-8.09-1.93-8.27-5.1-8.87-15.62-.09-1.47-.18-3.13-.31-4.92-.55-7.81.44-13.14,2.94-15.82,1.53-1.65,3.68-2.41,6.77-2.41m0-1c-6.26,0-11.87,2.89-10.7,19.3,1,14.29-.13,19,9.94,21.44a9.47,9.47,0,0,0,2.22.29c7.46,0,5.59-11.7,11.7-19.39,16.5-20.8,8.4-19.48-9.95-21.45a31.58,31.58,0,0,0-3.21-.19Z"/><path class="cls-11" d="M133.73,153.7c-3.76-.81-6.35-6.53-5.73-12.89s4.22-11.43,8.06-11.55l-1.14,12.23Z"/><path class="cls-4" d="M135.5,129.82l-1.07,11.61-1.14,11.63c-3.22-1.17-5.36-6.41-4.79-12.21s3.62-10.46,7-11m.69-1.06c-4.17,0-8,5.27-8.69,12-.68,7,2.33,13.09,6.67,13.52l1.25-12.75,1.19-12.75-.42,0Z"/><path class="cls-7" d="M133.82,147.88a3.27,3.27,0,0,1-2-2,9.71,9.71,0,0,1-.65-4.82c.31-3.2,1.9-5.83,3.63-6.16l-.6,6.46Z"/><path class="cls-7" d="M134.24,135.66l-.53,5.67-.35,5.79a3.74,3.74,0,0,1-1.07-1.46,9.39,9.39,0,0,1-.62-4.56c.27-2.71,1.4-4.71,2.57-5.44m.93-1.3c-2.13,0-4.13,2.92-4.49,6.64s1.13,7.2,3.34,7.42h.27l.41-7,.66-7Z"/><path class="cls-12" d="M152.59,131.76s4.68,2.11,6.92-2.29"/><path class="cls-10" d="M137.68,100.9c-5.65,0-10.47-2.46-11.21-5.72-.49-2.13.75-4.55,3.49-6.82a28.12,28.12,0,0,1,11.44-5.24,20.64,20.64,0,0,1,4.59-.49c7.59,0,14,3.68,14.12,4.61-.74,1.54-7.65,9.68-15,12.34A22,22,0,0,1,137.68,100.9Z"/><path class="cls-10" d="M146,82.13v1c6.94,0,12.56,3,13.53,4.1-1.16,1.81-7.45,9.3-14.59,11.88a21.53,21.53,0,0,1-7.25,1.29c-5.42,0-10-2.29-10.73-5.33-.43-1.91.78-4.21,3.33-6.32a27.55,27.55,0,0,1,11.23-5.14,20.24,20.24,0,0,1,4.48-.48v-1m0,0a21.46,21.46,0,0,0-4.7.5c-9.55,2.19-16.41,7.85-15.31,12.66.79,3.45,5.63,6.11,11.7,6.11a22.43,22.43,0,0,0,7.59-1.35c7.74-2.79,14.61-11.18,15.31-12.66.59-1.25-6.62-5.27-14.59-5.26Z"/><path class="cls-10" d="M153.52,118.49c-1.76,0-11.91-1.82-17.45-7-3.7-3.45-5.91-8.3-5.76-12.66a7.38,7.38,0,0,1,2.3-5.6,5.55,5.55,0,0,1,3.63-1.17c4.18,0,9.52,3.23,13.61,8.24s5,12.82,4.31,16.68c-.24,1.3-.56,1.52-.56,1.52Z"/><path class="cls-10" d="M136.24,92.56h0c4,0,9.22,3.16,13.23,8,5.11,6.26,4.71,15.82,3.89,17.38-2.1-.1-11.66-1.92-17-6.87a16.73,16.73,0,0,1-5.6-12.28,6.85,6.85,0,0,1,2.11-5.22,5.14,5.14,0,0,1,3.32-1.06m0-1a6.07,6.07,0,0,0-4,1.29c-4,3.28-3.39,12.63,3.43,19,5.58,5.21,15.72,7.14,17.8,7.14h.15c1.67-.11,2.47-11.79-3.43-19-4.33-5.29-9.8-8.42-14-8.42Z"/><path class="cls-10" d="M145.74,108.19c-5.32,0-9.49-1.82-10.16-4.41-.46-1.82.9-4.1,3.73-6.26a34.27,34.27,0,0,1,12-5.44,26.78,26.78,0,0,1,6.58-.79c6.87,0,12.38,2.34,12.87,3.19-1,1.66-8.21,9.2-15.81,12A27,27,0,0,1,145.74,108.19Z"/><path class="cls-10" d="M157.92,91.79h0c6.11,0,11,1.87,12.21,2.76-1.45,1.9-8,8.76-15.33,11.46a26.35,26.35,0,0,1-9.06,1.67c-5,0-9.08-1.69-9.67-4-1-4,7.3-9,15.4-11.09a26.21,26.21,0,0,1,6.45-.77m0-1a26.8,26.8,0,0,0-6.7.81c-10,2.55-17.21,8.06-16.12,12.3.71,2.8,5,4.78,10.64,4.78a27.41,27.41,0,0,0,9.41-1.73c8.11-3,15.37-10.93,16.12-12.31.59-1.06-5.79-3.85-13.35-3.85Z"/><path class="cls-10" d="M158.29,115a19.87,19.87,0,0,1-5-.59,15.76,15.76,0,0,1-10.09-7.54,5.8,5.8,0,0,1-.53-4.68c.83-2,3.47-3.23,7.22-3.23a24.17,24.17,0,0,1,9,1.91,20.88,20.88,0,0,1,10.46,10.46,3.06,3.06,0,0,1,.37,1.6A32.67,32.67,0,0,1,158.29,115Z"/><path class="cls-10" d="M149.85,99.44h0a23.75,23.75,0,0,1,8.78,1.87c6.48,2.63,10.28,9.54,10.53,11.25a33.34,33.34,0,0,1-10.87,1.92,19.25,19.25,0,0,1-4.91-.57,15.23,15.23,0,0,1-9.77-7.29,5.31,5.31,0,0,1-.52-4.26c.74-1.83,3.27-2.92,6.76-2.92m0-1c-3.8,0-6.74,1.22-7.68,3.54-1.63,4,2.94,10.76,11,12.89a20.11,20.11,0,0,0,5.17.61,32,32,0,0,0,11.68-2.2c1.22-.73-3.28-9.78-11-12.9a25,25,0,0,0-9.16-1.94Z"/><path class="cls-10" d="M123,130.25c-3.81,0-6.8-.6-8.9-1.78a11.29,11.29,0,0,1-5.63-8.62c-.87-6,1.82-13.48,6.69-18.47A21.08,21.08,0,0,1,130,94.9a17.3,17.3,0,0,1,12.21,4.85c4.52,4.4,3.67,13.1,3.1,16.63-.93,5.74-2.91,9.94-3.92,10.43A56.87,56.87,0,0,1,123,130.25Z"/><path class="cls-10" d="M130,94.4v1a16.84,16.84,0,0,1,11.87,4.71c4.34,4.24,3.51,12.73,2.95,16.19-.95,5.83-2.9,9.7-3.64,10.06A56.38,56.38,0,0,1,123,129.75c-3.72,0-6.64-.58-8.66-1.72a10.87,10.87,0,0,1-5.37-8.25c-.85-5.91,1.78-13.16,6.55-18A20.57,20.57,0,0,1,130,95.4v-1m0,0A21.49,21.49,0,0,0,114.75,101c-8,8.15-10.23,22.64-1,27.87,2.4,1.35,5.68,1.85,9.15,1.85,7.85,0,16.72-2.53,18.69-3.49,2.86-1.38,8.38-20.63,1-27.87a17.8,17.8,0,0,0-12.56-5Z"/><path class="cls-10" d="M129.42,117.32c-6.49,0-12.68-6.43-14.72-15.29-1.65-7.18,2.51-14.88,5.24-18.29,1.63-2.06,2.69-2.61,3-2.61,2.37.68,13.87,7.4,17.12,15.15a16.47,16.47,0,0,1-.47,13.93,12.78,12.78,0,0,1-8.09,6.87A9.18,9.18,0,0,1,129.42,117.32Z"/><path class="cls-10" d="M122.93,81.64c1.9.64,13.39,7,16.68,14.83a16,16,0,0,1-.46,13.51,12.31,12.31,0,0,1-7.75,6.62,8.77,8.77,0,0,1-2,.22c-6.16,0-12.28-6.41-14.23-14.9-1.34-5.81,1.3-12.4,4.22-16.63,1.74-2.52,3.1-3.53,3.52-3.65m0-1c-2.42,0-11,11.57-8.74,21.51,2.11,9.17,8.63,15.68,15.21,15.68a9.71,9.71,0,0,0,2.2-.25c7.27-1.67,13-11.77,8.91-21.49-3.42-8.15-15.26-14.8-17.4-15.42a.57.57,0,0,0-.18,0Z"/><path class="cls-10" d="M133.42,109.64a9.6,9.6,0,0,1-3.16-.51C124,106.93,121.4,97.91,124.5,89c2.66-7.6,12.67-12.42,16.18-12.42.52,0,.64.12.64.12,1.5,1.68,7.22,12.65,6,20.33C146,104.93,139.2,109.64,133.42,109.64Z"/><path class="cls-10" d="M140.68,77.1h0a1.64,1.64,0,0,1,.33,0c1.21,1.51,7.05,12.09,5.76,19.84s-7.78,12.17-13.35,12.17a8.85,8.85,0,0,1-3-.49c-6-2.1-8.47-10.83-5.45-19.47,2.72-7.79,12.84-12.08,15.7-12.08m0-1c-3.46,0-13.84,4.72-16.65,12.75-3.2,9.17-.48,18.46,6.07,20.75a10.22,10.22,0,0,0,3.32.54c6.07,0,13-4.89,14.34-13s-4.68-19.19-6.07-20.74a1.33,1.33,0,0,0-1-.29Z"/><ellipse class="cls-13" cx="157.01" cy="141.04" rx="3.67" ry="2.82" transform="translate(4.14 286.55) rotate(-85.52)"/><ellipse class="cls-14" cx="156.73" cy="140.99" rx="2.04" ry="1.65" transform="matrix(0.08, -1, 1, 0.08, 3.93, 286.23)"/><ellipse class="cls-15" cx="155.61" cy="141.29" rx="0.56" ry="0.52" transform="translate(2.6 285.39) rotate(-85.52)"/><path class="cls-4" d="M157.21,137.66l-2.33-.18a2.41,2.41,0,0,1,2.29-1.71h.18a2.38,2.38,0,0,1,2.18,2.08Z"/><path class="cls-4" d="M157.17,136.27h.15a1.88,1.88,0,0,1,1.51,1l-1.58-.14-1.59-.12a1.87,1.87,0,0,1,1.51-.77m0-1a2.91,2.91,0,0,0-2.88,2.66l2.88.23,2.87.24v0a2.9,2.9,0,0,0-2.65-3.1Z"/><path class="cls-16" d="M148.84,164.67s7.8-.65,8.29,1.5"/></symbol></defs><title>henrik_walkcycle_v3</title><g id="Layer_2" data-name="Layer 2"><g id="Walkcycle_copy" data-name="Walkcycle copy"><use width="216.53" height="506.75" transform="translate(-4.85 6.59) rotate(-0.79)" xlink:href="#Henrik01"/><use width="200" height="500" transform="translate(208.06 9.13)" xlink:href="#Henrik02"/><use width="200" height="500" transform="translate(596.23 2.76) rotate(-0.79)" xlink:href="#Henrik04"/><use width="219.4" height="507.79" transform="translate(408.06 2.13)" xlink:href="#henrik03"/></g></g></svg>
